<svg id="Layer_1" data-name="Layer 1" xmlns="http://www.w3.org/2000/svg" viewBox="0 0 512 512"><title>calender-plane-right</title><path d="M867.49,453.23C884.87,471,906,459,906,442V170.55A20.55,20.55,0,0,0,885.45,150H800V130.45c0-10.42-7.8-19.45-18.18-20.37A20,20,0,0,0,760,130v20H669V130.45c0-10.42-7.8-19.45-18.18-20.37A20,20,0,0,0,629,130v20H539V130.45c0-10.42-7.8-19.45-18.18-20.37A20,20,0,0,0,499,130v20H474a80,80,0,0,0-80,80V580.8A41.21,41.21,0,0,0,435.2,622H826a80.09,80.09,0,0,0,79.75-86.36,11.92,11.92,0,0,0-3.48-7c-20.33-17.59-44.22,2.93-33.7,23.6,6.94,13.62-3.42,29.74-18.71,29.74H474a40,40,0,0,1-40-40V230a40,40,0,0,1,40-40h25v19.55c0,10.42,7.8,19.45,18.18,20.37A20,20,0,0,0,539,210V190h90v19.55c0,10.42,7.8,19.45,18.18,20.37A20,20,0,0,0,669,210V190h91v19.55c0,10.42,7.8,19.45,18.18,20.37A20,20,0,0,0,800,210V190h55.73A10.27,10.27,0,0,1,866,200.27V449.55A5.26,5.26,0,0,0,867.49,453.23Z" transform="translate(-394 -110)"/><path d="M641.25,501l86.49-86.49h38.55a42.09,42.09,0,0,0,17.8-4l3.73-2a14,14,0,0,0,.21-25.23l-4.14-2.17a42,42,0,0,0-17.6-3.88H727.74l-86.47-86.47A23.16,23.16,0,0,0,624.78,284h-11a4.67,4.67,0,0,0-3.92,7.18L666.17,379c-14.11.87-25.88,2-40.21,3.48L611.27,384l-21.56-32.64a4.69,4.69,0,0,0-3.9-2.1h-9.43a4.69,4.69,0,0,0-4.57,5.67l9.12,41-9.12,41a4.86,4.86,0,0,0-.11,1,4.66,4.66,0,0,0,1,2.92,4.72,4.72,0,0,0,3.65,1.75h9.43a4.65,4.65,0,0,0,3.89-2.1l21.53-32.64L626,409.3c14.31,1.44,26.07,2.61,40.18,3.48l-56.29,87.86a4.67,4.67,0,0,0,3.92,7.18h11A23.09,23.09,0,0,0,641.25,501Z" transform="translate(-394 -110)"/></svg>