<svg id="Layer_1" data-name="Layer 1" xmlns="http://www.w3.org/2000/svg" viewBox="0 0 52 72.9" width="15px" height="15px"><defs><style>.cls-1{stroke:#000;stroke-miterlimit:10;stroke-width:1.5px;}</style></defs><title>chair</title><path class="cls-1" d="M643,377c0-2.75-3.54-5-7.91-5H601.91c-4.36,0-7.91,2.23-7.91,5v2c0,2.74,3.54,5,7.91,5h33.18c4.37,0,7.91-2.23,7.91-5Zm-6,1.51c0,.83-1.1,1.51-2.46,1.51H601.46c-1.36,0-2.46-.68-2.46-1.51v-2c0-.83,1.1-1.51,2.46-1.51h33.08c1.36,0,2.46.68,2.46,1.51Z" transform="translate(-592.5 -331.5)"/><path class="cls-1" d="M635.51,337a18.37,18.37,0,0,0-11.83-4H612a17.48,17.48,0,0,0-11.25,3.79,11.24,11.24,0,0,0-4.23,9.84l2.62,24.42a2.48,2.48,0,0,0,2.8,1.84c1.42-.1,2.5-1.06,2.38-2.16l-2.61-24.43a7.71,7.71,0,0,1,2.87-6.8A11.52,11.52,0,0,1,612,337h11.6a12.14,12.14,0,0,1,7.85,2.65,8.15,8.15,0,0,1,3,7.18l-2.76,25.88c-.13,1.17,1,2.19,2.51,2.29h.21a2.55,2.55,0,0,0,2.72-1.94L640,347.35A11.83,11.83,0,0,0,635.51,337Z" transform="translate(-592.5 -331.5)"/><path class="cls-1" d="M607.48,381.76a2.74,2.74,0,0,0-3.42,1.83l-4.76,15.77a2.75,2.75,0,0,0,5.26,1.59h0l4.76-15.77A2.75,2.75,0,0,0,607.48,381.76Z" transform="translate(-592.5 -331.5)"/><path class="cls-1" d="M629,381.43a2.74,2.74,0,0,0-1.58,3.54h0l5.92,15.37a2.74,2.74,0,0,0,5.12-2L632.55,383a2.73,2.73,0,0,0-3.54-1.57Z" transform="translate(-592.5 -331.5)"/></svg>