<svg id="Layer_1" data-name="Layer 1" xmlns="http://www.w3.org/2000/svg" viewBox="0 0 15.05 12.47" width="15.5px" height="15.5px"><title>signal-edit</title><path d="M11.47,25.29h0a1.11,1.11,0,0,1,1.19,1v3a1.11,1.11,0,0,1-1.19,1h0a1.11,1.11,0,0,1-1.19-1v-3A1.11,1.11,0,0,1,11.47,25.29Z" transform="translate(-10.28 -17.84)"/><path d="M15.38,22.87h0a1.21,1.21,0,0,1,1.32,1.06v5.32a1.21,1.21,0,0,1-1.32,1.06h0a1.21,1.21,0,0,1-1.32-1.06V23.93A1.21,1.21,0,0,1,15.38,22.87Z" transform="translate(-10.28 -17.84)"/><path d="M19.6,20.27h0a1.23,1.23,0,0,1,1.32,1.11V29.2a1.23,1.23,0,0,1-1.32,1.11h0a1.23,1.23,0,0,1-1.32-1.11V21.38A1.23,1.23,0,0,1,19.6,20.27Z" transform="translate(-10.28 -17.84)"/><path d="M23.9,17.84h0a1.42,1.42,0,0,1,1.44,1.39v9.7a1.42,1.42,0,0,1-1.44,1.38h0a1.42,1.42,0,0,1-1.44-1.38v-9.7A1.42,1.42,0,0,1,23.9,17.84Z" transform="translate(-10.28 -17.84)"/></svg>