<svg id="Layer_1" data-name="Layer 1" xmlns="http://www.w3.org/2000/svg" viewBox="0 0 133.54 133.99" width="15px" height="15px"><defs><style>.cls-1{stroke:#000;stroke-miterlimit:10;stroke-width:6px;}</style></defs><title>sync-icon</title><path d="M379.1,276.47c.67,7.19,3.6,16.72,7.72,24.82,3.26,6.49,9.41,13.92,16.25,19.78,4.35,3.67,13.81,9.28,16,9.39a5.8,5.8,0,0,0,3.53-1.7c1.8-1.45,2.11-2.1,2.22-4.15.17-3.15-1.29-4.95-6.41-7.83-11.78-6.73-21.5-19.06-25.08-31.9-1.78-6.25-2.09-8.71-2-16.36.14-6.75.36-8.8,1.53-12.95,3.21-11.42,8.5-20,16.82-27.28,6.75-5.9,12.57-9,21.87-11.75,4.34-1.32,5.29-1.44,5.53-.7.14.45-1.43,3.8-3.51,7.46-4.6,8.24-4.92,10.17-2.13,12.92a5.64,5.64,0,0,0,3.78,1.92c3.32.18,5.27-2.1,12.5-14.86,7.65-13.46,8.26-15.48,5.81-18.55a5.54,5.54,0,0,0-4.26-2.28c-3.13-.5-14.1.36-18.32,1.41a71.2,71.2,0,0,0-36.64,22.5,78.37,78.37,0,0,0-13,24.16C380.06,254.39,378.6,271.34,379.1,276.47Z" transform="translate(-379 -202.31)"/><path d="M437.32,333.05c1,2.16,2.89,2.92,7.37,3.16,14.05.81,29.8-4.34,42.11-13.78a69.81,69.81,0,0,0,20.62-26.63c5.66-12.51,6.77-32.3,2.61-45.73a66.43,66.43,0,0,0-14.19-25,59.08,59.08,0,0,0-16.64-13.65c-6-3.37-7.68-3.57-10.36-1.16-1.58,1.41-2,2.22-2.1,4-.16,3,1.29,4.84,5.92,7.47a51.79,51.79,0,0,1,13.77,11.11c8.06,9,12.42,18.91,14,32.14,1.38,11.61-2.58,25.6-10.46,37.1-2.22,3.16-9.64,10.08-13.84,12.91a67.23,67.23,0,0,1-8.12,4.5c-5.33,2.32-12.7,4.26-13.33,3.56-.37-.41.95-3.28,3.59-8.13,4-7.16,4.13-7.65,3.62-9.51a6.12,6.12,0,0,0-9.36-3.44c-1,.72-4.24,5.76-8.65,13.57C436.57,328.35,435.92,330.14,437.32,333.05Z" transform="translate(-379 -202.31)"/><path class="cls-1" d="M445.2,250.45a28.24,28.24,0,0,0-3.31.62,19.41,19.41,0,0,0-6.6,3.41,25.79,25.79,0,0,0-3.13,3.23,18.66,18.66,0,0,0-3.83,11.3,19.28,19.28,0,0,0,1,5.93,18.34,18.34,0,0,0,2.8,5.28,19.48,19.48,0,0,0,5.67,5l.75.42a22.67,22.67,0,0,0,2.79,1.13,17.3,17.3,0,0,0,5.67.85,17.6,17.6,0,0,0,8.33-1.93c.41-.19.79-.39.85-.43l.7-.42a19.69,19.69,0,0,0,4.89-4.39c.37-.48,1.26-1.79,1.26-1.85s.14-.27.32-.58a16.7,16.7,0,0,0,1-2.19,17.8,17.8,0,0,0,1.15-4.61,18.63,18.63,0,0,0-1.15-9.05c-.06-.15-.24-.56-.4-.9s-.3-.65-.3-.67a6.65,6.65,0,0,0-.33-.59c-.18-.3-.33-.56-.33-.58a19.93,19.93,0,0,0-2.17-2.89c-.2-.23-.39-.44-.42-.49s-.42-.41-.87-.81a18.23,18.23,0,0,0-5.63-3.54,9,9,0,0,0-.9-.34,1.16,1.16,0,0,1-.34-.1,16.18,16.18,0,0,0-2.82-.67A37.06,37.06,0,0,0,445.2,250.45Zm3.73,1.66a16.51,16.51,0,0,1,2.57.51,1,1,0,0,0,.29.07,1.17,1.17,0,0,1,.39.1l.87.33a18.06,18.06,0,0,1,4.22,2.34A18.6,18.6,0,0,1,459,257a14.43,14.43,0,0,1,1.9,2.21,21.48,21.48,0,0,1,1.9,3.48,15.9,15.9,0,0,1,1.1,4.63,15.22,15.22,0,0,1-.18,4.68,16.52,16.52,0,0,1-.92,3.28,19.43,19.43,0,0,1-2.1,3.76,17.55,17.55,0,0,1-5.42,4.79l-.66.37a22.34,22.34,0,0,1-2.4,1A16.87,16.87,0,0,1,435,281a19.66,19.66,0,0,1-2.42-3l-.38-.66a16.83,16.83,0,0,1-1.05-2.15,21.3,21.3,0,0,1-.72-2.36,12.53,12.53,0,0,1-.38-3.83,14.2,14.2,0,0,1,.41-4.09,18.79,18.79,0,0,1,1.64-4.16c.1-.15.28-.46.41-.71a18.66,18.66,0,0,1,4.5-4.84,17.26,17.26,0,0,1,5.56-2.66,13.63,13.63,0,0,1,1.81-.37l.88-.14A30.55,30.55,0,0,1,448.93,252.11Z" transform="translate(-379 -202.31)"/></svg>