<svg id="Layer_1" data-name="Layer 1" xmlns="http://www.w3.org/2000/svg" viewBox="0 0 99.19 100.5"><defs><style>.cls-1,.cls-2{stroke:#000;stroke-miterlimit:10;}.cls-1{stroke-width:4px;}.cls-2{stroke-width:3px;}</style></defs><title>user-profile</title><g id="about"><path class="cls-1" d="M683.93,377.37c10.79,0,19.54-9.93,19.54-22.19S694.72,333,683.93,333s-19.54,9.93-19.54,22.18S673.13,377.37,683.93,377.37Zm0-38c7.71,0,14,7.09,14,15.84s-6.25,15.85-14,15.85-14-7.09-14-15.85,6.29-15.87,14-15.87Z" transform="translate(-633.51 -331)"/><path class="cls-2" d="M687.1,390h-8C654.77,390,635,406.39,635,426.62c0,1.85,1.77,3.38,4,3.38H727.2c2.23,0,4-1.53,4-3.38C731.16,406.39,711.47,390,687.1,390Zm-42.85,33c2-14.8,17-26,34.94-26H687c17.91,0,33,11.2,34.94,26Z" transform="translate(-633.51 -331)"/></g></svg>