<?xml version="1.0" encoding="utf-8"?>
<!-- Generator: Adobe Illustrator 23.0.1, SVG Export Plug-In . SVG Version: 6.00 Build 0)  -->
<svg version="1.1" id="Layer_1" xmlns="http://www.w3.org/2000/svg" xmlns:xlink="http://www.w3.org/1999/xlink" x="0px" y="0px"
	 viewBox="0 0 492 492" style="enable-background:new 0 0 492 492;" xml:space="preserve">
<style type="text/css">
	.st0{fill:#FFFFFF;}
</style>
<g>
	<g>
		<path class="st0" d="M464.3,207.4l0.8,0.2H135.9l103.5-103.7c5.1-5.1,7.8-11.9,7.8-19.1c0-7.2-2.8-14-7.8-19.1l-16.1-16.1
			c-5.1-5.1-11.8-7.9-19-7.9c-7.2,0-14,2.8-19,7.8L7.8,226.9C2.8,232,0,238.8,0,246c0,7.2,2.8,14,7.8,19.1l177.4,177.4
			c5.1,5.1,11.8,7.8,19,7.8c7.2,0,13.9-2.8,19-7.8l16.1-16.1c5.1-5.1,7.8-11.8,7.8-19c0-7.2-2.8-13.6-7.8-18.7L134.7,284.4h330
			c14.8,0,27.3-12.8,27.3-27.6V234C492,219.2,479.2,207.4,464.3,207.4z"/>
	</g>
</g>
</svg>
