<svg id="Layer_1" data-name="Layer 1" xmlns="http://www.w3.org/2000/svg" viewBox="0 0 79.67 10.84"><defs><style>.cls-1,.cls-2{fill:#fff;}.cls-2{fill-rule:evenodd;}</style></defs><title>right-icons</title><g id="Sketch"><path class="cls-1" d="M674,389.7h1.35l-3-3.1,2.78-2.9h-1.26l-2.52,2.75h0v-5.63h-1v8.88h1v-2.88h0Zm22.24,0h1V386c0-1.62-.68-2.44-2-2.44a2.18,2.18,0,0,0-2,1.14h0v-3.88h-1v8.88h1v-3.4a2,2,0,0,1,.48-1.39,1.51,1.51,0,0,1,1.18-.54c.93,0,1.4.62,1.4,1.87Zm-32.51-1.5v1.16a1.51,1.51,0,0,0,.44.2l.57.16.6.09.49,0a5.24,5.24,0,0,0,1.14-.12,2.8,2.8,0,0,0,.95-.39,1.93,1.93,0,0,0,.66-.7,2.14,2.14,0,0,0,.24-1.05,1.84,1.84,0,0,0-.18-.83,2.53,2.53,0,0,0-.48-.66,4,4,0,0,0-.71-.55c-.27-.16-.55-.32-.86-.47s-.55-.28-.77-.4a3,3,0,0,1-.57-.37,1.31,1.31,0,0,1-.36-.43,1.22,1.22,0,0,1-.12-.56,1,1,0,0,1,.16-.58,1.27,1.27,0,0,1,.41-.39,1.58,1.58,0,0,1,.57-.22,2.88,2.88,0,0,1,.65-.07,3.31,3.31,0,0,1,1.91.51v-1.1a4.08,4.08,0,0,0-1.81-.3,4.29,4.29,0,0,0-1.07.13,3.19,3.19,0,0,0-.94.41,2.32,2.32,0,0,0-.66.7,1.93,1.93,0,0,0-.25,1,1.91,1.91,0,0,0,.16.82,2.26,2.26,0,0,0,.44.62,3.2,3.2,0,0,0,.67.51c.25.15.52.3.82.45l.77.4a4.57,4.57,0,0,1,.63.4,1.76,1.76,0,0,1,.41.46,1.26,1.26,0,0,1-.3,1.56A2.29,2.29,0,0,1,666,389a3.07,3.07,0,0,1-.57-.06,3.5,3.5,0,0,1-.62-.15,3.69,3.69,0,0,1-.58-.23A2.23,2.23,0,0,1,663.71,388.2Zm20.76,1.63a1.8,1.8,0,0,0,.9-.19v-.82a1,1,0,0,1-.63.2.81.81,0,0,1-.68-.26,1.45,1.45,0,0,1-.2-.86v-3.38h1.51v-.82h-1.51v-1.77l-1,.31v1.46h-1v.82h1v3.55C682.9,389.24,683.42,389.83,684.47,389.83Zm-3.34-2.89H676.9a2.19,2.19,0,0,0,.54,1.55,1.85,1.85,0,0,0,1.42.54,3,3,0,0,0,1.86-.66v.9a3.52,3.52,0,0,1-2.09.57,2.52,2.52,0,0,1-2-.82,3.81,3.81,0,0,1,.07-4.58,2.53,2.53,0,0,1,2-.88,2.25,2.25,0,0,1,1.82.76,3.19,3.19,0,0,1,.64,2.12Zm9.61,2.49a3.17,3.17,0,0,1-1.64.41A2.75,2.75,0,0,1,687,389a3.06,3.06,0,0,1-.79-2.17,3.35,3.35,0,0,1,.85-2.38,3,3,0,0,1,2.27-.9,3.27,3.27,0,0,1,1.4.29v1a2.49,2.49,0,0,0-1.43-.47,1.92,1.92,0,0,0-1.51.66,2.46,2.46,0,0,0-.59,1.73,2.36,2.36,0,0,0,.55,1.66,1.91,1.91,0,0,0,1.49.61,2.38,2.38,0,0,0,1.47-.52Zm-10.59-3.3a2,2,0,0,0-.4-1.3,1.36,1.36,0,0,0-1.1-.46,1.52,1.52,0,0,0-1.15.49,2.13,2.13,0,0,0-.59,1.27Z" transform="translate(-643 -379)"/></g><path id="Mobile-Signal" class="cls-2" d="M658.5,379h-1l-.2,0-.18.06a.76.76,0,0,0-.18.09.87.87,0,0,0-.27.27.76.76,0,0,0-.09.18.64.64,0,0,0-.06.18,1.36,1.36,0,0,0,0,.2v8a1.36,1.36,0,0,0,0,.2.64.64,0,0,0,.06.18.76.76,0,0,0,.09.18.87.87,0,0,0,.27.27.76.76,0,0,0,.18.09l.18.06.2,0h1l.2,0,.18-.06a.76.76,0,0,0,.18-.09.87.87,0,0,0,.27-.27.76.76,0,0,0,.09-.18.64.64,0,0,0,.06-.18,1.36,1.36,0,0,0,0-.2v-8a1.36,1.36,0,0,0,0-.2.64.64,0,0,0-.06-.18.76.76,0,0,0-.09-.18.87.87,0,0,0-.27-.27.76.76,0,0,0-.18-.09l-.18-.06Zm-5.5,2h1l.2,0,.18.06a.76.76,0,0,1,.18.09.87.87,0,0,1,.27.27.76.76,0,0,1,.09.18.64.64,0,0,1,.06.18,1.36,1.36,0,0,1,0,.2v6a1.36,1.36,0,0,1,0,.2.64.64,0,0,1-.06.18.76.76,0,0,1-.09.18.87.87,0,0,1-.27.27.76.76,0,0,1-.18.09l-.18.06-.2,0h-1l-.2,0-.18-.06a.76.76,0,0,1-.18-.09.87.87,0,0,1-.27-.27.76.76,0,0,1-.09-.18.64.64,0,0,1-.06-.18,1.36,1.36,0,0,1,0-.2v-6a1.36,1.36,0,0,1,0-.2.64.64,0,0,1,.06-.18.76.76,0,0,1,.09-.18.87.87,0,0,1,.27-.27.76.76,0,0,1,.18-.09l.18-.06Zm-3.5,2h-1l-.2,0-.18.06a.76.76,0,0,0-.18.09.87.87,0,0,0-.27.27.76.76,0,0,0-.09.18.64.64,0,0,0-.06.18,1.36,1.36,0,0,0,0,.2v4a1.36,1.36,0,0,0,0,.2.64.64,0,0,0,.06.18.76.76,0,0,0,.09.18.87.87,0,0,0,.27.27.76.76,0,0,0,.18.09l.18.06.2,0h1l.2,0,.18-.06a.76.76,0,0,0,.18-.09.87.87,0,0,0,.27-.27.76.76,0,0,0,.09-.18.64.64,0,0,0,.06-.18,1.36,1.36,0,0,0,0-.2v-4a1.36,1.36,0,0,0,0-.2.64.64,0,0,0-.06-.18.76.76,0,0,0-.09-.18.87.87,0,0,0-.27-.27.76.76,0,0,0-.18-.09l-.18-.06Zm-5.5,1.5h1l.2,0,.18.06a.76.76,0,0,1,.18.09.87.87,0,0,1,.27.27.76.76,0,0,1,.09.18.64.64,0,0,1,.06.18,1.36,1.36,0,0,1,0,.2V388a1.36,1.36,0,0,1,0,.2.64.64,0,0,1-.06.18.76.76,0,0,1-.09.18.87.87,0,0,1-.27.27.76.76,0,0,1-.18.09l-.18.06-.2,0h-1l-.2,0-.18-.06a.76.76,0,0,1-.18-.09.87.87,0,0,1-.27-.27.76.76,0,0,1-.09-.18.64.64,0,0,1-.06-.18,1.36,1.36,0,0,1,0-.2v-2.5a1.36,1.36,0,0,1,0-.2.64.64,0,0,1,.06-.18.76.76,0,0,1,.09-.18.87.87,0,0,1,.27-.27.76.76,0,0,1,.18-.09l.18-.06Z" transform="translate(-643 -379)"/><path class="cls-2" d="M722.67,381.83a10.5,10.5,0,0,0-14.34,0l1.41,1.41a8.53,8.53,0,0,1,11.52,0" transform="translate(-643 -379)"/><path class="cls-2" d="M718.78,385.72a5,5,0,0,0-6.56,0l-1.41-1.41a7,7,0,0,1,9.38,0" transform="translate(-643 -379)"/><path class="cls-2" d="M717.71,386.79a3.49,3.49,0,0,0-4.42,0L715.5,389l2.21-2.21" transform="translate(-643 -379)"/></svg>