<svg id="Layer_1" data-name="Layer 1" xmlns="http://www.w3.org/2000/svg" xmlns:xlink="http://www.w3.org/1999/xlink" viewBox="0 0 71.34 13.5"><defs><style>.cls-1,.cls-3,.cls-6{fill:none;}.cls-2{clip-path:url(#clip-path);}.cls-3,.cls-6{stroke:#fff;}.cls-3{stroke-opacity:0.4;stroke-width:2px;}.cls-4,.cls-5{fill:#fff;}.cls-4{fill-opacity:0.4;fill-rule:evenodd;}</style><clipPath id="clip-path" transform="translate(-647.16 -377.5)"><path id="SVGID" class="cls-1" d="M694.5,378.5h19.25l.24,0a1.05,1.05,0,0,1,.24.06l.23.08.22.11a2.25,2.25,0,0,1,.21.12l.2.15.18.16.16.18.15.2a2.25,2.25,0,0,1,.12.21l.11.22c0,.08.06.16.08.23a1.05,1.05,0,0,1,.06.24,2,2,0,0,1,0,.24,2.18,2.18,0,0,1,0,.25v7.07a1.15,1.15,0,0,1,0,.19,1.08,1.08,0,0,1,0,.19,1.16,1.16,0,0,1,0,.18,1.34,1.34,0,0,1-.07.18.89.89,0,0,1-.08.17l-.09.16-.12.16-.12.14-.14.12-.16.12-.16.09-.17.08-.18.07-.18,0a1.08,1.08,0,0,1-.19,0h-20l-.24,0a1.05,1.05,0,0,1-.24-.06l-.23-.08-.22-.11a2.25,2.25,0,0,1-.21-.12l-.2-.15-.18-.16-.16-.18-.15-.2a2.25,2.25,0,0,1-.12-.21l-.11-.22c0-.08-.06-.16-.08-.23a1.05,1.05,0,0,1-.06-.24,2,2,0,0,1,0-.24,2.18,2.18,0,0,1,0-.25V381a2.18,2.18,0,0,1,0-.25,2,2,0,0,1,0-.24,1.05,1.05,0,0,1,.06-.24c0-.07,0-.15.08-.23l.11-.22a2.25,2.25,0,0,1,.12-.21l.15-.2.16-.18.18-.16.2-.15a2.25,2.25,0,0,1,.21-.12l.22-.11.23-.08a1.05,1.05,0,0,1,.24-.06l.24,0Z"/></clipPath></defs><title>left-icons</title><g id="Pin-Right"><g id="Battery"><g id="Border"><g class="cls-2"><path id="path_1" data-name="path 1" class="cls-3" d="M694.5,378.5h19.25l.24,0a1.05,1.05,0,0,1,.24.06l.23.08.22.11a2.25,2.25,0,0,1,.21.12l.2.15.18.16.16.18.15.2a2.25,2.25,0,0,1,.12.21l.11.22c0,.08.06.16.08.23a1.05,1.05,0,0,1,.06.24,2,2,0,0,1,0,.24,2.18,2.18,0,0,1,0,.25v7.07a1.15,1.15,0,0,1,0,.19,1.08,1.08,0,0,1,0,.19,1.16,1.16,0,0,1,0,.18,1.34,1.34,0,0,1-.07.18.89.89,0,0,1-.08.17l-.09.16-.12.16-.12.14-.14.12-.16.12-.16.09-.17.08-.18.07-.18,0a1.08,1.08,0,0,1-.19,0h-20l-.24,0a1.05,1.05,0,0,1-.24-.06l-.23-.08-.22-.11a2.25,2.25,0,0,1-.21-.12l-.2-.15-.18-.16-.16-.18-.15-.2a2.25,2.25,0,0,1-.12-.21l-.11-.22c0-.08-.06-.16-.08-.23a1.05,1.05,0,0,1-.06-.24,2,2,0,0,1,0-.24,2.18,2.18,0,0,1,0-.25V381a2.18,2.18,0,0,1,0-.25,2,2,0,0,1,0-.24,1.05,1.05,0,0,1,.06-.24c0-.07,0-.15.08-.23l.11-.22a2.25,2.25,0,0,1,.12-.21l.15-.2.16-.18.18-.16.2-.15a2.25,2.25,0,0,1,.21-.12l.22-.11.23-.08a1.05,1.05,0,0,1,.24-.06l.24,0Z" transform="translate(-647.16 -377.5)"/></g></g><path id="Nub" class="cls-4" d="M717,386.37a2,2,0,0,0,0-3.87v3.87Z" transform="translate(-647.16 -377.5)"/><path id="Charge" class="cls-5" d="M694.5,380.5h19.1l.09,0,.09,0,.07.07.07.07,0,.09,0,.09a.34.34,0,0,1,0,.1v6.5a.34.34,0,0,1,0,.1l0,.09,0,.09-.07.07-.07.07-.09,0-.09,0H694.4l-.09,0-.09,0-.07-.07-.07-.07,0-.09,0-.09a.34.34,0,0,1,0-.1V381a.34.34,0,0,1,0-.1l0-.09,0-.09.07-.07.07-.07.09,0,.09,0Z" transform="translate(-647.16 -377.5)"/></g><path class="cls-5" d="M663.05,389.7h1v-8.59h-.37a6.35,6.35,0,0,1-.52.4c-.21.13-.42.26-.65.38a6.44,6.44,0,0,1-.7.34,4.45,4.45,0,0,1-.67.23v1a3.63,3.63,0,0,0,.58-.2l.56-.26a5.1,5.1,0,0,0,.48-.28,2,2,0,0,0,.32-.26Zm9-2.37a8,8,0,0,0,.19-1.87q0-4.31-2.64-4.3a2.36,2.36,0,0,0-2.11,1.15,4.32,4.32,0,0,0-.54,1.41,9.52,9.52,0,0,0-.18,1.95,8,8,0,0,0,.17,1.78,4.12,4.12,0,0,0,.52,1.31,2.38,2.38,0,0,0,.83.81,2.34,2.34,0,0,0,1.13.28,2.44,2.44,0,0,0,1.19-.29,2.57,2.57,0,0,0,.89-.85A4.47,4.47,0,0,0,672,387.33Zm6.66-1.87a8.62,8.62,0,0,1-.19,1.87,4.47,4.47,0,0,1-.55,1.38,2.57,2.57,0,0,1-.89.85,2.47,2.47,0,0,1-1.19.29,2.34,2.34,0,0,1-1.13-.28,2.38,2.38,0,0,1-.83-.81,4.12,4.12,0,0,1-.52-1.31,7.93,7.93,0,0,1-.18-1.78,9.48,9.48,0,0,1,.19-1.95,4.32,4.32,0,0,1,.54-1.41,2.43,2.43,0,0,1,.89-.86,2.41,2.41,0,0,1,1.21-.29Q678.7,381.16,678.69,385.46Zm1.47-.52a1.79,1.79,0,0,0,1.39.57,1.89,1.89,0,0,0,1.45-.6,2.32,2.32,0,0,0,.55-1.62,2.26,2.26,0,0,0-.49-1.56,1.79,1.79,0,0,0-1.4-.56,1.91,1.91,0,0,0-1.47.6,2.37,2.37,0,0,0-.54,1.64A2.21,2.21,0,0,0,680.16,384.94Zm1.62,4.82,5.39-8.46h-.84l-5.39,8.46Zm-1-7.53a1,1,0,0,1,.88-.42,1,1,0,0,1,.84.4,1.78,1.78,0,0,1,.31,1.1,1.88,1.88,0,0,1-.31,1.14,1,1,0,0,1-.86.41,1.07,1.07,0,0,1-.87-.39,1.76,1.76,0,0,1-.31-1.11A1.81,1.81,0,0,1,680.75,382.23ZM669.53,382c1.14,0,1.7,1.2,1.7,3.59s-.58,3.47-1.74,3.47-1.76-1.14-1.76-3.41C667.73,383.19,668.33,382,669.53,382Zm8.17,3.59c0-2.39-.57-3.59-1.7-3.59s-1.8,1.22-1.8,3.65c0,2.27.59,3.41,1.76,3.41S677.7,387.87,677.7,385.56Zm7.47,3.7a1.76,1.76,0,0,0,1.38.57,1.85,1.85,0,0,0,1.45-.61,2.27,2.27,0,0,0,.55-1.6,2.3,2.3,0,0,0-.49-1.58,1.76,1.76,0,0,0-1.39-.56,1.91,1.91,0,0,0-1.47.6,2.42,2.42,0,0,0-.55,1.65A2.18,2.18,0,0,0,685.17,389.26Zm.58-2.71a1.06,1.06,0,0,1,.88-.41,1,1,0,0,1,.84.39,1.68,1.68,0,0,1,.31,1.1,1.81,1.81,0,0,1-.31,1.13,1,1,0,0,1-.86.41,1.05,1.05,0,0,1-.86-.39,1.72,1.72,0,0,1-.32-1.09A1.82,1.82,0,0,1,685.75,386.55Z" transform="translate(-647.16 -377.5)"/><path id="Bluetooth" class="cls-6" d="M647.5,381l6,5.5-3,2.5V379l3,2.5-6,5.5" transform="translate(-647.16 -377.5)"/></g></svg>