<?xml version="1.0" encoding="utf-8"?>
<svg width="200px" height="43px" viewBox="0 0 200 43" version="1.1" xmlns:xlink="http://www.w3.org/1999/xlink" xmlns="http://www.w3.org/2000/svg">
  <g id="boardme-blue">
    <path d="M10.3755 6.39498C12.0069 6.39498 13.4914 6.77019 14.8292 7.52062C16.1669 8.27106 17.2164 9.326 17.9777 10.6855C18.739 12.045 19.1197 13.6274 19.1197 15.4328C19.1197 17.2382 18.739 18.8206 17.9777 20.1801C17.2164 21.5395 16.1669 22.5945 14.8292 23.3449C13.4914 24.0954 12.0069 24.4706 10.3755 24.4706C7.96108 24.4706 6.12309 23.7093 4.86149 22.1867L4.86149 24.2096L0 24.2096L0 0L5.08988 0L5.08988 8.51576C6.37323 7.1019 8.13509 6.39498 10.3755 6.39498ZM98.339 24.2096L98.339 0L93.2492 0L93.2492 8.51576C91.9876 7.1019 90.2366 6.39498 87.9961 6.39498C86.343 6.39498 84.8476 6.76475 83.5099 7.50431C82.1721 8.24387 81.1226 9.29881 80.3613 10.6692C79.6 12.0395 79.2194 13.6274 79.2194 15.4328C79.2194 17.2382 79.6 18.826 80.3613 20.1964C81.1226 21.5667 82.1721 22.6217 83.5099 23.3612C84.8476 24.1008 86.343 24.4706 87.9961 24.4706C90.3888 24.4706 92.216 23.7093 93.4775 22.1867L93.4775 24.2096L98.339 24.2096ZM30.8656 24.4706C29.0167 24.4706 27.3582 24.0845 25.8899 23.3123C24.4217 22.5401 23.2743 21.4689 22.4477 20.0985C21.6212 18.7281 21.2079 17.1729 21.2079 15.4328C21.2079 13.6926 21.6212 12.1374 22.4477 10.7671C23.2743 9.39671 24.4217 8.32545 25.8899 7.55326C27.3582 6.78108 29.0167 6.39499 30.8656 6.39499C32.7145 6.39499 34.3676 6.78108 35.825 7.55326C37.2823 8.32545 38.4243 9.39671 39.2509 10.7671C40.0774 12.1374 40.4907 13.6926 40.4907 15.4328C40.4907 17.1729 40.0774 18.7281 39.2509 20.0985C38.4243 21.4689 37.2823 22.5401 35.825 23.3123C34.3676 24.0845 32.7145 24.4706 30.8656 24.4706ZM61.6984 24.2096L56.8369 24.2096L56.8369 22.1867C55.5753 23.7093 53.7482 24.4706 51.3555 24.4706C49.7024 24.4706 48.207 24.1008 46.8692 23.3612C45.5315 22.6217 44.482 21.5667 43.7207 20.1964C42.9594 18.826 42.5787 17.2382 42.5787 15.4328C42.5787 13.6274 42.9594 12.0395 43.7207 10.6692C44.482 9.29882 45.5315 8.24388 46.8692 7.50432C48.207 6.76476 49.7024 6.39499 51.3555 6.39499C53.5959 6.39499 55.3469 7.10191 56.6085 8.51577L56.6085 6.65601L61.6984 6.65601L61.6984 24.2096ZM71.2583 8.97256C71.8674 8.12424 72.6885 7.48257 73.7217 7.04754C74.7549 6.6125 75.9458 6.39499 77.2944 6.39499L77.2944 11.0933Q76.4461 11.0281 76.1525 11.0281C74.6951 11.0281 73.5531 11.4359 72.7266 12.2516C71.9 13.0673 71.4867 14.2908 71.4867 15.9222L71.4867 24.2096L66.3969 24.2096L66.3969 6.65601L71.2583 6.65601L71.2583 8.97256ZM130.754 8.33632C129.46 7.04209 127.715 6.39499 125.518 6.39499C124.213 6.39499 123.011 6.64513 121.912 7.14542C120.814 7.64571 119.906 8.35263 119.188 9.2662C118.579 8.33088 117.774 7.61852 116.774 7.12911C115.773 6.63969 114.653 6.39499 113.413 6.39499C112.282 6.39499 111.243 6.59075 110.297 6.98228C109.351 7.37381 108.552 7.93935 107.899 8.67891L107.899 6.65601L103.037 6.65601L103.037 24.2096L108.127 24.2096L108.127 15.4002C108.127 13.8775 108.475 12.7302 109.171 11.958C109.867 11.1858 110.803 10.7997 111.977 10.7997C114.196 10.7997 115.305 12.1809 115.305 14.9434L115.305 24.2096L120.395 24.2096L120.395 15.4002C120.395 13.8775 120.743 12.7302 121.439 11.958C122.135 11.1858 123.082 10.7997 124.278 10.7997C125.344 10.7997 126.165 11.1423 126.741 11.8275C127.318 12.5126 127.606 13.5513 127.606 14.9434L127.606 24.2096L132.696 24.2096L132.696 14.1603C132.696 11.5719 132.049 9.63055 130.754 8.33632ZM146.106 20.3922C147.019 20.3922 147.829 20.2562 148.536 19.9843C149.243 19.7124 149.901 19.2828 150.51 18.6955L153.218 21.632C151.565 23.5244 149.151 24.4706 145.975 24.4706C143.996 24.4706 142.245 24.0845 140.722 23.3123C139.199 22.5401 138.025 21.4689 137.198 20.0985C136.372 18.7281 135.958 17.1729 135.958 15.4328C135.958 13.7144 136.366 12.1646 137.182 10.7834C137.998 9.40214 139.118 8.32545 140.543 7.55326C141.967 6.78108 143.572 6.39499 145.355 6.39499C147.03 6.39499 148.553 6.74845 149.923 7.45538C151.293 8.16231 152.386 9.18463 153.202 10.5224C154.018 11.8601 154.426 13.4425 154.426 15.2696L141.44 17.782C141.81 18.652 142.392 19.3046 143.185 19.7396C143.979 20.1746 144.953 20.3922 146.106 20.3922ZM142.223 11.4849C143.028 10.6583 144.072 10.245 145.355 10.245C146.399 10.245 147.291 10.5169 148.031 11.0607C148.77 11.6045 149.26 12.3332 149.499 13.2467L140.95 14.9107C140.994 13.4534 141.418 12.3114 142.223 11.4849ZM12.7084 18.9729C11.871 19.8538 10.7997 20.2943 9.49462 20.2943C8.18951 20.2943 7.11826 19.8538 6.28081 18.9729C5.44337 18.0919 5.02466 16.9119 5.02466 15.4328C5.02466 13.9537 5.44337 12.7736 6.28081 11.8927C7.11826 11.0118 8.18951 10.5713 9.49462 10.5713C10.7997 10.5713 11.871 11.0118 12.7084 11.8927C13.5459 12.7736 13.9646 13.9537 13.9646 15.4328C13.9646 16.9119 13.5459 18.0919 12.7084 18.9729ZM34.0793 18.9729C33.2419 19.8538 32.1706 20.2943 30.8655 20.2943C29.5604 20.2943 28.4837 19.8538 27.6354 18.9729C26.7871 18.0919 26.3629 16.9119 26.3629 15.4328C26.3629 13.9537 26.7871 12.7736 27.6354 11.8927C28.4837 11.0118 29.5604 10.5713 30.8655 10.5713C32.1706 10.5713 33.2419 11.0118 34.0793 11.8927C34.9167 12.7736 35.3355 13.9537 35.3355 15.4328C35.3355 16.9119 34.9167 18.0919 34.0793 18.9729ZM55.434 18.9729C54.5856 19.8538 53.5198 20.2943 52.2365 20.2943C50.9314 20.2943 49.8547 19.8538 49.0064 18.9729C48.158 18.0919 47.7339 16.9119 47.7339 15.4328C47.7339 13.9537 48.158 12.7736 49.0064 11.8927C49.8547 11.0118 50.9314 10.5713 52.2365 10.5713C53.5198 10.5713 54.5856 11.0118 55.434 11.8927C56.2823 12.7736 56.7064 13.9537 56.7064 15.4328C56.7064 16.9119 56.2823 18.0919 55.434 18.9729ZM88.8771 20.2943C90.1604 20.2943 91.2263 19.8538 92.0746 18.9729C92.9229 18.0919 93.3471 16.9119 93.3471 15.4328C93.3471 13.9537 92.9229 12.7736 92.0746 11.8927C91.2263 11.0118 90.1604 10.5713 88.8771 10.5713C87.572 10.5713 86.4953 11.0118 85.647 11.8927C84.7987 12.7736 84.3745 13.9537 84.3745 15.4328C84.3745 16.9119 84.7987 18.0919 85.647 18.9729C86.4953 19.8538 87.572 20.2943 88.8771 20.2943Z" transform="translate(45.57434 6.570984)" id="boardme" fill="#3457DC" fill-rule="evenodd" stroke="none" />
    <path d="M32.2344 38.0414L29.4166 41.7707C29.1658 42.1026 28.6934 42.1684 28.3615 41.9176C28.3061 41.8757 28.2567 41.8263 28.2148 41.7709L25.3947 38.0414L1.50659 38.0414C0.674524 38.0414 0 37.3669 0 36.5348L0 1.50659C0 0.674524 0.674524 0 1.50659 0L36.5348 0C37.3669 0 38.0414 0.674524 38.0414 1.50659L38.0414 36.5348C38.0414 37.3669 37.3669 38.0414 36.5348 38.0414L32.2344 38.0414ZM13.8204 30.1565C13.4675 30.0075 13.1294 29.8391 12.806 29.6513L12.806 30.8851L8.28625 30.8851L8.28625 6.40301L12.806 6.40301L12.806 6.55621L12.8524 6.55621L12.8524 14.5563C13.087 14.2576 13.3724 13.991 13.7084 13.7563C14.0444 13.5216 14.4071 13.3296 14.7964 13.1803C15.1857 13.0309 15.5884 12.9163 16.0044 12.8363C16.4204 12.7563 16.8257 12.7163 17.2204 12.7163C18.4364 12.7163 19.5751 12.9429 20.6365 13.3963C21.6978 13.8496 22.6231 14.4816 23.4125 15.2923C24.2018 16.103 24.8258 17.0603 25.2845 18.1643C25.7432 19.2684 25.9725 20.4764 25.9725 21.7884C25.9725 23.1324 25.7432 24.3591 25.2845 25.4684C24.8258 26.5778 24.2018 27.5298 23.4125 28.3245C22.6231 29.1191 21.6978 29.7351 20.6365 30.1725C19.5751 30.6098 18.4364 30.8285 17.2204 30.8285C16.0151 30.8285 14.8817 30.6045 13.8204 30.1565ZM21.5725 21.7884C21.5725 22.4497 21.4578 23.0631 21.2285 23.6284C20.9991 24.1937 20.6871 24.6844 20.2925 25.1004C19.8978 25.5164 19.4364 25.8444 18.9084 26.0844C18.3804 26.3244 17.8178 26.4444 17.2204 26.4444C16.6231 26.4444 16.0604 26.3244 15.5324 26.0844C15.0044 25.8444 14.5431 25.5164 14.1484 25.1004C13.7537 24.6844 13.4444 24.1937 13.2204 23.6284C12.9964 23.0631 12.8844 22.4497 12.8844 21.7884C12.8844 21.191 12.9964 20.6124 13.2204 20.0524C13.4444 19.4923 13.7537 18.9963 14.1484 18.5643C14.5431 18.1323 15.0044 17.7857 15.5324 17.5243C16.0604 17.263 16.6231 17.1323 17.2204 17.1323C17.8178 17.1323 18.3804 17.2497 18.9084 17.4843C19.4364 17.719 19.8978 18.0443 20.2925 18.4603C20.6871 18.8763 20.9991 19.3697 21.2285 19.9404C21.4578 20.511 21.5725 21.127 21.5725 21.7884ZM30.1318 29.7552C30.1318 31.0033 29.12 32.0151 27.8719 32.0151C26.6238 32.0151 25.6121 31.0033 25.6121 29.7552C25.6121 28.5071 26.6238 27.4953 27.8719 27.4953C29.12 27.4953 30.1318 28.5071 30.1318 29.7552Z" id="Combined-Shape" fill="#3457DC" fill-rule="evenodd" stroke="none" />
  </g>
</svg>