<?xml version="1.0" encoding="utf-8"?>
<svg width="127px" height="127px" viewBox="0 0 127 127" version="1.1" xmlns:xlink="http://www.w3.org/1999/xlink" xmlns="http://www.w3.org/2000/svg">
  <g id="Group-2" transform="translate(51.71252 46.71252)">
    <g id="Group-3">
      <path d="M0 0L7.33333 0L7.33333 7.33333" transform="translate(15.33333 7.593925E-14)" id="Path" fill="none" stroke="#3457DC" stroke-width="4" stroke-linecap="round" stroke-linejoin="round" />
      <path d="M0 11L11 0" transform="translate(11.66667 0)" id="Path" fill="none" stroke="#3457DC" stroke-width="4" stroke-linecap="round" stroke-linejoin="round" />
      <path d="M7.33333 7.33333L0 7.33333L0 0" transform="translate(3.033129E-13 15.33333)" id="Path" fill="none" stroke="#3457DC" stroke-width="4" stroke-linecap="round" stroke-linejoin="round" />
      <path d="M0 11L11 0" transform="translate(0 11.66667)" id="Path" fill="none" stroke="#3457DC" stroke-width="4" stroke-linecap="round" stroke-linejoin="round" />
    </g>
  </g>
  <g id="Group" transform="translate(3.712524 3.712524)">
    <path d="M0 0L118.8 0L118.8 118.8L0 118.8L0 0Z" id="Path" fill="none" stroke="none" />
    <path d="M0 2.475L89.1 2.475" transform="translate(14.84998 91.57501)" id="Path" fill="none" stroke="#C0C5E1" stroke-width="7.424999" stroke-linecap="round" stroke-linejoin="round" />
    <path d="M4.949 0L64.351 0Q64.4725 0 64.5938 0.00596129Q64.7152 0.0119226 64.8361 0.0238308Q64.957 0.035739 65.0772 0.0535654Q65.1973 0.0713919 65.3165 0.0950936Q65.4356 0.118795 65.5535 0.148315Q65.6713 0.177835 65.7876 0.213102Q65.9039 0.248369 66.0183 0.289298Q66.1326 0.330227 66.2449 0.37672Q66.3571 0.423213 66.467 0.475157Q66.5768 0.527101 66.6839 0.584372Q66.7911 0.641642 66.8953 0.704101Q66.9995 0.76656 67.1005 0.834057Q67.2015 0.901554 67.2991 0.973926Q67.3967 1.0463 67.4906 1.12337Q67.5845 1.20044 67.6745 1.28203Q67.7645 1.36362 67.8505 1.44953Q67.9364 1.53544 68.018 1.62545Q68.0995 1.71547 68.1766 1.80939Q68.2537 1.9033 68.3261 2.00088Q68.3984 2.09847 68.4659 2.19948Q68.5334 2.3005 68.5959 2.40471Q68.6583 2.50891 68.7156 2.61606Q68.7729 2.7232 68.8248 2.83303Q68.8768 2.94286 68.9233 3.0551Q68.9698 3.16734 69.0107 3.28173Q69.0516 3.39612 69.0869 3.51238Q69.1221 3.62864 69.1517 3.74649Q69.1812 3.86434 69.2049 3.9835Q69.2286 4.10265 69.2464 4.22283Q69.2642 4.34301 69.2762 4.46391Q69.2881 4.58482 69.294 4.70616Q69.3 4.82751 69.3 4.949L69.3 44.551Q69.3 44.6725 69.294 44.7938Q69.2881 44.9152 69.2762 45.0361Q69.2642 45.157 69.2464 45.2772Q69.2286 45.3973 69.2049 45.5165Q69.1812 45.6357 69.1517 45.7535Q69.1221 45.8714 69.0869 45.9876Q69.0516 46.1039 69.0107 46.2183Q68.9698 46.3327 68.9233 46.4449Q68.8768 46.5571 68.8248 46.667Q68.7729 46.7768 68.7156 46.8839Q68.6583 46.9911 68.5959 47.0953Q68.5334 47.1995 68.4659 47.3005Q68.3984 47.4015 68.3261 47.4991Q68.2537 47.5967 68.1766 47.6906Q68.0995 47.7845 68.018 47.8745Q67.9364 47.9646 67.8505 48.0505Q67.7645 48.1364 67.6745 48.218Q67.5845 48.2995 67.4906 48.3766Q67.3967 48.4537 67.2991 48.5261Q67.2015 48.5984 67.1005 48.6659Q66.9995 48.7334 66.8953 48.7959Q66.7911 48.8583 66.6839 48.9156Q66.5768 48.9729 66.467 49.0248Q66.3571 49.0768 66.2449 49.1233Q66.1326 49.1698 66.0183 49.2107Q65.9039 49.2516 65.7876 49.2869Q65.6713 49.3222 65.5535 49.3517Q65.4356 49.3812 65.3165 49.4049Q65.1973 49.4286 65.0772 49.4464Q64.957 49.4643 64.8361 49.4762Q64.7152 49.4881 64.5938 49.494Q64.4725 49.5 64.351 49.5L4.949 49.5Q4.82751 49.5 4.70616 49.494Q4.58482 49.4881 4.46391 49.4762Q4.34301 49.4643 4.22283 49.4464Q4.10265 49.4286 3.9835 49.4049Q3.86434 49.3812 3.74649 49.3517Q3.62864 49.3222 3.51238 49.2869Q3.39612 49.2516 3.28173 49.2107Q3.16734 49.1698 3.0551 49.1233Q2.94286 49.0768 2.83303 49.0248Q2.7232 48.9729 2.61606 48.9156Q2.50891 48.8584 2.40471 48.7959Q2.3005 48.7334 2.19948 48.6659Q2.09847 48.5984 2.00088 48.5261Q1.9033 48.4537 1.80939 48.3766Q1.71547 48.2995 1.62545 48.218Q1.53544 48.1364 1.44953 48.0505Q1.36362 47.9646 1.28203 47.8745Q1.20044 47.7845 1.12337 47.6906Q1.0463 47.5967 0.973926 47.4991Q0.901554 47.4015 0.834057 47.3005Q0.76656 47.1995 0.704101 47.0953Q0.641642 46.9911 0.584372 46.8839Q0.527101 46.7768 0.475157 46.667Q0.423213 46.5571 0.37672 46.4449Q0.330227 46.3327 0.289298 46.2183Q0.248369 46.1039 0.213102 45.9876Q0.177835 45.8714 0.148315 45.7535Q0.118795 45.6357 0.0950936 45.5165Q0.0713919 45.3973 0.0535654 45.2772Q0.035739 45.157 0.0238308 45.0361Q0.0119226 44.9152 0.00596129 44.7938Q0 44.6725 0 44.551L0 4.949Q0 4.82751 0.00596129 4.70616Q0.0119226 4.58482 0.0238308 4.46391Q0.035739 4.34301 0.0535654 4.22283Q0.0713919 4.10265 0.0950936 3.9835Q0.118795 3.86434 0.148315 3.74649Q0.177835 3.62864 0.213102 3.51238Q0.248369 3.39612 0.289298 3.28173Q0.330227 3.16734 0.37672 3.0551Q0.423213 2.94286 0.475157 2.83303Q0.527101 2.7232 0.584372 2.61606Q0.641642 2.50891 0.704101 2.40471Q0.76656 2.3005 0.834057 2.19948Q0.901554 2.09847 0.973926 2.00088Q1.0463 1.9033 1.12337 1.80939Q1.20044 1.71547 1.28203 1.62545Q1.36362 1.53544 1.44953 1.44953Q1.53544 1.36362 1.62545 1.28203Q1.71547 1.20044 1.80939 1.12337Q1.9033 1.0463 2.00088 0.973926Q2.09847 0.901554 2.19948 0.834057Q2.3005 0.76656 2.40471 0.704101Q2.50891 0.641642 2.61606 0.584372Q2.7232 0.527101 2.83303 0.475157Q2.94286 0.423213 3.0551 0.37672Q3.16734 0.330227 3.28173 0.289298Q3.39612 0.248369 3.51238 0.213102Q3.62864 0.177835 3.74649 0.148315Q3.86434 0.118795 3.9835 0.0950936Q4.10265 0.0713919 4.22283 0.0535654Q4.34301 0.035739 4.46391 0.0238308Q4.58482 0.0119226 4.70616 0.00596129Q4.82751 0 4.949 0Z" transform="translate(24.75 29.70001)" id="Rectangle" fill="none" stroke="#C0C5E1" stroke-width="7.424999" stroke-linecap="round" stroke-linejoin="round" />
  </g>
</svg>