<svg width="103" height="22" viewBox="0 0 103 22" fill="none" xmlns="http://www.w3.org/2000/svg">
<g clip-path="url(#clip0)">
<path d="M9.30449 5.3796H15.6874L14.6989 9.00339C14.5479 9.50844 14.2654 9.91416 13.8517 10.2204C13.4373 10.5273 12.9572 10.6803 12.4114 10.6803H9.44573C8.76786 10.6803 8.16979 10.8694 7.65231 11.2482C7.13403 11.6268 6.77195 12.1405 6.56488 12.7897C6.43302 13.2765 6.41885 13.7362 6.52259 14.1689C6.62593 14.6015 6.80946 14.9849 7.07318 15.318C7.33671 15.6519 7.67565 15.9178 8.09019 16.1161C8.50393 16.3148 8.95598 16.4133 9.44573 16.4133H11.2531C11.5923 16.4133 11.8697 16.5444 12.0864 16.8055C12.3026 17.0672 12.3641 17.3598 12.2699 17.6844L11.1404 21.687H9.16345C7.80771 21.687 6.56009 21.4029 5.421 20.835C4.28171 20.2671 3.33552 19.5147 2.58264 18.5768C1.82936 17.6397 1.31607 16.5715 1.04337 15.3725C0.770266 14.1735 0.803381 12.9429 1.14232 11.6807L1.25523 11.2752C1.49392 10.4217 1.88052 9.61264 2.39891 8.88171C2.91679 8.15164 3.52863 7.52969 4.23483 7.01586C4.94082 6.50202 5.72702 6.10088 6.59321 5.81245C7.459 5.5242 8.36269 5.3796 9.30449 5.3796ZM12.5241 21.6868L18.0879 1.72907C18.2383 1.2244 18.5208 0.818868 18.9353 0.512094C19.3491 0.205511 19.829 0.052124 20.3756 0.052124H26.2786C27.6341 0.052124 28.8811 0.336167 30.0206 0.904062C31.1595 1.47196 32.1057 2.22495 32.859 3.16208C33.6119 4.09978 34.13 5.16795 34.4124 6.36678C34.6949 7.56599 34.6568 8.79652 34.2993 10.0582L34.1866 10.4639C33.9416 11.3292 33.5652 12.1271 33.0569 12.8574C32.5482 13.5874 31.9411 14.2142 31.2351 14.7368C30.5289 15.2598 29.7425 15.6655 28.8768 15.9536C28.0106 16.2424 27.1067 16.3864 26.1655 16.3864H21.0535L22.0701 12.7355C22.2207 12.2488 22.503 11.8524 22.9176 11.5455C23.3315 11.2393 23.8115 11.0859 24.3579 11.0859H25.9961C26.6738 11.0859 27.281 10.8876 27.8175 10.4908C28.3543 10.0945 28.7072 9.58065 28.8768 8.94933C29.0084 8.49891 29.0224 8.0569 28.9192 7.62425C28.8155 7.19159 28.632 6.8086 28.3683 6.47489C28.1045 6.14157 27.7656 5.87128 27.3516 5.66364C26.9373 5.45658 26.4855 5.35267 25.9961 5.35267H22.8326L18.7091 20.0373C18.5581 20.524 18.2756 20.9208 17.8617 21.2272C17.4475 21.5339 16.9765 21.687 16.4495 21.687H12.5241V21.6868ZM47.7428 11.0318L47.8276 10.7342C47.8651 10.5902 47.8418 10.4687 47.757 10.3694C47.6722 10.2704 47.5545 10.2204 47.4039 10.2204H38.2249C37.8295 10.2204 37.4716 10.1394 37.1516 9.97701C36.8315 9.81464 36.5679 9.603 36.3611 9.34149C36.1536 9.08056 36.0123 8.77837 35.9373 8.4355C35.8617 8.09338 35.8711 7.74172 35.9653 7.38089L36.5302 5.32554H48.9573C49.7294 5.32554 50.4353 5.48791 51.0755 5.81245C51.7155 6.13679 52.2477 6.56066 52.6714 7.08348C53.0952 7.60648 53.3866 8.2057 53.5468 8.88171C53.7066 9.55792 53.6924 10.2568 53.5045 10.9777L51.2732 18.9285C51.0474 19.7399 50.5908 20.3982 49.9035 20.9026C49.2161 21.4077 48.4301 21.66 47.5451 21.66L38.3661 21.6329C37.5562 21.6329 36.8127 21.4663 36.135 21.1324C35.457 20.7993 34.9016 20.3577 34.4685 19.8075C34.0354 19.2578 33.7344 18.6267 33.5648 17.9145C33.3954 17.2024 33.4144 16.4768 33.6212 15.7373L33.7344 15.3316C33.8658 14.8273 34.0875 14.3582 34.3979 13.9255C34.7087 13.4927 35.0709 13.1233 35.4853 12.8167C35.9034 12.5082 36.3707 12.2662 36.8692 12.1C37.3777 11.9288 37.9145 11.8431 38.4793 11.8431H46.1896L45.6246 13.8715C45.4738 14.3582 45.1913 14.7549 44.7772 15.0613C44.363 15.3681 43.8922 15.5209 43.3652 15.5209H39.9194C39.5992 15.5209 39.3921 15.6745 39.2982 15.9809C39.2417 16.1795 39.2792 16.3553 39.4111 16.5081C39.5427 16.6615 39.7121 16.7379 39.9194 16.7379H45.4832C45.6905 16.7379 45.8692 16.6838 46.02 16.5757C46.1704 16.4674 46.2644 16.3236 46.3025 16.1431L46.359 15.9266L47.7428 11.0318ZM64.1805 5.3796C65.5544 5.3796 66.8114 5.66364 67.9507 6.23154C69.0898 6.79943 70.0357 7.55242 70.7894 8.48975C71.5421 9.42726 72.0554 10.5002 72.3283 11.7078C72.6012 12.916 72.5589 14.1511 72.2014 15.4128L70.7892 20.4971C70.6947 20.8577 70.4926 21.146 70.1822 21.3624C69.8714 21.5788 69.5274 21.687 69.1508 21.687H66.1008C65.7431 21.687 65.4606 21.5565 65.2535 21.2948C65.0461 21.0337 64.9896 20.7403 65.084 20.4159L66.7786 14.277C66.9103 13.8266 66.9243 13.3846 66.8209 12.9519C66.7172 12.5191 66.5337 12.1363 66.2703 11.8026C66.0064 11.469 65.6677 11.1988 65.2535 10.9911C64.839 10.7841 64.3871 10.6803 63.898 10.6803H60.7347L57.9949 20.4971C57.9007 20.8577 57.6984 21.146 57.3878 21.3624C57.077 21.5788 56.7239 21.687 56.3285 21.687H53.3068C52.9679 21.687 52.69 21.5565 52.4737 21.2948C52.2575 21.0337 52.1961 20.7403 52.29 20.4159L56.4701 5.3796H64.1805ZM80.8152 10.5313C80.5894 10.7031 80.429 10.9237 80.3351 11.1942L79.0643 15.7914C78.9889 16.0441 79.0362 16.2783 79.2053 16.4945C79.3749 16.7109 79.6009 16.8193 79.8834 16.8193H91.576L90.6723 20.0373C90.5213 20.524 90.2388 20.9208 89.8248 21.2272C89.4105 21.5339 88.9395 21.687 88.4127 21.687H77.7652C76.9928 21.687 76.2868 21.5294 75.6468 21.2136C75.0065 20.8984 74.4746 20.4748 74.0509 19.9426C73.6274 19.4112 73.3351 18.8068 73.1757 18.1308C73.0157 17.4546 73.0391 16.765 73.2461 16.0619L74.9689 9.92295C75.1571 9.2563 75.4489 8.64313 75.8445 8.08403C76.2399 7.52549 76.7061 7.04756 77.2425 6.65082C77.7792 6.25427 78.3814 5.94348 79.0499 5.7177C79.7168 5.49261 80.4189 5.37827 81.126 5.3796H88.6668C89.4388 5.3796 90.145 5.54197 90.785 5.8665C91.425 6.19104 91.9574 6.61491 92.3809 7.13753C92.8046 7.66054 93.0913 8.26454 93.2421 8.94933C93.3927 9.6347 93.3738 10.3285 93.1857 11.0318L92.6774 12.8707C92.4515 13.6822 91.9947 14.3358 91.3077 14.8315C90.62 15.3274 89.8434 15.5752 88.9776 15.5752H80.4482L81.0131 13.5739C81.1446 13.0872 81.4175 12.6908 81.832 12.3838C82.246 12.0776 82.726 11.9242 83.2724 11.9242H86.7182C87.0382 11.9242 87.2448 11.7712 87.3394 11.4645L87.4523 11.0587C87.5089 10.8607 87.4709 10.6801 87.3394 10.518C87.2073 10.3556 87.0382 10.2746 86.8311 10.2746H81.5779C81.2956 10.2746 81.0413 10.3604 80.8152 10.5315V10.5313ZM91.5472 21.6868L97.224 1.26891C97.3179 0.908646 97.5206 0.615625 97.8314 0.390225C98.1418 0.164824 98.4949 0.052124 98.8905 0.052124H101.912C102.27 0.052124 102.557 0.183162 102.774 0.444283C102.99 0.705977 103.051 0.998615 102.957 1.32315L98.7209 16.3864C98.5135 17.1801 98.1793 17.9008 97.7183 18.5499C97.2567 19.1989 96.7109 19.7533 96.0801 20.2131C95.4491 20.6728 94.7479 21.0337 93.9761 21.2948C93.2038 21.5565 92.3945 21.687 91.5472 21.687V21.6868Z" fill="#FF6C2C"/>
</g>
<defs>
<clipPath id="clip0">
<rect x="0.860626" y="0.0444336" width="102.139" height="21.79" fill="white"/>
</clipPath>
</defs>
</svg>
