<svg width="109" height="14" viewBox="0 0 109 14" fill="none" xmlns="http://www.w3.org/2000/svg">
<g clip-path="url(#clip0)">
<path d="M93.1812 5.81726V13.9876H95.9086V8.54072H105.883V13.9876H108.61V5.81726H93.1812ZM95.5968 3.16841H106.117C107.597 2.90726 108.649 1.63879 108.961 0.444946H92.7526C93.0643 1.63879 94.1552 2.86995 95.5968 3.16841ZM84.8821 13.9876C86.2458 13.428 86.9861 12.458 87.2978 11.3388H75.0246V0.482254H72.2582V13.9876H84.8821ZM51.8028 3.1311H61.5435C63.024 2.72072 64.2319 1.63879 64.5436 0.482254H49.1144V8.4661H61.7383V11.2642H51.8417C50.2832 11.6746 48.9585 12.6819 48.2961 13.9876H64.4657V5.81726H51.8417L51.8028 3.1311ZM27.8018 3.16841H38.3217C39.8023 2.90726 40.8932 1.63879 41.166 0.444946H24.9185C25.2302 1.63879 26.3212 2.86995 27.8018 3.16841ZM27.8018 8.50341H38.3217C39.8023 8.24226 40.8932 6.9738 41.166 5.77995H24.9185C25.2302 6.9738 26.3212 8.20495 27.8018 8.50341ZM27.8018 13.9876H38.3217C39.8023 13.7265 40.8932 12.458 41.166 11.2642H24.9185C25.2302 12.458 26.3212 13.7265 27.8018 13.9876Z" fill="black"/>
<path d="M0.411003 0.482254C0.722705 1.6761 1.81366 2.86995 3.25528 3.16841H7.69702L7.9308 3.24302V13.9503H10.6972V3.24302L10.9309 3.16841H15.3727C16.8533 2.79533 17.9052 1.6761 18.2169 0.482254V0.444946L0.411003 0.482254Z" fill="black"/>
</g>
<defs>
<clipPath id="clip0">
<rect x="0.411011" y="0.437134" width="108.589" height="13.5585" fill="white"/>
</clipPath>
</defs>
</svg>
