<svg width="91" height="22" viewBox="0 0 91 22" fill="none" xmlns="http://www.w3.org/2000/svg">
<g clip-path="url(#clip0)">
<path d="M40.2752 3.15202C38.7521 1.69361 36.685 0.860229 34.5091 0.860229H22.5962V21.6947H30.7557V8.67316H33.3668C34.0739 8.67316 34.7811 8.93359 35.2707 9.45445L38.0993 12.1629C38.5889 12.6317 38.9152 13.3088 38.9152 13.9859V21.6947H47.0748V12.8921C47.0748 10.8087 46.2044 8.82941 44.6813 7.371L40.2752 3.15202ZM82.4326 0.860229V8.56898C82.4326 9.2461 82.1606 9.92322 81.6167 10.392L78.788 13.1005C78.2985 13.5693 77.5913 13.8818 76.8842 13.8818H72.9676C73.7836 12.6317 74.2731 11.1733 74.2731 9.66279V0.860229H66.1136V8.56898C66.1136 9.2461 65.8416 9.92322 65.2977 10.392L62.469 13.1005C61.9795 13.5693 61.2723 13.8818 60.5651 13.8818H57.9541V0.860229H49.7946V21.6947H61.7075C63.8833 21.6947 65.9504 20.8613 67.4735 19.4029L70.1934 16.7986V21.6947H78.0265C80.2024 21.6947 82.2694 20.8613 83.7925 19.4029L88.1987 15.1839C89.7218 13.7255 90.5921 11.7462 90.5921 9.66279V0.860229H82.4326ZM0.83754 8.67316H6.27721V21.6947H14.4367V8.67316H19.8764V0.860229H0.83754V8.67316Z" fill="#E6305B"/>
</g>
<defs>
<clipPath id="clip0">
<rect x="0.832123" y="0.860229" width="89.7636" height="20.8345" fill="white"/>
</clipPath>
</defs>
</svg>
