<svg width="87" height="30" viewBox="0 0 87 30" fill="none" xmlns="http://www.w3.org/2000/svg">
<g clip-path="url(#clip0)">
<path d="M50.2609 4.1503C50.4994 2.53046 51.8486 1.09671 53.5537 0.823923C55.2278 0.494034 57.0696 1.26821 57.8932 2.71444C58.5933 3.81406 58.5115 5.14842 58.4983 6.38762C60.6979 6.09791 62.9967 6.64349 64.7284 7.99265C64.7461 6.77883 64.6619 5.56078 64.777 4.34929C64.9404 2.65523 66.3295 1.13499 68.0921 0.834707C69.83 0.470773 71.767 1.27223 72.604 2.79078C73.2909 3.91155 73.1716 5.24802 73.1672 6.49145C74.3843 6.37281 75.6829 6.60331 76.6303 7.38574C77.589 8.10896 77.9883 9.25299 78.3819 10.3124C78.7573 9.40948 79.0621 8.4325 79.782 7.71584C80.992 6.45973 83.0859 6.09389 84.676 6.87209C85.9505 7.45151 86.9419 8.6759 86.9903 10.0547C87.0806 11.1564 86.562 12.1714 86.1398 13.1632C84.2339 17.6738 82.3324 22.1886 80.4265 26.6992C80.0488 27.598 79.4282 28.429 78.5581 28.9448C77.169 29.793 75.2807 29.645 73.9291 28.7991C72.805 28.0989 72.1071 26.7986 72.2463 25.5129C72.379 24.3308 72.6151 23.1616 72.8536 21.9962C72.2023 23.3432 70.822 24.3881 69.2385 24.4325C67.5775 24.5911 65.9857 23.6626 65.1946 22.2903C62.9662 24.3735 59.4214 25.0775 56.5727 23.7875C55.4309 24.3014 54.0835 24.4938 52.8848 24.0434C52.1251 23.7937 51.5332 23.2565 50.9963 22.7069C48.207 24.3735 44.6246 24.9717 41.4846 23.9167C40.0337 23.4433 38.7528 22.576 37.7302 21.4933C35.7843 23.5826 32.7411 24.4431 29.8923 24.4393C26.7318 24.4369 23.6399 22.7856 22.0721 20.1402C21.6084 21.5485 20.9635 23.0478 19.5699 23.83C17.8937 24.7986 15.5262 24.6275 14.1018 23.3077C13.6534 22.9078 13.3465 22.3942 13.0373 21.8932C12.6179 22.6862 12.0412 23.4325 11.2109 23.8662C9.51033 24.788 7.15808 24.585 5.75372 23.2464C5.03596 22.5889 4.59868 21.7133 4.27624 20.8251C3.22501 17.9703 2.1539 15.1218 1.10487 12.267C0.654567 11.049 0.380716 9.63004 1.04105 8.43313C2.11216 6.39459 5.1243 5.71579 7.09669 6.94229C8.01299 7.46885 8.59845 8.37815 8.92509 9.33398C9.25415 8.49256 9.71351 7.65515 10.4933 7.11802C12.1097 5.95918 14.6188 6.08183 16.0386 7.48174C16.5843 7.99349 16.9043 8.66807 17.1715 9.34054C17.5359 8.19862 18.3445 7.15186 19.5127 6.67606C21.2839 5.9042 23.5123 6.44767 24.7093 7.91102C26.6417 6.58491 29.1284 6.04377 31.4672 6.47728C33.7861 6.87061 35.8267 8.2536 37.1872 10.068C38.4968 8.29568 40.4511 6.92347 42.6995 6.50667C45.3232 5.96341 48.1478 6.67606 50.1907 8.33163C50.2187 6.93743 50.1041 5.53752 50.2609 4.1503ZM52.5288 4.96656C52.5177 9.91277 52.5312 14.8588 52.5224 19.8029C52.5246 20.3529 52.5623 20.9469 52.9312 21.3973C53.4786 22.1375 54.6516 22.2624 55.4289 21.7951C55.8662 21.5475 56.0299 21.0611 56.2372 20.6487C57.8826 22.7951 61.3963 22.5837 63.3154 20.8964C66.1953 18.4727 66.4119 14.0343 64.4243 11.0333C63.481 9.56152 61.7565 8.56763 59.9433 8.54437C58.574 8.47014 57.2467 8.96941 56.1577 9.73894C56.1425 8.03262 56.2105 6.32164 56.129 4.61721C56.0979 3.59794 55.0383 2.76688 53.9868 3.01218C53.0303 3.15217 52.4782 4.09743 52.5288 4.96656ZM68.176 3.13526C67.3412 3.46705 67.01 4.37868 67.0608 5.18648C67.0694 10.2004 67.0495 15.2142 67.0694 20.2258C67.0095 21.1797 67.7319 22.1774 68.7834 22.2117C69.8589 22.3534 70.8262 21.4356 70.8108 20.4227C70.8596 15.4891 70.8063 10.5535 70.8373 5.61999C70.8309 4.94964 70.8704 4.20105 70.4022 3.64912C69.9053 3.00415 68.9245 2.80748 68.176 3.13526ZM3.02824 9.68015C2.8626 10.566 3.28663 11.4203 3.56909 12.2452C4.60045 14.992 5.6031 17.7495 6.64108 20.4946C6.95248 21.3597 7.69231 22.1819 8.71705 22.1992C9.73957 22.3303 10.7179 21.6621 11.0006 20.7297C11.7073 18.7252 12.3478 16.697 13.0479 14.69C13.6952 16.5742 14.3224 18.4649 14.9562 20.3554C15.1704 20.9854 15.4796 21.6623 16.1289 21.9814C16.9242 22.3576 17.9884 22.3047 18.6554 21.7107C19.1388 21.2857 19.3884 20.6872 19.6092 20.112C20.6894 17.1767 21.7956 14.25 22.8756 11.3148C23.1296 10.6635 23.251 9.8747 22.8051 9.27202C22.0366 8.18508 19.9827 8.34791 19.554 9.65055C18.7325 12.0718 18.0127 14.5272 17.2131 16.9548C16.3895 14.5483 15.6583 12.1124 14.8102 9.7142C14.4591 8.56805 12.8601 8.21088 11.9061 8.87912C11.4622 9.19399 11.27 9.71653 11.1002 10.1985C10.3626 12.4506 9.63599 14.705 8.8829 16.9525C8.11656 14.5989 7.39218 12.2326 6.63247 9.87893C6.31003 8.2168 3.54502 8.10684 3.02824 9.68015ZM25.2278 10.4457C22.8584 12.7718 22.5158 16.6734 24.3533 19.3846C25.2367 20.7041 26.6854 21.6409 28.2689 22.0049C30.2941 22.4745 32.4694 22.1336 34.3157 21.2457C35.0092 20.8902 35.7269 20.4527 36.0869 19.757C36.6236 18.7654 35.4796 17.4179 34.3555 17.7542C33.4809 18.0439 32.7411 18.6108 31.8643 18.9003C30.5591 19.351 28.9624 19.19 27.8915 18.3103C27.3546 17.8874 27.1295 17.2363 26.9394 16.6209C29.6934 16.5871 32.4495 16.6548 35.2013 16.5911C35.9144 16.604 36.4999 16.014 36.5153 15.3437C36.6942 12.1167 33.9778 8.94467 30.5964 8.59998C28.6333 8.36694 26.5816 9.06267 25.2278 10.4457ZM40.5304 9.88316C38.2137 11.6339 37.3281 14.7765 38.1165 17.4621C38.5891 19.1983 39.8391 20.7483 41.5418 21.5244C43.8517 22.6092 46.6522 22.3405 48.9135 21.2747C49.6514 20.9002 50.4307 20.4373 50.7797 19.676C51.2214 18.6798 50.0884 17.411 48.9906 17.758C48.2112 18.0223 47.5398 18.5066 46.7775 18.8024C45.4548 19.3588 43.7872 19.2507 42.6366 18.3818C42.0513 17.9565 41.7949 17.276 41.5898 16.6264C44.3283 16.582 47.0692 16.6518 49.8075 16.5949C50.5363 16.6224 51.1613 16.0388 51.1677 15.343C51.338 12.3402 49.01 9.39235 45.9515 8.71164C44.0814 8.30139 42.0255 8.71798 40.5304 9.88316ZM72.233 9.72879C72.0033 10.2849 72.2129 10.8855 72.4274 11.4121C73.7659 14.5672 75.0864 17.7286 76.4179 20.8858C75.9033 22.1163 75.3735 23.3407 74.8567 24.5695C74.6511 25.0982 74.4302 25.6967 74.6557 26.2528C74.9936 27.0858 76.0777 27.4328 76.9329 27.2277C77.7105 27.0077 78.1058 26.2592 78.3819 25.5909C80.4048 20.7631 82.4565 15.9438 84.4817 11.1162C84.8458 10.3676 84.6561 9.37162 83.85 8.9654C82.9092 8.3587 81.4894 8.79622 81.1071 9.82205C80.1464 12.0721 79.2476 14.3472 78.3068 16.6059C77.4874 14.4764 76.6656 12.3468 75.8573 10.2133C75.6453 9.64653 75.3077 9.05019 74.6827 8.83238C73.7878 8.4473 72.6195 8.86389 72.233 9.72879ZM28.0348 12.2791C27.5092 12.7779 27.2994 13.4758 27.1205 14.1421C29.117 14.1506 31.1134 14.1506 33.1121 14.1421C32.9241 13.4802 32.7234 12.7824 32.2044 12.2812C31.1465 11.1583 29.0946 11.1604 28.0348 12.2791ZM42.582 12.26C42.0476 12.7633 41.8311 13.4675 41.6478 14.1402C43.6443 14.1529 45.6432 14.1508 47.6397 14.1423C47.4539 13.4952 47.262 12.8122 46.7627 12.3131C45.7225 11.1668 43.6553 11.1456 42.582 12.26ZM58.4828 11.8561C57.7938 11.9978 57.2019 12.4438 56.8353 13.0129C55.9232 14.4995 56.0096 16.515 57.0232 17.9358C57.8426 19.1241 59.7927 19.3271 60.8481 18.3165C62.3125 16.902 62.3742 14.4656 61.2193 12.8564C60.6341 12.019 59.5053 11.6045 58.4828 11.8561Z" fill="#1F8EED"/>
</g>
<defs>
<clipPath id="clip0">
<rect x="0.646423" y="0.73999" width="86.3536" height="28.7746" fill="white"/>
</clipPath>
</defs>
</svg>
