<?xml version="1.0" encoding="utf-8"?>
<svg width="68px" height="53px" viewBox="0 0 68 53" version="1.1" xmlns:xlink="http://www.w3.org/1999/xlink" xmlns="http://www.w3.org/2000/svg">
  <g id="Group" transform="translate(2.193726 2.193726)">
    <path d="M5.849 0L46.801 0Q46.9446 0 47.088 0.00704538Q47.2314 0.0140908 47.3743 0.0281645Q47.5172 0.0422383 47.6592 0.0633066Q47.8013 0.0843749 47.9421 0.112387Q48.0829 0.140399 48.2222 0.175287Q48.3615 0.210175 48.4989 0.251856Q48.6363 0.293536 48.7715 0.341909Q48.9067 0.390281 49.0393 0.445229Q49.172 0.500176 49.3018 0.561567Q49.4316 0.622957 49.5582 0.690643Q49.6848 0.758328 49.808 0.832145Q49.9311 0.905963 50.0505 0.985734Q50.1699 1.06551 50.2852 1.15104Q50.4006 1.23657 50.5116 1.32766Q50.6226 1.41875 50.7289 1.51518Q50.8353 1.6116 50.9369 1.71313Q51.0384 1.81466 51.1348 1.92105Q51.2312 2.02744 51.3223 2.13843Q51.4134 2.24943 51.499 2.36475Q51.5845 2.48008 51.6643 2.59947Q51.744 2.71886 51.8179 2.84201Q51.8917 2.96517 51.9594 3.0918Q52.027 3.21843 52.0884 3.34823Q52.1498 3.47803 52.2048 3.61068Q52.2597 3.74334 52.3081 3.87853Q52.3565 4.01372 52.3981 4.15112Q52.4398 4.28853 52.4747 4.42781Q52.5096 4.56709 52.5376 4.70792Q52.5656 4.84874 52.5867 4.99077Q52.6078 5.1328 52.6218 5.2757Q52.6359 5.41859 52.643 5.562Q52.65 5.70542 52.65 5.849L52.65 35.101Q52.65 35.2446 52.643 35.388Q52.6359 35.5314 52.6218 35.6743Q52.6078 35.8172 52.5867 35.9592Q52.5656 36.1012 52.5376 36.2421Q52.5096 36.3829 52.4747 36.5222Q52.4398 36.6615 52.3981 36.7989Q52.3565 36.9363 52.3081 37.0715Q52.2597 37.2067 52.2048 37.3393Q52.1498 37.472 52.0884 37.6018Q52.027 37.7316 51.9594 37.8582Q51.8917 37.9848 51.8178 38.108Q51.744 38.2311 51.6643 38.3505Q51.5845 38.4699 51.499 38.5852Q51.4134 38.7006 51.3223 38.8116Q51.2312 38.9226 51.1348 39.0289Q51.0384 39.1353 50.9369 39.2369Q50.8353 39.3384 50.7289 39.4348Q50.6226 39.5312 50.5116 39.6223Q50.4006 39.7134 50.2852 39.799Q50.1699 39.8845 50.0505 39.9643Q49.9311 40.044 49.808 40.1179Q49.6848 40.1917 49.5582 40.2594Q49.4316 40.327 49.3018 40.3884Q49.172 40.4498 49.0393 40.5048Q48.9067 40.5597 48.7715 40.6081Q48.6363 40.6565 48.4989 40.6981Q48.3615 40.7398 48.2222 40.7747Q48.0829 40.8096 47.9421 40.8376Q47.8013 40.8656 47.6592 40.8867Q47.5172 40.9078 47.3743 40.9218Q47.2314 40.9359 47.088 40.943Q46.9446 40.95 46.801 40.95L5.849 40.95Q5.70542 40.95 5.562 40.943Q5.41859 40.9359 5.2757 40.9218Q5.1328 40.9078 4.99077 40.8867Q4.84874 40.8656 4.70792 40.8376Q4.56709 40.8096 4.42781 40.7747Q4.28853 40.7398 4.15113 40.6981Q4.01372 40.6565 3.87853 40.6081Q3.74334 40.5597 3.61068 40.5048Q3.47803 40.4498 3.34823 40.3884Q3.21843 40.327 3.0918 40.2594Q2.96517 40.1917 2.84201 40.1179Q2.71886 40.044 2.59947 39.9643Q2.48008 39.8845 2.36475 39.799Q2.24943 39.7134 2.13843 39.6223Q2.02744 39.5312 1.92105 39.4348Q1.81466 39.3384 1.71313 39.2369Q1.6116 39.1353 1.51518 39.0289Q1.41875 38.9226 1.32766 38.8116Q1.23657 38.7006 1.15104 38.5852Q1.06551 38.4699 0.985734 38.3505Q0.905963 38.2311 0.832145 38.108Q0.758328 37.9848 0.690643 37.8582Q0.622957 37.7316 0.561567 37.6018Q0.500176 37.472 0.445229 37.3393Q0.390281 37.2067 0.341909 37.0715Q0.293536 36.9363 0.251856 36.7989Q0.210175 36.6615 0.175287 36.5222Q0.140399 36.3829 0.112387 36.2421Q0.0843749 36.1012 0.0633066 35.9592Q0.0422383 35.8172 0.0281645 35.6743Q0.0140908 35.5314 0.00704538 35.388Q0 35.2446 0 35.101L0 5.849Q0 5.70542 0.00704538 5.562Q0.0140908 5.41859 0.0281645 5.2757Q0.0422383 5.1328 0.0633066 4.99077Q0.0843749 4.84874 0.112387 4.70792Q0.140399 4.56709 0.175287 4.42781Q0.210175 4.28853 0.251856 4.15113Q0.293536 4.01372 0.341909 3.87853Q0.390281 3.74334 0.445229 3.61068Q0.500176 3.47803 0.561567 3.34823Q0.622957 3.21843 0.690643 3.0918Q0.758328 2.96517 0.832145 2.84201Q0.905963 2.71886 0.985734 2.59947Q1.06551 2.48008 1.15104 2.36475Q1.23657 2.24943 1.32766 2.13843Q1.41875 2.02744 1.51518 1.92105Q1.6116 1.81466 1.71313 1.71313Q1.81466 1.6116 1.92105 1.51518Q2.02744 1.41875 2.13843 1.32766Q2.24943 1.23657 2.36475 1.15104Q2.48008 1.06551 2.59947 0.985734Q2.71886 0.905963 2.84201 0.832145Q2.96517 0.758328 3.0918 0.690643Q3.21843 0.622957 3.34823 0.561567Q3.47803 0.500176 3.61068 0.445229Q3.74334 0.390281 3.87853 0.341909Q4.01372 0.293536 4.15112 0.251856Q4.28853 0.210175 4.42781 0.175287Q4.56709 0.140399 4.70792 0.112387Q4.84874 0.0843749 4.99077 0.0633066Q5.1328 0.0422383 5.2757 0.0281645Q5.41859 0.0140908 5.562 0.00704538Q5.70542 0 5.849 0Z" transform="translate(10.2 6.800001)" id="Rectangle" fill="#A1ABCD" fill-opacity="0.349019617" stroke="none" />
    <path d="M5.849 0L46.801 0Q46.9446 0 47.088 0.00704538Q47.2314 0.0140908 47.3743 0.0281645Q47.5172 0.0422383 47.6592 0.0633066Q47.8013 0.0843749 47.9421 0.112387Q48.0829 0.140399 48.2222 0.175287Q48.3615 0.210175 48.4989 0.251856Q48.6363 0.293536 48.7715 0.341909Q48.9067 0.390281 49.0393 0.445229Q49.172 0.500176 49.3018 0.561567Q49.4316 0.622957 49.5582 0.690643Q49.6848 0.758328 49.808 0.832145Q49.9311 0.905963 50.0505 0.985734Q50.1699 1.06551 50.2852 1.15104Q50.4006 1.23657 50.5116 1.32766Q50.6226 1.41875 50.7289 1.51518Q50.8353 1.6116 50.9369 1.71313Q51.0384 1.81466 51.1348 1.92105Q51.2312 2.02744 51.3223 2.13843Q51.4134 2.24943 51.499 2.36475Q51.5845 2.48008 51.6643 2.59947Q51.744 2.71886 51.8179 2.84201Q51.8917 2.96517 51.9594 3.0918Q52.027 3.21843 52.0884 3.34823Q52.1498 3.47803 52.2048 3.61068Q52.2597 3.74334 52.3081 3.87853Q52.3565 4.01372 52.3981 4.15112Q52.4398 4.28853 52.4747 4.42781Q52.5096 4.56709 52.5376 4.70792Q52.5656 4.84874 52.5867 4.99077Q52.6078 5.1328 52.6218 5.2757Q52.6359 5.41859 52.643 5.562Q52.65 5.70542 52.65 5.849L52.65 35.101Q52.65 35.2446 52.643 35.388Q52.6359 35.5314 52.6218 35.6743Q52.6078 35.8172 52.5867 35.9592Q52.5656 36.1013 52.5376 36.2421Q52.5096 36.3829 52.4747 36.5222Q52.4398 36.6615 52.3981 36.7989Q52.3565 36.9363 52.3081 37.0715Q52.2597 37.2067 52.2048 37.3393Q52.1498 37.472 52.0884 37.6018Q52.027 37.7316 51.9594 37.8582Q51.8917 37.9848 51.8178 38.108Q51.744 38.2311 51.6643 38.3505Q51.5845 38.4699 51.499 38.5852Q51.4134 38.7006 51.3223 38.8116Q51.2312 38.9226 51.1348 39.0289Q51.0384 39.1353 50.9369 39.2369Q50.8353 39.3384 50.7289 39.4348Q50.6226 39.5312 50.5116 39.6223Q50.4006 39.7134 50.2852 39.799Q50.1699 39.8845 50.0505 39.9643Q49.9311 40.044 49.808 40.1179Q49.6848 40.1917 49.5582 40.2594Q49.4316 40.327 49.3018 40.3884Q49.172 40.4498 49.0393 40.5048Q48.9067 40.5597 48.7715 40.6081Q48.6363 40.6565 48.4989 40.6981Q48.3615 40.7398 48.2222 40.7747Q48.0829 40.8096 47.9421 40.8376Q47.8013 40.8656 47.6592 40.8867Q47.5172 40.9078 47.3743 40.9218Q47.2314 40.9359 47.088 40.943Q46.9446 40.95 46.801 40.95L5.849 40.95Q5.70542 40.95 5.562 40.943Q5.41859 40.9359 5.2757 40.9218Q5.1328 40.9078 4.99077 40.8867Q4.84874 40.8656 4.70792 40.8376Q4.56709 40.8096 4.42781 40.7747Q4.28853 40.7398 4.15113 40.6981Q4.01372 40.6565 3.87853 40.6081Q3.74334 40.5597 3.61068 40.5048Q3.47803 40.4498 3.34823 40.3884Q3.21843 40.327 3.0918 40.2594Q2.96517 40.1917 2.84201 40.1179Q2.71886 40.044 2.59947 39.9643Q2.48008 39.8845 2.36475 39.799Q2.24943 39.7134 2.13843 39.6223Q2.02744 39.5312 1.92105 39.4348Q1.81466 39.3384 1.71313 39.2369Q1.6116 39.1353 1.51518 39.0289Q1.41875 38.9226 1.32766 38.8116Q1.23657 38.7006 1.15104 38.5852Q1.06551 38.4699 0.985734 38.3505Q0.905963 38.2311 0.832145 38.108Q0.758328 37.9848 0.690643 37.8582Q0.622957 37.7316 0.561567 37.6018Q0.500176 37.472 0.445229 37.3393Q0.390281 37.2067 0.341909 37.0715Q0.293536 36.9363 0.251856 36.7989Q0.210175 36.6615 0.175287 36.5222Q0.140399 36.3829 0.112387 36.2421Q0.0843749 36.1013 0.0633066 35.9592Q0.0422383 35.8172 0.0281645 35.6743Q0.0140908 35.5314 0.00704538 35.388Q0 35.2446 0 35.101L0 5.849Q0 5.70542 0.00704538 5.562Q0.0140908 5.41859 0.0281645 5.2757Q0.0422383 5.1328 0.0633066 4.99077Q0.0843749 4.84874 0.112387 4.70792Q0.140399 4.56709 0.175287 4.42781Q0.210175 4.28853 0.251856 4.15113Q0.293536 4.01372 0.341909 3.87853Q0.390281 3.74334 0.445229 3.61068Q0.500176 3.47803 0.561567 3.34823Q0.622957 3.21843 0.690643 3.0918Q0.758328 2.96517 0.832145 2.84201Q0.905963 2.71886 0.985734 2.59947Q1.06551 2.48008 1.15104 2.36475Q1.23657 2.24943 1.32766 2.13843Q1.41875 2.02744 1.51518 1.92105Q1.6116 1.81466 1.71313 1.71313Q1.81466 1.6116 1.92105 1.51518Q2.02744 1.41875 2.13843 1.32766Q2.24943 1.23657 2.36475 1.15104Q2.48008 1.06551 2.59947 0.985734Q2.71886 0.905963 2.84201 0.832145Q2.96517 0.758328 3.0918 0.690643Q3.21843 0.622957 3.34823 0.561567Q3.47803 0.500176 3.61068 0.445229Q3.74334 0.390281 3.87853 0.341909Q4.01372 0.293536 4.15112 0.251856Q4.28853 0.210175 4.42781 0.175287Q4.56709 0.140399 4.70792 0.112387Q4.84874 0.0843749 4.99077 0.0633066Q5.1328 0.0422383 5.2757 0.0281645Q5.41859 0.0140908 5.562 0.00704538Q5.70542 0 5.849 0Z" transform="translate(0.7750005 0.6250008)" id="Rectangle" fill="none" stroke="#202842" stroke-width="3" stroke-linecap="round" stroke-linejoin="round" />
    <path d="M0 0L26.325 17.55L52.65 0" transform="translate(0.7750005 6.475001)" id="Path" fill="none" stroke="#202842" stroke-width="3" stroke-linecap="round" stroke-linejoin="round" />
  </g>
</svg>