<svg id="Capa_1" data-name="Capa 1" xmlns="http://www.w3.org/2000/svg" viewBox="0 0 412.21 367.07"><defs><style>.cls-1{fill:#9992ff;fill-opacity:0.18;}.cls-2{fill:#f7cd59;}.cls-3{fill:#f5f5ff;}.cls-4{fill:#dadaf2;}.cls-5{fill:#ed9022;}.cls-6{fill:#cc751d;}.cls-7{fill:#c2c2c4;}.cls-8{fill:#e2ae39;}</style></defs><title>swords</title><g id="Group-18"><path id="Oval" class="cls-1" d="M259.81,474.16c113.83,0,206.11-19.94,206.11-44.54s-92.28-44.55-206.11-44.55S53.7,405,53.7,429.62,146,474.16,259.81,474.16Z" transform="translate(-53.7 -107.09)"/></g><polygon class="cls-2" points="250.43 255.33 278.91 259.97 270.92 310.33 242.44 305.69 250.43 255.33"/><polygon class="cls-3" points="276.12 40.91 239.46 251.73 318.06 263.33 354.71 52.51 323.54 0 276.12 40.91"/><polygon class="cls-4" points="280.92 261.95 320.83 267.25 356.55 53.27 324.55 0.57 280.92 261.95"/><polygon class="cls-2" points="345.89 224.71 338.49 269.55 218.25 250.74 225.65 205.9 345.89 224.71"/><polygon class="cls-5" points="348.57 225.28 339.4 270.04 278.97 260.51 288.14 215.76 348.57 225.28"/><polygon class="cls-6" points="278.89 260.77 307.11 264.47 297.68 313.88 269.46 310.18 278.89 260.77"/><polygon class="cls-3" points="34.65 174.05 64.72 282.13 124.9 262.89 94.83 154.8 58.07 140.48 34.65 174.05"/><polygon class="cls-4" points="97.56 273.86 127.97 263.81 96.36 154.58 58.96 140.42 97.56 273.86"/><polygon class="cls-2" points="148.21 265.69 50.2 289.03 46.97 279.08 144.98 255.74 148.21 265.69"/><path class="cls-7" d="M259.18,208.59l-39.91-8.42a4.38,4.38,0,0,0-5.18,3.38l-.76,3.62a4.43,4.43,0,0,0,3.39,5.21l23.3,4.94-44.77,29.19a4.25,4.25,0,0,0-1.27,6l2,3.1a4.43,4.43,0,0,0,6.06,1.41L247,227.68l-5,23.49a4.26,4.26,0,0,0,.6,3.26,4.31,4.31,0,0,0,2.75,1.88l3.62.76a4.38,4.38,0,0,0,5.17-3.38l8.41-39.91a4.4,4.4,0,0,0-3.38-5.19Z" transform="translate(-53.7 -107.09)"/><polygon class="cls-8" points="115.85 307.56 102.73 309.83 93.93 276.96 107.04 274.69 115.85 307.56"/></svg>