<?xml version="1.0" standalone="no"?>
<!DOCTYPE svg PUBLIC "-//W3C//DTD SVG 1.1//EN" "http://www.w3.org/Graphics/SVG/1.1/DTD/svg11.dtd" >
<svg>
<metadata>
Created by FontForge 20090622 at Fri Jun  5 10:14:00 2020
 By deploy user
Copyright (c) JT Types Ltd, 2006. All rights reserved.
</metadata>
<defs>
<font id="BlissPro-Light" horiz-adv-x="523" >
  <font-face 
    font-family="Bliss Pro Light"
    font-weight="300"
    font-stretch="normal"
    units-per-em="1000"
    panose-1="2 0 5 6 5 0 0 2 0 4"
    ascent="800"
    descent="-200"
    x-height="473"
    cap-height="659"
    bbox="-179 -241 1121 953"
    underline-thickness="50"
    underline-position="-50"
    unicode-range="U+0020-U+FB02"
  />
<missing-glyph horiz-adv-x="550" 
d="M50 0v659h450v-659h-450zM101 48h348v563h-348v-563zM231 222q-29 29 -29 60q0 25 20.5 48.5t44.5 38.5t44.5 37.5t20.5 47.5q0 21 -15.5 34t-39.5 13q-41 0 -85 -39l-27 35q49 51 117 51q48 0 77 -25.5t29 -65.5q0 -31 -20.5 -59t-45.5 -45t-45.5 -35.5t-20.5 -32.5
q0 -16 17 -35zM255 107q-16 0 -27 11t-11 28t11 28.5t27 11.5t26.5 -11.5t10.5 -28.5t-10.5 -28t-26.5 -11z" />
    <glyph glyph-name="fi" unicode="fi" horiz-adv-x="526" 
d="M99 0v413h-63v60h63v83q0 80 39.5 116t96.5 36q40 0 73 -15l-16 -60q-28 11 -51 11q-69 0 -69 -85v-86h120l-22 -60h-98v-413h-73zM378 0v473h73v-473h-73zM414 580q-22 0 -35.5 14t-13.5 35t14 35.5t35 14.5q22 0 36 -14t14 -36q0 -21 -14 -35t-36 -14z" />
    <glyph glyph-name="fl" unicode="fl" horiz-adv-x="543" 
d="M99 0v413h-63v60h63v83q0 80 39.5 116t96.5 36q40 0 73 -15l-16 -60q-28 11 -51 11q-69 0 -69 -85v-86h120l-22 -60h-98v-413h-73zM371 86v622h73v-599q0 -28 8.5 -39t28.5 -11q13 0 29 7l16 -58q-30 -14 -66 -14q-44 0 -66.5 24t-22.5 68z" />
    <glyph glyph-name=".notdef" horiz-adv-x="550" 
d="M50 0v659h450v-659h-450zM101 48h348v563h-348v-563zM231 222q-29 29 -29 60q0 25 20.5 48.5t44.5 38.5t44.5 37.5t20.5 47.5q0 21 -15.5 34t-39.5 13q-41 0 -85 -39l-27 35q49 51 117 51q48 0 77 -25.5t29 -65.5q0 -31 -20.5 -59t-45.5 -45t-45.5 -35.5t-20.5 -32.5
q0 -16 17 -35zM255 107q-16 0 -27 11t-11 28t11 28.5t27 11.5t26.5 -11.5t10.5 -28.5t-10.5 -28t-26.5 -11z" />
    <glyph glyph-name=".null" horiz-adv-x="0" 
 />
    <glyph glyph-name="nonmarkingreturn" horiz-adv-x="333" 
 />
    <glyph glyph-name="space" unicode=" " horiz-adv-x="226" 
 />
    <glyph glyph-name="exclam" unicode="!" horiz-adv-x="267" 
d="M114 175q-12 87 -14.5 159t-2.5 274v51h73v-52q0 -195 -3 -269t-15 -163h-38zM133 -8q-19 0 -33 15t-14 35t14 34.5t33 14.5q20 0 34 -14.5t14 -34.5t-14 -35t-34 -15z" />
    <glyph glyph-name="quotedbl" unicode="&#x22;" horiz-adv-x="340" 
d="M73 489l-11 219h73l-9 -219h-53zM218 489l-11 219h73l-9 -219h-53z" />
    <glyph glyph-name="numbersign" unicode="#" horiz-adv-x="668" 
d="M128 0l37 179h-124v62h138l37 176h-124v62h137l37 179h70l-37 -179h131l37 179h71l-38 -179h125v-62h-138l-37 -176h124v-62h-137l-37 -179h-70l37 179h-131l-37 -179h-71zM249 241h131l37 176h-131z" />
    <glyph glyph-name="dollar" unicode="$" 
d="M220 -80v98q-80 5 -145 46l30 56q61 -41 133 -41q48 0 84.5 22.5t36.5 70.5q0 40 -28 71t-67.5 53l-79 46t-67.5 62.5t-28 88.5q0 58 38.5 101.5t107.5 51.5v94h60v-93q64 -5 113 -28v-65q-64 33 -134 33q-49 0 -79.5 -23t-30.5 -67q0 -37 28 -66.5t68 -51.5t79.5 -46
t67.5 -63.5t28 -91.5q0 -64 -40.5 -105.5t-114.5 -53.5v-99h-60z" />
    <glyph glyph-name="percent" unicode="%" horiz-adv-x="827" 
d="M206 318q-64 0 -106 45t-42 128t42 128t106 45q65 0 106.5 -45t41.5 -128t-41.5 -128t-106.5 -45zM206 369q40 0 63 33.5t23 88.5t-23 88.5t-63 33.5t-62.5 -33.5t-22.5 -88.5t22.5 -88.5t62.5 -33.5zM621 -10q-64 0 -106 45.5t-42 127.5q0 83 42 128.5t106 45.5
t106 -45.5t42 -128.5q0 -82 -42 -127.5t-106 -45.5zM621 42q40 0 62.5 33t22.5 88q0 56 -22.5 89t-62.5 33q-41 0 -63.5 -33t-22.5 -89q0 -55 22.5 -88t63.5 -33zM175 0l411 659h66l-412 -659h-65z" />
    <glyph glyph-name="ampersand" unicode="&#x26;" horiz-adv-x="715" 
d="M480 77q-105 -87 -226 -87q-91 0 -143.5 53t-52.5 130q0 131 146 194q-32 37 -46 56t-25 46t-11 57q0 58 46.5 98t120.5 40q77 0 122.5 -38.5t45.5 -101.5q0 -56 -36.5 -97.5t-107.5 -77.5q80 -96 171 -182q67 70 98 157l64 -16q-41 -109 -114 -185q37 -35 64 -51t58 -16
q10 0 22 4l17 -59q-20 -7 -50 -7q-70 0 -163 83zM263 53q83 0 167 67q-101 97 -187 200q-59 -27 -83.5 -61t-24.5 -79q0 -56 35 -91.5t93 -35.5zM272 397q109 51 109 126q0 31 -22 57t-69 26q-45 0 -68.5 -23.5t-23.5 -55.5q0 -28 18 -57.5t56 -72.5z" />
    <glyph glyph-name="quotesingle" unicode="'" horiz-adv-x="195" 
d="M73 489l-12 219h74l-10 -219h-52z" />
    <glyph glyph-name="parenleft" unicode="(" horiz-adv-x="313" 
d="M237 -236q-159 188 -159 504q0 315 159 505l50 -36q-72 -101 -102.5 -204t-30.5 -265t30.5 -264.5t102.5 -203.5z" />
    <glyph glyph-name="parenright" unicode=")" horiz-adv-x="313" 
d="M26 -200q72 101 103 204t31 264t-31 264t-103 205l50 36q159 -190 159 -505t-158 -504z" />
    <glyph glyph-name="asterisk" unicode="*" horiz-adv-x="474" 
d="M207 337q-1 29 6 86.5t8 73.5l-38 -28.5l-49.5 -36.5t-43.5 -27l-30 51q26 16 79.5 39t66.5 29l-62.5 27t-82.5 41l28 51q27 -15 75 -51t58 -42q-1 14 -5 47t-6.5 61.5t-2.5 52.5h59q1 -29 -6 -87.5t-8 -73.5q1 1 53 39t80 54l29 -52q-26 -15 -82 -38.5t-66 -28.5
q6 -3 63 -27.5t84 -40.5l-29 -52q-27 15 -74 50.5t-59 43.5q0 -2 8 -65.5t7 -95.5h-60z" />
    <glyph glyph-name="plus" unicode="+" 
d="M227 0v222h-202v63h202v216h69v-216h202v-63h-202v-222h-69z" />
    <glyph glyph-name="comma" unicode="," horiz-adv-x="223" 
d="M39 -117q46 75 46 150q0 35 -7 67l74 14q6 -33 6 -64q0 -105 -82 -188z" />
    <glyph glyph-name="hyphen" unicode="-" horiz-adv-x="356" 
d="M54 215v65h249v-65h-249z" />
    <glyph glyph-name="period" unicode="." horiz-adv-x="223" 
d="M112 -8q-20 0 -34 15t-14 35t14 34.5t34 14.5q19 0 33 -14.5t14 -34.5t-14 -35t-33 -15z" />
    <glyph glyph-name="slash" unicode="/" horiz-adv-x="352" 
d="M17 -33l249 729h71l-249 -729h-71z" />
    <glyph glyph-name="zero" unicode="0" horiz-adv-x="552" 
d="M276 -10q-101 0 -162 88.5t-61 248.5t61 248.5t162 88.5t162 -88.5t61 -248.5t-61 -248.5t-162 -88.5zM276 54q68 0 107 72.5t39 200.5t-39 200.5t-107 72.5t-107 -72.5t-39 -200.5t39 -200.5t107 -72.5z" />
    <glyph glyph-name="one" unicode="1" horiz-adv-x="410" 
d="M218 0v584l-155 -76l-26 59l193 97h61v-664h-73z" />
    <glyph glyph-name="two" unicode="2" horiz-adv-x="504" 
d="M40 0q6 71 27 128.5t50 94.5t62.5 67.5t66 53t59 44.5t43 49.5t16.5 60.5q0 52 -33 77t-85 25q-80 0 -160 -44l-23 58q84 50 189 50q93 0 141.5 -45t48.5 -117q0 -47 -20.5 -85.5t-51.5 -63l-69 -54l-72 -58t-61 -75t-36 -103.5h309v-63h-401z" />
    <glyph glyph-name="three" unicode="3" horiz-adv-x="526" 
d="M38 22l20 61q68 -29 142 -29q75 0 123.5 33t48.5 99q0 88 -94 109q-31 7 -85 7h-72v63h61q172 0 172 124q0 51 -30.5 81t-89.5 30q-77 0 -157 -44l-23 58q88 50 185 50q93 0 142.5 -48.5t49.5 -121.5q0 -111 -107 -152v-2q59 -12 92 -51.5t33 -101.5q0 -86 -64 -141.5
t-186 -55.5q-90 0 -161 32z" />
    <glyph glyph-name="four" unicode="4" horiz-adv-x="547" 
d="M47 175v55l315 434h52v-427h97v-62h-97v-175h-72v175h-295zM128 236q10 0 38 0.5t42 0.5h134v158q0 91 5 149z" />
    <glyph glyph-name="five" unicode="5" horiz-adv-x="506" 
d="M48 18l20 60q55 -24 121 -24q76 0 123.5 37t47.5 106q0 89 -82 119q-35 14 -114 14h-72v329h345l-17 -63h-256v-204h26q74 0 118 -15q129 -44 129 -178q0 -92 -63 -150.5t-187 -58.5q-83 0 -139 28z" />
    <glyph glyph-name="six" unicode="6" horiz-adv-x="534" 
d="M283 -10q-100 0 -165 79.5t-65 231.5q0 154 76.5 258.5t204.5 104.5q66 0 120 -25l-21 -60q-47 22 -97 22q-82 0 -138 -64.5t-67 -177.5q79 50 163 50q86 0 141.5 -53.5t55.5 -148.5q0 -100 -58 -158.5t-150 -58.5zM282 53q62 0 97 38t35 109q0 68 -36.5 107t-94.5 39
q-79 0 -152 -54q-1 -107 41 -173t110 -66z" />
    <glyph glyph-name="seven" unicode="7" horiz-adv-x="468" 
d="M85 0q61 325 257 596h-299l-17 63h413v-31q-214 -285 -277 -628h-77z" />
    <glyph glyph-name="eight" unicode="8" horiz-adv-x="548" 
d="M269 -10q-101 0 -158.5 48t-57.5 130q0 64 36 108.5t93 63.5v2q-109 48 -109 150q0 76 55.5 124t147.5 48q91 0 143 -49t52 -118q0 -106 -107 -155v-2q131 -48 131 -166q0 -81 -61.5 -132.5t-164.5 -51.5zM273 52q60 0 102.5 31t42.5 87q0 31 -13 54.5t-40 39.5t-50.5 25
t-62.5 21q-51 -16 -86.5 -49.5t-35.5 -83.5q0 -61 41 -93t102 -32zM293 369q101 37 101 123q0 48 -32.5 79.5t-87.5 31.5q-54 0 -88.5 -28.5t-34.5 -75.5q0 -54 38 -83t104 -47z" />
    <glyph glyph-name="nine" unicode="9" horiz-adv-x="528" 
d="M198 -10q-73 0 -137 27l19 62q57 -26 119 -26q89 0 141 65.5t59 186.5h-2q-69 -60 -158 -60q-80 0 -138 50.5t-58 152.5q0 95 57.5 155.5t148.5 60.5q105 0 165.5 -79t60.5 -232q0 -170 -71.5 -266.5t-205.5 -96.5zM254 308q42 0 81.5 21.5t61.5 51.5q0 101 -40.5 161
t-108.5 60q-59 0 -93.5 -41.5t-34.5 -106.5q0 -68 35 -107t99 -39z" />
    <glyph glyph-name="colon" unicode=":" horiz-adv-x="223" 
d="M112 342q-20 0 -34 15t-14 35t14 34.5t34 14.5q19 0 33 -14.5t14 -34.5t-14 -35t-33 -15zM112 -8q-20 0 -34 15t-14 35t14 34.5t34 14.5q19 0 33 -14.5t14 -34.5t-14 -35t-33 -15z" />
    <glyph glyph-name="semicolon" unicode=";" horiz-adv-x="223" 
d="M109 342q-19 0 -33 15t-14 35t14 34.5t33 14.5q20 0 34 -14.5t14 -34.5t-14 -35t-34 -15zM39 -117q46 75 46 150q0 35 -7 67l74 14q6 -33 6 -64q0 -105 -82 -188z" />
    <glyph glyph-name="less" unicode="&#x3c;" horiz-adv-x="592" 
d="M70 228v64l418 188v-66l-349 -153v-2l349 -153v-66z" />
    <glyph glyph-name="equal" unicode="=" 
d="M25 137v63h473v-63h-473zM25 307v62h473v-62h-473z" />
    <glyph glyph-name="greater" unicode="&#x3e;" horiz-adv-x="592" 
d="M105 40v66l348 153v2l-348 153v66l418 -188v-64z" />
    <glyph glyph-name="question" unicode="?" horiz-adv-x="456" 
d="M158 176q-38 41 -38 88q0 41 31 76t67.5 57t67.5 54.5t31 69.5q0 38 -24.5 59t-62.5 21q-71 0 -134 -58l-35 49q75 72 176 72q74 0 116.5 -38.5t42.5 -99.5q0 -40 -21 -73.5t-50.5 -56l-59 -43t-50.5 -43t-21 -46.5q0 -29 23 -55zM192 -8q-19 0 -33 15t-14 35t14 34.5
t33 14.5q20 0 33.5 -14.5t13.5 -34.5q0 -21 -13.5 -35.5t-33.5 -14.5z" />
    <glyph glyph-name="at" unicode="@" horiz-adv-x="768" 
d="M476 -64l16 -50q-66 -26 -149 -26q-134 0 -219.5 90.5t-85.5 239.5q0 171 104 275.5t254 104.5q146 0 240 -87t94 -227q0 -109 -47 -167.5t-120 -58.5q-39 0 -65 22t-32 62h-2q-15 -33 -51.5 -58t-83.5 -25q-52 0 -88 37.5t-36 117.5q0 99 57.5 161.5t143.5 62.5
q71 0 136 -40l-22 -163q-4 -38 -4 -52q0 -71 53 -71q45 0 73 46t28 123q0 110 -72.5 187.5t-203.5 77.5q-125 0 -210 -88.5t-85 -235.5q0 -132 71 -207t181 -75q74 0 125 24zM464 253l11 83q-29 20 -69 20q-57 0 -95.5 -47t-38.5 -121q0 -49 18.5 -75.5t51.5 -26.5
q42 0 76.5 38t45.5 129z" />
    <glyph glyph-name="A" unicode="A" horiz-adv-x="587" 
d="M17 0l250 661h51l252 -661h-80l-65 177h-265l-65 -177h-78zM183 239h218l-68 190q-22 60 -39 114h-2q-10 -30 -40 -114z" />
    <glyph glyph-name="B" unicode="B" horiz-adv-x="534" 
d="M86 0v659h153q100 0 151 -47.5t51 -119.5q0 -50 -23 -88t-64 -55v-2q57 -12 92.5 -55.5t35.5 -104.5q0 -85 -58.5 -136t-165.5 -51h-172zM160 62h98q148 0 148 123q0 55 -38 88t-101 33h-107v-244zM160 368h72q65 0 100 30.5t35 85.5q0 52 -32 82.5t-100 30.5h-75v-229z
" />
    <glyph glyph-name="C" unicode="C" horiz-adv-x="590" 
d="M532 95l20 -59q-86 -46 -184 -46q-145 0 -229.5 92t-84.5 239t91.5 245t235.5 98q102 0 163 -35v-70q-75 41 -162 41q-111 0 -180.5 -79t-69.5 -195q0 -122 66 -197t177 -75q80 0 157 41z" />
    <glyph glyph-name="D" unicode="D" horiz-adv-x="647" 
d="M86 0v659h158q171 0 260 -89.5t89 -236.5q0 -149 -90 -241t-262 -92h-155zM160 63h80q144 0 209.5 75.5t65.5 197.5q0 119 -69.5 189.5t-207.5 70.5h-78v-533z" />
    <glyph glyph-name="E" unicode="E" horiz-adv-x="468" 
d="M86 0v659h318l-24 -63h-220v-228h217v-63h-217v-242h250v-63h-324z" />
    <glyph glyph-name="F" unicode="F" horiz-adv-x="447" 
d="M86 0v659h319l-24 -63h-221v-228h217v-63h-217v-305h-74z" />
    <glyph glyph-name="G" unicode="G" horiz-adv-x="673" 
d="M595 311v-271q-96 -50 -216 -50q-146 0 -235.5 92t-89.5 238q0 152 94 248t246 96q95 0 180 -35v-70q-82 42 -176 42q-125 0 -195.5 -75t-70.5 -198q0 -126 69.5 -200t186.5 -74q80 0 134 27v230h73z" />
    <glyph glyph-name="H" unicode="H" horiz-adv-x="680" 
d="M86 0v659h74v-290h361v290h73v-659h-73v306h-361v-306h-74z" />
    <glyph glyph-name="I" unicode="I" horiz-adv-x="246" 
d="M86 0v659h74v-659h-74z" />
    <glyph glyph-name="J" unicode="J" horiz-adv-x="288" 
d="M-26 -173l13 63q23 -8 51 -8q52 0 71 27.5t19 82.5v667h74v-682q0 -159 -163 -159q-34 0 -65 9z" />
    <glyph glyph-name="K" unicode="K" horiz-adv-x="537" 
d="M86 0v659h74v-302h2l250 302h88l-274 -326l292 -333h-93l-263 301h-2v-301h-74z" />
    <glyph glyph-name="L" unicode="L" horiz-adv-x="428" 
d="M86 0v659h74v-596h245v-63h-319z" />
    <glyph glyph-name="M" unicode="M" horiz-adv-x="791" 
d="M86 0v659h69l184 -277q42 -63 61 -95h2q6 11 61 99l173 273h69v-659h-74v423q0 77 2 112h-2q-20 -38 -47 -80l-163 -260h-39l-177 265q-32 45 -45 73h-2q2 -31 2 -109v-424h-74z" />
    <glyph glyph-name="N" unicode="N" horiz-adv-x="716" 
d="M630 0h-62l-316 418q-48 62 -93 127h-2q3 -49 3 -113v-432h-74v659h71l304 -402l96 -133h2q-2 35 -2 116v419h73v-659z" />
    <glyph glyph-name="O" unicode="O" horiz-adv-x="750" 
d="M375 -10q-140 0 -230.5 92.5t-90.5 243.5q0 149 90.5 243.5t230.5 94.5t230.5 -95t90.5 -243q0 -151 -91.5 -243.5t-229.5 -92.5zM375 54q110 0 176.5 74.5t66.5 197.5q0 120 -64.5 197t-178.5 77q-110 0 -176.5 -75.5t-66.5 -198.5t66.5 -197.5t176.5 -74.5z" />
    <glyph glyph-name="P" unicode="P" horiz-adv-x="502" 
d="M86 0v659h124q90 0 143 -30q95 -54 95 -178q0 -61 -27 -109t-83 -74q-55 -25 -135 -25h-43v-243h-74zM160 305h49q58 0 96 20q67 35 67 126q0 87 -63 124q-36 22 -99 22h-50v-292z" />
    <glyph glyph-name="Q" unicode="Q" horiz-adv-x="750" 
d="M290 0q-107 26 -171.5 112.5t-64.5 213.5q0 149 90.5 243.5t230.5 94.5t230.5 -95t90.5 -243q0 -147 -86.5 -238t-220.5 -96q71 -86 164 -86q44 0 77 12l17 -59q-45 -17 -105 -17q-80 0 -138.5 41.5t-113.5 116.5zM375 54q110 0 176.5 74.5t66.5 197.5q0 120 -64.5 197
t-178.5 77q-110 0 -176.5 -75.5t-66.5 -198.5t66.5 -197.5t176.5 -74.5z" />
    <glyph glyph-name="R" unicode="R" horiz-adv-x="540" 
d="M86 0v659h134q95 0 149 -35q77 -48 77 -145q0 -133 -134 -174v-2q25 -12 79 -105l120 -198h-86l-115 191q-49 82 -76 89h-74v-280h-74zM160 342h62q53 0 91 22q57 34 57 108q0 64 -42 94q-36 31 -105 31h-63v-255z" />
    <glyph glyph-name="S" unicode="S" horiz-adv-x="491" 
d="M53 40l31 58q67 -44 143 -44q58 0 95.5 26t37.5 81q0 43 -30 75.5t-72.5 55l-85 46.5t-72.5 64.5t-30 94.5q0 72 52 119.5t142 47.5q83 0 143 -30v-69q-64 36 -141 36q-50 0 -84.5 -24t-34.5 -73q0 -41 30 -72t72.5 -53.5l85 -47t72.5 -66.5t30 -99q0 -82 -57.5 -129
t-153.5 -47q-101 0 -173 50z" />
    <glyph glyph-name="T" unicode="T" horiz-adv-x="496" 
d="M209 0v596h-189v63h473l-24 -63h-186v-596h-74z" />
    <glyph glyph-name="U" unicode="U" horiz-adv-x="652" 
d="M326 -10q-181 0 -230 140q-15 46 -15 106v423h74v-416q0 -54 13 -92q36 -98 158 -98t158 98q13 34 13 95v413h74v-423q0 -64 -17 -108q-49 -138 -228 -138z" />
    <glyph glyph-name="V" unicode="V" horiz-adv-x="607" 
d="M276 -3l-260 662h80l155 -401l53 -144h2q28 84 52 146l154 399h80l-262 -662h-54z" />
    <glyph glyph-name="W" unicode="W" horiz-adv-x="900" 
d="M238 -3l-222 662h82l128 -396l44 -148h2q16 54 48 147l98 285l-39 112h80l133 -398q35 -102 46 -145h2q18 74 41 143l125 400h78l-218 -662h-59l-105 309q-32 96 -46 142h-3q-16 -56 -46 -142l-109 -309h-60z" />
    <glyph glyph-name="X" unicode="X" horiz-adv-x="588" 
d="M21 0l230 332l-216 327h86l178 -270l184 270h84l-224 -326l221 -333h-85l-183 276l-191 -276h-84z" />
    <glyph glyph-name="Y" unicode="Y" horiz-adv-x="536" 
d="M233 0v263l-217 396h82l172 -323h2l168 323h80l-214 -397v-262h-73z" />
    <glyph glyph-name="Z" unicode="Z" horiz-adv-x="546" 
d="M50 0l331 596h-308l-21 63h444l-329 -596h346v-63h-463z" />
    <glyph glyph-name="bracketleft" unicode="[" horiz-adv-x="277" 
d="M86 -233v1004h164v-58h-96v-888h96v-58h-164z" />
    <glyph glyph-name="backslash" unicode="\" horiz-adv-x="362" 
d="M269 -33l-249 729h72l249 -729h-72z" />
    <glyph glyph-name="bracketright" unicode="]" horiz-adv-x="277" 
d="M28 -233v58h96v888h-96v58h164v-1004h-164z" />
    <glyph glyph-name="asciicircum" unicode="^" horiz-adv-x="586" 
d="M99 287l161 372h66l161 -372h-67l-126 303h-2l-127 -303h-66z" />
    <glyph glyph-name="underscore" unicode="_" horiz-adv-x="448" 
d="M0 -116v50h448v-50h-448z" />
    <glyph glyph-name="grave" unicode="`" horiz-adv-x="360" 
d="M165 531l-86 147h87l58 -147h-59z" />
    <glyph glyph-name="a" unicode="a" horiz-adv-x="461" 
d="M344 0l-14 53q-67 -63 -142 -63q-66 0 -108 39.5t-42 106.5q0 91 80 128q39 20 118 23l90 3v30q0 52 -28 78t-74 26q-66 0 -130 -39l-28 52q75 48 166 48q77 0 122.5 -40t45.5 -121v-163q0 -125 9 -161h-65zM326 234l-83 -3q-57 -1 -89 -18q-41 -23 -41 -73
q0 -39 24 -63.5t64 -24.5q66 0 125 62v120z" />
    <glyph glyph-name="b" unicode="b" horiz-adv-x="500" 
d="M201 -10q-80 0 -132 29v689h73v-245q57 22 107 22q92 0 152 -62t60 -173q0 -121 -72.5 -190.5t-187.5 -69.5zM211 53q78 0 126 52.5t48 141.5q0 79 -38 127t-108 48q-14 0 -27.5 -2t-24.5 -5t-18 -6l-16 -7t-11 -5v-331q36 -13 69 -13z" />
    <glyph glyph-name="c" unicode="c" horiz-adv-x="425" 
d="M264 -10q-105 0 -164.5 69t-59.5 173q0 107 64.5 180t170.5 73q65 0 118 -29v-65q-52 32 -114 32q-74 0 -118.5 -52t-44.5 -134q0 -87 42 -135.5t115 -48.5q56 0 114 32l23 -52q-64 -43 -146 -43z" />
    <glyph glyph-name="d" unicode="d" horiz-adv-x="507" 
d="M287 -10q-107 0 -177 63t-70 178q0 113 70.5 183.5t173.5 70.5q43 0 80 -10v233h73v-686q-59 -32 -150 -32zM290 53q42 0 74 13v344q-36 12 -75 12q-74 0 -123.5 -50.5t-49.5 -138.5q0 -83 46.5 -131.5t127.5 -48.5z" />
    <glyph glyph-name="e" unicode="e" horiz-adv-x="463" 
d="M423 224h-307q1 -75 42.5 -123.5t114.5 -48.5q58 0 117 32l23 -52q-64 -42 -150 -42q-108 0 -165.5 71.5t-57.5 180.5q0 108 54 175.5t140 67.5q89 0 139 -65t50 -178v-18zM116 281h230q-2 59 -30.5 101.5t-80.5 42.5q-53 0 -85 -41.5t-34 -102.5z" />
    <glyph glyph-name="f" unicode="f" horiz-adv-x="302" 
d="M99 0v413h-63v60h63v83q0 80 39.5 116t96.5 36q40 0 73 -15l-16 -60q-28 11 -51 11q-69 0 -69 -85v-86h120l-22 -60h-98v-413h-73z" />
    <glyph glyph-name="g" unicode="g" horiz-adv-x="474" 
d="M227 -237q-95 0 -151 36t-56 100q0 79 88 122q-34 19 -34 59q0 48 50 93q-73 48 -73 143q0 72 49 120t125 48q49 0 89 -18q6 -3 10 1q39 39 97 39q14 0 29 -3l-18 -58q-14 3 -27 3q-26 0 -46 -13q54 -48 54 -122q0 -76 -50.5 -123.5t-132.5 -47.5q-32 0 -62 10
q-25 -28 -25 -54q0 -25 32 -38t78 -18.5t92 -15t78 -38t32 -77.5q0 -67 -61.5 -107.5t-166.5 -40.5zM233 -179q72 0 110 23t38 59q0 30 -25 48t-55 23t-77 12t-71 14q-65 -43 -65 -89q0 -42 40 -66t105 -24zM231 203q47 0 77 29.5t30 81.5q0 47 -30 78t-77 31
q-48 0 -77.5 -29.5t-29.5 -78.5q0 -50 29 -81t78 -31z" />
    <glyph glyph-name="h" unicode="h" horiz-adv-x="510" 
d="M69 0v708h73v-295q86 72 164 72q61 0 100.5 -41t39.5 -125v-319h-73v294q0 125 -85 125q-64 0 -146 -71v-348h-73z" />
    <glyph glyph-name="i" unicode="i" horiz-adv-x="225" 
d="M76 0v473h73v-473h-73zM112 580q-22 0 -35.5 14t-13.5 35t14 35.5t35 14.5q22 0 36 -14t14 -36q0 -21 -14 -35t-36 -14z" />
    <glyph glyph-name="j" unicode="j" horiz-adv-x="236" 
d="M-49 -223l16 61q22 -10 47 -10q38 0 55.5 24t17.5 77v544h73v-558q0 -76 -38 -114t-99 -38q-41 0 -72 14zM123 580q-21 0 -34.5 14t-13.5 35t13.5 35.5t34.5 14.5q22 0 36 -14t14 -36q0 -21 -14 -35t-36 -14z" />
    <glyph glyph-name="k" unicode="k" horiz-adv-x="439" 
d="M69 0v708h73v-409h2l180 174h89l-207 -200l229 -273h-89l-202 243h-2v-243h-73z" />
    <glyph glyph-name="l" unicode="l" horiz-adv-x="242" 
d="M69 86v622h73v-599q0 -28 8.5 -39t28.5 -11q13 0 29 7l16 -58q-30 -14 -66 -14q-44 0 -66.5 24t-22.5 68z" />
    <glyph glyph-name="m" unicode="m" horiz-adv-x="802" 
d="M65 0v473h62l9 -61q85 73 164 73q89 0 122 -81q91 81 176 81q61 0 100.5 -41.5t39.5 -124.5v-319h-73v296q0 58 -18 90.5t-65 32.5q-64 0 -145 -70q2 -20 2 -29v-320h-73v295q0 59 -18 91.5t-65 32.5q-65 0 -144 -70v-349h-74z" />
    <glyph glyph-name="n" unicode="n" horiz-adv-x="506" 
d="M65 0v473h62l9 -61q86 73 166 73q61 0 100.5 -41t39.5 -125v-319h-73v294q0 125 -85 125q-65 0 -145 -71v-348h-74z" />
    <glyph glyph-name="o" unicode="o" horiz-adv-x="516" 
d="M258 -10q-97 0 -157.5 70.5t-60.5 176.5q0 107 60 177.5t159 70.5q97 0 157.5 -71t60.5 -177t-60.5 -176.5t-158.5 -70.5zM258 53q65 0 103.5 51t38.5 133t-38.5 133.5t-102.5 51.5q-65 0 -104 -51t-39 -134q0 -82 38.5 -133t103.5 -51z" />
    <glyph glyph-name="p" unicode="p" horiz-adv-x="501" 
d="M65 -237v693q76 29 156 29q113 0 176.5 -64.5t63.5 -181.5q0 -114 -67 -181.5t-172 -67.5q-44 0 -83 17v-244h-74zM139 73q42 -20 81 -20q79 0 122 51t43 137q0 90 -46 135.5t-120 45.5q-41 0 -80 -12v-337z" />
    <glyph glyph-name="q" unicode="q" horiz-adv-x="504" 
d="M242 -10q-84 0 -143 63t-59 171q0 122 72 191.5t183 69.5q80 0 145 -28v-694h-73v263q-55 -36 -125 -36zM255 53q62 0 112 41v314q-34 14 -76 14q-82 0 -128.5 -53.5t-46.5 -140.5q0 -78 38.5 -126.5t100.5 -48.5z" />
    <glyph glyph-name="r" unicode="r" horiz-adv-x="320" 
d="M65 0v473h62l9 -60q66 72 133 72q30 0 51 -12l-26 -67q-20 10 -41 10q-47 0 -114 -68v-348h-74z" />
    <glyph glyph-name="s" unicode="s" horiz-adv-x="379" 
d="M26 30l24 57q56 -35 118 -35q44 0 72.5 19t28.5 57q0 28 -23 47.5t-55.5 32.5t-64.5 28.5t-55 45.5t-23 73q0 56 42 93t118 37q60 0 117 -22v-65q-59 26 -114 26q-91 0 -91 -66q0 -29 23 -48.5t55.5 -32t65.5 -28t56 -46t23 -74.5q0 -68 -49 -103.5t-126 -35.5
q-79 0 -142 40z" />
    <glyph glyph-name="t" unicode="t" horiz-adv-x="347" 
d="M208 -10q-51 0 -78.5 28.5t-27.5 81.5v313h-80v60h80v107l73 24v-131h141l-22 -60h-119v-301q0 -59 49 -59q39 0 77 26l26 -52q-51 -37 -119 -37z" />
    <glyph glyph-name="u" unicode="u" horiz-adv-x="505" 
d="M204 -10q-40 0 -75.5 20.5t-51.5 67.5q-12 39 -12 86v309h74v-291q0 -51 8 -74q17 -53 78 -53q39 0 76 20t57 47v351h73v-313q0 -120 10 -160h-66l-14 55q-74 -65 -157 -65z" />
    <glyph glyph-name="v" unicode="v" horiz-adv-x="447" 
d="M193 -3l-183 476h77l138 -378h2l134 378h76l-181 -476h-63z" />
    <glyph glyph-name="w" unicode="w" horiz-adv-x="690" 
d="M167 -3l-156 476h77l112 -377h2l109 377h69l113 -377h2l110 377h75l-157 -476h-64l-112 379h-2l-113 -379h-65z" />
    <glyph glyph-name="x" unicode="x" horiz-adv-x="444" 
d="M11 0l171 237l-164 236h82l125 -183l128 183h80l-167 -234l166 -239h-81l-129 186l-130 -186h-81z" />
    <glyph glyph-name="y" unicode="y" horiz-adv-x="466" 
d="M456 473l-177 -510q-42 -119 -92 -159.5t-118 -40.5q-46 0 -84 16l18 61q31 -14 65 -14q100 0 150 171l-208 476h80l161 -383h2l126 383h77z" />
    <glyph glyph-name="z" unicode="z" horiz-adv-x="382" 
d="M21 0l240 413h-209l-17 60h336l-238 -413h236v-60h-348z" />
    <glyph glyph-name="braceleft" unicode="{" horiz-adv-x="313" 
d="M268 -222q-85 12 -119 55t-34 119v216q0 71 -68 75v60q68 4 68 75v216q0 76 34 119t119 55l14 -67q-51 -8 -73 -35.5t-22 -77.5v-196q0 -105 -67 -118v-2q67 -13 67 -118v-196q0 -50 22 -77.5t73 -35.5z" />
    <glyph glyph-name="bar" unicode="|" horiz-adv-x="243" 
d="M87 -237v1017h70v-1017h-70z" />
    <glyph glyph-name="braceright" unicode="}" horiz-adv-x="313" 
d="M32 -155q51 8 73 35.5t22 77.5v196q0 105 67 118v2q-67 13 -67 118v196q0 50 -22 77.5t-73 35.5l14 67q85 -12 119 -55t34 -119v-216q0 -71 68 -75v-60q-68 -4 -68 -75v-216q0 -76 -34 -119t-119 -55z" />
    <glyph glyph-name="asciitilde" unicode="~" 
d="M68 211l-41 44q64 65 129 65q36 0 111 -30.5t102 -30.5q24 0 41.5 10t44.5 34l41 -44q-64 -65 -129 -65q-34 0 -110.5 30.5t-102.5 30.5q-24 0 -41.5 -10t-44.5 -34z" />
    <glyph glyph-name="exclamdown" unicode="&#xa1;" horiz-adv-x="267" 
d="M133 385q-19 0 -33 15t-14 35t14 34.5t33 14.5q20 0 34 -14.5t14 -34.5t-14 -35t-34 -15zM97 -181v52q0 202 2.5 273t14.5 158h38q12 -86 14.5 -158t2.5 -274v-51h-72z" />
    <glyph glyph-name="cent" unicode="&#xa2;" 
d="M250 0v105q-79 13 -126 75.5t-47 146.5t48 149.5t126 80.5v102h60v-96q58 -1 104 -27v-61q-49 28 -114 28t-108 -47.5t-43 -122.5q0 -79 41 -124.5t106 -45.5q59 0 113 29l21 -54q-51 -31 -121 -35v-103h-60z" />
    <glyph glyph-name="sterling" unicode="&#xa3;" 
d="M69 0v53q37 18 58.5 68.5t27 94t5.5 90.5h-79v62h79v87q0 51 13.5 89.5t33.5 60.5t47 36t50 18.5t47 4.5q56 0 109 -19l-15 -60q-43 16 -86 16q-54 0 -90 -35.5t-36 -117.5v-80h191l-22 -62h-169q0 -176 -69 -246v-2q62 4 98 4h196v-62h-389z" />
    <glyph glyph-name="currency" unicode="&#xa4;" 
d="M459 83l-64 65q-59 -45 -134 -45t-134 45l-64 -65l-47 47l65 64q-46 59 -46 135q0 77 45 134l-65 64l47 47l64 -65q60 46 135 46t135 -46l64 64l46 -46l-64 -64q45 -61 45 -134q0 -75 -46 -135l64 -64zM261 163q67 0 113.5 48.5t46.5 117.5t-46.5 117t-113.5 48
q-68 0 -114.5 -48t-46.5 -117t46.5 -117.5t114.5 -48.5z" />
    <glyph glyph-name="yen" unicode="&#xa5;" 
d="M225 0v123h-156v55h156v84h-156v55h131l-164 342h79l146 -323h1l145 323h79l-164 -342h131v-55h-155v-84h155v-55h-155v-123h-73z" />
    <glyph glyph-name="brokenbar" unicode="&#xa6;" horiz-adv-x="243" 
d="M87 -237v355h70v-355h-70zM87 426v354h70v-354h-70z" />
    <glyph glyph-name="section" unicode="&#xa7;" horiz-adv-x="526" 
d="M54 -115l31 56q67 -43 142 -43q55 0 93 23t38 77q0 40 -30 69t-73 48.5l-86 41t-73 59t-30 89.5q0 45 23 83t62 61q-50 45 -50 114q0 70 51 115t133 45q90 0 150 -31l-1 -67q-63 36 -143 36q-48 0 -82 -23.5t-34 -68.5q0 -34 22 -60.5t54.5 -42t70.5 -35.5t70.5 -39.5
t54.5 -55.5t22 -84q0 -89 -82 -141q46 -43 46 -108q0 -82 -57.5 -125t-148.5 -43q-100 0 -173 50zM347 143q52 38 52 99q0 29 -12.5 51.5t-36 40t-46.5 29.5l-57 28.5t-54 28.5q-57 -33 -57 -98q0 -28 13 -51t37 -40t48.5 -29.5l58 -29t54.5 -29.5z" />
    <glyph glyph-name="dieresis" unicode="&#xa8;" horiz-adv-x="360" 
d="M91 561q-18 0 -30.5 12.5t-12.5 30.5q0 19 12.5 31.5t30.5 12.5t31 -12.5t13 -31.5q0 -18 -13 -30.5t-31 -12.5zM269 561q-18 0 -31 12.5t-13 30.5q0 19 13 31.5t31 12.5t30.5 -12.5t12.5 -31.5q0 -18 -12.5 -30.5t-30.5 -12.5z" />
    <glyph glyph-name="copyright" unicode="&#xa9;" horiz-adv-x="780" 
d="M390 -10q-143 0 -237.5 97t-94.5 240t94.5 240t237.5 97q142 0 237 -97t95 -240t-95 -240t-237 -97zM390 34q121 0 200.5 83.5t79.5 209.5t-79.5 209t-200.5 83t-200.5 -83t-79.5 -209t79.5 -209.5t200.5 -83.5zM492 200l17 -40q-53 -33 -114 -33q-82 0 -130 55.5
t-48 139.5q0 86 50.5 145t136.5 59q54 0 93 -22v-50q-42 25 -93 25q-60 0 -96.5 -42.5t-36.5 -109.5q0 -72 34.5 -113t94.5 -41q44 0 92 27z" />
    <glyph glyph-name="ordfeminine" unicode="&#xaa;" horiz-adv-x="352" 
d="M27 140v51h295v-51h-295zM250 270l-9 34q-45 -41 -100 -41q-48 0 -78.5 28.5t-30.5 76.5q0 105 149 108l54 2v15q0 32 -19 48.5t-51 16.5q-46 0 -91 -26l-24 44q53 35 121 35q57 0 91 -29t34 -91v-106q0 -82 10 -115h-56zM235 356v73l-56 -2q-83 -3 -83 -56
q0 -24 15 -39.5t40 -15.5q41 0 84 40z" />
    <glyph glyph-name="guillemotleft" unicode="&#xab;" horiz-adv-x="551" 
d="M266 415l-135 -174l135 -174l-53 -34l-166 208l166 208zM475 415l-134 -174l134 -174l-52 -34l-166 208l166 208z" />
    <glyph glyph-name="logicalnot" unicode="&#xac;" 
d="M429 14v221h-404v63h473v-284h-69z" />
    <glyph glyph-name="registered" unicode="&#xae;" horiz-adv-x="580" 
d="M289 180q-103 0 -170.5 69.5t-67.5 172.5q0 104 67 173t171 69q102 0 170 -69.5t68 -172.5t-68 -172.5t-170 -69.5zM289 217q86 0 141.5 59t55.5 146q0 88 -55.5 146.5t-141.5 58.5q-87 0 -142.5 -58.5t-55.5 -146.5q0 -87 55.5 -146t142.5 -59zM212 298v258h66
q30 0 47 -6q45 -16 45 -64q0 -55 -62 -68v-2q18 -12 70 -104l8 -14h-44q-57 102 -73 110h-19v-110h-38zM250 438h20q59 0 59 46q0 28 -22 36q-12 6 -38 6h-19v-88z" />
    <glyph glyph-name="macron" unicode="&#xaf;" horiz-adv-x="360" 
d="M56 574v59h248v-59h-248z" />
    <glyph glyph-name="degree" unicode="&#xb0;" horiz-adv-x="394" 
d="M196 353q-66 0 -109.5 44t-43.5 109t44 109t110 44t110 -44t44 -109t-44.5 -109t-110.5 -44zM197 406q40 0 67.5 28.5t27.5 71.5t-27.5 71.5t-67.5 28.5t-67.5 -28.5t-27.5 -71.5t27.5 -71.5t67.5 -28.5z" />
    <glyph glyph-name="plusminus" unicode="&#xb1;" 
d="M227 120v158h-202v63h202v158h69v-158h202v-63h-202v-158h-69zM25 0v63h473v-63h-473z" />
    <glyph glyph-name="twosuperior" unicode="&#xb2;" horiz-adv-x="327" 
d="M30 404q2 53 23 94t48 64.5t54.5 43t46 40t18.5 43.5t-16.5 36.5t-44.5 13.5q-40 0 -95 -30l-21 48q63 36 123 36q57 0 88 -27.5t31 -73.5q0 -31 -16.5 -56t-41 -43l-49.5 -36t-46.5 -43t-27.5 -54h181v-56h-255z" />
    <glyph glyph-name="threesuperior" unicode="&#xb3;" horiz-adv-x="330" 
d="M21 419l17 50q41 -19 85 -19q91 0 91 63q0 39 -41 52q-21 8 -64 8h-40v51h35q38 0 61 10q37 16 37 53q0 26 -18.5 39t-46.5 13q-41 0 -87 -21l-19 48q58 27 115 27q55 0 88 -27.5t33 -71.5q0 -65 -69 -90v-2q38 -7 59.5 -31.5t21.5 -62.5q0 -48 -39 -79.5t-115 -31.5
q-60 0 -104 22z" />
    <glyph glyph-name="acute" unicode="&#xb4;" horiz-adv-x="360" 
d="M137 531l58 147h83l-85 -147h-56z" />
    <glyph glyph-name="mu" unicode="&#xb5;" horiz-adv-x="531" 
d="M360 199v274h73v-328q0 -51 9.5 -68t32.5 -17q17 0 29 7l15 -59q-30 -14 -60 -14q-38 0 -59 24.5t-23 63.5h-2q-45 -92 -138 -92q-64 0 -98 47h-2q3 -39 3 -131v-143h-73v710h73v-310q0 -48 26.5 -78t72.5 -30q48 0 84.5 36.5t36.5 107.5z" />
    <glyph glyph-name="paragraph" unicode="&#xb6;" horiz-adv-x="609" 
d="M265 -160v380q-90 4 -144.5 64.5t-54.5 154.5q0 97 60 158.5t163 61.5h217v-819h-66v762h-109v-762h-66z" />
    <glyph glyph-name="periodcentered" unicode="&#xb7;" horiz-adv-x="223" 
d="M112 204q-20 0 -34 15t-14 35t14 34.5t34 14.5q19 0 33 -14.5t14 -34.5t-14 -35t-33 -15z" />
    <glyph glyph-name="cedilla" unicode="&#xb8;" horiz-adv-x="360" 
d="M89 -200l13 43q23 -10 50 -10q23 0 38.5 10t15.5 29q0 17 -13.5 26t-29.5 10.5t-43 1.5l28 90h59l-17 -54q81 -6 81 -72q0 -40 -31.5 -63t-83.5 -23q-37 0 -67 12z" />
    <glyph glyph-name="onesuperior" unicode="&#xb9;" horiz-adv-x="324" 
d="M176 404v322l-119 -47l-23 48l154 65h50v-388h-62z" />
    <glyph glyph-name="ordmasculine" unicode="&#xba;" horiz-adv-x="375" 
d="M33 140v51h308v-51h-308zM187 263q-70 0 -114 50t-44 124t44 124t115 50q70 0 114 -50t44 -124t-44 -124t-115 -50zM187 317q43 0 69.5 33.5t26.5 86.5t-26.5 86.5t-68.5 33.5q-44 0 -70 -33.5t-26 -86.5t26 -86.5t69 -33.5z" />
    <glyph glyph-name="guillemotright" unicode="&#xbb;" horiz-adv-x="551" 
d="M76 67l135 174l-135 174l53 34l166 -208l-166 -208zM286 67l134 174l-134 174l52 34l166 -208l-166 -208z" />
    <glyph glyph-name="onequarter" unicode="&#xbc;" horiz-adv-x="861" 
d="M173 0l411 659h66l-412 -659h-65zM195 270v322l-119 -47l-23 48l154 65h50v-388h-62zM464 88v41l192 259h55v-250h53v-50h-53v-88h-62v88h-185zM533 138h73h43v42q0 70 3 119z" />
    <glyph glyph-name="onehalf" unicode="&#xbd;" horiz-adv-x="861" 
d="M166 0l411 659h66l-412 -659h-65zM190 270v322l-119 -47l-23 48l154 65h50v-388h-62zM529 0q2 53 23 94t48 64.5t54.5 43t46 40t18.5 43.5t-16.5 36.5t-44.5 13.5q-40 0 -95 -30l-21 48q63 36 123 36q57 0 88 -27.5t31 -73.5q0 -31 -16.5 -56t-41 -43l-49.5 -36
t-46.5 -43t-27.5 -54h181v-56h-255z" />
    <glyph glyph-name="threequarters" unicode="&#xbe;" horiz-adv-x="861" 
d="M206 0l411 659h66l-412 -659h-65zM485 88v41l192 259h55v-250h53v-50h-53v-88h-62v88h-185zM554 138h73h43v42q0 70 3 119zM51 285l17 50q41 -19 85 -19q91 0 91 63q0 39 -41 52q-21 8 -64 8h-40v51h35q38 0 61 10q37 16 37 53q0 26 -18.5 39t-46.5 13q-41 0 -87 -21
l-19 48q58 27 115 27q55 0 88 -27.5t33 -71.5q0 -65 -69 -90v-2q38 -7 59.5 -31.5t21.5 -62.5q0 -48 -39 -79.5t-115 -31.5q-60 0 -104 22z" />
    <glyph glyph-name="questiondown" unicode="&#xbf;" horiz-adv-x="453" 
d="M265 386q-20 0 -34 14.5t-14 35.5q0 20 14 34.5t34 14.5q19 0 33 -14.5t14 -34.5q0 -21 -13.5 -35.5t-33.5 -14.5zM361 -65l35 -50q-77 -72 -177 -72q-73 0 -115.5 38.5t-42.5 99.5q0 40 21 73.5t50.5 56l59 43t50.5 43t21 46.5q0 29 -23 55l59 33q37 -38 37 -87
q0 -34 -20.5 -63t-49 -50l-57.5 -41.5t-49.5 -46.5t-20.5 -56q0 -39 24.5 -60t63.5 -21q70 0 134 59z" />
    <glyph glyph-name="Agrave" unicode="&#xc0;" horiz-adv-x="587" 
d="M17 0l250 661h51l252 -661h-80l-65 177h-265l-65 -177h-78zM183 239h218l-68 190q-22 60 -39 114h-2q-10 -30 -40 -114zM277 696l-86 147h87l58 -147h-59z" />
    <glyph glyph-name="Aacute" unicode="&#xc1;" horiz-adv-x="587" 
d="M17 0l250 661h51l252 -661h-80l-65 177h-265l-65 -177h-78zM183 239h218l-68 190q-22 60 -39 114h-2q-10 -30 -40 -114zM249 696l58 147h83l-85 -147h-56z" />
    <glyph glyph-name="Acircumflex" unicode="&#xc2;" horiz-adv-x="587" 
d="M17 0l250 661h51l252 -661h-80l-65 177h-265l-65 -177h-78zM183 239h218l-68 190q-22 60 -39 114h-2q-10 -30 -40 -114zM161 696l98 147h69l99 -147h-64l-69 100l-70 -100h-63z" />
    <glyph glyph-name="Atilde" unicode="&#xc3;" horiz-adv-x="587" 
d="M17 0l250 661h51l252 -661h-80l-65 177h-265l-65 -177h-78zM183 239h218l-68 190q-22 60 -39 114h-2q-10 -30 -40 -114zM153 726v23q0 35 20 55.5t51 20.5q30 0 72 -24t56 -24q26 0 26 42h53v-22q0 -35 -20 -56t-51 -21q-29 0 -71 24t-57 24q-26 0 -26 -42h-53z" />
    <glyph glyph-name="Adieresis" unicode="&#xc4;" horiz-adv-x="587" 
d="M17 0l250 661h51l252 -661h-80l-65 177h-265l-65 -177h-78zM183 239h218l-68 190q-22 60 -39 114h-2q-10 -30 -40 -114zM203 706q-18 0 -30.5 12.5t-12.5 31.5q0 18 12.5 30.5t30.5 12.5t31 -12.5t13 -30.5q0 -19 -13 -31.5t-31 -12.5zM381 706q-18 0 -31 12.5t-13 31.5
q0 18 13 30.5t31 12.5t30.5 -12.5t12.5 -30.5q0 -19 -12.5 -31.5t-30.5 -12.5z" />
    <glyph glyph-name="Aring" unicode="&#xc5;" horiz-adv-x="587" 
d="M17 0l247 654q-35 7 -55.5 31.5t-20.5 60.5q0 43 28.5 69t74.5 26t74.5 -26t28.5 -69q0 -35 -20 -59.5t-54 -31.5l250 -655h-80l-65 177h-265l-65 -177h-78zM183 239h218l-68 191q-26 73 -39 117h-2q-8 -28 -40 -117zM291 692q23 0 36.5 14.5t13.5 39.5t-13.5 39.5
t-36.5 14.5q-22 0 -35.5 -14.5t-13.5 -39.5t13.5 -39.5t35.5 -14.5z" />
    <glyph glyph-name="AE" unicode="&#xc6;" horiz-adv-x="797" 
d="M16 0l343 659h374l-24 -63h-274l40 -228h231v-63h-220l42 -242h211v-63h-276l-31 177h-245l-92 -177h-79zM220 239h202l-33 195l-8.5 56.5t-8.5 53.5h-2q-17 -41 -60 -125z" />
    <glyph glyph-name="Ccedilla" unicode="&#xc7;" horiz-adv-x="590" 
d="M246 -200l13 43q23 -10 50 -10q23 0 38.5 10t15.5 29q0 24 -22.5 31.5t-63.5 6.5l26 86q-117 19 -183 107t-66 218q0 147 91.5 245t235.5 98q102 0 163 -35v-70q-75 41 -162 41q-111 0 -180.5 -79t-69.5 -195q0 -122 66 -197t177 -75q80 0 157 41l20 -59
q-94 -52 -191 -45l-14 -45q81 -6 81 -72q0 -40 -31.5 -63t-83.5 -23q-37 0 -67 12z" />
    <glyph glyph-name="Egrave" unicode="&#xc8;" horiz-adv-x="468" 
d="M86 0v659h318l-24 -63h-220v-228h217v-63h-217v-242h250v-63h-324zM224 696l-86 147h87l58 -147h-59z" />
    <glyph glyph-name="Eacute" unicode="&#xc9;" horiz-adv-x="468" 
d="M86 0v659h318l-24 -63h-220v-228h217v-63h-217v-242h250v-63h-324zM199 696l58 147h83l-85 -147h-56z" />
    <glyph glyph-name="Ecircumflex" unicode="&#xca;" horiz-adv-x="468" 
d="M86 0v659h318l-24 -63h-220v-228h217v-63h-217v-242h250v-63h-324zM108 696l98 147h69l99 -147h-64l-69 100l-70 -100h-63z" />
    <glyph glyph-name="Edieresis" unicode="&#xcb;" horiz-adv-x="468" 
d="M86 0v659h318l-24 -63h-220v-228h217v-63h-217v-242h250v-63h-324zM153 706q-18 0 -30.5 12.5t-12.5 31.5q0 18 12.5 30.5t30.5 12.5t31 -12.5t13 -30.5q0 -19 -13 -31.5t-31 -12.5zM331 706q-18 0 -31 12.5t-13 31.5q0 18 13 30.5t31 12.5t30.5 -12.5t12.5 -30.5
q0 -19 -12.5 -31.5t-30.5 -12.5z" />
    <glyph glyph-name="Igrave" unicode="&#xcc;" horiz-adv-x="246" 
d="M86 0v659h74v-659h-74zM107 696l-86 147h87l58 -147h-59z" />
    <glyph glyph-name="Iacute" unicode="&#xcd;" horiz-adv-x="246" 
d="M86 0v659h74v-659h-74zM79 696l58 147h83l-85 -147h-56z" />
    <glyph glyph-name="Icircumflex" unicode="&#xce;" horiz-adv-x="246" 
d="M86 0v659h74v-659h-74zM-11 696l98 147h69l99 -147h-64l-69 100l-70 -100h-63z" />
    <glyph glyph-name="Idieresis" unicode="&#xcf;" horiz-adv-x="246" 
d="M86 0v659h74v-659h-74zM33 706q-18 0 -30.5 12.5t-12.5 31.5q0 18 12.5 30.5t30.5 12.5t31 -12.5t13 -30.5q0 -19 -13 -31.5t-31 -12.5zM211 706q-18 0 -31 12.5t-13 31.5q0 18 13 30.5t31 12.5t30.5 -12.5t12.5 -30.5q0 -19 -12.5 -31.5t-30.5 -12.5z" />
    <glyph glyph-name="Eth" unicode="&#xd0;" horiz-adv-x="647" 
d="M86 0v302h-77v62h77v295h158q171 0 260 -89.5t89 -236.5q0 -149 -90 -241t-262 -92h-155zM160 63h80q144 0 209.5 75.5t65.5 197.5q0 119 -69.5 189.5t-207.5 70.5h-78v-232h164v-62h-164v-239z" />
    <glyph glyph-name="Ntilde" unicode="&#xd1;" horiz-adv-x="716" 
d="M630 0h-62l-316 418q-48 62 -93 127h-2q3 -49 3 -113v-432h-74v659h71l304 -402l96 -133h2q-2 35 -2 116v419h73v-659zM222 726v23q0 35 20 55.5t51 20.5q29 0 71 -24t57 -24q26 0 26 42h53v-22q0 -35 -20 -56t-51 -21q-29 0 -71 24t-57 24q-26 0 -26 -42h-53z" />
    <glyph glyph-name="Ograve" unicode="&#xd2;" horiz-adv-x="750" 
d="M375 -10q-140 0 -230.5 92.5t-90.5 243.5q0 149 90.5 243.5t230.5 94.5t230.5 -95t90.5 -243q0 -151 -91.5 -243.5t-229.5 -92.5zM375 54q110 0 176.5 74.5t66.5 197.5q0 120 -64.5 197t-178.5 77q-110 0 -176.5 -75.5t-66.5 -198.5t66.5 -197.5t176.5 -74.5zM359 696
l-86 147h87l58 -147h-59z" />
    <glyph glyph-name="Oacute" unicode="&#xd3;" horiz-adv-x="750" 
d="M375 -10q-140 0 -230.5 92.5t-90.5 243.5q0 149 90.5 243.5t230.5 94.5t230.5 -95t90.5 -243q0 -151 -91.5 -243.5t-229.5 -92.5zM375 54q110 0 176.5 74.5t66.5 197.5q0 120 -64.5 197t-178.5 77q-110 0 -176.5 -75.5t-66.5 -198.5t66.5 -197.5t176.5 -74.5zM338 696
l58 147h83l-85 -147h-56z" />
    <glyph glyph-name="Ocircumflex" unicode="&#xd4;" horiz-adv-x="750" 
d="M375 -10q-140 0 -230.5 92.5t-90.5 243.5q0 149 90.5 243.5t230.5 94.5t230.5 -95t90.5 -243q0 -151 -91.5 -243.5t-229.5 -92.5zM375 54q110 0 176.5 74.5t66.5 197.5q0 120 -64.5 197t-178.5 77q-110 0 -176.5 -75.5t-66.5 -198.5t66.5 -197.5t176.5 -74.5zM244 696
l98 147h69l99 -147h-64l-69 100l-70 -100h-63z" />
    <glyph glyph-name="Otilde" unicode="&#xd5;" horiz-adv-x="750" 
d="M375 -10q-140 0 -230.5 92.5t-90.5 243.5q0 149 90.5 243.5t230.5 94.5t230.5 -95t90.5 -243q0 -151 -91.5 -243.5t-229.5 -92.5zM375 54q110 0 176.5 74.5t66.5 197.5q0 120 -64.5 197t-178.5 77q-110 0 -176.5 -75.5t-66.5 -198.5t66.5 -197.5t176.5 -74.5zM238 726v23
q0 35 20 55.5t51 20.5q29 0 71 -24t57 -24q26 0 26 42h53v-22q0 -35 -20 -56t-51 -21q-29 0 -71 24t-57 24q-26 0 -26 -42h-53z" />
    <glyph glyph-name="Odieresis" unicode="&#xd6;" horiz-adv-x="750" 
d="M375 -10q-140 0 -230.5 92.5t-90.5 243.5q0 149 90.5 243.5t230.5 94.5t230.5 -95t90.5 -243q0 -151 -91.5 -243.5t-229.5 -92.5zM375 54q110 0 176.5 74.5t66.5 197.5q0 120 -64.5 197t-178.5 77q-110 0 -176.5 -75.5t-66.5 -198.5t66.5 -197.5t176.5 -74.5zM289 706
q-18 0 -30.5 12.5t-12.5 31.5q0 18 12.5 30.5t30.5 12.5t31 -12.5t13 -30.5q0 -19 -13 -31.5t-31 -12.5zM467 706q-18 0 -31 12.5t-13 31.5q0 18 13 30.5t31 12.5t30.5 -12.5t12.5 -30.5q0 -19 -12.5 -31.5t-30.5 -12.5z" />
    <glyph glyph-name="multiply" unicode="&#xd7;" horiz-adv-x="537" 
d="M84 21l-47 47l184 185l-184 183l47 47l184 -183l184 183l46 -46l-183 -184l183 -184l-46 -47l-184 184z" />
    <glyph glyph-name="Oslash" unicode="&#xd8;" horiz-adv-x="752" 
d="M110 -15l-48 39l68 76q-75 91 -75 226q0 149 90.5 243.5t230.5 94.5q111 0 196 -67l68 78l49 -39l-72 -80q80 -93 80 -230q0 -151 -91.5 -243.5t-229.5 -92.5q-116 0 -201 69zM570 501l-351 -391q64 -56 157 -56q110 0 177 75t67 197q0 104 -50 175zM178 156l351 391
q-64 54 -153 54q-110 0 -177 -76t-67 -199q0 -101 46 -170z" />
    <glyph glyph-name="Ugrave" unicode="&#xd9;" horiz-adv-x="652" 
d="M326 -10q-181 0 -230 140q-15 46 -15 106v423h74v-416q0 -54 13 -92q36 -98 158 -98t158 98q13 34 13 95v413h74v-423q0 -64 -17 -108q-49 -138 -228 -138zM310 696l-86 147h87l58 -147h-59z" />
    <glyph glyph-name="Uacute" unicode="&#xda;" horiz-adv-x="652" 
d="M326 -10q-181 0 -230 140q-15 46 -15 106v423h74v-416q0 -54 13 -92q36 -98 158 -98t158 98q13 34 13 95v413h74v-423q0 -64 -17 -108q-49 -138 -228 -138zM292 696l58 147h83l-85 -147h-56z" />
    <glyph glyph-name="Ucircumflex" unicode="&#xdb;" horiz-adv-x="652" 
d="M326 -10q-181 0 -230 140q-15 46 -15 106v423h74v-416q0 -54 13 -92q36 -98 158 -98t158 98q13 34 13 95v413h74v-423q0 -64 -17 -108q-49 -138 -228 -138zM197 696l98 147h69l99 -147h-64l-69 100l-70 -100h-63z" />
    <glyph glyph-name="Udieresis" unicode="&#xdc;" horiz-adv-x="652" 
d="M326 -10q-181 0 -230 140q-15 46 -15 106v423h74v-416q0 -54 13 -92q36 -98 158 -98t158 98q13 34 13 95v413h74v-423q0 -64 -17 -108q-49 -138 -228 -138zM241 706q-18 0 -30.5 12.5t-12.5 31.5q0 18 12.5 30.5t30.5 12.5t31 -12.5t13 -30.5q0 -19 -13 -31.5t-31 -12.5z
M419 706q-18 0 -31 12.5t-13 31.5q0 18 13 30.5t31 12.5t30.5 -12.5t12.5 -30.5q0 -19 -12.5 -31.5t-30.5 -12.5z" />
    <glyph glyph-name="Yacute" unicode="&#xdd;" horiz-adv-x="536" 
d="M233 0v263l-217 396h82l172 -323h2l168 323h80l-214 -397v-262h-73zM228 696l58 147h83l-85 -147h-56z" />
    <glyph glyph-name="Thorn" unicode="&#xde;" horiz-adv-x="502" 
d="M86 0v659h74v-113h50q88 0 143 -30q95 -54 95 -179q0 -60 -27.5 -108t-82.5 -74q-52 -25 -135 -25h-43v-130h-74zM160 192h49q60 0 96 19q67 35 67 126q0 88 -63 125q-36 22 -99 22h-50v-292z" />
    <glyph glyph-name="germandbls" unicode="&#xdf;" horiz-adv-x="568" 
d="M65 -141v633q0 62 19 106.5t50.5 67t64 32.5t67.5 10q83 0 139 -51t56 -157v-23q-53 -11 -78 -29.5t-25 -49.5q0 -25 18 -46.5t43.5 -40t51 -39.5t43.5 -55t18 -78q0 -74 -49.5 -111.5t-123.5 -37.5q-79 0 -139 38l24 58q54 -34 111 -34q103 0 103 85q0 32 -18 58
t-43 44.5l-50.5 38t-43.5 47.5t-18 64q0 92 104 125q-2 63 -33.5 97.5t-90.5 34.5q-55 0 -90.5 -36t-35.5 -114v-637h-74z" />
    <glyph glyph-name="agrave" unicode="&#xe0;" horiz-adv-x="461" 
d="M344 0l-14 53q-67 -63 -142 -63q-66 0 -108 39.5t-42 106.5q0 91 80 128q39 20 118 23l90 3v30q0 52 -28 78t-74 26q-66 0 -130 -39l-28 52q75 48 166 48q77 0 122.5 -40t45.5 -121v-163q0 -125 9 -161h-65zM326 234l-83 -3q-57 -1 -89 -18q-41 -23 -41 -73
q0 -39 24 -63.5t64 -24.5q66 0 125 62v120zM214 531l-86 147h87l58 -147h-59z" />
    <glyph glyph-name="aacute" unicode="&#xe1;" horiz-adv-x="461" 
d="M344 0l-14 53q-67 -63 -142 -63q-66 0 -108 39.5t-42 106.5q0 91 80 128q39 20 118 23l90 3v30q0 52 -28 78t-74 26q-66 0 -130 -39l-28 52q75 48 166 48q77 0 122.5 -40t45.5 -121v-163q0 -125 9 -161h-65zM326 234l-83 -3q-57 -1 -89 -18q-41 -23 -41 -73
q0 -39 24 -63.5t64 -24.5q66 0 125 62v120zM186 531l58 147h83l-85 -147h-56z" />
    <glyph glyph-name="acircumflex" unicode="&#xe2;" horiz-adv-x="461" 
d="M344 0l-14 53q-67 -63 -142 -63q-66 0 -108 39.5t-42 106.5q0 91 80 128q39 20 118 23l90 3v30q0 52 -28 78t-74 26q-66 0 -130 -39l-28 52q75 48 166 48q77 0 122.5 -40t45.5 -121v-163q0 -125 9 -161h-65zM326 234l-83 -3q-57 -1 -89 -18q-41 -23 -41 -73
q0 -39 24 -63.5t64 -24.5q66 0 125 62v120zM96 531l98 147h69l99 -147h-64l-69 100l-70 -100h-63z" />
    <glyph glyph-name="atilde" unicode="&#xe3;" horiz-adv-x="461" 
d="M344 0l-14 53q-67 -63 -142 -63q-66 0 -108 39.5t-42 106.5q0 91 80 128q39 20 118 23l90 3v30q0 52 -28 78t-74 26q-66 0 -130 -39l-28 52q75 48 166 48q77 0 122.5 -40t45.5 -121v-163q0 -125 9 -161h-65zM326 234l-83 -3q-57 -1 -89 -18q-41 -23 -41 -73
q0 -39 24 -63.5t64 -24.5q66 0 125 62v120zM90 554v22q0 35 20 56t51 21q29 0 71 -24t57 -24q26 0 26 42h53v-22q0 -35 -20 -56t-51 -21q-29 0 -71 24t-57 24q-26 0 -26 -42h-53z" />
    <glyph glyph-name="adieresis" unicode="&#xe4;" horiz-adv-x="461" 
d="M344 0l-14 53q-67 -63 -142 -63q-66 0 -108 39.5t-42 106.5q0 91 80 128q39 20 118 23l90 3v30q0 52 -28 78t-74 26q-66 0 -130 -39l-28 52q75 48 166 48q77 0 122.5 -40t45.5 -121v-163q0 -125 9 -161h-65zM326 234l-83 -3q-57 -1 -89 -18q-41 -23 -41 -73
q0 -39 24 -63.5t64 -24.5q66 0 125 62v120zM140 561q-18 0 -30.5 12.5t-12.5 30.5q0 19 12.5 31.5t30.5 12.5t31 -12.5t13 -31.5q0 -18 -13 -30.5t-31 -12.5zM318 561q-18 0 -31 12.5t-13 30.5q0 19 13 31.5t31 12.5t30.5 -12.5t12.5 -31.5q0 -18 -12.5 -30.5t-30.5 -12.5z
" />
    <glyph glyph-name="aring" unicode="&#xe5;" horiz-adv-x="461" 
d="M344 0l-14 53q-67 -63 -142 -63q-66 0 -108 39.5t-42 106.5q0 91 80 128q39 20 118 23l90 3v30q0 52 -28 78t-74 26q-66 0 -130 -39l-28 52q75 48 166 48q77 0 122.5 -40t45.5 -121v-163q0 -125 9 -161h-65zM326 234l-83 -3q-57 -1 -89 -18q-41 -23 -41 -73
q0 -39 24 -63.5t64 -24.5q66 0 125 62v120zM229 524q-46 0 -74.5 26t-28.5 69q0 42 29 68.5t74 26.5t74 -26.5t29 -68.5q0 -43 -28.5 -69t-74.5 -26zM229 564q23 0 36 15t13 40t-13.5 39.5t-35.5 14.5t-35.5 -14.5t-13.5 -39.5t13 -40t36 -15z" />
    <glyph glyph-name="ae" unicode="&#xe6;" horiz-adv-x="749" 
d="M191 -10q-66 0 -109.5 39.5t-43.5 106.5q0 73 52.5 109.5t142.5 36.5h96v38q0 52 -28.5 78t-75.5 26q-65 0 -131 -40l-28 53q75 48 165 48q108 0 144 -81h2q50 81 145 81q87 0 136.5 -65t49.5 -178v-17h-307q2 -76 43.5 -124.5t113.5 -48.5q58 0 117 32l23 -52
q-64 -42 -150 -42q-119 0 -179 93q-73 -93 -178 -93zM201 52q42 0 80 24.5t62 58.5q-14 42 -14 90h-89q-127 0 -127 -87q0 -39 24 -62.5t64 -23.5zM402 282h229q-2 59 -30.5 101t-80.5 42t-84 -41t-34 -102z" />
    <glyph glyph-name="ccedilla" unicode="&#xe7;" horiz-adv-x="425" 
d="M150 -200l13 43q23 -10 50 -10q53 0 53 39q0 13 -7 21t-19 11t-24 4.5t-27 1.5h-8l26 86q-80 18 -123.5 82.5t-43.5 153.5q0 107 64.5 180t170.5 73q65 0 118 -29v-65q-52 32 -114 32q-74 0 -118.5 -52t-44.5 -134q0 -87 42 -135.5t115 -48.5q56 0 114 32l23 -52
q-64 -43 -141 -43h-4l-14 -44q81 -6 81 -72q0 -40 -31.5 -63t-84.5 -23q-38 0 -66 12z" />
    <glyph glyph-name="egrave" unicode="&#xe8;" horiz-adv-x="463" 
d="M423 224h-307q1 -75 42.5 -123.5t114.5 -48.5q58 0 117 32l23 -52q-64 -42 -150 -42q-108 0 -165.5 71.5t-57.5 180.5q0 108 54 175.5t140 67.5q89 0 139 -65t50 -178v-18zM116 281h230q-2 59 -30.5 101.5t-80.5 42.5q-53 0 -85 -41.5t-34 -102.5zM222 531l-86 147h87
l58 -147h-59z" />
    <glyph glyph-name="eacute" unicode="&#xe9;" horiz-adv-x="463" 
d="M423 224h-307q1 -75 42.5 -123.5t114.5 -48.5q58 0 117 32l23 -52q-64 -42 -150 -42q-108 0 -165.5 71.5t-57.5 180.5q0 108 54 175.5t140 67.5q89 0 139 -65t50 -178v-18zM116 281h230q-2 59 -30.5 101.5t-80.5 42.5q-53 0 -85 -41.5t-34 -102.5zM194 531l58 147h83
l-85 -147h-56z" />
    <glyph glyph-name="ecircumflex" unicode="&#xea;" horiz-adv-x="463" 
d="M423 224h-307q1 -75 42.5 -123.5t114.5 -48.5q58 0 117 32l23 -52q-64 -42 -150 -42q-108 0 -165.5 71.5t-57.5 180.5q0 108 54 175.5t140 67.5q89 0 139 -65t50 -178v-18zM116 281h230q-2 59 -30.5 101.5t-80.5 42.5q-53 0 -85 -41.5t-34 -102.5zM104 531l98 147h69
l99 -147h-64l-69 100l-70 -100h-63z" />
    <glyph glyph-name="edieresis" unicode="&#xeb;" horiz-adv-x="463" 
d="M423 224h-307q1 -75 42.5 -123.5t114.5 -48.5q58 0 117 32l23 -52q-64 -42 -150 -42q-108 0 -165.5 71.5t-57.5 180.5q0 108 54 175.5t140 67.5q89 0 139 -65t50 -178v-18zM116 281h230q-2 59 -30.5 101.5t-80.5 42.5q-53 0 -85 -41.5t-34 -102.5zM148 561
q-18 0 -30.5 12.5t-12.5 30.5q0 19 12.5 31.5t30.5 12.5t31 -12.5t13 -31.5q0 -18 -13 -30.5t-31 -12.5zM326 561q-18 0 -31 12.5t-13 30.5q0 19 13 31.5t31 12.5t30.5 -12.5t12.5 -31.5q0 -18 -12.5 -30.5t-30.5 -12.5z" />
    <glyph glyph-name="igrave" unicode="&#xec;" horiz-adv-x="225" 
d="M99 531l-86 147h87l58 -147h-59zM76 0v473h73v-473h-73z" />
    <glyph glyph-name="iacute" unicode="&#xed;" horiz-adv-x="225" 
d="M71 531l58 147h83l-85 -147h-56zM76 0v473h73v-473h-73z" />
    <glyph glyph-name="icircumflex" unicode="&#xee;" horiz-adv-x="225" 
d="M76 0v473h73v-473h-73zM-19 531l98 147h69l99 -147h-64l-69 100l-70 -100h-63z" />
    <glyph glyph-name="idieresis" unicode="&#xef;" horiz-adv-x="225" 
d="M25 561q-18 0 -30.5 12.5t-12.5 30.5q0 19 12.5 31.5t30.5 12.5t31 -12.5t13 -31.5q0 -18 -13 -30.5t-31 -12.5zM203 561q-18 0 -31 12.5t-13 30.5q0 19 13 31.5t31 12.5t30.5 -12.5t12.5 -31.5q0 -18 -12.5 -30.5t-30.5 -12.5zM76 0v473h73v-473h-73z" />
    <glyph glyph-name="eth" unicode="&#xf0;" horiz-adv-x="535" 
d="M438 665l-94 -44q133 -104 133 -332q0 -148 -60.5 -223.5t-159.5 -75.5q-97 0 -157 70t-60 175q0 108 57.5 178t153.5 70q49 0 91.5 -24t65.5 -63h2q-10 55 -42 108t-84 88l-131 -61l-21 43l97 44q-48 24 -125 29l13 61q109 -10 184 -55l116 55zM258 52q66 0 104 51
t38 137q0 80 -39 130.5t-103 50.5q-65 0 -103.5 -51.5t-38.5 -133.5t39 -133t103 -51z" />
    <glyph glyph-name="ntilde" unicode="&#xf1;" horiz-adv-x="506" 
d="M65 0v473h62l9 -61q86 73 166 73q61 0 100.5 -41t39.5 -125v-319h-73v294q0 125 -85 125q-65 0 -145 -71v-348h-74zM105 554v22q0 35 20 56t51 21q30 0 72 -24t56 -24q26 0 26 42h53v-22q0 -35 -20 -56t-51 -21q-29 0 -71 24t-57 24q-26 0 -26 -42h-53z" />
    <glyph glyph-name="ograve" unicode="&#xf2;" horiz-adv-x="516" 
d="M258 -10q-97 0 -157.5 70.5t-60.5 176.5q0 107 60 177.5t159 70.5q97 0 157.5 -71t60.5 -177t-60.5 -176.5t-158.5 -70.5zM258 53q65 0 103.5 51t38.5 133t-38.5 133.5t-102.5 51.5q-65 0 -104 -51t-39 -134q0 -82 38.5 -133t103.5 -51zM239 531l-86 147h87l58 -147h-59z
" />
    <glyph glyph-name="oacute" unicode="&#xf3;" horiz-adv-x="516" 
d="M258 -10q-97 0 -157.5 70.5t-60.5 176.5q0 107 60 177.5t159 70.5q97 0 157.5 -71t60.5 -177t-60.5 -176.5t-158.5 -70.5zM258 53q65 0 103.5 51t38.5 133t-38.5 133.5t-102.5 51.5q-65 0 -104 -51t-39 -134q0 -82 38.5 -133t103.5 -51zM225 531l58 147h83l-85 -147h-56z
" />
    <glyph glyph-name="ocircumflex" unicode="&#xf4;" horiz-adv-x="516" 
d="M258 -10q-97 0 -157.5 70.5t-60.5 176.5q0 107 60 177.5t159 70.5q97 0 157.5 -71t60.5 -177t-60.5 -176.5t-158.5 -70.5zM258 53q65 0 103.5 51t38.5 133t-38.5 133.5t-102.5 51.5q-65 0 -104 -51t-39 -134q0 -82 38.5 -133t103.5 -51zM125 531l98 147h69l99 -147h-64
l-69 100l-70 -100h-63z" />
    <glyph glyph-name="otilde" unicode="&#xf5;" horiz-adv-x="516" 
d="M258 -10q-97 0 -157.5 70.5t-60.5 176.5q0 107 60 177.5t159 70.5q97 0 157.5 -71t60.5 -177t-60.5 -176.5t-158.5 -70.5zM258 53q65 0 103.5 51t38.5 133t-38.5 133.5t-102.5 51.5q-65 0 -104 -51t-39 -134q0 -82 38.5 -133t103.5 -51zM119 554v22q0 35 20 56t51 21
q30 0 72 -24t56 -24q26 0 26 42h53v-22q0 -35 -20 -56t-51 -21q-29 0 -71 24t-57 24q-26 0 -26 -42h-53z" />
    <glyph glyph-name="odieresis" unicode="&#xf6;" horiz-adv-x="516" 
d="M258 -10q-97 0 -157.5 70.5t-60.5 176.5q0 107 60 177.5t159 70.5q97 0 157.5 -71t60.5 -177t-60.5 -176.5t-158.5 -70.5zM258 53q65 0 103.5 51t38.5 133t-38.5 133.5t-102.5 51.5q-65 0 -104 -51t-39 -134q0 -82 38.5 -133t103.5 -51zM169 561q-18 0 -30.5 12.5
t-12.5 30.5q0 19 12.5 31.5t30.5 12.5t31 -12.5t13 -31.5q0 -18 -13 -30.5t-31 -12.5zM347 561q-18 0 -31 12.5t-13 30.5q0 19 13 31.5t31 12.5t30.5 -12.5t12.5 -31.5q0 -18 -12.5 -30.5t-30.5 -12.5z" />
    <glyph glyph-name="divide" unicode="&#xf7;" 
d="M262 375q-19 0 -32.5 14t-13.5 34t13.5 33.5t32.5 13.5t32.5 -14t13.5 -33q0 -20 -13.5 -34t-32.5 -14zM25 222v63h473v-63h-473zM262 35q-19 0 -32.5 14t-13.5 34t13.5 33.5t32.5 13.5t32.5 -14t13.5 -33q0 -20 -13.5 -34t-32.5 -14z" />
    <glyph glyph-name="oslash" unicode="&#xf8;" horiz-adv-x="516" 
d="M85 -20l-39 33l48 57q-54 70 -54 167q0 107 60 177.5t159 70.5q73 0 130 -47l41 52l40 -32l-46 -55q53 -71 53 -166q0 -106 -60.5 -176.5t-158.5 -70.5q-74 0 -129 45zM170 86q36 -34 88 -34q65 0 104 51.5t39 133.5q0 61 -22 108zM139 128l209 259q-37 37 -89 37
q-65 0 -104.5 -52t-39.5 -135q0 -65 24 -109z" />
    <glyph glyph-name="ugrave" unicode="&#xf9;" horiz-adv-x="505" 
d="M204 -10q-40 0 -75.5 20.5t-51.5 67.5q-12 39 -12 86v309h74v-291q0 -51 8 -74q17 -53 78 -53q39 0 76 20t57 47v351h73v-313q0 -120 10 -160h-66l-14 55q-74 -65 -157 -65zM231 531l-86 147h87l58 -147h-59z" />
    <glyph glyph-name="uacute" unicode="&#xfa;" horiz-adv-x="505" 
d="M204 -10q-40 0 -75.5 20.5t-51.5 67.5q-12 39 -12 86v309h74v-291q0 -51 8 -74q17 -53 78 -53q39 0 76 20t57 47v351h73v-313q0 -120 10 -160h-66l-14 55q-74 -65 -157 -65zM212 531l58 147h83l-85 -147h-56z" />
    <glyph glyph-name="ucircumflex" unicode="&#xfb;" horiz-adv-x="505" 
d="M204 -10q-40 0 -75.5 20.5t-51.5 67.5q-12 39 -12 86v309h74v-291q0 -51 8 -74q17 -53 78 -53q39 0 76 20t57 47v351h73v-313q0 -120 10 -160h-66l-14 55q-74 -65 -157 -65zM119 531l98 147h69l99 -147h-64l-69 100l-70 -100h-63z" />
    <glyph glyph-name="udieresis" unicode="&#xfc;" horiz-adv-x="505" 
d="M204 -10q-40 0 -75.5 20.5t-51.5 67.5q-12 39 -12 86v309h74v-291q0 -51 8 -74q17 -53 78 -53q39 0 76 20t57 47v351h73v-313q0 -120 10 -160h-66l-14 55q-74 -65 -157 -65zM163 561q-18 0 -30.5 12.5t-12.5 30.5q0 19 12.5 31.5t30.5 12.5t31 -12.5t13 -31.5
q0 -18 -13 -30.5t-31 -12.5zM341 561q-18 0 -31 12.5t-13 30.5q0 19 13 31.5t31 12.5t30.5 -12.5t12.5 -31.5q0 -18 -12.5 -30.5t-30.5 -12.5z" />
    <glyph glyph-name="yacute" unicode="&#xfd;" horiz-adv-x="466" 
d="M456 473l-177 -510q-42 -119 -92 -159.5t-118 -40.5q-46 0 -84 16l18 61q31 -14 65 -14q100 0 150 171l-208 476h80l161 -383h2l126 383h77zM196 531l58 147h83l-85 -147h-56z" />
    <glyph glyph-name="thorn" unicode="&#xfe;" horiz-adv-x="505" 
d="M69 -237v945h73v-234q42 11 87 11q111 0 173.5 -64.5t62.5 -179.5q0 -114 -67 -182.5t-172 -68.5q-43 0 -84 17v-244h-73zM142 73q40 -20 82 -20q79 0 122 51t43 137q0 90 -46 135.5t-120 45.5q-43 0 -81 -13v-336z" />
    <glyph glyph-name="ydieresis" unicode="&#xff;" horiz-adv-x="466" 
d="M456 473l-177 -510q-42 -119 -92 -159.5t-118 -40.5q-46 0 -84 16l18 61q31 -14 65 -14q100 0 150 171l-208 476h80l161 -383h2l126 383h77zM150 561q-18 0 -30.5 12.5t-12.5 30.5q0 19 12.5 31.5t30.5 12.5t31 -12.5t13 -31.5q0 -18 -13 -30.5t-31 -12.5zM328 561
q-18 0 -31 12.5t-13 30.5q0 19 13 31.5t31 12.5t30.5 -12.5t12.5 -31.5q0 -18 -12.5 -30.5t-30.5 -12.5z" />
    <glyph glyph-name="Amacron" unicode="&#x100;" horiz-adv-x="587" 
d="M17 0l250 661h51l252 -661h-80l-65 177h-265l-65 -177h-78zM183 239h218l-68 190q-22 60 -39 114h-2q-10 -30 -40 -114zM168 717v59h248v-59h-248z" />
    <glyph glyph-name="amacron" unicode="&#x101;" horiz-adv-x="461" 
d="M344 0l-14 53q-67 -63 -142 -63q-66 0 -108 39.5t-42 106.5q0 91 80 128q39 20 118 23l90 3v30q0 52 -28 78t-74 26q-66 0 -130 -39l-28 52q75 48 166 48q77 0 122.5 -40t45.5 -121v-163q0 -125 9 -161h-65zM326 234l-83 -3q-57 -1 -89 -18q-41 -23 -41 -73
q0 -39 24 -63.5t64 -24.5q66 0 125 62v120zM105 574v59h248v-59h-248z" />
    <glyph glyph-name="Abreve" unicode="&#x102;" horiz-adv-x="587" 
d="M17 0l250 661h51l252 -661h-80l-65 177h-265l-65 -177h-78zM183 239h218l-68 190q-22 60 -39 114h-2q-10 -30 -40 -114zM364 825h53q-4 -56 -37.5 -89t-88.5 -33t-87.5 33t-36.5 89h53q12 -69 72 -69q62 0 72 69z" />
    <glyph glyph-name="abreve" unicode="&#x103;" horiz-adv-x="461" 
d="M344 0l-14 53q-67 -63 -142 -63q-66 0 -108 39.5t-42 106.5q0 91 80 128q39 20 118 23l90 3v30q0 52 -28 78t-74 26q-66 0 -130 -39l-28 52q75 48 166 48q77 0 122.5 -40t45.5 -121v-163q0 -125 9 -161h-65zM326 234l-83 -3q-57 -1 -89 -18q-41 -23 -41 -73
q0 -39 24 -63.5t64 -24.5q66 0 125 62v120zM301 666h53q-4 -56 -37.5 -89t-88.5 -33t-87.5 33t-36.5 89h53q12 -69 72 -69q62 0 72 69z" />
    <glyph glyph-name="Aogonek" unicode="&#x104;" horiz-adv-x="587" 
d="M17 0l250 661h51l252 -661q-52 -22 -84 -54.5t-32 -66.5q0 -41 38 -41q13 0 39 7l10 -47q-35 -11 -62 -11q-42 0 -66 23t-24 57q0 33 18.5 63t36 44.5t44.5 32.5l-63 170h-265l-65 -177h-78zM183 239h218l-68 190q-22 60 -39 114h-2q-10 -30 -40 -114z" />
    <glyph glyph-name="aogonek" unicode="&#x105;" horiz-adv-x="461" 
d="M409 -3q-104 -51 -104 -118q0 -41 38 -41q12 0 38 7l10 -47q-35 -11 -61 -11q-42 0 -66 23t-24 57q0 26 9.5 49t28.5 41.5t31.5 28.5t31.5 23l-11 44q-67 -63 -142 -63q-66 0 -108 39.5t-42 106.5q0 91 80 128q39 20 118 23l90 3v30q0 52 -28 78t-74 26q-66 0 -130 -39
l-28 52q75 48 166 48q77 0 122.5 -40t45.5 -121v-164q0 -128 9 -163zM201 52q66 0 125 62v120l-83 -3q-57 -1 -89 -18q-41 -23 -41 -73q0 -39 24 -63.5t64 -24.5z" />
    <glyph glyph-name="Cacute" unicode="&#x106;" horiz-adv-x="590" 
d="M532 95l20 -59q-86 -46 -184 -46q-145 0 -229.5 92t-84.5 239t91.5 245t235.5 98q102 0 163 -35v-70q-75 41 -162 41q-111 0 -180.5 -79t-69.5 -195q0 -122 66 -197t177 -75q80 0 157 41zM293 696l58 147h83l-85 -147h-56z" />
    <glyph glyph-name="cacute" unicode="&#x107;" horiz-adv-x="425" 
d="M264 -10q-105 0 -164.5 69t-59.5 173q0 107 64.5 180t170.5 73q65 0 118 -29v-65q-52 32 -114 32q-74 0 -118.5 -52t-44.5 -134q0 -87 42 -135.5t115 -48.5q56 0 114 32l23 -52q-64 -43 -146 -43zM205 531l58 147h83l-85 -147h-56z" />
    <glyph glyph-name="Ccircumflex" unicode="&#x108;" horiz-adv-x="590" 
d="M532 95l20 -59q-86 -46 -184 -46q-145 0 -229.5 92t-84.5 239t91.5 245t235.5 98q102 0 163 -35v-70q-75 41 -162 41q-111 0 -180.5 -79t-69.5 -195q0 -122 66 -197t177 -75q80 0 157 41zM207 696l98 147h69l99 -147h-64l-69 100l-70 -100h-63z" />
    <glyph glyph-name="ccircumflex" unicode="&#x109;" horiz-adv-x="425" 
d="M264 -10q-105 0 -164.5 69t-59.5 173q0 107 64.5 180t170.5 73q65 0 118 -29v-65q-52 32 -114 32q-74 0 -118.5 -52t-44.5 -134q0 -87 42 -135.5t115 -48.5q56 0 114 32l23 -52q-64 -43 -146 -43zM115 531l98 147h69l99 -147h-64l-69 100l-70 -100h-63z" />
    <glyph glyph-name="Cdotaccent" unicode="&#x10a;" horiz-adv-x="590" 
d="M532 95l20 -59q-86 -46 -184 -46q-145 0 -229.5 92t-84.5 239t91.5 245t235.5 98q102 0 163 -35v-70q-75 41 -162 41q-111 0 -180.5 -79t-69.5 -195q0 -122 66 -197t177 -75q80 0 157 41zM343 718q-21 0 -34.5 14t-13.5 35t13.5 35.5t34.5 14.5q22 0 36 -14t14 -36
q0 -21 -14 -35t-36 -14z" />
    <glyph glyph-name="cdotaccent" unicode="&#x10b;" horiz-adv-x="425" 
d="M264 -10q-105 0 -164.5 69t-59.5 173q0 107 64.5 180t170.5 73q65 0 118 -29v-65q-52 32 -114 32q-74 0 -118.5 -52t-44.5 -134q0 -87 42 -135.5t115 -48.5q56 0 114 32l23 -52q-64 -43 -146 -43zM247 580q-21 0 -34.5 14t-13.5 35t13.5 35.5t34.5 14.5q22 0 36 -14
t14 -36q0 -21 -14 -35t-36 -14z" />
    <glyph glyph-name="Ccaron" unicode="&#x10c;" horiz-adv-x="590" 
d="M532 95l20 -59q-86 -46 -184 -46q-145 0 -229.5 92t-84.5 239t91.5 245t235.5 98q102 0 163 -35v-70q-75 41 -162 41q-111 0 -180.5 -79t-69.5 -195q0 -122 66 -197t177 -75q80 0 157 41zM305 696l-98 147h64l70 -100l69 100h63l-99 -147h-69z" />
    <glyph glyph-name="ccaron" unicode="&#x10d;" horiz-adv-x="425" 
d="M264 -10q-105 0 -164.5 69t-59.5 173q0 107 64.5 180t170.5 73q65 0 118 -29v-65q-52 32 -114 32q-74 0 -118.5 -52t-44.5 -134q0 -87 42 -135.5t115 -48.5q56 0 114 32l23 -52q-64 -43 -146 -43zM213 532l-98 147h64l70 -100l69 100h63l-99 -147h-69z" />
    <glyph glyph-name="Dcaron" unicode="&#x10e;" horiz-adv-x="647" 
d="M86 0v659h158q171 0 260 -89.5t89 -236.5q0 -149 -90 -241t-262 -92h-155zM160 63h80q144 0 209.5 75.5t65.5 197.5q0 119 -69.5 189.5t-207.5 70.5h-78v-533zM251 696l-98 147h64l70 -100l69 100h63l-99 -147h-69z" />
    <glyph glyph-name="dcaron" unicode="&#x10f;" horiz-adv-x="509" 
d="M287 -10q-107 0 -177 63t-70 178q0 113 70.5 183.5t173.5 70.5q43 0 80 -10v233h73v-686q-59 -32 -150 -32zM290 53q42 0 74 13v344q-36 12 -75 12q-74 0 -123.5 -50.5t-49.5 -138.5q0 -83 46.5 -131.5t127.5 -48.5zM477 513l36 195h75l-55 -195h-56z" />
    <glyph glyph-name="Dcroat" unicode="&#x110;" horiz-adv-x="647" 
d="M86 0v302h-77v62h77v295h158q171 0 260 -89.5t89 -236.5q0 -149 -90 -241t-262 -92h-155zM160 63h80q144 0 209.5 75.5t65.5 197.5q0 119 -69.5 189.5t-207.5 70.5h-78v-232h164v-62h-164v-239z" />
    <glyph glyph-name="dcroat" unicode="&#x111;" horiz-adv-x="509" 
d="M283 -10q-104 0 -173.5 63t-69.5 178q0 113 70.5 183.5t174.5 70.5q40 0 79 -10v90h-133v59h133v84h73v-84h62v-59h-62v-542q-61 -33 -154 -33zM290 54q44 0 74 12v345q-36 12 -75 12q-74 0 -124 -50.5t-50 -138.5q0 -82 46.5 -131t128.5 -49z" />
    <glyph glyph-name="Emacron" unicode="&#x112;" horiz-adv-x="468" 
d="M86 0v659h318l-24 -63h-220v-228h217v-63h-217v-242h250v-63h-324zM118 717v59h248v-59h-248z" />
    <glyph glyph-name="emacron" unicode="&#x113;" horiz-adv-x="463" 
d="M423 224h-307q1 -75 42.5 -123.5t114.5 -48.5q58 0 117 32l23 -52q-64 -42 -150 -42q-108 0 -165.5 71.5t-57.5 180.5q0 108 54 175.5t140 67.5q89 0 139 -65t50 -178v-18zM116 281h230q-2 59 -30.5 101.5t-80.5 42.5q-53 0 -85 -41.5t-34 -102.5zM112 574v59h248v-59
h-248z" />
    <glyph glyph-name="Ebreve" unicode="&#x114;" horiz-adv-x="468" 
d="M86 0v659h318l-24 -63h-220v-228h217v-63h-217v-242h250v-63h-324zM312 825h53q-4 -56 -37.5 -89t-88.5 -33t-87.5 33t-36.5 89h53q12 -69 72 -69q62 0 72 69z" />
    <glyph glyph-name="ebreve" unicode="&#x115;" horiz-adv-x="463" 
d="M423 224h-307q1 -75 42.5 -123.5t114.5 -48.5q58 0 117 32l23 -52q-64 -42 -150 -42q-108 0 -165.5 71.5t-57.5 180.5q0 108 54 175.5t140 67.5q89 0 139 -65t50 -178v-18zM116 281h230q-2 59 -30.5 101.5t-80.5 42.5q-53 0 -85 -41.5t-34 -102.5zM309 666h53
q-4 -56 -37.5 -89t-88.5 -33t-87.5 33t-36.5 89h53q12 -69 72 -69q62 0 72 69z" />
    <glyph glyph-name="Edotaccent" unicode="&#x116;" horiz-adv-x="468" 
d="M86 0v659h318l-24 -63h-220v-228h217v-63h-217v-242h250v-63h-324zM239 718q-21 0 -34.5 14t-13.5 35t13.5 35.5t34.5 14.5q22 0 36 -14t14 -36q0 -21 -14 -35t-36 -14z" />
    <glyph glyph-name="edotaccent" unicode="&#x117;" horiz-adv-x="463" 
d="M423 224h-307q1 -75 42.5 -123.5t114.5 -48.5q58 0 117 32l23 -52q-64 -42 -150 -42q-108 0 -165.5 71.5t-57.5 180.5q0 108 54 175.5t140 67.5q89 0 139 -65t50 -178v-18zM116 281h230q-2 59 -30.5 101.5t-80.5 42.5q-53 0 -85 -41.5t-34 -102.5zM236 580
q-21 0 -34.5 14t-13.5 35t13.5 35.5t34.5 14.5q22 0 36 -14t14 -36q0 -21 -14 -35t-36 -14z" />
    <glyph glyph-name="Eogonek" unicode="&#x118;" horiz-adv-x="468" 
d="M86 0v659h318l-24 -63h-220v-228h217v-63h-217v-242h250v-63h-16q-48 -23 -78 -55t-30 -66q0 -41 39 -41q12 0 38 7l10 -47q-35 -11 -61 -11q-42 0 -66 23t-24 57q0 75 89 133h-225z" />
    <glyph glyph-name="eogonek" unicode="&#x119;" horiz-adv-x="463" 
d="M206 -133q0 68 76 123v2q-12 -2 -24 -2q-105 1 -161.5 72t-56.5 180q0 108 54 175.5t140 67.5q89 0 138.5 -65t49.5 -178v-18h-307q2 -76 43.5 -124t114.5 -48q59 0 116 32l24 -52q-143 -82 -143 -153q0 -41 39 -41q12 0 38 7l10 -47q-35 -11 -61 -11q-43 0 -66.5 23
t-23.5 57zM116 281h229q-1 59 -29.5 101.5t-81.5 42.5t-85 -41.5t-33 -102.5z" />
    <glyph glyph-name="Ecaron" unicode="&#x11a;" horiz-adv-x="468" 
d="M86 0v659h318l-24 -63h-220v-228h217v-63h-217v-242h250v-63h-324zM207 696l-98 147h64l70 -100l69 100h63l-99 -147h-69z" />
    <glyph glyph-name="ecaron" unicode="&#x11b;" horiz-adv-x="463" 
d="M423 224h-307q1 -75 42.5 -123.5t114.5 -48.5q58 0 117 32l23 -52q-64 -42 -150 -42q-108 0 -165.5 71.5t-57.5 180.5q0 108 54 175.5t140 67.5q89 0 139 -65t50 -178v-18zM116 281h230q-2 59 -30.5 101.5t-80.5 42.5q-53 0 -85 -41.5t-34 -102.5zM202 532l-98 147h64
l70 -100l69 100h63l-99 -147h-69z" />
    <glyph glyph-name="Gcircumflex" unicode="&#x11c;" horiz-adv-x="673" 
d="M595 311v-271q-96 -50 -216 -50q-146 0 -235.5 92t-89.5 238q0 152 94 248t246 96q95 0 180 -35v-70q-82 42 -176 42q-125 0 -195.5 -75t-70.5 -198q0 -126 69.5 -200t186.5 -74q80 0 134 27v230h73zM230 696l98 147h69l99 -147h-64l-69 100l-70 -100h-63z" />
    <glyph glyph-name="gcircumflex" unicode="&#x11d;" horiz-adv-x="474" 
d="M227 -237q-95 0 -151 36t-56 100q0 79 88 122q-34 19 -34 59q0 48 50 93q-73 48 -73 143q0 72 49 120t125 48q49 0 89 -18q6 -3 10 1q39 39 97 39q14 0 29 -3l-18 -58q-14 3 -27 3q-26 0 -46 -13q54 -48 54 -122q0 -76 -50.5 -123.5t-132.5 -47.5q-32 0 -62 10
q-25 -28 -25 -54q0 -25 32 -38t78 -18.5t92 -15t78 -38t32 -77.5q0 -67 -61.5 -107.5t-166.5 -40.5zM233 -179q72 0 110 23t38 59q0 30 -25 48t-55 23t-77 12t-71 14q-65 -43 -65 -89q0 -42 40 -66t105 -24zM231 203q47 0 77 29.5t30 81.5q0 47 -30 78t-77 31
q-48 0 -77.5 -29.5t-29.5 -78.5q0 -50 29 -81t78 -31zM98 531l98 147h69l99 -147h-64l-69 100l-70 -100h-63z" />
    <glyph glyph-name="Gbreve" unicode="&#x11e;" horiz-adv-x="673" 
d="M595 311v-271q-96 -50 -216 -50q-146 0 -235.5 92t-89.5 238q0 152 94 248t246 96q95 0 180 -35v-70q-82 42 -176 42q-125 0 -195.5 -75t-70.5 -198q0 -126 69.5 -200t186.5 -74q80 0 134 27v230h73zM432 825h53q-4 -56 -37.5 -89t-88.5 -33t-87.5 33t-36.5 89h53
q12 -69 72 -69q62 0 72 69z" />
    <glyph glyph-name="gbreve" unicode="&#x11f;" horiz-adv-x="474" 
d="M227 -237q-95 0 -151 36t-56 100q0 79 88 122q-34 19 -34 59q0 48 50 93q-73 48 -73 143q0 72 49 120t125 48q49 0 89 -18q6 -3 10 1q39 39 97 39q14 0 29 -3l-18 -58q-14 3 -27 3q-26 0 -46 -13q54 -48 54 -122q0 -76 -50.5 -123.5t-132.5 -47.5q-32 0 -62 10
q-25 -28 -25 -54q0 -25 32 -38t78 -18.5t92 -15t78 -38t32 -77.5q0 -67 -61.5 -107.5t-166.5 -40.5zM233 -179q72 0 110 23t38 59q0 30 -25 48t-55 23t-77 12t-71 14q-65 -43 -65 -89q0 -42 40 -66t105 -24zM231 203q47 0 77 29.5t30 81.5q0 47 -30 78t-77 31
q-48 0 -77.5 -29.5t-29.5 -78.5q0 -50 29 -81t78 -31zM303 666h53q-4 -56 -37.5 -89t-88.5 -33t-87.5 33t-36.5 89h53q12 -69 72 -69q62 0 72 69z" />
    <glyph glyph-name="Gdotaccent" unicode="&#x120;" horiz-adv-x="673" 
d="M595 311v-271q-96 -50 -216 -50q-146 0 -235.5 92t-89.5 238q0 152 94 248t246 96q95 0 180 -35v-70q-82 42 -176 42q-125 0 -195.5 -75t-70.5 -198q0 -126 69.5 -200t186.5 -74q80 0 134 27v230h73zM361 718q-21 0 -34.5 14t-13.5 35t13.5 35.5t34.5 14.5q22 0 36 -14
t14 -36q0 -21 -14 -35t-36 -14z" />
    <glyph glyph-name="gdotaccent" unicode="&#x121;" horiz-adv-x="474" 
d="M227 -237q-95 0 -151 36t-56 100q0 79 88 122q-34 19 -34 59q0 48 50 93q-73 48 -73 143q0 72 49 120t125 48q49 0 89 -18q6 -3 10 1q39 39 97 39q14 0 29 -3l-18 -58q-14 3 -27 3q-26 0 -46 -13q54 -48 54 -122q0 -76 -50.5 -123.5t-132.5 -47.5q-32 0 -62 10
q-25 -28 -25 -54q0 -25 32 -38t78 -18.5t92 -15t78 -38t32 -77.5q0 -67 -61.5 -107.5t-166.5 -40.5zM233 -179q72 0 110 23t38 59q0 30 -25 48t-55 23t-77 12t-71 14q-65 -43 -65 -89q0 -42 40 -66t105 -24zM231 203q47 0 77 29.5t30 81.5q0 47 -30 78t-77 31
q-48 0 -77.5 -29.5t-29.5 -78.5q0 -50 29 -81t78 -31zM230 580q-21 0 -34.5 14t-13.5 35t13.5 35.5t34.5 14.5q22 0 36 -14t14 -36q0 -21 -14 -35t-36 -14z" />
    <glyph glyph-name="Gcommaaccent" unicode="&#x122;" horiz-adv-x="672" 
d="M594 311v-271q-96 -50 -216 -50q-146 0 -235.5 92t-89.5 238q0 152 94 248t246 96q95 0 180 -35v-70q-82 42 -176 42q-125 0 -195.5 -75t-70.5 -198q0 -126 69.5 -200t186.5 -74q80 0 134 27v230h73zM301 -237l-20 48q71 20 71 71q0 29 -24 66h67q24 -30 24 -73
q0 -86 -118 -112z" />
    <glyph glyph-name="gcommaaccent" unicode="&#x123;" horiz-adv-x="474" 
d="M262 531h-66q-24 30 -24 73q0 86 118 112l20 -48q-41 -11 -56.5 -28.5t-15.5 -42.5q0 -29 24 -66zM227 -237q-95 0 -151 36t-56 100q0 79 88 122q-34 19 -34 59q0 48 50 93q-73 48 -73 143q0 72 49 120t125 48q49 0 89 -18q6 -3 10 1q39 39 97 39q14 0 29 -3l-18 -58
q-14 3 -27 3q-26 0 -46 -13q54 -48 54 -122q0 -76 -50.5 -123.5t-132.5 -47.5q-32 0 -62 10q-25 -28 -25 -54q0 -25 32 -38t78 -18.5t92 -15t78 -38t32 -77.5q0 -67 -61.5 -107.5t-166.5 -40.5zM233 -179q72 0 110 23t38 59q0 30 -25 48t-55 23t-77 12t-71 14
q-65 -43 -65 -89q0 -42 40 -66t105 -24zM231 203q47 0 77 29.5t30 81.5q0 47 -30 78t-77 31q-48 0 -77.5 -29.5t-29.5 -78.5q0 -50 29 -81t78 -31z" />
    <glyph glyph-name="Hcircumflex" unicode="&#x124;" horiz-adv-x="680" 
d="M86 0v659h74v-290h361v290h73v-659h-73v306h-361v-306h-74zM211 696l98 147h69l99 -147h-64l-69 100l-70 -100h-63z" />
    <glyph glyph-name="hcircumflex" unicode="&#x125;" horiz-adv-x="510" 
d="M69 0v708h73v-295q86 72 164 72q61 0 100.5 -41t39.5 -125v-319h-73v294q0 125 -85 125q-64 0 -146 -71v-348h-73zM-25 726l98 147h69l99 -147h-64l-69 100l-70 -100h-63z" />
    <glyph glyph-name="Hbar" unicode="&#x126;" horiz-adv-x="680" 
d="M86 0v478h-63v60h63v121h74v-121h361v121h73v-121h63v-60h-63v-478h-73v306h-361v-306h-74zM160 369h361v109h-361v-109z" />
    <glyph glyph-name="hbar" unicode="&#x127;" horiz-adv-x="506" 
d="M65 0v559h-63v60h63v89h74v-89h137v-60h-137v-146q84 72 163 72q61 0 100.5 -41t39.5 -125v-319h-73v294q0 125 -85 125q-65 0 -145 -71v-348h-74z" />
    <glyph glyph-name="Itilde" unicode="&#x128;" horiz-adv-x="246" 
d="M86 0v659h74v-659h-74zM-17 726v23q0 35 20 55.5t51 20.5q30 0 72 -24t56 -24q26 0 26 42h53v-22q0 -35 -20 -56t-51 -21q-29 0 -71 24t-57 24q-26 0 -26 -42h-53z" />
    <glyph glyph-name="itilde" unicode="&#x129;" horiz-adv-x="225" 
d="M-25 554v22q0 35 20 56t51 21q30 0 72 -24t56 -24q26 0 26 42h53v-22q0 -35 -20 -56t-51 -21q-29 0 -71 24t-57 24q-26 0 -26 -42h-53zM76 0v473h73v-473h-73z" />
    <glyph glyph-name="imacron" unicode="&#x12b;" horiz-adv-x="225" 
d="M-10 574v59h248v-59h-248zM76 0v473h73v-473h-73z" />
    <glyph glyph-name="Ibreve" unicode="&#x12c;" horiz-adv-x="246" 
d="M86 0v659h74v-659h-74zM194 825h53q-4 -56 -37.5 -89t-88.5 -33t-87.5 33t-36.5 89h53q12 -69 72 -69q62 0 72 69z" />
    <glyph glyph-name="Iogonek" unicode="&#x12e;" horiz-adv-x="246" 
d="M86 6v653h74v-659q-35 -22 -56 -53.5t-21 -61.5q0 -47 40 -47q13 0 37 7l10 -47q-35 -11 -61 -11q-44 0 -67.5 24t-23.5 63q0 68 68 132z" />
    <glyph glyph-name="iogonek" unicode="&#x12f;" horiz-adv-x="225" 
d="M8 -126q0 70 68 132v467h73v-473q-35 -22 -55.5 -53.5t-20.5 -61.5q0 -47 40 -47q13 0 37 7l10 -47q-35 -11 -61 -11q-44 0 -67.5 24t-23.5 63zM112 580q-22 0 -35.5 14t-13.5 35t14 35.5t35 14.5q22 0 36 -14t14 -36q0 -21 -14 -35t-36 -14z" />
    <glyph glyph-name="Idotaccent" unicode="&#x130;" horiz-adv-x="246" 
d="M86 0v659h74v-659h-74zM123 718q-21 0 -34.5 14t-13.5 35t13.5 35.5t34.5 14.5q22 0 36 -14t14 -36q0 -21 -14 -35t-36 -14z" />
    <glyph glyph-name="dotlessi" unicode="&#x131;" horiz-adv-x="225" 
d="M76 0v473h73v-473h-73z" />
    <glyph glyph-name="IJ" unicode="&#x132;" horiz-adv-x="534" 
d="M86 0v659h74v-659h-74zM220 -173l13 63q23 -8 51 -8q52 0 71 27.5t19 82.5v667h74v-682q0 -159 -163 -159q-34 0 -65 9z" />
    <glyph glyph-name="ij" unicode="&#x133;" horiz-adv-x="461" 
d="M76 0v473h73v-473h-73zM112 580q-22 0 -35.5 14t-13.5 35t14 35.5t35 14.5q22 0 36 -14t14 -36q0 -21 -14 -35t-36 -14zM176 -223l16 61q22 -10 47 -10q38 0 55.5 24t17.5 77v544h73v-558q0 -76 -38 -114t-99 -38q-41 0 -72 14zM348 580q-21 0 -34.5 14t-13.5 35
t13.5 35.5t34.5 14.5q22 0 36 -14t14 -36q0 -21 -14 -35t-36 -14z" />
    <glyph glyph-name="Jcircumflex" unicode="&#x134;" horiz-adv-x="288" 
d="M-26 -173l13 63q23 -8 51 -8q52 0 71 27.5t19 82.5v667h74v-682q0 -159 -163 -159q-34 0 -65 9zM31 696l98 147h69l99 -147h-64l-69 100l-70 -100h-63z" />
    <glyph glyph-name="jcircumflex" unicode="&#x135;" horiz-adv-x="236" 
d="M-49 -222l16 58q26 -11 48 -11q38 0 55 25.5t17 78.5v544h73v-556q0 -78 -38.5 -116t-95.5 -38q-42 0 -75 15zM-15 531l98 147h69l99 -147h-63l-70 100l-70 -100h-63z" />
    <glyph glyph-name="Kcommaaccent" unicode="&#x136;" horiz-adv-x="537" 
d="M86 0v659h74v-302h2l250 302h88l-274 -326l292 -333h-93l-263 301h-2v-301h-74zM206 -237l-20 48q71 20 71 71q0 29 -24 66h67q24 -30 24 -73q0 -86 -118 -112z" />
    <glyph glyph-name="kcommaaccent" unicode="&#x137;" horiz-adv-x="439" 
d="M69 0v708h73v-409h2l180 174h89l-207 -200l229 -273h-89l-202 243h-2v-243h-73zM163 -237l-20 48q71 20 71 71q0 29 -24 66h67q24 -30 24 -73q0 -86 -118 -112z" />
    <glyph glyph-name="Lacute" unicode="&#x139;" horiz-adv-x="428" 
d="M86 0v659h74v-596h245v-63h-319zM89 696l58 147h83l-85 -147h-56z" />
    <glyph glyph-name="lacute" unicode="&#x13a;" horiz-adv-x="242" 
d="M72 732l50 127h82l-74 -127h-58zM69 86v622h73v-599q0 -28 8.5 -39t28.5 -11q13 0 29 7l16 -58q-30 -14 -66 -14q-44 0 -66.5 24t-22.5 68z" />
    <glyph glyph-name="Lcommaaccent" unicode="&#x13b;" horiz-adv-x="428" 
d="M86 0v659h74v-596h245v-63h-319zM174 -237l-20 48q71 20 71 71q0 29 -24 66h67q24 -30 24 -73q0 -86 -118 -112z" />
    <glyph glyph-name="lcommaaccent" unicode="&#x13c;" horiz-adv-x="242" 
d="M67 86v622h73v-599q0 -28 8.5 -39t28.5 -11q13 0 29 7l16 -58q-30 -14 -66 -14q-44 0 -66.5 24t-22.5 68zM78 -237l-20 48q71 20 71 71q0 29 -24 66h67q24 -30 24 -73q0 -86 -118 -112z" />
    <glyph glyph-name="Lcaron" unicode="&#x13d;" horiz-adv-x="428" 
d="M86 0v659h74v-596h245v-63h-319zM253 513l36 195h75l-55 -195h-56z" />
    <glyph glyph-name="lcaron" unicode="&#x13e;" horiz-adv-x="242" 
d="M69 86v622h73v-599q0 -28 8.5 -39t28.5 -11q13 0 29 7l16 -58q-30 -14 -66 -14q-44 0 -66.5 24t-22.5 68zM182 513l36 195h75l-55 -195h-56z" />
    <glyph glyph-name="Ldot" unicode="&#x13f;" horiz-adv-x="428" 
d="M86 0v659h74v-596h245v-63h-319zM335 295q-20 0 -34 15t-14 35t14 34.5t34 14.5q19 0 33 -14.5t14 -34.5t-14 -35t-33 -15z" />
    <glyph glyph-name="ldot" unicode="&#x140;" horiz-adv-x="270" 
d="M69 86v622h73v-599q0 -28 8.5 -39t28.5 -11q13 0 29 7l16 -58q-30 -14 -66 -14q-44 0 -66.5 24t-22.5 68zM242 288q-20 0 -34 15t-14 35t14 34.5t34 14.5q19 0 33 -14.5t14 -34.5t-14 -35t-33 -15z" />
    <glyph glyph-name="Lslash" unicode="&#x141;" horiz-adv-x="428" 
d="M27 210v70l59 35v344h74v-301l160 95v-69l-160 -95v-226h245v-63h-319v245z" />
    <glyph glyph-name="lslash" unicode="&#x142;" horiz-adv-x="271" 
d="M32 250v70l60 35v353h73v-309l69 41v-71l-69 -41v-217q0 -28 8.5 -39t27.5 -11q15 0 29 6l16 -59q-30 -14 -66 -14q-88 0 -88 92v199z" />
    <glyph glyph-name="Nacute" unicode="&#x143;" horiz-adv-x="716" 
d="M630 0h-62l-316 418q-48 62 -93 127h-2q3 -49 3 -113v-432h-74v659h71l304 -402l96 -133h2q-2 35 -2 116v419h73v-659zM319 696l58 147h83l-85 -147h-56z" />
    <glyph glyph-name="nacute" unicode="&#x144;" horiz-adv-x="506" 
d="M65 0v473h62l9 -61q86 73 166 73q61 0 100.5 -41t39.5 -125v-319h-73v294q0 125 -85 125q-65 0 -145 -71v-348h-74zM201 531l58 147h83l-85 -147h-56z" />
    <glyph glyph-name="Ncommaaccent" unicode="&#x145;" horiz-adv-x="716" 
d="M630 0h-62l-316 418q-48 62 -93 127h-2q3 -49 3 -113v-432h-74v659h71l304 -402l96 -133h2q-2 35 -2 116v419h73v-659zM299 -237l-20 48q71 20 71 71q0 29 -24 66h67q24 -30 24 -73q0 -86 -118 -112z" />
    <glyph glyph-name="ncommaaccent" unicode="&#x146;" horiz-adv-x="506" 
d="M65 0v473h62l9 -61q86 73 166 73q61 0 100.5 -41t39.5 -125v-319h-73v294q0 125 -85 125q-65 0 -145 -71v-348h-74zM187 -237l-20 48q71 20 71 71q0 29 -24 66h67q24 -30 24 -73q0 -86 -118 -112z" />
    <glyph glyph-name="Ncaron" unicode="&#x147;" horiz-adv-x="716" 
d="M630 0h-62l-316 418q-48 62 -93 127h-2q3 -49 3 -113v-432h-74v659h71l304 -402l96 -133h2q-2 35 -2 116v419h73v-659zM326 696l-98 147h64l70 -100l69 100h63l-99 -147h-69z" />
    <glyph glyph-name="ncaron" unicode="&#x148;" horiz-adv-x="506" 
d="M65 0v473h62l9 -61q86 73 166 73q61 0 100.5 -41t39.5 -125v-319h-73v294q0 125 -85 125q-65 0 -145 -71v-348h-74zM206 532l-98 147h64l70 -100l69 100h63l-99 -147h-69z" />
    <glyph glyph-name="Eng" unicode="&#x14a;" horiz-adv-x="718" 
d="M86 0v659h71l306 -402q57 -76 95 -133h2q-2 70 -2 116v419h74v-699q0 -78 -39 -117.5t-103 -39.5q-43 0 -74 14l17 61q22 -10 50 -10q40 0 57.5 25.5t17.5 79.5v43l-306 402q-48 62 -93 127h-2q3 -49 3 -113v-432h-74z" />
    <glyph glyph-name="eng" unicode="&#x14b;" horiz-adv-x="506" 
d="M234 -181l15 61q22 -10 47 -10q38 0 55.5 24t17.5 77v323q0 125 -85 125q-65 0 -145 -71v-348h-74v473h62l9 -61q86 73 166 73q61 0 100.5 -41t39.5 -125v-362q0 -76 -38 -114t-99 -38q-42 0 -71 14z" />
    <glyph glyph-name="Omacron" unicode="&#x14c;" horiz-adv-x="750" 
d="M375 -10q-140 0 -230.5 92.5t-90.5 243.5q0 149 90.5 243.5t230.5 94.5t230.5 -95t90.5 -243q0 -151 -91.5 -243.5t-229.5 -92.5zM375 54q110 0 176.5 74.5t66.5 197.5q0 120 -64.5 197t-178.5 77q-110 0 -176.5 -75.5t-66.5 -198.5t66.5 -197.5t176.5 -74.5zM254 717v59
h248v-59h-248z" />
    <glyph glyph-name="omacron" unicode="&#x14d;" horiz-adv-x="516" 
d="M258 -10q-97 0 -157.5 70.5t-60.5 176.5q0 107 60 177.5t159 70.5q97 0 157.5 -71t60.5 -177t-60.5 -176.5t-158.5 -70.5zM258 53q65 0 103.5 51t38.5 133t-38.5 133.5t-102.5 51.5q-65 0 -104 -51t-39 -134q0 -82 38.5 -133t103.5 -51zM134 574v59h248v-59h-248z" />
    <glyph glyph-name="Obreve" unicode="&#x14e;" horiz-adv-x="750" 
d="M375 -10q-140 0 -230.5 92.5t-90.5 243.5q0 149 90.5 243.5t230.5 94.5t230.5 -95t90.5 -243q0 -151 -91.5 -243.5t-229.5 -92.5zM375 54q110 0 176.5 74.5t66.5 197.5q0 120 -64.5 197t-178.5 77q-110 0 -176.5 -75.5t-66.5 -198.5t66.5 -197.5t176.5 -74.5zM449 825h53
q-4 -56 -37.5 -89t-88.5 -33t-87.5 33t-36.5 89h53q12 -69 72 -69q62 0 72 69z" />
    <glyph glyph-name="obreve" unicode="&#x14f;" horiz-adv-x="516" 
d="M258 -10q-97 0 -157.5 70.5t-60.5 176.5q0 107 60 177.5t159 70.5q97 0 157.5 -71t60.5 -177t-60.5 -176.5t-158.5 -70.5zM258 53q65 0 103.5 51t38.5 133t-38.5 133.5t-102.5 51.5q-65 0 -104 -51t-39 -134q0 -82 38.5 -133t103.5 -51zM330 666h53q-4 -56 -37.5 -89
t-88.5 -33t-87.5 33t-36.5 89h53q12 -69 72 -69q62 0 72 69z" />
    <glyph glyph-name="Ohungarumlaut" unicode="&#x150;" horiz-adv-x="750" 
d="M375 -10q-140 0 -230.5 92.5t-90.5 243.5q0 149 90.5 243.5t230.5 94.5t230.5 -95t90.5 -243q0 -151 -91.5 -243.5t-229.5 -92.5zM375 54q110 0 176.5 74.5t66.5 197.5q0 120 -64.5 197t-178.5 77q-110 0 -176.5 -75.5t-66.5 -198.5t66.5 -197.5t176.5 -74.5zM277 696
l58 147h86l-86 -147h-58zM437 696l58 147h86l-85 -147h-59z" />
    <glyph glyph-name="ohungarumlaut" unicode="&#x151;" horiz-adv-x="516" 
d="M258 -10q-97 0 -157.5 70.5t-60.5 176.5q0 107 60 177.5t159 70.5q97 0 157.5 -71t60.5 -177t-60.5 -176.5t-158.5 -70.5zM258 53q65 0 103.5 51t38.5 133t-38.5 133.5t-102.5 51.5q-65 0 -104 -51t-39 -134q0 -82 38.5 -133t103.5 -51zM155 531l58 147h86l-86 -147h-58z
M315 531l58 147h86l-85 -147h-59z" />
    <glyph glyph-name="OE" unicode="&#x152;" horiz-adv-x="867" 
d="M809 0h-214q-53 0 -125 -5t-88 -5q-106 0 -181 48q-69 41 -107.5 115t-38.5 172q0 95 39 171t108 119q77 49 189 49q22 0 87.5 -2.5t104.5 -2.5h220l-23 -63h-221v-228h217v-63h-217v-242h250v-63zM387 54q61 0 98 8v532q-45 6 -96 6q-87 0 -145 -40q-54 -34 -82.5 -94.5
t-28.5 -139.5q0 -82 30.5 -143.5t87.5 -93.5q56 -35 136 -35z" />
    <glyph glyph-name="oe" unicode="&#x153;" horiz-adv-x="821" 
d="M257 -10q-97 0 -157 71t-60 176q0 106 60 177t157 71q60 0 105.5 -28.5t69.5 -77.5h2q21 50 63 78t95 28q88 0 138.5 -65.5t50.5 -177.5v-18h-308q2 -75 44 -123.5t114 -48.5q59 0 116 32l24 -52q-64 -42 -151 -42q-128 0 -184 110h-2q-55 -110 -177 -110zM258 52
q64 0 102 51.5t38 133.5q0 83 -37.5 134.5t-101.5 51.5q-65 0 -104 -51.5t-39 -134.5q0 -82 38.5 -133.5t103.5 -51.5zM474 281h229q-1 59 -29.5 101.5t-81.5 42.5t-85 -41.5t-33 -102.5z" />
    <glyph glyph-name="Racute" unicode="&#x154;" horiz-adv-x="540" 
d="M86 0v659h134q95 0 149 -35q77 -48 77 -145q0 -133 -134 -174v-2q25 -12 79 -105l120 -198h-86l-115 191q-49 82 -76 89h-74v-280h-74zM160 342h62q53 0 91 22q57 34 57 108q0 64 -42 94q-36 31 -105 31h-63v-255zM197 696l58 147h83l-85 -147h-56z" />
    <glyph glyph-name="racute" unicode="&#x155;" horiz-adv-x="320" 
d="M65 0v473h62l9 -60q66 72 133 72q30 0 51 -12l-26 -67q-20 10 -41 10q-47 0 -114 -68v-348h-74zM127 531l58 147h83l-85 -147h-56z" />
    <glyph glyph-name="Rcommaaccent" unicode="&#x156;" horiz-adv-x="540" 
d="M86 0v659h134q95 0 149 -35q77 -48 77 -145q0 -133 -134 -174v-2q25 -12 79 -105l120 -198h-86l-115 191q-49 82 -76 89h-74v-280h-74zM160 342h62q53 0 91 22q57 34 57 108q0 64 -42 94q-36 31 -105 31h-63v-255zM213 -237l-20 48q71 20 71 71q0 29 -24 66h67
q24 -30 24 -73q0 -86 -118 -112z" />
    <glyph glyph-name="rcommaaccent" unicode="&#x157;" horiz-adv-x="320" 
d="M65 0v473h62l9 -60q66 72 133 72q30 0 51 -12l-26 -67q-20 10 -41 10q-47 0 -114 -68v-348h-74zM48 -237l-20 48q71 20 71 71q0 29 -24 66h67q24 -30 24 -73q0 -86 -118 -112z" />
    <glyph glyph-name="Rcaron" unicode="&#x158;" horiz-adv-x="540" 
d="M86 0v659h134q95 0 149 -35q77 -48 77 -145q0 -133 -134 -174v-2q25 -12 79 -105l120 -198h-86l-115 191q-49 82 -76 89h-74v-280h-74zM160 342h62q53 0 91 22q57 34 57 108q0 64 -42 94q-36 31 -105 31h-63v-255zM205 696l-98 147h64l70 -100l69 100h63l-99 -147h-69z
" />
    <glyph glyph-name="rcaron" unicode="&#x159;" horiz-adv-x="320" 
d="M58 0v473h62l9 -60q66 72 133 72q30 0 51 -12l-26 -67q-20 10 -41 10q-47 0 -114 -68v-348h-74zM134 532l-98 147h64l70 -100l69 100h63l-99 -147h-69z" />
    <glyph glyph-name="Sacute" unicode="&#x15a;" horiz-adv-x="490" 
d="M53 40l31 58q67 -44 143 -44q58 0 95.5 26t37.5 81q0 43 -30 75.5t-72.5 55l-85 46.5t-72.5 64.5t-30 94.5q0 72 52 119.5t142 47.5q83 0 143 -30v-69q-64 36 -141 36q-50 0 -84.5 -24t-34.5 -73q0 -41 30 -72t72.5 -53.5l85 -47t72.5 -66.5t30 -99q0 -82 -57.5 -129
t-153.5 -47q-101 0 -173 50zM222 696l58 147h83l-85 -147h-56z" />
    <glyph glyph-name="sacute" unicode="&#x15b;" horiz-adv-x="379" 
d="M26 30l24 57q56 -35 118 -35q44 0 72.5 19t28.5 57q0 28 -23 47.5t-55.5 32.5t-64.5 28.5t-55 45.5t-23 73q0 56 42 93t118 37q60 0 117 -22v-65q-59 26 -114 26q-91 0 -91 -66q0 -29 23 -48.5t55.5 -32t65.5 -28t56 -46t23 -74.5q0 -68 -49 -103.5t-126 -35.5
q-79 0 -142 40zM158 531l58 147h83l-85 -147h-56z" />
    <glyph glyph-name="Scircumflex" unicode="&#x15c;" horiz-adv-x="490" 
d="M53 40l31 58q67 -44 143 -44q58 0 95.5 26t37.5 81q0 43 -30 75.5t-72.5 55l-85 46.5t-72.5 64.5t-30 94.5q0 72 52 119.5t142 47.5q83 0 143 -30v-69q-64 36 -141 36q-50 0 -84.5 -24t-34.5 -73q0 -41 30 -72t72.5 -53.5l85 -47t72.5 -66.5t30 -99q0 -82 -57.5 -129
t-153.5 -47q-101 0 -173 50zM116 696l98 147h69l99 -147h-64l-69 100l-70 -100h-63z" />
    <glyph glyph-name="scircumflex" unicode="&#x15d;" horiz-adv-x="379" 
d="M26 30l24 57q56 -35 118 -35q44 0 72.5 19t28.5 57q0 28 -23 47.5t-55.5 32.5t-64.5 28.5t-55 45.5t-23 73q0 56 42 93t118 37q60 0 117 -22v-65q-59 26 -114 26q-91 0 -91 -66q0 -29 23 -48.5t55.5 -32t65.5 -28t56 -46t23 -74.5q0 -68 -49 -103.5t-126 -35.5
q-79 0 -142 40zM58 531l98 147h69l99 -147h-64l-69 100l-70 -100h-63z" />
    <glyph glyph-name="Scedilla" unicode="&#x15e;" horiz-adv-x="481" 
d="M140 -200l14 43q23 -10 50 -10q53 0 53 39q0 24 -22 31t-63 7l25 81q-81 7 -144 49l31 58q67 -44 143 -44q58 0 95.5 26t37.5 81q0 43 -30 75.5t-72.5 55l-85 46.5t-72.5 64.5t-30 94.5q0 72 52 119.5t142 47.5q83 0 143 -30v-69q-64 36 -141 36q-50 0 -84.5 -24
t-34.5 -73q0 -41 30 -72t72.5 -53.5l85 -47t72.5 -66.5t30 -99q0 -75 -49 -121t-132 -53l-14 -46q81 -6 81 -72q0 -40 -31.5 -63t-84.5 -23q-37 0 -67 12z" />
    <glyph glyph-name="scedilla" unicode="&#x15f;" horiz-adv-x="379" 
d="M85 -200l13 43q23 -10 50 -10q53 0 53 39q0 17 -13 25.5t-27 10.5t-37 2h-8l25 82q-64 5 -115 38l24 57q56 -35 118 -35q44 0 72.5 19t28.5 57q0 28 -23 47.5t-55.5 32.5t-64.5 28.5t-55 45.5t-23 73q0 56 42 93t118 37q60 0 117 -22v-65q-59 26 -114 26q-91 0 -91 -66
q0 -29 23 -48.5t55.5 -32t65.5 -28t56 -46t23 -74.5q0 -60 -39.5 -95t-103.5 -42l-14 -46q81 -6 81 -72q0 -40 -31.5 -63t-84.5 -23q-38 0 -66 12z" />
    <glyph glyph-name="Scaron" unicode="&#x160;" horiz-adv-x="490" 
d="M53 40l31 58q67 -44 143 -44q58 0 95.5 26t37.5 81q0 43 -30 75.5t-72.5 55l-85 46.5t-72.5 64.5t-30 94.5q0 72 52 119.5t142 47.5q83 0 143 -30v-69q-64 36 -141 36q-50 0 -84.5 -24t-34.5 -73q0 -41 30 -72t72.5 -53.5l85 -47t72.5 -66.5t30 -99q0 -82 -57.5 -129
t-153.5 -47q-101 0 -173 50zM212 696l-98 147h64l70 -100l69 100h63l-99 -147h-69z" />
    <glyph glyph-name="scaron" unicode="&#x161;" horiz-adv-x="379" 
d="M26 30l24 57q56 -35 118 -35q44 0 72.5 19t28.5 57q0 28 -23 47.5t-55.5 32.5t-64.5 28.5t-55 45.5t-23 73q0 56 42 93t118 37q60 0 117 -22v-65q-59 26 -114 26q-91 0 -91 -66q0 -29 23 -48.5t55.5 -32t65.5 -28t56 -46t23 -74.5q0 -68 -49 -103.5t-126 -35.5
q-79 0 -142 40zM155 532l-98 147h64l70 -100l69 100h63l-99 -147h-69z" />
    <glyph glyph-name="Tcommaaccent" unicode="&#x162;" horiz-adv-x="496" 
d="M209 0v596h-189v63h473l-24 -63h-186v-596h-74zM182 -237l-20 48q71 20 71 71q0 29 -24 66h67q24 -30 24 -73q0 -86 -118 -112z" />
    <glyph glyph-name="tcommaaccent" unicode="&#x163;" horiz-adv-x="347" 
d="M208 -10q-51 0 -78.5 28.5t-27.5 81.5v313h-80v60h80v107l73 24v-131h141l-22 -60h-119v-301q0 -59 49 -59q39 0 77 26l26 -52q-51 -37 -119 -37zM119 -237l-20 48q71 20 71 71q0 29 -24 66h67q24 -30 24 -73q0 -86 -118 -112z" />
    <glyph glyph-name="Tcaron" unicode="&#x164;" horiz-adv-x="496" 
d="M209 0v596h-189v63h473l-24 -63h-186v-596h-74zM214 696l-98 147h64l70 -100l69 100h63l-99 -147h-69z" />
    <glyph glyph-name="tcaron" unicode="&#x165;" horiz-adv-x="347" 
d="M208 -10q-51 0 -78.5 28.5t-27.5 81.5v313h-80v60h80v107l73 24v-131h141l-22 -60h-119v-301q0 -59 49 -59q39 0 77 26l26 -52q-51 -37 -119 -37zM221 513l36 195h75l-55 -195h-56z" />
    <glyph glyph-name="Tbar" unicode="&#x166;" horiz-adv-x="496" 
d="M209 0v294h-116v62h116v240h-189v63h473l-24 -63h-186v-240h117v-62h-117v-294h-74z" />
    <glyph glyph-name="tbar" unicode="&#x167;" horiz-adv-x="347" 
d="M22 236v60h80v117h-80v60h80v107l73 24v-131h141l-22 -60h-119v-117h92v-60h-92v-124q0 -59 49 -59q34 0 80 30l23 -52q-58 -41 -120 -41q-51 0 -78 28.5t-27 81.5v136h-80z" />
    <glyph glyph-name="Utilde" unicode="&#x168;" horiz-adv-x="652" 
d="M326 -10q-181 0 -230 140q-15 46 -15 106v423h74v-416q0 -54 13 -92q36 -98 158 -98t158 98q13 34 13 95v413h74v-423q0 -64 -17 -108q-49 -138 -228 -138zM191 726v23q0 35 20 55.5t51 20.5q30 0 72 -24t56 -24q26 0 26 42h53v-22q0 -35 -20 -56t-51 -21q-29 0 -71 24
t-57 24q-26 0 -26 -42h-53z" />
    <glyph glyph-name="utilde" unicode="&#x169;" horiz-adv-x="505" 
d="M204 -10q-40 0 -75.5 20.5t-51.5 67.5q-12 39 -12 86v309h74v-291q0 -51 8 -74q17 -53 78 -53q39 0 76 20t57 47v351h73v-313q0 -120 10 -160h-66l-14 55q-74 -65 -157 -65zM113 554v22q0 35 20 56t51 21q30 0 72 -24t56 -24q26 0 26 42h53v-22q0 -35 -20 -56t-51 -21
q-29 0 -71 24t-57 24q-26 0 -26 -42h-53z" />
    <glyph glyph-name="Umacron" unicode="&#x16a;" horiz-adv-x="652" 
d="M326 -10q-181 0 -230 140q-15 46 -15 106v423h74v-416q0 -54 13 -92q36 -98 158 -98t158 98q13 34 13 95v413h74v-423q0 -64 -17 -108q-49 -138 -228 -138zM206 717v59h248v-59h-248z" />
    <glyph glyph-name="umacron" unicode="&#x16b;" horiz-adv-x="505" 
d="M204 -10q-40 0 -75.5 20.5t-51.5 67.5q-12 39 -12 86v309h74v-291q0 -51 8 -74q17 -53 78 -53q39 0 76 20t57 47v351h73v-313q0 -120 10 -160h-66l-14 55q-74 -65 -157 -65zM128 574v59h248v-59h-248z" />
    <glyph glyph-name="Ubreve" unicode="&#x16c;" horiz-adv-x="652" 
d="M326 -10q-181 0 -230 140q-15 46 -15 106v423h74v-416q0 -54 13 -92q36 -98 158 -98t158 98q13 34 13 95v413h74v-423q0 -64 -17 -108q-49 -138 -228 -138zM401 825h53q-4 -56 -37.5 -89t-88.5 -33t-87.5 33t-36.5 89h53q12 -69 72 -69q62 0 72 69z" />
    <glyph glyph-name="ubreve" unicode="&#x16d;" horiz-adv-x="505" 
d="M204 -10q-40 0 -75.5 20.5t-51.5 67.5q-12 39 -12 86v309h74v-291q0 -51 8 -74q17 -53 78 -53q39 0 76 20t57 47v351h73v-313q0 -120 10 -160h-66l-14 55q-74 -65 -157 -65zM321 666h53q-4 -56 -37.5 -89t-88.5 -33t-87.5 33t-36.5 89h53q12 -69 72 -69q62 0 72 69z" />
    <glyph glyph-name="Uring" unicode="&#x16e;" horiz-adv-x="652" 
d="M326 -10q-181 0 -230 140q-15 46 -15 106v423h74v-416q0 -54 13 -92q36 -98 158 -98t158 98q13 34 13 95v413h74v-423q0 -64 -17 -108q-49 -138 -228 -138zM330 653q-46 0 -74.5 26t-28.5 69t28.5 69t74.5 26t74.5 -26t28.5 -69t-28.5 -69t-74.5 -26zM330 694
q22 0 35.5 14.5t13.5 39.5t-13.5 39.5t-35.5 14.5t-35.5 -14.5t-13.5 -39.5t13.5 -39.5t35.5 -14.5z" />
    <glyph glyph-name="uring" unicode="&#x16f;" horiz-adv-x="505" 
d="M204 -10q-40 0 -75.5 20.5t-51.5 67.5q-12 39 -12 86v309h74v-291q0 -51 8 -74q17 -53 78 -53q39 0 76 20t57 47v351h73v-313q0 -120 10 -160h-66l-14 55q-74 -65 -157 -65zM252 524q-46 0 -74.5 26t-28.5 69q0 42 29 68.5t74 26.5t74 -26.5t29 -68.5q0 -43 -28.5 -69
t-74.5 -26zM252 564q23 0 36 15t13 40t-13.5 39.5t-35.5 14.5t-35.5 -14.5t-13.5 -39.5t13 -40t36 -15z" />
    <glyph glyph-name="Uhungarumlaut" unicode="&#x170;" horiz-adv-x="652" 
d="M326 -10q-181 0 -230 140q-15 46 -15 106v423h74v-416q0 -54 13 -92q36 -98 158 -98t158 98q13 34 13 95v413h74v-423q0 -64 -17 -108q-49 -138 -228 -138zM209 696l58 147h86l-86 -147h-58zM369 696l58 147h86l-85 -147h-59z" />
    <glyph glyph-name="uhungarumlaut" unicode="&#x171;" horiz-adv-x="505" 
d="M204 -10q-40 0 -75.5 20.5t-51.5 67.5q-12 39 -12 86v309h74v-291q0 -51 8 -74q17 -53 78 -53q39 0 76 20t57 47v351h73v-313q0 -120 10 -160h-66l-14 55q-74 -65 -157 -65zM140 531l58 147h86l-86 -147h-58zM300 531l58 147h86l-85 -147h-59z" />
    <glyph glyph-name="Uogonek" unicode="&#x172;" horiz-adv-x="652" 
d="M400 -155l10 -47q-35 -11 -62 -11q-42 0 -66 23t-24 57q0 65 72 121v2q-184 -1 -234 140q-15 46 -15 106v423h74v-416q0 -54 13 -92q36 -98 158 -98t158 98q13 34 13 95v413h74v-423q0 -64 -17 -108q-29 -84 -110 -117q-50 -21 -85.5 -58.5t-35.5 -73.5q0 -41 38 -41
q13 0 39 7z" />
    <glyph glyph-name="uogonek" unicode="&#x173;" horiz-adv-x="505" 
d="M374 9l-13 46q-74 -65 -157 -65q-40 0 -75.5 20.5t-51.5 67.5q-12 39 -12 86v309h74v-291q0 -51 8 -74q17 -53 78 -53q39 0 76 20t57 47v351h73v-312q0 -126 10 -164q-105 -51 -105 -118q0 -41 38 -41q12 0 38 7l11 -47q-36 -11 -62 -11q-42 0 -66 23t-24 57
q0 79 103 142z" />
    <glyph glyph-name="Wcircumflex" unicode="&#x174;" horiz-adv-x="900" 
d="M238 -3l-222 662h82l128 -396l44 -148h2q16 54 48 147l98 285l-39 112h80l133 -398q35 -102 46 -145h2q18 74 41 143l125 400h78l-218 -662h-59l-105 309q-32 96 -46 142h-3q-16 -56 -46 -142l-109 -309h-60zM322 696l98 147h69l99 -147h-64l-69 100l-70 -100h-63z" />
    <glyph glyph-name="wcircumflex" unicode="&#x175;" horiz-adv-x="690" 
d="M167 -3l-156 476h77l112 -377h2l109 377h69l113 -377h2l110 377h75l-157 -476h-64l-112 379h-2l-113 -379h-65zM212 531l98 147h69l99 -147h-64l-69 100l-70 -100h-63z" />
    <glyph glyph-name="Ycircumflex" unicode="&#x176;" horiz-adv-x="536" 
d="M233 0v263l-217 396h82l172 -323h2l168 323h80l-214 -397v-262h-73zM138 696l98 147h69l99 -147h-64l-69 100l-70 -100h-63z" />
    <glyph glyph-name="ycircumflex" unicode="&#x177;" horiz-adv-x="466" 
d="M456 473l-177 -510q-42 -119 -92 -159.5t-118 -40.5q-46 0 -84 16l18 61q31 -14 65 -14q100 0 150 171l-208 476h80l161 -383h2l126 383h77zM106 531l98 147h69l99 -147h-64l-69 100l-70 -100h-63z" />
    <glyph glyph-name="Ydieresis" unicode="&#x178;" horiz-adv-x="536" 
d="M233 0v263l-217 396h82l172 -323h2l168 323h80l-214 -397v-262h-73zM182 706q-18 0 -30.5 12.5t-12.5 31.5q0 18 12.5 30.5t30.5 12.5t31 -12.5t13 -30.5q0 -19 -13 -31.5t-31 -12.5zM360 706q-18 0 -31 12.5t-13 31.5q0 18 13 30.5t31 12.5t30.5 -12.5t12.5 -30.5
q0 -19 -12.5 -31.5t-30.5 -12.5z" />
    <glyph glyph-name="Zacute" unicode="&#x179;" horiz-adv-x="546" 
d="M50 0l331 596h-308l-21 63h444l-329 -596h346v-63h-463zM238 696l58 147h83l-85 -147h-56z" />
    <glyph glyph-name="zacute" unicode="&#x17a;" horiz-adv-x="382" 
d="M21 0l240 413h-209l-17 60h336l-238 -413h236v-60h-348zM158 531l58 147h83l-85 -147h-56z" />
    <glyph glyph-name="Zdotaccent" unicode="&#x17b;" horiz-adv-x="546" 
d="M50 0l331 596h-308l-21 63h444l-329 -596h346v-63h-463zM280 718q-21 0 -34.5 14t-13.5 35t13.5 35.5t34.5 14.5q22 0 36 -14t14 -36q0 -21 -14 -35t-36 -14z" />
    <glyph glyph-name="zdotaccent" unicode="&#x17c;" horiz-adv-x="382" 
d="M21 0l240 413h-209l-17 60h336l-238 -413h236v-60h-348zM200 580q-21 0 -34.5 14t-13.5 35t13.5 35.5t34.5 14.5q22 0 36 -14t14 -36q0 -21 -14 -35t-36 -14z" />
    <glyph glyph-name="Zcaron" unicode="&#x17d;" horiz-adv-x="546" 
d="M50 0l331 596h-308l-21 63h444l-329 -596h346v-63h-463zM245 696l-98 147h64l70 -100l69 100h63l-99 -147h-69z" />
    <glyph glyph-name="zcaron" unicode="&#x17e;" horiz-adv-x="382" 
d="M21 0l240 413h-209l-17 60h336l-238 -413h236v-60h-348zM166 532l-98 147h64l70 -100l69 100h63l-99 -147h-69z" />
    <glyph glyph-name="florin" unicode="&#x192;" 
d="M279 320l-27 -297q-8 -99 -44 -140q-46 -53 -129 -53q-55 0 -102 23l28 59q31 -17 70 -17q52 0 76 35q21 29 24 82l28 308h-98v60h103l12 134q7 81 34 122q45 72 139 72q57 0 103 -23l-28 -58q-32 16 -70 16q-54 0 -80 -42q-16 -26 -20 -78l-13 -143h125l-22 -60h-109z
" />
    <glyph glyph-name="Aringacute" unicode="&#x1fa;" horiz-adv-x="587" 
d="M17 0l247 654q-35 7 -55.5 31.5t-20.5 60.5q0 39 25 64.5t65 29.5l43 113h86l-73 -120q60 -21 60 -87q0 -35 -20 -59.5t-54 -31.5l250 -655h-80l-65 177h-265l-65 -177h-78zM183 239h218l-68 191q-26 73 -39 117h-2q-8 -28 -40 -117zM291 692q23 0 36.5 14.5t13.5 39.5
t-13.5 39.5t-36.5 14.5q-22 0 -35.5 -14.5t-13.5 -39.5t13.5 -39.5t35.5 -14.5z" />
    <glyph glyph-name="aringacute" unicode="&#x1fb;" horiz-adv-x="461" 
d="M229 517q-46 0 -74.5 26t-28.5 69q0 38 23.5 63t62.5 30l52 135h86l-83 -139q30 -9 47.5 -32.5t17.5 -56.5q0 -43 -28.5 -69t-74.5 -26zM229 557q23 0 36 15t13 40t-13.5 39.5t-35.5 14.5t-35.5 -14.5t-13.5 -39.5t13 -40t36 -15zM188 -10q-66 0 -108 39.5t-42 106.5
q0 91 80 128q39 20 118 23l90 3v30q0 52 -28 78t-74 26q-66 0 -130 -39l-28 52q75 48 166 48q77 0 122.5 -40t45.5 -121v-164q0 -124 9 -160h-65l-14 53q-67 -63 -142 -63zM201 52q66 0 125 62v120l-83 -3q-57 -1 -89 -18q-41 -23 -41 -73q0 -39 24 -63.5t64 -24.5z" />
    <glyph glyph-name="AEacute" unicode="&#x1fc;" horiz-adv-x="797" 
d="M16 0l343 659h374l-24 -63h-274l40 -228h231v-63h-220l42 -242h211v-63h-276l-31 177h-245l-92 -177h-79zM220 239h202l-33 195l-8.5 56.5t-8.5 53.5h-2q-17 -41 -60 -125zM440 696l58 147h83l-85 -147h-56z" />
    <glyph glyph-name="aeacute" unicode="&#x1fd;" horiz-adv-x="748" 
d="M191 -10q-66 0 -109.5 39.5t-43.5 106.5q0 73 52.5 109.5t142.5 36.5h96v38q0 52 -28.5 78t-75.5 26q-65 0 -131 -40l-28 53q75 48 165 48q108 0 144 -81h2q50 81 145 81q87 0 136.5 -65t49.5 -178v-17h-307q2 -76 43.5 -124.5t113.5 -48.5q58 0 117 32l23 -52
q-64 -42 -150 -42q-119 0 -179 93q-73 -93 -178 -93zM201 52q42 0 80 24.5t62 58.5q-14 42 -14 90h-89q-127 0 -127 -87q0 -39 24 -62.5t64 -23.5zM402 282h229q-2 59 -30.5 101t-80.5 42t-84 -41t-34 -102zM347 531l58 147h83l-85 -147h-56z" />
    <glyph glyph-name="Oslashacute" unicode="&#x1fe;" horiz-adv-x="752" 
d="M110 -15l-48 39l68 76q-75 91 -75 226q0 149 90.5 243.5t230.5 94.5q111 0 196 -67l68 78l49 -39l-72 -80q80 -93 80 -230q0 -151 -91.5 -243.5t-229.5 -92.5q-116 0 -201 69zM570 501l-351 -391q64 -56 157 -56q110 0 177 75t67 197q0 104 -50 175zM178 156l351 391
q-64 54 -153 54q-110 0 -177 -76t-67 -199q0 -101 46 -170zM338 696l58 147h83l-85 -147h-56z" />
    <glyph glyph-name="oslashacute" unicode="&#x1ff;" horiz-adv-x="516" 
d="M225 531l58 147h83l-85 -147h-56zM85 -20l-39 33l48 57q-54 70 -54 167q0 107 60 177.5t159 70.5q73 0 130 -47l41 52l40 -32l-46 -55q53 -71 53 -166q0 -106 -60.5 -176.5t-158.5 -70.5q-74 0 -129 45zM170 86q36 -34 88 -34q65 0 104 51.5t39 133.5q0 61 -22 108z
M139 128l209 259q-37 37 -89 37q-65 0 -104.5 -52t-39.5 -135q0 -65 24 -109z" />
    <glyph glyph-name="Scommaaccent" unicode="&#x218;" horiz-adv-x="490" 
d="M53 40l31 58q67 -44 143 -44q58 0 95.5 26t37.5 81q0 43 -30 75.5t-72.5 55l-85 46.5t-72.5 64.5t-30 94.5q0 72 52 119.5t142 47.5q83 0 143 -30v-69q-64 36 -141 36q-50 0 -84.5 -24t-34.5 -73q0 -41 30 -72t72.5 -53.5l85 -47t72.5 -66.5t30 -99q0 -82 -57.5 -129
t-153.5 -47q-101 0 -173 50zM172 -237l-20 48q71 20 71 71q0 29 -24 66h67q24 -30 24 -73q0 -86 -118 -112z" />
    <glyph glyph-name="scommaaccent" unicode="&#x219;" horiz-adv-x="379" 
d="M26 30l24 57q56 -35 118 -35q44 0 72.5 19t28.5 57q0 28 -23 47.5t-55.5 32.5t-64.5 28.5t-55 45.5t-23 73q0 56 42 93t118 37q60 0 117 -22v-65q-59 26 -114 26q-91 0 -91 -66q0 -29 23 -48.5t55.5 -32t65.5 -28t56 -46t23 -74.5q0 -68 -49 -103.5t-126 -35.5
q-79 0 -142 40zM126 -237l-20 48q71 20 71 71q0 29 -24 66h67q24 -30 24 -73q0 -86 -118 -112z" />
    <glyph glyph-name="circumflex" unicode="&#x2c6;" horiz-adv-x="360" 
d="M47 531l98 147h69l99 -147h-64l-69 100l-70 -100h-63z" />
    <glyph glyph-name="caron" unicode="&#x2c7;" horiz-adv-x="360" 
d="M145 532l-98 147h64l70 -100l69 100h63l-99 -147h-69z" />
    <glyph glyph-name="breve" unicode="&#x2d8;" horiz-adv-x="360" 
d="M252 666h53q-4 -56 -37.5 -89t-88.5 -33t-87.5 33t-36.5 89h53q12 -69 72 -69q62 0 72 69z" />
    <glyph glyph-name="dotaccent" unicode="&#x2d9;" horiz-adv-x="360" 
d="M179 580q-21 0 -34.5 14t-13.5 35t13.5 35.5t34.5 14.5q22 0 36 -14t14 -36q0 -21 -14 -35t-36 -14z" />
    <glyph glyph-name="ring" unicode="&#x2da;" horiz-adv-x="360" 
d="M180 524q-46 0 -74.5 26t-28.5 69q0 42 29 68.5t74 26.5t74 -26.5t29 -68.5q0 -43 -28.5 -69t-74.5 -26zM180 564q23 0 36 15t13 40t-13.5 39.5t-35.5 14.5t-35.5 -14.5t-13.5 -39.5t13 -40t36 -15z" />
    <glyph glyph-name="ogonek" unicode="&#x2db;" horiz-adv-x="360" 
d="M235 -155l10 -47q-35 -11 -61 -11q-43 0 -67 23t-24 57q0 26 10 49t29.5 42.5t32.5 29.5t36 25l65 -13q-108 -56 -108 -121q0 -41 39 -41q12 0 38 7z" />
    <glyph glyph-name="tilde" unicode="&#x2dc;" horiz-adv-x="360" 
d="M41 554v22q0 35 20 56t51 21q30 0 72 -24t56 -24q26 0 26 42h53v-22q0 -35 -20 -56t-51 -21q-29 0 -71 24t-57 24q-26 0 -26 -42h-53z" />
    <glyph glyph-name="hungarumlaut" unicode="&#x2dd;" horiz-adv-x="360" 
d="M82 531l58 147h86l-86 -147h-58zM242 531l58 147h86l-85 -147h-59z" />
    <glyph glyph-name="uni0315" unicode="&#x315;" horiz-adv-x="360" 
d="M119 513l36 195h75l-55 -195h-56z" />
    <glyph glyph-name="uni0326" unicode="&#x326;" horiz-adv-x="360" 
d="M131 -237l-20 48q71 20 71 71q0 29 -24 66h67q24 -30 24 -73q0 -86 -118 -112z" />
    <glyph glyph-name="Alphatonos" unicode="&#x386;" horiz-adv-x="594" 
d="M33 473l40 186h78l-55 -186h-63zM20 0l250 661h51l252 -661h-79l-66 177h-265l-64 -177h-79zM187 239h217l-68 190q-35 101 -39 114h-2q-4 -16 -40 -114z" />
    <glyph glyph-name="Epsilontonos" unicode="&#x388;" horiz-adv-x="558" 
d="M3 473l40 186h78l-55 -186h-63zM173 0v659h318l-24 -63h-220v-228h217v-63h-217v-242h250v-63h-324z" />
    <glyph glyph-name="Etatonos" unicode="&#x389;" horiz-adv-x="766" 
d="M3 473l40 186h78l-55 -186h-63zM169 0v659h74v-290h361v290h73v-659h-73v306h-361v-306h-74z" />
    <glyph glyph-name="Iotatonos" unicode="&#x38a;" horiz-adv-x="336" 
d="M173 0v659h74v-659h-74zM3 473l40 186h78l-55 -186h-63z" />
    <glyph glyph-name="Omicrontonos" unicode="&#x38c;" horiz-adv-x="813" 
d="M3 473l40 186h78l-55 -186h-63zM440 -10q-140 0 -230.5 92.5t-90.5 243.5q0 149 90.5 243.5t230.5 94.5t230.5 -95t90.5 -243q0 -151 -91.5 -243.5t-229.5 -92.5zM440 54q110 0 176.5 74.5t66.5 197.5q0 120 -65 197t-178 77q-110 0 -176.5 -75.5t-66.5 -198.5
t66.5 -197.5t176.5 -74.5z" />
    <glyph glyph-name="Upsilontonos" unicode="&#x38e;" horiz-adv-x="697" 
d="M3 473l40 186h78l-55 -186h-63zM380 0v198q0 164 -225 461h85q55 -72 107 -161t69 -155h3q29 127 173 316h83q-111 -151 -166 -257t-55 -208v-194h-74z" />
    <glyph glyph-name="Omegatonos" unicode="&#x38f;" horiz-adv-x="799" 
d="M3 473l40 186h78l-55 -186h-63zM123 0v63h64q49 0 89 -6v2q-71 49 -113 123t-42 165q0 82 34 152.5t106.5 117.5t171.5 47q146 0 229.5 -94.5t83.5 -222.5q0 -91 -42.5 -165t-113.5 -123v-2q42 6 90 6h64v-63h-252v51q176 108 176 294q0 106 -61.5 180.5t-173.5 74.5
t-173 -74.5t-61 -180.5q0 -186 175 -294v-51h-251z" />
    <glyph glyph-name="iotadieresistonos" unicode="&#x390;" horiz-adv-x="246" 
d="M165 -6q-45 0 -70.5 25.5t-25.5 73.5v380h73v-367q0 -47 40 -47q18 0 34 7l17 -58q-30 -14 -68 -14zM27 562q-18 0 -30 12t-12 30t12 30t30 12q17 0 29 -12t12 -30t-12 -30t-29 -12zM72 531l48 167h76l-73 -167h-51zM224 562q-18 0 -30 12t-12 30t12 30t30 12
q17 0 29.5 -12t12.5 -30t-12.5 -30t-29.5 -12z" />
    <glyph glyph-name="Alpha" unicode="&#x391;" horiz-adv-x="594" 
d="M20 0l250 661h51l252 -661h-80l-65 177h-265l-65 -177h-78zM186 239h218l-68 190q-22 60 -39 114h-2q-10 -30 -40 -114z" />
    <glyph glyph-name="Beta" unicode="&#x392;" horiz-adv-x="541" 
d="M89 0v659h153q100 0 151 -47.5t51 -119.5q0 -50 -23 -88t-64 -55v-2q57 -12 92.5 -55.5t35.5 -104.5q0 -85 -58.5 -136t-165.5 -51h-172zM163 62h98q148 0 148 123q0 55 -38 88t-101 33h-107v-244zM163 368h72q65 0 100 30.5t35 85.5q0 52 -32 82.5t-100 30.5h-75v-229z
" />
    <glyph glyph-name="Gamma" unicode="&#x393;" horiz-adv-x="425" 
d="M89 0v659h328l-23 -63h-231v-596h-74z" />
    <glyph glyph-name="Epsilon" unicode="&#x395;" horiz-adv-x="474" 
d="M89 0v659h318l-24 -63h-220v-228h217v-63h-217v-242h250v-63h-324z" />
    <glyph glyph-name="Zeta" unicode="&#x396;" horiz-adv-x="547" 
d="M53 0l331 596h-308l-21 63h444l-329 -596h346v-63h-463z" />
    <glyph glyph-name="Eta" unicode="&#x397;" horiz-adv-x="687" 
d="M89 0v659h74v-290h361v290h73v-659h-73v306h-361v-306h-74z" />
    <glyph glyph-name="Theta" unicode="&#x398;" horiz-adv-x="747" 
d="M373 -10q-139 0 -230 92.5t-91 243.5q0 149 90.5 243.5t230.5 94.5q141 0 231 -95t90 -243q0 -152 -91 -244t-230 -92zM373 54q110 0 177 75t67 197q0 120 -65 197t-179 77q-110 0 -176.5 -75.5t-66.5 -198.5t66.5 -197.5t176.5 -74.5zM537 367v-63h-332v63h332z" />
    <glyph glyph-name="Iota" unicode="&#x399;" horiz-adv-x="252" 
d="M89 0v659h74v-659h-74z" />
    <glyph glyph-name="Kappa" unicode="&#x39a;" horiz-adv-x="536" 
d="M89 0v659h74v-302h2l250 302h88l-274 -326l292 -333h-93l-263 301h-2v-301h-74z" />
    <glyph glyph-name="Lambda" unicode="&#x39b;" horiz-adv-x="595" 
d="M20 0l250 661h53l251 -661h-80l-156 428q-23 61 -40 115h-2q-6 -22 -39 -114l-157 -429h-80z" />
    <glyph glyph-name="Mu" unicode="&#x39c;" horiz-adv-x="797" 
d="M89 0v659h69l184 -277q42 -63 61 -95h2q6 11 61 99l173 273h69v-659h-74v423q0 77 2 112h-2q-20 -38 -47 -80l-163 -260h-39l-177 265q-32 45 -45 73h-2q2 -31 2 -109v-424h-74z" />
    <glyph glyph-name="Nu" unicode="&#x39d;" horiz-adv-x="723" 
d="M633 0h-62l-316 418q-48 62 -93 127h-2q3 -49 3 -113v-432h-74v659h71l304 -402l96 -133h2q-2 35 -2 116v419h73v-659z" />
    <glyph glyph-name="Xi" unicode="&#x39e;" horiz-adv-x="530" 
d="M42 0v63h445v-63h-445zM103 306v63h321v-63h-321zM59 596v63h422l-24 -63h-398z" />
    <glyph glyph-name="Omicron" unicode="&#x39f;" horiz-adv-x="747" 
d="M378 -10q-140 0 -230.5 92.5t-90.5 243.5q0 149 90.5 243.5t230.5 94.5t230.5 -95t90.5 -243q0 -151 -91.5 -243.5t-229.5 -92.5zM378 54q110 0 176.5 74.5t66.5 197.5q0 120 -64.5 197t-178.5 77q-110 0 -176.5 -75.5t-66.5 -198.5t66.5 -197.5t176.5 -74.5z" />
    <glyph glyph-name="Pi" unicode="&#x3a0;" horiz-adv-x="660" 
d="M89 0v659h481v-659h-73v596h-334v-596h-74z" />
    <glyph glyph-name="Rho" unicode="&#x3a1;" horiz-adv-x="497" 
d="M89 0v659h124q91 0 143 -30q95 -54 95 -178q0 -61 -27 -109t-83 -74q-55 -25 -135 -25h-43v-243h-74zM163 305h49q58 0 96 20q67 35 67 126q0 87 -63 124q-36 22 -99 22h-50v-292z" />
    <glyph glyph-name="Sigma" unicode="&#x3a3;" horiz-adv-x="511" 
d="M29 0l199 350l-187 309h421l-23 -63h-276l145 -245l-161 -288h307v-63h-425z" />
    <glyph glyph-name="Tau" unicode="&#x3a4;" horiz-adv-x="502" 
d="M212 0v596h-189v63h473l-24 -63h-186v-596h-74z" />
    <glyph glyph-name="Upsilon" unicode="&#x3a5;" horiz-adv-x="564" 
d="M247 0v198q0 164 -225 461h85q55 -72 107 -161t69 -155h2q28 125 174 316h83q-111 -151 -166 -257t-55 -208v-194h-74z" />
    <glyph glyph-name="Phi" unicode="&#x3a6;" horiz-adv-x="752" 
d="M339 -20v63q-131 8 -208.5 84t-77.5 199q0 125 78 201.5t208 86.5v60h73v-60q130 -10 208 -86.5t78 -201.5q0 -124 -77.5 -199.5t-208.5 -83.5v-63h-73zM339 107v442q-98 -7 -153.5 -64.5t-55.5 -158.5q0 -98 54 -155t155 -64zM412 107q102 7 156 64t54 155
q0 101 -56 158.5t-154 64.5v-442z" />
    <glyph glyph-name="Chi" unicode="&#x3a7;" horiz-adv-x="585" 
d="M24 0l230 332l-216 327h86l178 -270l184 270h84l-224 -326l221 -333h-85l-183 276l-191 -276h-84z" />
    <glyph glyph-name="Psi" unicode="&#x3a8;" horiz-adv-x="726" 
d="M326 0v219q-128 8 -190 86.5t-62 254.5q0 52 4 99h73q-3 -49 -3 -92q0 -149 42 -212.5t136 -68.5v373h74v-373q94 5 135.5 68.5t41.5 212.5q0 59 -2 92h73q3 -53 3 -99q0 -177 -61.5 -255t-189.5 -86v-219h-74z" />
    <glyph glyph-name="uni03A9" unicode="&#x3a9;" horiz-adv-x="732" 
d="M425 0v51q175 108 175 294q0 106 -61 180.5t-173 74.5t-173.5 -74.5t-61.5 -180.5q0 -186 176 -294v-51h-252v63h65q47 0 89 -6v2q-71 49 -113.5 123t-42.5 165q0 128 83.5 222.5t229.5 94.5q99 0 171.5 -47t106.5 -117.5t34 -152.5q0 -91 -42 -165t-113 -123v-2
q40 6 89 6h64v-63h-251z" />
    <glyph glyph-name="Iotadieresis" unicode="&#x3aa;" horiz-adv-x="252" 
d="M89 0v659h74v-659h-74zM37 706q-18 0 -30.5 12.5t-12.5 31.5q0 18 12.5 30.5t30.5 12.5t31 -12.5t13 -30.5q0 -19 -13 -31.5t-31 -12.5zM215 706q-18 0 -31 12.5t-13 31.5q0 18 13 30.5t31 12.5t30.5 -12.5t12.5 -30.5q0 -19 -12.5 -31.5t-30.5 -12.5z" />
    <glyph glyph-name="Upsilondieresis" unicode="&#x3ab;" horiz-adv-x="564" 
d="M247 0v198q0 164 -225 461h85q55 -72 107 -161t69 -155h2q28 125 174 316h83q-111 -151 -166 -257t-55 -208v-194h-74zM195 706q-18 0 -30.5 12.5t-12.5 31.5q0 18 12.5 30.5t30.5 12.5t31 -12.5t13 -30.5q0 -19 -13 -31.5t-31 -12.5zM373 706q-18 0 -31 12.5t-13 31.5
q0 18 13 30.5t31 12.5t30.5 -12.5t12.5 -30.5q0 -19 -12.5 -31.5t-30.5 -12.5z" />
    <glyph glyph-name="alphatonos" unicode="&#x3ac;" horiz-adv-x="571" 
d="M221 -10q-80 0 -129 70t-49 177q0 106 48.5 177t129.5 71q63 0 100.5 -39.5t59.5 -112.5h2q26 90 50 146l63 -25q-51 -113 -82 -214q16 -57 29 -99q14 -45 27 -62.5t35 -17.5q14 0 26 6l17 -62q-19 -10 -48 -10q-63 0 -90 67q-13 28 -27 86h-2q-17 -65 -57 -111.5
t-103 -46.5zM223 53q94 0 128 191q-22 84 -50 131t-73 47q-48 0 -79 -52.5t-31 -132.5q0 -76 29.5 -130t75.5 -54zM387 698l-110 -167h-62l79 167h93z" />
    <glyph glyph-name="epsilontonos" unicode="&#x3ad;" horiz-adv-x="429" 
d="M371 698l-110 -167h-62l79 167h93zM245 -10q-98 0 -148 41t-50 100q0 45 26 75t72 39v2q-87 26 -87 107q0 59 47.5 95t128.5 36q82 0 144 -27v-64q-63 30 -137 30q-48 0 -78.5 -19.5t-30.5 -54.5q0 -30 30 -53t91 -23q45 0 65 1v-60q-17 2 -60 2q-63 0 -99.5 -21
t-36.5 -61q0 -41 35.5 -62.5t89.5 -21.5q73 0 144 38l25 -52q-78 -47 -171 -47z" />
    <glyph glyph-name="etatonos" unicode="&#x3ae;" horiz-adv-x="558" 
d="M112 0v351q0 40 -9 54t-27 14q-16 0 -27 -6l-17 59q27 13 59 13q36 0 58.5 -20t27.5 -55h2q89 75 169 75q61 0 101 -41t40 -125v-556h-73v531q0 125 -86 125q-63 0 -145 -71v-348h-73zM448 698l-110 -167h-62l79 167h93z" />
    <glyph glyph-name="iotatonos" unicode="&#x3af;" horiz-adv-x="246" 
d="M165 -6q-45 0 -70.5 25.5t-25.5 73.5v380h73v-367q0 -47 40 -47q18 0 34 7l17 -58q-30 -14 -68 -14zM244 698l-110 -167h-62l79 167h93z" />
    <glyph glyph-name="upsilondieresistonos" unicode="&#x3b0;" horiz-adv-x="545" 
d="M25 472q27 13 60 13q92 0 92 -122q0 -21 -4.5 -71t-4.5 -78q0 -161 114 -161q65 0 99 55t34 152q0 52 -15.5 112t-42.5 101h79q55 -94 55 -215t-54 -194.5t-154 -73.5q-92 0 -141 55t-49 157q0 29 5 78t5 73q0 39 -8.5 52.5t-26.5 13.5q-12 0 -26 -6zM171 562
q-18 0 -30 12t-12 30t12 30t30 12q17 0 29 -12t12 -30t-12 -30t-29 -12zM216 531l48 167h76l-73 -167h-51zM368 562q-18 0 -30 12t-12 30t12 30t30 12q17 0 29.5 -12t12.5 -30t-12.5 -30t-29.5 -12z" />
    <glyph glyph-name="alpha" unicode="&#x3b1;" horiz-adv-x="571" 
d="M221 -10q-80 0 -129 70t-49 177q0 106 48.5 177t129.5 71q63 0 100.5 -39.5t59.5 -112.5h2q26 90 50 146l63 -25q-51 -113 -82 -214q16 -57 29 -99q14 -45 27 -62.5t35 -17.5q14 0 26 6l17 -62q-19 -10 -48 -10q-63 0 -90 67q-13 28 -27 86h-2q-17 -65 -57 -111.5
t-103 -46.5zM223 53q94 0 128 191q-22 84 -50 131t-73 47q-48 0 -79 -52.5t-31 -132.5q0 -76 29.5 -130t75.5 -54z" />
    <glyph glyph-name="beta" unicode="&#x3b2;" horiz-adv-x="528" 
d="M81 -237v745q0 100 52 150t134 50q89 0 137.5 -54.5t48.5 -126.5q0 -65 -29 -106t-72 -55v-2q55 -10 92 -57.5t37 -114.5q0 -92 -54.5 -147t-142.5 -55q-75 0 -128 37h-2v-264h-73zM154 98q50 -45 124 -45q59 0 93 35.5t34 103.5q0 66 -40 103.5t-117 37.5q-16 0 -26 -1
v62q10 -1 27 -1q57 0 92.5 34t35.5 96q0 54 -30 88t-81 34q-52 0 -82 -37t-30 -106v-404z" />
    <glyph glyph-name="gamma" unicode="&#x3b3;" horiz-adv-x="527" 
d="M282 98h2q28 125 78.5 224.5t100.5 160.5l54 -47q-73 -95 -126 -208.5t-86 -279.5v-185h-79q0 98 8 192q-6 214 -49.5 339.5t-121.5 125.5q-16 0 -25 -3l-15 61q21 7 46 7q67 0 114.5 -53.5t71 -138.5t27.5 -195z" />
    <glyph glyph-name="delta" unicode="&#x3b4;" horiz-adv-x="520" 
d="M225 437v2q-47 35 -71 66.5t-24 74.5q0 59 44.5 93.5t112.5 34.5q94 0 185 -41l-24 -59q-81 37 -155 38q-88 0 -88 -65q0 -30 28 -59t67.5 -56.5t79.5 -59.5t68 -82.5t28 -110.5q0 -94 -59.5 -158.5t-160.5 -64.5q-97 0 -155 61t-58 152q0 87 48 147t134 87zM401 210
q0 60 -30.5 102t-86.5 84q-79 -17 -122 -67t-43 -124q0 -67 36.5 -109.5t99.5 -42.5q64 0 105 42t41 115z" />
    <glyph glyph-name="epsilon" unicode="&#x3b5;" horiz-adv-x="429" 
d="M245 -10q-98 0 -148 41t-50 100q0 45 26 75t72 39v2q-87 26 -87 107q0 59 47.5 95t128.5 36q82 0 144 -27v-64q-63 30 -137 30q-48 0 -78.5 -19.5t-30.5 -54.5q0 -30 30 -53t91 -23q45 0 65 1v-60q-17 2 -60 2q-63 0 -99.5 -21t-36.5 -61q0 -41 35.5 -62.5t89.5 -21.5
q73 0 144 38l25 -52q-78 -47 -171 -47z" />
    <glyph glyph-name="zeta" unicode="&#x3b6;" horiz-adv-x="437" 
d="M298 -147q44 64 44 93t-30 46.5t-72.5 29.5t-85 31t-72.5 63t-30 113q0 137 75 245t183 170v3q-104 -23 -212 -26l-19 62q165 0 331 25l4 -47q-134 -80 -209.5 -189.5t-75.5 -236.5q0 -57 30 -91.5t72.5 -49.5t85 -27.5t72.5 -38t30 -69.5q0 -55 -61 -139z" />
    <glyph glyph-name="eta" unicode="&#x3b7;" horiz-adv-x="558" 
d="M112 0v351q0 40 -9 54t-27 14q-16 0 -27 -6l-17 59q27 13 59 13q36 0 58.5 -20t27.5 -55h2q89 75 169 75q61 0 101 -41t40 -125v-556h-73v531q0 125 -86 125q-63 0 -145 -71v-348h-73z" />
    <glyph glyph-name="theta" unicode="&#x3b8;" horiz-adv-x="524" 
d="M262 -10q-211 0 -211 359t211 359t211 -359t-211 -359zM262 53q69 0 101 68.5t34 206.5h-270q2 -138 34 -206.5t101 -68.5zM127 389h269q-6 256 -134 256q-127 0 -135 -256z" />
    <glyph glyph-name="iota" unicode="&#x3b9;" horiz-adv-x="246" 
d="M165 -6q-45 0 -70.5 25.5t-25.5 73.5v380h73v-367q0 -47 40 -47q18 0 34 7l17 -58q-30 -14 -68 -14z" />
    <glyph glyph-name="kappa" unicode="&#x3ba;" horiz-adv-x="524" 
d="M152 0h-73v473h73v-232h2q61 78 149.5 143t159.5 97l29 -62q-110 -46 -224 -150l224 -269h-89l-186 224q-37 -38 -65 -77v-147z" />
    <glyph glyph-name="lambda" unicode="&#x3bb;" horiz-adv-x="466" 
d="M20 0l203 472q-35 104 -61 138.5t-64 34.5q-27 0 -54 -11l-19 57q41 17 77 17q70 0 109.5 -50t83.5 -180l163 -478h-78l-121 379h-2l-158 -379h-79z" />
    <glyph glyph-name="uni03BC" unicode="&#x3bc;" horiz-adv-x="538" 
d="M363 199v274h73v-328q0 -51 9.5 -68t32.5 -17q17 0 29 7l15 -59q-30 -14 -60 -14q-38 0 -59 24.5t-23 63.5h-2q-45 -92 -138 -92q-64 0 -98 47h-2q3 -39 3 -131v-143h-73v710h73v-310q0 -48 26.5 -78t72.5 -30q48 0 84.5 36.5t36.5 107.5z" />
    <glyph glyph-name="nu" unicode="&#x3bd;" horiz-adv-x="458" 
d="M175 -3l-162 476h76l130 -391h2q119 134 119 263q0 64 -25 128h79q23 -58 23 -124q0 -90 -49 -175t-142 -177h-51z" />
    <glyph glyph-name="xi" unicode="&#x3be;" horiz-adv-x="438" 
d="M302 -146q41 56 41 89q0 29 -29 47t-70 29.5t-82 27t-70 51t-29 89.5q0 62 38 102t92 55v2q-89 26 -89 112q0 115 174 185v3q-105 -21 -186 -22l-18 61q184 0 338 23l4 -47q-116 -43 -176 -89.5t-60 -103.5q0 -92 141 -92q25 0 40 1v-60q-15 2 -38 2q-76 0 -130 -29.5
t-54 -94.5q0 -40 29 -65.5t70.5 -38.5l82.5 -26t70 -40t29 -70q0 -54 -59 -135z" />
    <glyph glyph-name="omicron" unicode="&#x3bf;" 
d="M261 -10q-97 0 -157.5 70.5t-60.5 176.5q0 107 60 177.5t159 70.5q97 0 157.5 -71t60.5 -177t-60.5 -176.5t-158.5 -70.5zM261 53q65 0 103.5 51t38.5 133t-38.5 133.5t-102.5 51.5q-65 0 -104 -51t-39 -134q0 -82 38.5 -133t103.5 -51z" />
    <glyph glyph-name="pi" unicode="&#x3c0;" horiz-adv-x="579" 
d="M111 0v413h-84v60h526l-21 -60h-85v-306q0 -47 35 -47q10 0 21 4l14 -61q-25 -9 -53 -9q-90 0 -90 94v325h-190v-413h-73z" />
    <glyph glyph-name="rho" unicode="&#x3c1;" horiz-adv-x="520" 
d="M70 -237v486q0 114 51 175t144 61q97 0 154.5 -65t57.5 -180q0 -112 -58.5 -181t-157.5 -69q-67 0 -116 36h-2v-263h-73zM143 96q52 -43 113 -43q71 0 108 52.5t37 136.5q0 88 -39 134.5t-95 46.5q-63 0 -93.5 -48t-30.5 -128v-151z" />
    <glyph glyph-name="sigmafinal" unicode="&#x3c2;" horiz-adv-x="418" 
d="M258 -145q43 58 43 92q0 26 -19 46.5t-48 33t-62 31.5t-62 41t-48 63t-19 95q0 102 56.5 165t158.5 63q67 0 120 -29v-65q-52 32 -117 32q-71 0 -106.5 -45.5t-35.5 -117.5q0 -53 26.5 -89t64.5 -55.5t76 -37t64.5 -46.5t26.5 -72q0 -62 -60 -140z" />
    <glyph glyph-name="sigma" unicode="&#x3c3;" horiz-adv-x="551" 
d="M389 414v-2q69 -79 69 -192q0 -96 -57 -163t-151 -67q-95 0 -151 65.5t-56 168.5q0 120 68 184.5t177 64.5h269l-23 -63h-64q-50 0 -81 4zM119 224q0 -78 34 -124.5t97 -46.5q62 0 97.5 48t35.5 123q0 109 -70 187h-15q-87 0 -133 -50.5t-46 -136.5z" />
    <glyph glyph-name="tau" unicode="&#x3c4;" horiz-adv-x="430" 
d="M285 -10q-56 0 -91.5 29.5t-35.5 86.5v307h-133v60h396l-21 -60h-169v-299q0 -31 18.5 -46t46.5 -15q39 0 70 21l26 -52q-45 -32 -107 -32z" />
    <glyph glyph-name="upsilon" unicode="&#x3c5;" horiz-adv-x="545" 
d="M25 472q27 13 60 13q92 0 92 -122q0 -21 -4.5 -71t-4.5 -78q0 -161 114 -161q65 0 99 55t34 152q0 52 -15.5 112t-42.5 101h79q55 -94 55 -215t-54 -194.5t-154 -73.5q-92 0 -141 55t-49 157q0 29 5 78t5 73q0 39 -8.5 52.5t-26.5 13.5q-12 0 -26 -6z" />
    <glyph glyph-name="phi" unicode="&#x3c6;" horiz-adv-x="661" 
d="M294 -237v228q-113 9 -182 78t-69 168q0 100 69 169t182 79v223h73v-223q113 -10 182 -79t69 -168t-69 -168.5t-182 -78.5v-228h-73zM294 52v371q-78 -8 -127 -59t-49 -127q0 -75 49 -126t127 -59zM367 52q77 8 126 59t49 127q0 75 -49 126.5t-126 58.5v-371z" />
    <glyph glyph-name="chi" unicode="&#x3c7;" horiz-adv-x="462" 
d="M72 -237h-78l194 375q-44 157 -71 218.5t-65 61.5q-16 0 -25 -4l-16 60q20 9 50 9q59 0 94 -58.5t81 -214.5h2l134 263h76l-180 -348q57 -196 80 -243q29 -58 63 -58q11 0 25 4l16 -60q-25 -9 -50 -9q-61 0 -96.5 63t-85.5 232h-2z" />
    <glyph glyph-name="psi" unicode="&#x3c8;" horiz-adv-x="658" 
d="M359 -237h-72v228q-113 6 -174.5 65t-61.5 166q0 26 5 71t5 67q0 62 -22 113h74q22 -44 22 -113q0 -21 -4 -65t-4 -68q0 -81 41 -126t119 -49v656h72v-656q85 7 133 63t48 152q0 125 -61 206h79q57 -84 57 -208q0 -121 -67 -194t-189 -80v-228z" />
    <glyph glyph-name="omega" unicode="&#x3c9;" horiz-adv-x="736" 
d="M369 125h-2q-14 -63 -54 -99t-98 -36q-80 0 -126 60.5t-46 150.5q0 84 34.5 156t86.5 123l75 -14q-121 -118 -121 -260q0 -70 26.5 -111t77.5 -41q57 0 84 57t27 138q0 61 -4 100h79q-5 -36 -5 -100q0 -51 10 -93t36.5 -72t65.5 -30q50 0 77 41t27 111q0 141 -122 260
l75 14q53 -51 87 -123t34 -156q0 -90 -45.5 -150.5t-125.5 -60.5q-59 0 -99 36t-54 99z" />
    <glyph glyph-name="iotadieresis" unicode="&#x3ca;" horiz-adv-x="246" 
d="M165 -6q-45 0 -70.5 25.5t-25.5 73.5v380h73v-367q0 -47 40 -47q18 0 34 7l17 -58q-30 -14 -68 -14zM19 561q-18 0 -30.5 12.5t-12.5 30.5q0 19 12.5 31.5t30.5 12.5t31 -12.5t13 -31.5q0 -18 -13 -30.5t-31 -12.5zM197 561q-18 0 -31 12.5t-13 30.5q0 19 13 31.5
t31 12.5t30.5 -12.5t12.5 -31.5q0 -18 -12.5 -30.5t-30.5 -12.5z" />
    <glyph glyph-name="upsilondieresis" unicode="&#x3cb;" horiz-adv-x="545" 
d="M25 472q27 13 60 13q92 0 92 -122q0 -21 -4.5 -71t-4.5 -78q0 -161 114 -161q65 0 99 55t34 152q0 52 -15.5 112t-42.5 101h79q55 -94 55 -215t-54 -194.5t-154 -73.5q-92 0 -141 55t-49 157q0 29 5 78t5 73q0 39 -8.5 52.5t-26.5 13.5q-12 0 -26 -6zM175 561
q-18 0 -30.5 12.5t-12.5 30.5q0 19 12.5 31.5t30.5 12.5t31 -12.5t13 -31.5q0 -18 -13 -30.5t-31 -12.5zM353 561q-18 0 -31 12.5t-13 30.5q0 19 13 31.5t31 12.5t30.5 -12.5t12.5 -31.5q0 -18 -12.5 -30.5t-30.5 -12.5z" />
    <glyph glyph-name="omicrontonos" unicode="&#x3cc;" 
d="M261 -10q-97 0 -157.5 70.5t-60.5 176.5q0 107 60 177.5t159 70.5q97 0 157.5 -71t60.5 -177t-60.5 -176.5t-158.5 -70.5zM261 53q65 0 103.5 51t38.5 133t-38.5 133.5t-102.5 51.5q-65 0 -104 -51t-39 -134q0 -82 38.5 -133t103.5 -51zM402 698l-110 -167h-62l79 167h93
z" />
    <glyph glyph-name="upsilontonos" unicode="&#x3cd;" horiz-adv-x="545" 
d="M391 698l-110 -167h-62l79 167h93zM25 472q27 13 60 13q92 0 92 -122q0 -21 -4.5 -71t-4.5 -78q0 -161 114 -161q65 0 99 55t34 152q0 52 -15.5 112t-42.5 101h79q55 -94 55 -215t-54 -194.5t-154 -73.5q-92 0 -141 55t-49 157q0 29 5 78t5 73q0 39 -8.5 52.5t-26.5 13.5
q-12 0 -26 -6z" />
    <glyph glyph-name="omegatonos" unicode="&#x3ce;" horiz-adv-x="745" 
d="M373 125h-2q-14 -63 -54 -99t-98 -36q-80 0 -126 60.5t-46 150.5q0 84 34.5 156t86.5 123l75 -14q-121 -118 -121 -260q0 -70 26.5 -111t77.5 -41q57 0 84 57t27 138q0 61 -4 100h79q-5 -36 -5 -100q0 -51 10 -93t36.5 -72t65.5 -30q50 0 77 41t27 111q0 141 -122 260
l75 14q53 -51 87 -123t34 -156q0 -90 -45.5 -150.5t-125.5 -60.5q-59 0 -99 36t-54 99zM512 698l-110 -167h-62l79 167h93z" />
    <glyph glyph-name="uni0400" unicode="&#x400;" horiz-adv-x="474" 
d="M89 0v659h318l-24 -63h-220v-228h217v-63h-217v-242h250v-63h-324zM227 696l-86 147h87l58 -147h-59z" />
    <glyph glyph-name="afii10023" unicode="&#x401;" horiz-adv-x="474" 
d="M89 0v659h318l-24 -63h-220v-228h217v-63h-217v-242h250v-63h-324zM156 706q-18 0 -30.5 12.5t-12.5 31.5q0 18 12.5 30.5t30.5 12.5t31 -12.5t13 -30.5q0 -19 -13 -31.5t-31 -12.5zM334 706q-18 0 -31 12.5t-13 31.5q0 18 13 30.5t31 12.5t30.5 -12.5t12.5 -30.5
q0 -19 -12.5 -31.5t-30.5 -12.5z" />
    <glyph glyph-name="afii10051" unicode="&#x402;" horiz-adv-x="699" 
d="M213 0v597h-190v62h498l-23 -62h-212v-218q43 5 88 5q141 0 204 -52.5t63 -151.5q0 -80 -50 -133t-135 -53q-39 0 -75 13l18 60q25 -9 54 -9q50 0 81 33.5t31 92.5q0 76 -47.5 105.5t-146.5 29.5q-48 0 -85 -5v-314h-73z" />
    <glyph glyph-name="afii10052" unicode="&#x403;" horiz-adv-x="425" 
d="M89 0v659h328l-23 -63h-231v-596h-74zM213 696l58 147h83l-85 -147h-56z" />
    <glyph glyph-name="afii10053" unicode="&#x404;" horiz-adv-x="600" 
d="M364 -10q-147 0 -227 90t-80 241t86.5 247t232.5 96q106 0 167 -35v-69q-79 41 -166 41q-105 0 -169 -64.5t-72 -169.5h342v-61h-344q3 -116 64.5 -184t171.5 -68q84 0 161 41l21 -59q-86 -46 -188 -46z" />
    <glyph glyph-name="afii10054" unicode="&#x405;" horiz-adv-x="498" 
d="M56 40l31 58q67 -44 143 -44q58 0 95.5 26t37.5 81q0 43 -30 75.5t-72.5 55l-85 46.5t-72.5 64.5t-30 94.5q0 72 52 119.5t142 47.5q83 0 143 -30v-69q-64 36 -141 36q-50 0 -84.5 -24t-34.5 -73q0 -41 30 -72t72.5 -53.5l85 -47t72.5 -66.5t30 -99q0 -82 -57.5 -129
t-153.5 -47q-101 0 -173 50z" />
    <glyph glyph-name="afii10055" unicode="&#x406;" horiz-adv-x="252" 
d="M89 0v659h74v-659h-74z" />
    <glyph glyph-name="afii10056" unicode="&#x407;" horiz-adv-x="252" 
d="M89 0v659h74v-659h-74zM37 706q-18 0 -30.5 12.5t-12.5 31.5q0 18 12.5 30.5t30.5 12.5t31 -12.5t13 -30.5q0 -19 -13 -31.5t-31 -12.5zM215 706q-18 0 -31 12.5t-13 31.5q0 18 13 30.5t31 12.5t30.5 -12.5t12.5 -30.5q0 -19 -12.5 -31.5t-30.5 -12.5z" />
    <glyph glyph-name="afii10057" unicode="&#x408;" horiz-adv-x="294" 
d="M-23 -173l13 63q23 -8 51 -8q52 0 71 27.5t19 82.5v667h74v-682q0 -159 -163 -159q-34 0 -65 9z" />
    <glyph glyph-name="afii10058" unicode="&#x409;" horiz-adv-x="881" 
d="M516 62h65q169 0 169 133q0 80 -59 112q-40 22 -124 22h-51v-267zM38 -6q-17 0 -26 3v69q10 -2 21 -2q51 0 80 53q42 75 75 244t42 298h286v-268h48q109 0 170 -31q92 -47 92 -162q0 -93 -60 -145.5t-188 -52.5h-135v597h-148q-9 -122 -43 -283t-79 -239
q-47 -81 -135 -81z" />
    <glyph glyph-name="afii10059" unicode="&#x40a;" horiz-adv-x="945" 
d="M89 0v659h74v-290h340v290h73v-268h52q109 0 170 -31q92 -47 92 -162q0 -93 -60 -145.5t-188 -52.5h-139v306h-340v-306h-74zM576 62h69q169 0 169 133q0 80 -59 112q-40 22 -124 22h-55v-267z" />
    <glyph glyph-name="afii10060" unicode="&#x40b;" horiz-adv-x="724" 
d="M213 0v597h-190v62h497l-24 -62h-210v-214q54 8 103 8q96 0 156.5 -27.5t82.5 -98.5q12 -36 12 -99v-166h-74v156q0 53 -9 86q-15 49 -57 67t-109 18q-40 0 -105 -9v-318h-73z" />
    <glyph glyph-name="afii10061" unicode="&#x40c;" horiz-adv-x="572" 
d="M258 696l58 147h83l-85 -147h-56zM89 0v659h74v-298h67q30 0 52.5 14.5t37 41.5t24.5 54t22 64.5t22 59.5q34 69 101 69q26 0 42 -6v-68q-16 6 -32 6q-32 0 -50 -34q-9 -18 -26.5 -73t-39.5 -95t-55 -59v-2q24 -8 44 -32.5t45 -71.5l124 -229h-84l-114 216q-45 83 -79 83
h-101v-299h-74z" />
    <glyph glyph-name="uni040D" unicode="&#x40d;" horiz-adv-x="721" 
d="M89 0v659h74v-419q0 -46 -2 -116h2q38 57 95 133l304 402h69v-659h-73v432q0 47 2 113h-2q-55 -79 -92 -127l-316 -418h-61zM336 696l-86 147h87l58 -147h-59z" />
    <glyph glyph-name="afii10062" unicode="&#x40e;" horiz-adv-x="564" 
d="M133 -7q-23 0 -39 4v65q18 -3 34 -3q43 0 69.5 29t58.5 98l-231 473h82l185 -391h2l171 391h80l-229 -508q-38 -84 -81.5 -121t-101.5 -37zM282 701q-72 0 -111.5 38t-38.5 100h64q0 -36 21 -58.5t65 -22.5t65 22.5t21 58.5h64q2 -61 -38.5 -99.5t-111.5 -38.5z" />
    <glyph glyph-name="afii10145" unicode="&#x40f;" horiz-adv-x="661" 
d="M89 0v659h74v-594h335v594h73v-659h-205v-182h-72v182h-205z" />
    <glyph glyph-name="afii10017" unicode="&#x410;" horiz-adv-x="594" 
d="M20 0l250 661h51l252 -661h-80l-65 177h-265l-65 -177h-78zM186 239h218l-68 190q-22 60 -39 114h-2q-10 -30 -40 -114z" />
    <glyph glyph-name="afii10018" unicode="&#x411;" horiz-adv-x="541" 
d="M163 62h77q170 0 170 132q0 82 -60 112q-37 19 -124 19h-63v-263zM89 0v659h368l-23 -62h-271v-210h60q112 0 169 -28q93 -45 93 -162q0 -197 -248 -197h-148z" />
    <glyph glyph-name="afii10019" unicode="&#x412;" horiz-adv-x="541" 
d="M89 0v659h153q100 0 151 -47.5t51 -119.5q0 -50 -23 -88t-64 -55v-2q57 -12 92.5 -55.5t35.5 -104.5q0 -85 -58.5 -136t-165.5 -51h-172zM163 62h98q148 0 148 123q0 55 -38 88t-101 33h-107v-244zM163 368h72q65 0 100 30.5t35 85.5q0 52 -32 82.5t-100 30.5h-75v-229z
" />
    <glyph glyph-name="afii10020" unicode="&#x413;" horiz-adv-x="425" 
d="M89 0v659h328l-23 -63h-231v-596h-74z" />
    <glyph glyph-name="afii10021" unicode="&#x414;" horiz-adv-x="638" 
d="M17 -182v245h39q71 94 124.5 250t81.5 346h270v-596h76v-245h-73v182h-445v-182h-73zM458 63v534h-137q-47 -332 -179 -532v-2h316z" />
    <glyph glyph-name="afii10022" unicode="&#x415;" horiz-adv-x="474" 
d="M89 0v659h318l-24 -63h-220v-228h217v-63h-217v-242h250v-63h-324z" />
    <glyph glyph-name="afii10024" unicode="&#x416;" horiz-adv-x="869" 
d="M31 0l116 224q26 49 46 74.5t44 33.5v2q-33 19 -53.5 60t-35.5 94.5t-26 73.5q-16 34 -49 34q-18 0 -32 -6v68q16 6 41 6q68 0 100 -69q10 -23 21.5 -60l20.5 -64t22.5 -54.5t35.5 -42t52 -14.5h64v299h73v-299h64q37 0 63 25t36.5 55.5t25.5 80t27 74.5q32 69 100 69
q25 0 41 -6v-68q-14 6 -32 6q-31 0 -49 -34q-10 -20 -25 -73.5t-36 -94.5t-54 -60v-2q24 -8 44 -33.5t46 -74.5l116 -224h-84l-108 215q-42 83 -77 83h-98v-298h-73v298h-97q-37 0 -78 -83l-108 -215h-84z" />
    <glyph glyph-name="afii10025" unicode="&#x417;" horiz-adv-x="507" 
d="M215 -10q-87 0 -151 31v67q70 -34 149 -34q70 0 114 33t44 99q0 119 -172 119q-38 0 -55 -1v65q15 -2 43 -2q88 0 128 33t40 86t-33.5 83.5t-99.5 30.5q-71 0 -139 -35l-22 58q72 41 167 41q98 0 150.5 -49t52.5 -123q0 -113 -113 -152v-2q61 -11 95.5 -50.5t34.5 -102.5
q0 -86 -59 -140.5t-174 -54.5z" />
    <glyph glyph-name="afii10026" unicode="&#x418;" horiz-adv-x="721" 
d="M89 0v659h74v-419q0 -46 -2 -116h2q38 57 95 133l304 402h69v-659h-73v432q0 47 2 113h-2q-55 -79 -92 -127l-316 -418h-61z" />
    <glyph glyph-name="afii10027" unicode="&#x419;" horiz-adv-x="721" 
d="M89 0v659h74v-419q0 -46 -2 -116h2q38 57 95 133l304 402h69v-659h-73v432q0 47 2 113h-2q-55 -79 -92 -127l-316 -418h-61zM361 701q-72 0 -111.5 38t-38.5 100h64q0 -36 21 -58.5t65 -22.5t65 22.5t21 58.5h64q2 -61 -38.5 -99.5t-111.5 -38.5z" />
    <glyph glyph-name="afii10028" unicode="&#x41a;" horiz-adv-x="572" 
d="M89 0v659h74v-298h67q30 0 52.5 14.5t37 41.5t24.5 54t22 64.5t22 59.5q34 69 101 69q26 0 42 -6v-68q-16 6 -32 6q-32 0 -50 -34q-9 -18 -26.5 -73t-39.5 -95t-55 -59v-2q24 -8 44 -32.5t45 -71.5l124 -229h-84l-114 216q-45 83 -79 83h-101v-299h-74z" />
    <glyph glyph-name="afii10029" unicode="&#x41b;" horiz-adv-x="617" 
d="M38 -6q-17 0 -26 3v69q10 -2 21 -2q51 0 80 53q42 75 75 244t42 298h298v-659h-74v597h-159q-9 -122 -43 -283t-79 -239q-47 -81 -135 -81z" />
    <glyph glyph-name="afii10030" unicode="&#x41c;" horiz-adv-x="797" 
d="M89 0v659h69l184 -277q42 -63 61 -95h2q6 11 61 99l173 273h69v-659h-74v423q0 77 2 112h-2q-20 -38 -47 -80l-163 -260h-39l-177 265q-32 45 -45 73h-2q2 -31 2 -109v-424h-74z" />
    <glyph glyph-name="afii10031" unicode="&#x41d;" horiz-adv-x="687" 
d="M89 0v659h74v-290h361v290h73v-659h-73v306h-361v-306h-74z" />
    <glyph glyph-name="afii10032" unicode="&#x41e;" horiz-adv-x="756" 
d="M378 -10q-140 0 -230.5 92.5t-90.5 243.5q0 149 90.5 243.5t230.5 94.5t230.5 -95t90.5 -243q0 -151 -91.5 -243.5t-229.5 -92.5zM378 54q110 0 176.5 74.5t66.5 197.5q0 120 -64.5 197t-178.5 77q-110 0 -176.5 -75.5t-66.5 -198.5t66.5 -197.5t176.5 -74.5z" />
    <glyph glyph-name="afii10033" unicode="&#x41f;" horiz-adv-x="660" 
d="M89 0v659h481v-659h-73v596h-334v-596h-74z" />
    <glyph glyph-name="afii10034" unicode="&#x420;" horiz-adv-x="497" 
d="M89 0v659h124q91 0 143 -30q95 -54 95 -178q0 -61 -27 -109t-83 -74q-55 -25 -135 -25h-43v-243h-74zM163 305h49q58 0 96 20q67 35 67 126q0 87 -63 124q-36 22 -99 22h-50v-292z" />
    <glyph glyph-name="afii10035" unicode="&#x421;" horiz-adv-x="593" 
d="M543 95l20 -59q-86 -46 -184 -46q-145 0 -229.5 92t-84.5 239t91.5 245t235.5 98q102 0 163 -35v-70q-75 41 -162 41q-111 0 -180.5 -79t-69.5 -195q0 -122 66 -197t177 -75q80 0 157 41z" />
    <glyph glyph-name="afii10036" unicode="&#x422;" horiz-adv-x="502" 
d="M212 0v596h-189v63h473l-24 -63h-186v-596h-74z" />
    <glyph glyph-name="afii10037" unicode="&#x423;" horiz-adv-x="564" 
d="M133 -7q-23 0 -39 4v65q18 -3 34 -3q43 0 69.5 29t58.5 98l-231 473h82l185 -391h2l171 391h80l-229 -508q-38 -84 -81.5 -121t-101.5 -37z" />
    <glyph glyph-name="afii10038" unicode="&#x424;" horiz-adv-x="733" 
d="M331 -18v91q-130 7 -202 71.5t-72 182.5q0 119 73 186.5t201 75.5v85h74v-85q127 -8 199 -76.5t72 -185.5q0 -118 -71.5 -182.5t-199.5 -71.5v-91h-74zM331 138v387q-95 -5 -146.5 -54.5t-51.5 -143.5q0 -180 198 -189zM405 138q195 11 195 189q0 185 -195 197v-386z" />
    <glyph glyph-name="afii10039" unicode="&#x425;" horiz-adv-x="595" 
d="M24 0l230 332l-216 327h86l178 -270l184 270h84l-224 -326l221 -333h-85l-183 276l-191 -276h-84z" />
    <glyph glyph-name="afii10040" unicode="&#x426;" horiz-adv-x="671" 
d="M89 0v659h74v-596h329v596h73v-596h76v-245h-72v182h-480z" />
    <glyph glyph-name="afii10041" unicode="&#x427;" horiz-adv-x="591" 
d="M428 0v276q-54 -8 -103 -8q-96 0 -157 27.5t-83 98.5q-12 36 -12 99v166h74v-156q0 -53 9 -86q15 -49 57 -67t110 -18q40 0 105 9v318h74v-659h-74z" />
    <glyph glyph-name="afii10042" unicode="&#x428;" horiz-adv-x="879" 
d="M89 0v659h74v-596h240v596h73v-596h240v596h74v-659h-701z" />
    <glyph glyph-name="afii10043" unicode="&#x429;" horiz-adv-x="888" 
d="M89 0v659h74v-596h236v596h73v-596h236v596h74v-596h76v-245h-73v182h-696z" />
    <glyph glyph-name="afii10044" unicode="&#x42a;" horiz-adv-x="668" 
d="M225 0v597h-199l-23 62h295v-268h52q109 0 170 -31q92 -47 92 -162q0 -93 -60 -145.5t-188 -52.5h-139zM298 62h69q169 0 169 133q0 80 -59 112q-40 22 -124 22h-55v-267z" />
    <glyph glyph-name="afii10045" unicode="&#x42b;" horiz-adv-x="715" 
d="M89 0v659h74v-268h45q109 0 167 -29q96 -47 96 -164q0 -93 -60 -145.5t-188 -52.5h-134zM163 62h63q169 0 169 133q0 81 -61 113q-41 21 -122 21h-49v-267zM552 0v659h73v-659h-73z" />
    <glyph glyph-name="afii10046" unicode="&#x42c;" horiz-adv-x="541" 
d="M163 62h77q170 0 170 133q0 81 -60 113q-37 21 -125 21h-62v-267zM89 0v659h74v-268h59q108 0 168 -28q95 -47 95 -165q0 -93 -60 -145.5t-188 -52.5h-148z" />
    <glyph glyph-name="afii10047" unicode="&#x42d;" horiz-adv-x="587" 
d="M220 -10q-96 0 -164 31v67q70 -34 160 -34q109 0 170.5 65t65.5 187h-317v61h317q-6 103 -67.5 168.5t-165.5 65.5q-77 0 -149 -35l-22 58q80 40 175 40q146 0 226.5 -95.5t80.5 -239.5q0 -154 -81 -246.5t-229 -92.5z" />
    <glyph glyph-name="afii10048" unicode="&#x42e;" horiz-adv-x="969" 
d="M89 0v659h74v-290h151q12 131 94 213t204 82q133 0 216 -96t83 -242q0 -150 -84.5 -243t-214.5 -93q-127 0 -210.5 87t-88.5 229h-150v-306h-74zM612 54q101 0 161 75.5t60 196.5q0 119 -58 196.5t-163 77.5q-102 0 -162 -76.5t-60 -197.5t60 -196.5t162 -75.5z" />
    <glyph glyph-name="afii10049" unicode="&#x42f;" horiz-adv-x="558" 
d="M31 0l108 206q40 78 72 95v2q-58 18 -89 61.5t-31 103.5q0 92 59 141.5t154 49.5h165v-659h-73v280h-103q-35 0 -77 -83l-100 -197h-85zM168 465q0 -62 38.5 -92.5t102.5 -30.5h87v255h-82q-67 0 -106.5 -33.5t-39.5 -98.5z" />
    <glyph glyph-name="afii10065" unicode="&#x430;" horiz-adv-x="468" 
d="M347 0l-14 53q-67 -63 -142 -63q-66 0 -108 39.5t-42 106.5q0 91 80 128q39 20 118 23l90 3v30q0 52 -28 78t-74 26q-66 0 -130 -39l-28 52q75 48 166 48q77 0 122.5 -40t45.5 -121v-163q0 -125 9 -161h-65zM329 234l-83 -3q-57 -1 -89 -18q-41 -23 -41 -73
q0 -39 24 -63.5t64 -24.5q66 0 125 62v120z" />
    <glyph glyph-name="afii10066" unicode="&#x431;" horiz-adv-x="503" 
d="M251 -10q-97 0 -152 75t-55 234q0 83 17 151t42 103q10 14 21.5 26t21.5 21t29 19t31.5 16t41.5 16l45.5 16t58.5 19.5l67 21.5v-73q-168 -55 -197 -69q-44 -21 -64 -53q-25 -41 -33 -107h2q69 44 142 44q97 0 144 -61.5t47 -163.5q0 -105 -54.5 -170t-154.5 -65zM253 53
q67 0 99 46t32 123q0 74 -29 120.5t-95 46.5q-63 0 -140 -48q-1 -15 -1 -45q0 -243 134 -243z" />
    <glyph glyph-name="afii10067" unicode="&#x432;" horiz-adv-x="464" 
d="M69 0v473h164q92 0 134 -37t42 -90q0 -78 -78 -103v-2q39 -9 64.5 -37t25.5 -71q0 -56 -42 -94.5t-135 -38.5h-175zM141 57h104q102 0 102 78q0 38 -24 58t-68 20h-114v-156zM141 268h102q92 0 92 73q0 75 -101 75h-93v-148z" />
    <glyph glyph-name="afii10068" unicode="&#x433;" horiz-adv-x="388" 
d="M69 0v473h307l-23 -66h-210v-407h-74z" />
    <glyph glyph-name="afii10069" unicode="&#x434;" horiz-adv-x="531" 
d="M21 -162v223h27q53 70 85.5 162t56.5 250h240v-412h67v-223h-70v162h-336v-162h-70zM357 61v350h-111q-32 -218 -116 -348v-2h227z" />
    <glyph glyph-name="afii10070" unicode="&#x435;" horiz-adv-x="470" 
d="M426 224h-307q1 -75 42.5 -123.5t114.5 -48.5q58 0 117 32l23 -52q-64 -42 -150 -42q-108 0 -165.5 71.5t-57.5 180.5q0 108 54 175.5t140 67.5q89 0 139 -65t50 -178v-18zM119 281h230q-2 59 -30.5 101.5t-80.5 42.5q-53 0 -85 -41.5t-34 -102.5z" />
    <glyph glyph-name="afii10072" unicode="&#x436;" horiz-adv-x="680" 
d="M26 0l84 176q13 29 25.5 44t31.5 21v2q-30 16 -50.5 83t-26.5 76q-12 18 -34 18q-10 0 -23 -5v65q11 5 34 5q51 0 76 -42q12 -21 25 -69.5t29 -76.5t46 -28h62v204h70v-204h62q30 0 46 28t28.5 76t25.5 70q25 42 76 42q23 0 34 -5v-65q-13 5 -23 5q-22 0 -34 -18
q-6 -9 -26.5 -76t-50.5 -83v-2q19 -6 31 -20.5t26 -44.5l84 -176h-77l-71 159q-23 52 -50 52h-81v-211h-70v211h-82q-26 0 -49 -52l-71 -159h-77z" />
    <glyph glyph-name="afii10073" unicode="&#x437;" horiz-adv-x="417" 
d="M187 -10q-68 0 -132 31v62q64 -33 129 -33q53 0 82 22t29 63q0 81 -134 81q-26 0 -40 -2v60q16 -1 48 -1q62 0 89 22.5t27 55.5q0 35 -26.5 54.5t-71.5 19.5q-52 0 -112 -29l-21 55q65 34 138 34q75 0 121 -35.5t46 -92.5q0 -39 -23.5 -68t-65.5 -41v-3q99 -20 99 -114
q0 -57 -46.5 -99t-135.5 -42z" />
    <glyph glyph-name="afii10074" unicode="&#x438;" horiz-adv-x="532" 
d="M69 0v473h73v-271q0 -48 -3 -95h2l67 99l185 267h70v-473h-73v271q0 49 3 95h-2q-31 -50 -66 -99l-187 -267h-69z" />
    <glyph glyph-name="afii10075" unicode="&#x439;" horiz-adv-x="532" 
d="M69 0v473h73v-271q0 -48 -3 -95h2l67 99l185 267h70v-473h-73v271q0 49 3 95h-2q-31 -50 -66 -99l-187 -267h-69zM271 544q-70 0 -109 39.5t-37 102.5h63q0 -37 20 -61.5t63 -24.5t63 24.5t20 61.5h64q1 -62 -38.5 -102t-108.5 -40z" />
    <glyph glyph-name="afii10076" unicode="&#x43a;" horiz-adv-x="455" 
d="M69 0v473h74v-203h64q30 0 47 27.5t30 75t24 66.5q28 46 80 46q22 0 33 -5v-64q-11 4 -22 4q-22 0 -34 -19q-9 -14 -19.5 -50t-24.5 -66t-37 -42v-2q19 -5 31 -19.5t27 -45.5l88 -176h-78l-75 159q-24 52 -49 52h-85v-211h-74z" />
    <glyph glyph-name="afii10077" unicode="&#x43b;" horiz-adv-x="498" 
d="M31 -8q-13 0 -21 2v67q6 -1 14 -1q32 0 57 38q30 48 58.5 151t42.5 224h246v-473h-73v409h-114q-14 -116 -44.5 -215.5t-64.5 -147.5q-38 -54 -101 -54z" />
    <glyph glyph-name="afii10078" unicode="&#x43c;" horiz-adv-x="593" 
d="M69 0v473h75l101 -169q21 -36 51 -93h2q14 30 52 94l99 168h75v-473h-72v268q0 69 3 90h-3q-7 -13 -25.5 -45l-21.5 -37l-91 -150h-36l-90 151q-33 55 -46 81h-3q3 -33 3 -98v-260h-73z" />
    <glyph glyph-name="afii10079" unicode="&#x43d;" horiz-adv-x="514" 
d="M69 0v473h74v-188h229v188h73v-473h-73v221h-229v-221h-74z" />
    <glyph glyph-name="afii10080" unicode="&#x43e;" 
d="M261 -10q-97 0 -157.5 70.5t-60.5 176.5q0 107 60 177.5t159 70.5q97 0 157.5 -71t60.5 -177t-60.5 -176.5t-158.5 -70.5zM261 53q65 0 103.5 51t38.5 133t-38.5 133.5t-102.5 51.5q-65 0 -104 -51t-39 -134q0 -82 38.5 -133t103.5 -51z" />
    <glyph glyph-name="afii10081" unicode="&#x43f;" horiz-adv-x="508" 
d="M69 0v473h370v-473h-73v407h-223v-407h-74z" />
    <glyph glyph-name="afii10082" unicode="&#x440;" horiz-adv-x="507" 
d="M68 -237v693q76 29 156 29q113 0 176.5 -64.5t63.5 -181.5q0 -114 -67 -181.5t-172 -67.5q-44 0 -83 17v-244h-74zM142 73q42 -20 81 -20q79 0 122 51t43 137q0 90 -46 135.5t-120 45.5q-41 0 -80 -12v-337z" />
    <glyph glyph-name="afii10083" unicode="&#x441;" horiz-adv-x="431" 
d="M267 -10q-105 0 -164.5 69t-59.5 173q0 107 64.5 180t170.5 73q65 0 118 -29v-65q-52 32 -114 32q-74 0 -118.5 -52t-44.5 -134q0 -87 42 -135.5t115 -48.5q56 0 114 32l23 -52q-64 -43 -146 -43z" />
    <glyph glyph-name="afii10084" unicode="&#x442;" horiz-adv-x="434" 
d="M176 0v409h-152v64h399l-23 -64h-151v-409h-73z" />
    <glyph glyph-name="afii10085" unicode="&#x443;" horiz-adv-x="472" 
d="M459 473l-177 -510q-42 -119 -92 -159.5t-118 -40.5q-46 0 -84 16l18 61q32 -14 65 -14q100 0 150 171l-208 476h80l161 -383h2l126 383h77z" />
    <glyph glyph-name="afii10086" unicode="&#x444;" horiz-adv-x="643" 
d="M286 -237v228q-116 8 -179.5 76.5t-63.5 169.5q0 102 63 170t180 77v202h71v-202q116 -9 179 -77t63 -169q0 -102 -63 -170.5t-179 -76.5v-228h-71zM286 53v368q-79 -7 -124 -57.5t-45 -126.5t45 -126.5t124 -57.5zM357 53q79 7 123.5 58t44.5 127q0 75 -44.5 125.5
t-123.5 57.5v-368z" />
    <glyph glyph-name="afii10087" unicode="&#x445;" horiz-adv-x="450" 
d="M14 0l171 237l-164 236h82l125 -183l128 183h80l-167 -234l166 -239h-81l-129 186l-130 -186h-81z" />
    <glyph glyph-name="afii10088" unicode="&#x446;" horiz-adv-x="528" 
d="M69 0v473h74v-410h211v410h73v-410h67v-225h-70v162h-355z" />
    <glyph glyph-name="afii10089" unicode="&#x447;" horiz-adv-x="477" 
d="M334 0v194q-60 -11 -101 -11q-88 0 -132 35.5t-44 101.5v153h73v-142q0 -43 24.5 -65t83.5 -22q38 0 96 10v219h74v-473h-74z" />
    <glyph glyph-name="afii10090" unicode="&#x448;" horiz-adv-x="686" 
d="M69 0v473h72v-410h166v410h72v-410h166v410h72v-473h-548z" />
    <glyph glyph-name="afii10091" unicode="&#x449;" horiz-adv-x="709" 
d="M69 0v473h72v-410h162v410h71v-410h162v410h72v-410h67v-225h-71v162h-535z" />
    <glyph glyph-name="afii10092" unicode="&#x44a;" horiz-adv-x="585" 
d="M204 0v411h-173l-21 62h267v-185q44 2 60 2q202 0 202 -143q0 -64 -44.5 -105.5t-150.5 -41.5h-140zM277 60h65q69 0 95.5 22.5t26.5 62.5q0 41 -29 62.5t-98 21.5q-29 0 -60 -3v-166z" />
    <glyph glyph-name="afii10093" unicode="&#x44b;" horiz-adv-x="607" 
d="M69 0v473h74v-185q44 2 57 2q104 0 150.5 -39.5t46.5 -103.5t-44 -105.5t-150 -41.5h-134zM143 60h58q69 0 95 22.5t26 62.5q0 42 -27.5 63t-94.5 21q-26 0 -57 -3v-166zM464 0v473h73v-473h-73z" />
    <glyph glyph-name="afii10094" unicode="&#x44c;" horiz-adv-x="456" 
d="M69 0v473h74v-185q44 2 59 2q209 0 209 -144q0 -146 -199 -146h-143zM143 60h67q72 0 99 22t27 63q0 42 -29 63t-104 21q-29 0 -60 -3v-166z" />
    <glyph glyph-name="afii10095" unicode="&#x44d;" horiz-adv-x="447" 
d="M181 -10q-65 0 -125 30v62q58 -32 121 -32q71 0 110 43t43 122h-217v57h216q-6 69 -46 111t-107 42q-56 0 -103 -27l-21 56q59 31 129 31q106 0 164.5 -71t58.5 -176q0 -111 -56.5 -179.5t-166.5 -68.5z" />
    <glyph glyph-name="afii10096" unicode="&#x44e;" horiz-adv-x="705" 
d="M69 0v473h74v-197h104q11 93 65.5 151t141.5 58q96 0 152 -70.5t56 -177.5t-56 -177t-153 -70q-90 0 -145 62t-62 160h-103v-212h-74zM453 53q64 0 98.5 50.5t34.5 133.5q0 84 -34 134.5t-98 50.5t-98.5 -50.5t-34.5 -134.5q0 -83 34.5 -133.5t97.5 -50.5z" />
    <glyph glyph-name="afii10097" unicode="&#x44f;" horiz-adv-x="475" 
d="M40 0l68 144q24 51 49 62v2q-40 14 -61.5 46.5t-21.5 75.5q0 62 41.5 102.5t123.5 40.5h166v-473h-73v186h-103q-29 0 -52 -52l-59 -134h-78zM149 326q0 -37 23 -59t65 -22h95v168h-87q-96 0 -96 -87z" />
    <glyph glyph-name="uni0450" unicode="&#x450;" horiz-adv-x="470" 
d="M426 224h-307q1 -75 42.5 -123.5t114.5 -48.5q58 0 117 32l23 -52q-64 -42 -150 -42q-108 0 -165.5 71.5t-57.5 180.5q0 108 54 175.5t140 67.5q89 0 139 -65t50 -178v-18zM119 281h230q-2 59 -30.5 101.5t-80.5 42.5q-53 0 -85 -41.5t-34 -102.5zM225 531l-86 147h87
l58 -147h-59z" />
    <glyph glyph-name="afii10071" unicode="&#x451;" horiz-adv-x="470" 
d="M426 224h-307q1 -75 42.5 -123.5t114.5 -48.5q58 0 117 32l23 -52q-64 -42 -150 -42q-108 0 -165.5 71.5t-57.5 180.5q0 108 54 175.5t140 67.5q89 0 139 -65t50 -178v-18zM119 281h230q-2 59 -30.5 101.5t-80.5 42.5q-53 0 -85 -41.5t-34 -102.5zM151 561
q-18 0 -30.5 12.5t-12.5 30.5q0 19 12.5 31.5t30.5 12.5t31 -12.5t13 -31.5q0 -18 -13 -30.5t-31 -12.5zM329 561q-18 0 -31 12.5t-13 30.5q0 19 13 31.5t31 12.5t30.5 -12.5t12.5 -31.5q0 -18 -12.5 -30.5t-30.5 -12.5z" />
    <glyph glyph-name="afii10099" unicode="&#x452;" horiz-adv-x="512" 
d="M74 0v559h-64v60h64v89h73v-89h147v-60h-147v-163q72 72 151 72q75 0 122.5 -65t47.5 -196q0 -255 -191 -352l-34 55q80 43 115 115.5t35 178.5q0 94 -27.5 146t-82.5 52q-67 0 -136 -71v-331h-73z" />
    <glyph glyph-name="afii10100" unicode="&#x453;" horiz-adv-x="388" 
d="M192 531l58 147h83l-85 -147h-56zM69 0v473h307l-23 -66h-210v-407h-74z" />
    <glyph glyph-name="afii10101" unicode="&#x454;" horiz-adv-x="448" 
d="M263 -10q-106 0 -163 68t-57 174q0 110 60.5 181.5t169.5 71.5q69 0 120 -29v-63q-52 32 -116 32q-69 0 -110.5 -42t-49.5 -111h216v-57h-216q2 -79 42 -121.5t112 -42.5q57 0 117 32l24 -50q-64 -43 -149 -43z" />
    <glyph glyph-name="afii10102" unicode="&#x455;" horiz-adv-x="385" 
d="M29 30l24 57q56 -35 118 -35q45 0 73 19t28 57q0 28 -23 47.5t-55 32.5t-64.5 28.5t-55.5 45.5t-23 73q0 56 42 93t118 37q60 0 117 -22v-65q-59 26 -114 26q-91 0 -91 -66q0 -29 23 -48.5t55.5 -32t65.5 -28t56 -46t23 -74.5q0 -68 -49 -103.5t-126 -35.5q-79 0 -142 40
z" />
    <glyph glyph-name="afii10103" unicode="&#x456;" horiz-adv-x="225" 
d="M76 0v473h73v-473h-73zM112 580q-22 0 -35.5 14t-13.5 35t14 35.5t35 14.5q22 0 36 -14t14 -36q0 -21 -14 -35t-36 -14z" />
    <glyph glyph-name="afii10104" unicode="&#x457;" horiz-adv-x="225" 
d="M25 561q-18 0 -30.5 12.5t-12.5 30.5q0 19 12.5 31.5t30.5 12.5t31 -12.5t13 -31.5q0 -18 -13 -30.5t-31 -12.5zM203 561q-18 0 -31 12.5t-13 30.5q0 19 13 31.5t31 12.5t30.5 -12.5t12.5 -31.5q0 -18 -12.5 -30.5t-30.5 -12.5zM76 0v473h73v-473h-73z" />
    <glyph glyph-name="afii10105" unicode="&#x458;" horiz-adv-x="236" 
d="M-49 -223l16 61q22 -10 47 -10q38 0 55.5 24t17.5 77v544h73v-558q0 -76 -38 -114t-99 -38q-41 0 -72 14zM123 580q-21 0 -34.5 14t-13.5 35t13.5 35.5t34.5 14.5q22 0 36 -14t14 -36q0 -21 -14 -35t-36 -14z" />
    <glyph glyph-name="afii10106" unicode="&#x459;" horiz-adv-x="729" 
d="M417 60h68q124 0 124 85q0 42 -29.5 63t-102.5 21q-29 0 -60 -3v-166zM31 -8q-13 0 -21 2v67q6 -1 14 -1q32 0 57 38q30 48 58.5 151t42.5 224h235v-185q44 2 60 2q207 0 207 -143q0 -63 -45.5 -105t-151.5 -42h-142v409h-104q-14 -116 -44.5 -215.5t-64.5 -147.5
q-38 -54 -101 -54z" />
    <glyph glyph-name="afii10107" unicode="&#x45a;" horiz-adv-x="743" 
d="M69 0v473h74v-188h215v188h73v-185q44 2 60 2q206 0 206 -143q0 -64 -44.5 -105.5t-151.5 -41.5h-143v221h-215v-221h-74zM431 60h68q71 0 97 22.5t26 62.5q0 42 -29.5 63t-101.5 21q-29 0 -60 -3v-166z" />
    <glyph glyph-name="afii10108" unicode="&#x45b;" horiz-adv-x="525" 
d="M74 0v559h-64v60h64v89h73v-89h139v-60h-139v-163q84 72 164 72q63 0 103.5 -41t40.5 -126v-301h-73v283q0 57 -19.5 88t-69.5 31q-64 0 -146 -71v-331h-73z" />
    <glyph glyph-name="afii10109" unicode="&#x45c;" horiz-adv-x="455" 
d="M198 531l58 147h83l-85 -147h-56zM69 0v473h74v-203h64q30 0 47 27.5t30 75t24 66.5q28 46 80 46q22 0 33 -5v-64q-11 4 -22 4q-22 0 -34 -19q-9 -14 -19.5 -50t-24.5 -66t-37 -42v-2q19 -5 31 -19.5t27 -45.5l88 -176h-78l-75 159q-24 52 -49 52h-85v-211h-74z" />
    <glyph glyph-name="uni045D" unicode="&#x45d;" horiz-adv-x="532" 
d="M248 531l-86 147h87l58 -147h-59zM69 0v473h73v-271q0 -48 -3 -95h2l67 99l185 267h70v-473h-73v271q0 49 3 95h-2q-31 -50 -66 -99l-187 -267h-69z" />
    <glyph glyph-name="afii10110" unicode="&#x45e;" horiz-adv-x="472" 
d="M459 473l-177 -510q-42 -119 -92 -159.5t-118 -40.5q-46 0 -84 16l18 61q32 -14 65 -14q100 0 150 171l-208 476h80l161 -383h2l126 383h77zM241 544q-70 0 -109 39.5t-37 102.5h63q0 -37 20 -61.5t63 -24.5t63 24.5t20 61.5h64q1 -62 -38.5 -102t-108.5 -40z" />
    <glyph glyph-name="afii10193" unicode="&#x45f;" horiz-adv-x="505" 
d="M217 -162v162h-148v473h74v-410h219v410h73v-473h-147v-162h-71z" />
    <glyph glyph-name="afii10146" unicode="&#x462;" horiz-adv-x="588" 
d="M136 0v508h-130v62h130v99h74v-99h167l-23 -62h-144v-122h60q108 0 166 -27q97 -46 97 -163q0 -92 -60 -144t-188 -52h-149zM210 62h78q169 0 169 131q0 81 -60 111q-39 20 -124 20h-63v-262z" />
    <glyph glyph-name="afii10194" unicode="&#x463;" horiz-adv-x="508" 
d="M121 0v414h-121v59h121v131h73v-131h169l-22 -59h-147v-129q33 3 60 3q209 0 209 -143q0 -145 -199 -145h-143zM194 59h68q72 0 99 22t27 63q0 42 -29.5 62.5t-103.5 20.5q-17 0 -61 -2v-166z" />
    <glyph glyph-name="afii10147" unicode="&#x472;" horiz-adv-x="752" 
d="M376 -10q-145 0 -232 89.5t-87 246.5q0 155 87 246.5t232 91.5q146 0 232.5 -92.5t86.5 -245.5q0 -157 -87.5 -246.5t-231.5 -89.5zM376 54q111 0 174 66.5t66 185.5h-480q3 -119 66 -185.5t174 -66.5zM137 369h478q-8 106 -69 169t-170 63q-105 0 -168 -62t-71 -170z
" />
    <glyph glyph-name="afii10195" unicode="&#x473;" horiz-adv-x="519" 
d="M259 -10q-101 0 -158.5 68t-57.5 179t57.5 179.5t159.5 68.5q101 0 158.5 -68.5t57.5 -179.5t-57.5 -179t-159.5 -68zM259 51q65 0 101.5 43.5t38.5 120.5h-280q2 -77 38.5 -120.5t101.5 -43.5zM119 272h279q-5 71 -41 111.5t-97 40.5q-62 0 -99 -40.5t-42 -111.5z" />
    <glyph glyph-name="afii10148" unicode="&#x474;" horiz-adv-x="635" 
d="M270 -3l-251 662h80l148 -401q21 -57 50 -144h2q65 256 111 392q28 78 63.5 118t98.5 40q29 0 50 -6v-68q-16 6 -36 6q-22 0 -39 -8.5t-29.5 -27.5t-20 -35.5t-18.5 -45.5q-15 -39 -32.5 -95.5l-54.5 -182.5l-61 -204h-61z" />
    <glyph glyph-name="afii10196" unicode="&#x475;" horiz-adv-x="469" 
d="M192 -3l-179 476h77l132 -377h2q41 167 66 245q25 79 54 111.5t79 32.5q22 0 37 -5v-64q-10 5 -27 5q-26 0 -44 -25t-35 -80q-29 -85 -94 -319h-68z" />
    <glyph glyph-name="afii10050" unicode="&#x490;" horiz-adv-x="462" 
d="M89 0v659h280v162l68 18v-242h-274v-597h-74z" />
    <glyph glyph-name="afii10098" unicode="&#x491;" horiz-adv-x="398" 
d="M69 0v473h238v145l66 17v-227h-230v-408h-74z" />
    <glyph glyph-name="Wgrave" unicode="&#x1e80;" horiz-adv-x="900" 
d="M238 -3l-222 662h82l128 -396l44 -148h2q16 54 48 147l98 285l-39 112h80l133 -398q35 -102 46 -145h2q18 74 41 143l125 400h78l-218 -662h-59l-105 309q-32 96 -46 142h-3q-16 -56 -46 -142l-109 -309h-60zM420 696l-86 147h87l58 -147h-59z" />
    <glyph glyph-name="wgrave" unicode="&#x1e81;" horiz-adv-x="690" 
d="M167 -3l-156 476h77l112 -377h2l109 377h69l113 -377h2l110 377h75l-157 -476h-64l-112 379h-2l-113 -379h-65zM330 531l-86 147h87l58 -147h-59z" />
    <glyph glyph-name="Wacute" unicode="&#x1e82;" horiz-adv-x="900" 
d="M238 -3l-222 662h82l128 -396l44 -148h2q16 54 48 147l98 285l-39 112h80l133 -398q35 -102 46 -145h2q18 74 41 143l125 400h78l-218 -662h-59l-105 309q-32 96 -46 142h-3q-16 -56 -46 -142l-109 -309h-60zM412 696l58 147h83l-85 -147h-56z" />
    <glyph glyph-name="wacute" unicode="&#x1e83;" horiz-adv-x="690" 
d="M167 -3l-156 476h77l112 -377h2l109 377h69l113 -377h2l110 377h75l-157 -476h-64l-112 379h-2l-113 -379h-65zM302 531l58 147h83l-85 -147h-56z" />
    <glyph glyph-name="Wdieresis" unicode="&#x1e84;" horiz-adv-x="900" 
d="M238 -3l-222 662h82l128 -396l44 -148h2q16 54 48 147l98 285l-39 112h80l133 -398q35 -102 46 -145h2q18 74 41 143l125 400h78l-218 -662h-59l-105 309q-32 96 -46 142h-3q-16 -56 -46 -142l-109 -309h-60zM366 706q-18 0 -30.5 12.5t-12.5 31.5q0 18 12.5 30.5
t30.5 12.5t31 -12.5t13 -30.5q0 -19 -13 -31.5t-31 -12.5zM544 706q-18 0 -31 12.5t-13 31.5q0 18 13 30.5t31 12.5t30.5 -12.5t12.5 -30.5q0 -19 -12.5 -31.5t-30.5 -12.5z" />
    <glyph glyph-name="wdieresis" unicode="&#x1e85;" horiz-adv-x="690" 
d="M167 -3l-156 476h77l112 -377h2l109 377h69l113 -377h2l110 377h75l-157 -476h-64l-112 379h-2l-113 -379h-65zM256 561q-18 0 -30.5 12.5t-12.5 30.5q0 19 12.5 31.5t30.5 12.5t31 -12.5t13 -31.5q0 -18 -13 -30.5t-31 -12.5zM434 561q-18 0 -31 12.5t-13 30.5
q0 19 13 31.5t31 12.5t30.5 -12.5t12.5 -31.5q0 -18 -12.5 -30.5t-30.5 -12.5z" />
    <glyph glyph-name="Ygrave" unicode="&#x1ef2;" horiz-adv-x="536" 
d="M233 0v263l-217 396h82l172 -323h2l168 323h80l-214 -397v-262h-73zM256 696l-86 147h87l58 -147h-59z" />
    <glyph glyph-name="ygrave" unicode="&#x1ef3;" horiz-adv-x="466" 
d="M456 473l-177 -510q-42 -119 -92 -159.5t-118 -40.5q-46 0 -84 16l18 61q31 -14 65 -14q100 0 150 171l-208 476h80l161 -383h2l126 383h77zM224 531l-86 147h87l58 -147h-59z" />
    <glyph glyph-name="endash" unicode="&#x2013;" horiz-adv-x="450" 
d="M0 224v59h450v-59h-450z" />
    <glyph glyph-name="emdash" unicode="&#x2014;" horiz-adv-x="800" 
d="M0 224v59h800v-59h-800z" />
    <glyph glyph-name="quoteleft" unicode="&#x2018;" horiz-adv-x="227" 
d="M96 454q-31 65 -31 123q0 69 40 140l41 -10q-14 -48 -14 -93q0 -64 32 -128z" />
    <glyph glyph-name="quoteright" unicode="&#x2019;" horiz-adv-x="227" 
d="M130 717q32 -67 32 -123q0 -67 -40 -140l-42 9q15 51 15 93q0 61 -32 128z" />
    <glyph glyph-name="quotesinglbase" unicode="&#x201a;" horiz-adv-x="227" 
d="M130 117q32 -67 32 -123q0 -67 -40 -140l-42 9q15 51 15 93q0 61 -32 128z" />
    <glyph glyph-name="quotedblleft" unicode="&#x201c;" horiz-adv-x="385" 
d="M96 454q-31 65 -31 123q0 69 40 140l41 -10q-14 -48 -14 -93q0 -64 32 -128zM255 454q-32 67 -32 123q0 66 40 140l42 -10q-15 -51 -15 -93q0 -61 32 -128z" />
    <glyph glyph-name="quotedblright" unicode="&#x201d;" horiz-adv-x="385" 
d="M289 717q31 -65 31 -123q0 -70 -40 -140l-41 9q14 48 14 93q0 64 -32 128zM130 717q32 -67 32 -123q0 -67 -40 -140l-42 9q15 51 15 93q0 61 -32 128z" />
    <glyph glyph-name="quotedblbase" unicode="&#x201e;" horiz-adv-x="385" 
d="M289 117q31 -65 31 -123q0 -70 -40 -140l-41 9q14 48 14 93q0 64 -32 128zM130 117q32 -67 32 -123q0 -67 -40 -140l-42 9q15 51 15 93q0 61 -32 128z" />
    <glyph glyph-name="dagger" unicode="&#x2020;" horiz-adv-x="511" 
d="M221 -46v151q0 104 3 198t3 111q-17 0 -73 -5.5t-80 -5.5v73q24 -1 80.5 -6.5t73.5 -6.5q0 22 -4.5 79t-4.5 82h73q0 -25 -4.5 -82t-4.5 -79q17 1 73.5 6.5t80.5 6.5v-73q-24 0 -80.5 5.5t-73.5 5.5q0 -8 3.5 -105t3.5 -204v-151h-69z" />
    <glyph glyph-name="daggerdbl" unicode="&#x2021;" horiz-adv-x="511" 
d="M219 -46q0 25 4.5 82t4.5 79q-17 -1 -73.5 -6.5t-80.5 -6.5v74q24 0 80 -5.5t73 -5.5q0 14 -2.5 52.5t-2.5 65.5q0 30 2.5 73t2.5 58q-17 0 -73 -5.5t-80 -5.5v73q24 -1 80.5 -6.5t73.5 -6.5q0 22 -4.5 79t-4.5 82h73q0 -25 -4.5 -82t-4.5 -79q17 1 73.5 6.5t80.5 6.5
v-73q-24 0 -80.5 5.5t-73.5 5.5q0 -11 2.5 -54.5t2.5 -76.5q0 -29 -2.5 -68t-2.5 -50q17 0 73.5 5.5t80.5 5.5v-74q-24 1 -80.5 6.5t-73.5 6.5q0 -22 4.5 -79t4.5 -82h-73z" />
    <glyph glyph-name="bullet" unicode="&#x2022;" horiz-adv-x="298" 
d="M148 213q-43 0 -72 30.5t-29 74.5t29 74.5t72 30.5q44 0 73.5 -30.5t29.5 -74.5t-29.5 -74.5t-73.5 -30.5z" />
    <glyph glyph-name="ellipsis" unicode="&#x2026;" horiz-adv-x="894" 
d="M163 -8q-19 0 -33 15t-14 35t14 34.5t33 14.5q20 0 34 -14.5t14 -34.5t-14 -35t-34 -15zM447 -8q-20 0 -34 15t-14 35t14 34.5t34 14.5q19 0 33 -14.5t14 -34.5t-14 -35t-33 -15zM730 -8q-19 0 -33 15t-14 35t14 34.5t33 14.5q20 0 34 -14.5t14 -34.5t-14 -35t-34 -15z
" />
    <glyph glyph-name="perthousand" unicode="&#x2030;" horiz-adv-x="1179" 
d="M206 318q-64 0 -106 45t-42 128t42 128t106 45q65 0 106.5 -45t41.5 -128t-41.5 -128t-106.5 -45zM206 369q40 0 63 33.5t23 88.5t-23 88.5t-63 33.5t-62.5 -33.5t-22.5 -88.5t22.5 -88.5t62.5 -33.5zM621 -10q-64 0 -106 45.5t-42 127.5q0 83 42 128.5t106 45.5
t106 -45.5t42 -128.5q0 -82 -42 -127.5t-106 -45.5zM621 42q40 0 62.5 33t22.5 88q0 56 -22.5 89t-62.5 33q-41 0 -63.5 -33t-22.5 -89q0 -55 22.5 -88t63.5 -33zM973 -10q-64 0 -106 45.5t-42 127.5q0 83 42 128.5t106 45.5t106 -45.5t42 -128.5q0 -82 -42 -127.5
t-106 -45.5zM973 42q40 0 62.5 33t22.5 88q0 56 -22.5 89t-62.5 33q-41 0 -63.5 -33t-22.5 -89q0 -55 22.5 -88t63.5 -33zM175 0l411 659h66l-412 -659h-65z" />
    <glyph glyph-name="guilsinglleft" unicode="&#x2039;" horiz-adv-x="342" 
d="M266 415l-135 -174l135 -174l-53 -34l-166 208l166 208z" />
    <glyph glyph-name="guilsinglright" unicode="&#x203a;" horiz-adv-x="342" 
d="M211 241l-135 174l53 34l166 -208l-166 -208l-53 34z" />
    <glyph glyph-name="fraction" unicode="&#x2044;" horiz-adv-x="119" 
d="M-179 0l411 659h66l-412 -659h-65z" />
    <glyph glyph-name="zerosuperior" unicode="&#x2070;" horiz-adv-x="368" 
d="M183 397q-63 0 -101.5 52.5t-38.5 146.5t39 145.5t103 51.5q63 0 102 -52.5t39 -147.5q0 -93 -39.5 -144.5t-103.5 -51.5zM186 450q38 0 56.5 40t18.5 102q0 70 -20.5 109t-57.5 39t-56 -40t-19 -101q0 -69 20.5 -109t57.5 -40z" />
    <glyph glyph-name="foursuperior" unicode="&#x2074;" horiz-adv-x="368" 
d="M34 492v41l192 259h55v-250h53v-50h-53v-88h-62v88h-185zM103 542h73h43v42q0 70 3 119z" />
    <glyph glyph-name="fivesuperior" unicode="&#x2075;" horiz-adv-x="332" 
d="M32 419l18 51q39 -20 82 -20q86 0 86 70q0 38 -33 55q-24 10 -73 10h-52v199h224l-14 -53h-149v-96h18q51 0 80 -13q64 -26 64 -101q0 -56 -39 -90t-111 -34q-60 0 -101 22z" />
    <glyph glyph-name="sixsuperior" unicode="&#x2076;" horiz-adv-x="347" 
d="M183 397q-60 0 -100 46t-40 136q0 91 48.5 152.5t126.5 61.5q42 0 77 -16l-17 -50q-26 13 -58 13q-41 0 -71 -30.5t-38 -84.5h2q37 22 80 22q53 0 87 -33t34 -89q0 -58 -37.5 -93t-93.5 -35zM186 449q30 0 47.5 19t17.5 54q0 33 -19.5 52.5t-50.5 19.5q-34 0 -72 -26
q-1 -53 20 -86t57 -33z" />
    <glyph glyph-name="sevensuperior" unicode="&#x2077;" horiz-adv-x="312" 
d="M59 404q42 184 150 327h-174l-14 53h270v-32q-122 -146 -163 -348h-69z" />
    <glyph glyph-name="eightsuperior" unicode="&#x2078;" horiz-adv-x="368" 
d="M180 397q-62 0 -99 28t-37 78q0 72 73 98v2q-61 28 -61 88q0 46 35 74t92 28t91.5 -28t34.5 -74q0 -61 -60 -87v-2q75 -24 75 -95q0 -51 -40.5 -80.5t-103.5 -29.5zM182 450q31 0 54 15t23 43q0 48 -86 70q-27 -7 -46 -24.5t-19 -44.5q0 -28 21.5 -43.5t52.5 -15.5z
M190 625q55 21 55 65q0 21 -17 35.5t-45 14.5t-45 -13t-17 -36q0 -47 69 -66z" />
    <glyph glyph-name="ninesuperior" unicode="&#x2079;" horiz-adv-x="347" 
d="M133 397q-48 0 -89 17l17 52q31 -16 70 -16q47 0 76 31t34 90h-2q-39 -28 -85 -28q-51 0 -85.5 30t-34.5 90q0 58 36 94t92 36q65 0 103.5 -47.5t38.5 -139.5q0 -96 -45 -152.5t-126 -56.5zM165 595q21 0 42 11t32 26q-1 51 -22 79.5t-55 28.5q-30 0 -47.5 -20t-17.5 -51
q0 -34 18 -54t50 -20z" />
    <glyph glyph-name="plussuperior" unicode="&#x207a;" horiz-adv-x="413" 
d="M179 434v135h-127v54h127v131h55v-131h127v-54h-127v-135h-55z" />
    <glyph glyph-name="minussuperior" unicode="&#x207b;" horiz-adv-x="413" 
d="M52 569v54h309v-54h-309z" />
    <glyph glyph-name="equalsuperior" unicode="&#x207c;" horiz-adv-x="413" 
d="M52 506v53h309v-53h-309zM52 633v53h309v-53h-309z" />
    <glyph glyph-name="parenleftsuperior" unicode="&#x207d;" horiz-adv-x="239" 
d="M160 357q-103 93 -103 239t103 239l38 -31q-79 -85 -79 -208t79 -208z" />
    <glyph glyph-name="parenrightsuperior" unicode="&#x207e;" horiz-adv-x="239" 
d="M41 388q79 83 79 208t-79 208l39 31q102 -93 102 -239t-102 -239z" />
    <glyph glyph-name="n.superior" unicode="&#x207f;" horiz-adv-x="377" 
d="M52 270v332h52l5 -38q59 47 115 47q44 0 73.5 -30t29.5 -89v-222h-60v206q0 79 -56 79q-40 0 -98 -45v-240h-61z" />
    <glyph glyph-name="zeroinferior" unicode="&#x2080;" horiz-adv-x="368" 
d="M183 -187q-63 0 -101.5 52.5t-38.5 146.5t39 145.5t103 51.5q63 0 102 -52.5t39 -147.5q0 -93 -39.5 -144.5t-103.5 -51.5zM186 -134q38 0 56.5 40t18.5 102q0 70 -20.5 109t-57.5 39t-56 -40t-19 -101q0 -69 20.5 -109t57.5 -40z" />
    <glyph glyph-name="oneinferior" unicode="&#x2081;" horiz-adv-x="324" 
d="M176 -180v322l-119 -47l-23 48l154 65h50v-388h-62z" />
    <glyph glyph-name="twoinferior" unicode="&#x2082;" horiz-adv-x="327" 
d="M30 -180q2 53 23 94t48 64.5t54.5 43t46 40t18.5 43.5t-16.5 36.5t-44.5 13.5q-40 0 -95 -30l-21 48q63 36 123 36q57 0 88 -27.5t31 -73.5q0 -31 -16.5 -56t-41 -43l-49.5 -36t-46.5 -43t-27.5 -54h181v-56h-255z" />
    <glyph glyph-name="threeinferior" unicode="&#x2083;" horiz-adv-x="330" 
d="M21 -165l17 50q41 -19 85 -19q91 0 91 63q0 39 -41 52q-21 8 -64 8h-40v51h35q38 0 61 10q37 16 37 53q0 26 -18.5 39t-46.5 13q-41 0 -87 -21l-19 48q58 27 115 27q55 0 88 -27.5t33 -71.5q0 -65 -69 -90v-2q38 -7 59.5 -31.5t21.5 -62.5q0 -48 -39 -79.5t-115 -31.5
q-60 0 -104 22z" />
    <glyph glyph-name="fourinferior" unicode="&#x2084;" horiz-adv-x="368" 
d="M34 -92v41l192 259h55v-250h53v-50h-53v-88h-62v88h-185zM103 -42h73h43v42q0 70 3 119z" />
    <glyph glyph-name="fiveinferior" unicode="&#x2085;" horiz-adv-x="332" 
d="M32 -165l18 51q39 -20 82 -20q86 0 86 70q0 38 -33 55q-24 10 -73 10h-52v199h224l-14 -53h-149v-96h18q51 0 80 -13q64 -26 64 -101q0 -56 -39 -90t-111 -34q-60 0 -101 22z" />
    <glyph glyph-name="sixinferior" unicode="&#x2086;" horiz-adv-x="347" 
d="M183 -187q-60 0 -100 46t-40 136q0 91 48.5 152.5t126.5 61.5q42 0 77 -16l-17 -50q-26 13 -58 13q-41 0 -71 -30.5t-38 -84.5h2q37 22 80 22q53 0 87 -33t34 -89q0 -58 -37.5 -93t-93.5 -35zM186 -135q30 0 47.5 19t17.5 54q0 33 -19.5 52.5t-50.5 19.5q-34 0 -72 -26
q-1 -53 20 -86t57 -33z" />
    <glyph glyph-name="seveninferior" unicode="&#x2087;" horiz-adv-x="312" 
d="M59 -180q42 184 150 327h-174l-14 53h270v-32q-122 -146 -163 -348h-69z" />
    <glyph glyph-name="eightinferior" unicode="&#x2088;" horiz-adv-x="368" 
d="M180 -187q-62 0 -99 28t-37 78q0 72 73 98v2q-61 28 -61 88q0 46 35 74t92 28t91.5 -28t34.5 -74q0 -61 -60 -87v-2q75 -24 75 -95q0 -51 -40.5 -80.5t-103.5 -29.5zM182 -134q31 0 54 15t23 43q0 48 -86 70q-27 -7 -46 -24.5t-19 -44.5q0 -28 21.5 -43.5t52.5 -15.5z
M190 41q55 21 55 65q0 21 -17 35.5t-45 14.5t-45 -13t-17 -36q0 -47 69 -66z" />
    <glyph glyph-name="nineinferior" unicode="&#x2089;" horiz-adv-x="347" 
d="M133 -187q-48 0 -89 17l17 52q31 -16 70 -16q47 0 76 31t34 90h-2q-39 -28 -85 -28q-51 0 -85.5 30t-34.5 90q0 58 36 94t92 36q65 0 103.5 -47.5t38.5 -139.5q0 -96 -45 -152.5t-126 -56.5zM165 11q21 0 42 11t32 26q-1 51 -22 79.5t-55 28.5q-30 0 -47.5 -20t-17.5 -51
q0 -34 18 -54t50 -20z" />
    <glyph glyph-name="parenleftinferior" unicode="&#x208d;" horiz-adv-x="239" 
d="M160 -227q-103 93 -103 239t103 239l38 -31q-79 -85 -79 -208t79 -208z" />
    <glyph glyph-name="parenrightinferior" unicode="&#x208e;" horiz-adv-x="239" 
d="M41 -196q79 83 79 208t-79 208l39 31q102 -93 102 -239t-102 -239z" />
    <glyph glyph-name="Euro" unicode="&#x20ac;" 
d="M472 91l29 -58q-66 -43 -155 -43q-106 0 -168.5 60.5t-82.5 164.5h-71v55h63q-1 17 -1 52q0 30 3 62h-65v55h75q25 102 90 163.5t160 61.5q75 0 133 -33v-73q-65 38 -126 38q-68 0 -113.5 -42t-64.5 -115h270l-20 -55h-261q-3 -20 -3 -59q0 -36 2 -55h254l-20 -55h-223
q18 -73 61 -116.5t112 -43.5q60 0 122 36z" />
    <glyph glyph-name="afii61289" unicode="&#x2113;" horiz-adv-x="466" 
d="M18 147l-17 63q45 12 84 27v145q0 144 50 213t129 69q64 0 97.5 -39.5t33.5 -100.5q0 -91 -62.5 -179.5t-173.5 -144.5q4 -144 98 -144q56 0 112 45l33 -54q-71 -57 -153 -57q-71 0 -113.5 46.5t-48.5 131.5q-33 -12 -69 -21zM158 372v-99q81 48 121.5 115.5t40.5 137.5
q0 34 -15 55.5t-44 21.5q-45 0 -74 -57t-29 -174z" />
    <glyph glyph-name="afii61352" unicode="&#x2116;" horiz-adv-x="1042" 
d="M82 0v659h70l252 -378q46 -68 92 -146h3q-3 54 -3 118v406h73v-659h-61l-264 394l-89 139h-2q2 -70 2 -115v-418h-73zM662 140v51h308v-51h-308zM815 263q-70 0 -113.5 50t-43.5 124t43.5 124t114.5 50t114.5 -50t43.5 -124t-44 -124t-115 -50zM815 317q44 0 70.5 33.5
t26.5 86.5t-26.5 86.5t-69.5 33.5t-69 -33.5t-26 -86.5t26 -86.5t68 -33.5z" />
    <glyph glyph-name="uni2117" unicode="&#x2117;" horiz-adv-x="780" 
d="M390 -10q-143 0 -237.5 97t-94.5 240t94.5 240t237.5 97q142 0 237 -97t95 -240t-95 -240t-237 -97zM390 34q121 0 200.5 83.5t79.5 209.5t-79.5 209t-200.5 83t-200.5 -83t-79.5 -209t79.5 -209.5t200.5 -83.5zM291 132v388h105q64 0 100 -33t36 -90q0 -59 -37 -92.5
t-104 -33.5h-48v-139h-52zM343 317h51q84 0 84 78q0 79 -81 79h-54v-157z" />
    <glyph glyph-name="trademark" unicode="&#x2122;" horiz-adv-x="830" 
d="M135 264v345h-109v50h286l-14 -50h-104v-345h-59zM350 264v395h53l100 -149q29 -44 41 -70h3q16 33 41 70l99 149h54v-395h-59v222q0 54 4 83h-2q-21 -37 -36 -61l-87 -130h-31l-86 130q-15 22 -37 61h-2q4 -29 4 -83v-222h-59z" />
    <glyph glyph-name="estimated" unicode="&#x212e;" horiz-adv-x="754" 
d="M590 119h90q-103 -129 -304 -129q-146 0 -248.5 84.5t-102.5 226.5q0 143 103 226.5t252 83.5q86 0 154.5 -28t110.5 -74.5t63.5 -104t19.5 -119.5h-556v-160q32 -46 88 -71.5t121 -25.5q134 0 209 91zM172 324h414v152q-68 97 -206 97q-139 0 -208 -97v-152z" />
    <glyph glyph-name="onethird" unicode="&#x2153;" horiz-adv-x="861" 
d="M172 0l411 659h66l-412 -659h-65zM194 270v322l-119 -47l-23 48l154 65h50v-388h-62zM535 14l17 50q41 -19 85 -19q91 0 91 63q0 39 -41 52q-21 8 -64 8h-40v51h35q38 0 61 10q37 16 37 53q0 26 -18.5 39t-46.5 13q-41 0 -87 -21l-19 48q58 27 115 27q55 0 88 -27.5
t33 -71.5q0 -65 -69 -90v-2q38 -7 59.5 -31.5t21.5 -62.5q0 -48 -39 -79.5t-115 -31.5q-60 0 -104 22z" />
    <glyph glyph-name="twothirds" unicode="&#x2154;" horiz-adv-x="861" 
d="M181 0l411 659h66l-412 -659h-65zM35 270q2 53 23 94t48 64.5t54.5 43t46 40t18.5 43.5t-16.5 36.5t-44.5 13.5q-40 0 -95 -30l-21 48q63 36 123 36q57 0 88 -27.5t31 -73.5q0 -31 -16.5 -56t-41 -43l-49.5 -36t-46.5 -43t-27.5 -54h181v-56h-255zM535 14l17 50
q41 -19 85 -19q91 0 91 63q0 39 -41 52q-21 8 -64 8h-40v51h35q38 0 61 10q37 16 37 53q0 26 -18.5 39t-46.5 13q-41 0 -87 -21l-19 48q58 27 115 27q55 0 88 -27.5t33 -71.5q0 -65 -69 -90v-2q38 -7 59.5 -31.5t21.5 -62.5q0 -48 -39 -79.5t-115 -31.5q-60 0 -104 22z" />
    <glyph glyph-name="oneeighth" unicode="&#x215b;" horiz-adv-x="861" 
d="M159 0l411 659h66l-412 -659h-65zM183 270v322l-119 -47l-23 48l154 65h50v-388h-62zM647 -8q-62 0 -99 28t-37 78q0 72 73 98v2q-61 28 -61 88q0 46 35 74t92 28t91.5 -28t34.5 -74q0 -61 -60 -87v-2q75 -24 75 -95q0 -51 -40.5 -80.5t-103.5 -29.5zM649 45q31 0 54 15
t23 43q0 49 -86 70q-27 -7 -46 -24.5t-19 -44.5q0 -28 21.5 -43.5t52.5 -15.5zM657 220q55 21 55 65q0 21 -17 35.5t-45 14.5t-45 -13t-17 -36q0 -47 69 -66z" />
    <glyph glyph-name="threeeighths" unicode="&#x215c;" horiz-adv-x="861" 
d="M183 0l411 659h66l-412 -659h-65zM660 -8q-62 0 -99 28t-37 78q0 72 73 98v2q-61 28 -61 88q0 46 35 74t92 28t91.5 -28t34.5 -74q0 -61 -60 -87v-2q75 -24 75 -95q0 -51 -40.5 -80.5t-103.5 -29.5zM662 45q31 0 54 15t23 43q0 49 -86 70q-27 -7 -46 -24.5t-19 -44.5
q0 -28 21.5 -43.5t52.5 -15.5zM670 220q55 21 55 65q0 21 -17 35.5t-45 14.5t-45 -13t-17 -36q0 -47 69 -66zM49 285l17 50q41 -19 85 -19q91 0 91 63q0 39 -41 52q-21 8 -64 8h-40v51h35q38 0 61 10q37 16 37 53q0 26 -18.5 39t-46.5 13q-41 0 -87 -21l-19 48q58 27 115 27
q55 0 88 -27.5t33 -71.5q0 -65 -69 -90v-2q38 -7 59.5 -31.5t21.5 -62.5q0 -48 -39 -79.5t-115 -31.5q-60 0 -104 22z" />
    <glyph glyph-name="fiveeighths" unicode="&#x215d;" horiz-adv-x="861" 
d="M172 0l411 659h66l-412 -659h-65zM44 285l18 51q39 -20 82 -20q86 0 86 70q0 38 -33 55q-24 10 -73 10h-52v199h224l-14 -53h-149v-96h18q51 0 80 -13q64 -26 64 -101q0 -56 -39 -90t-111 -34q-60 0 -101 22zM659 -8q-62 0 -99 28t-37 78q0 72 73 98v2q-61 28 -61 88
q0 46 35 74t92 28t91.5 -28t34.5 -74q0 -61 -60 -87v-2q75 -24 75 -95q0 -51 -40.5 -80.5t-103.5 -29.5zM661 45q31 0 54 15t23 43q0 49 -86 70q-27 -7 -46 -24.5t-19 -44.5q0 -28 21.5 -43.5t52.5 -15.5zM669 220q55 21 55 65q0 21 -17 35.5t-45 14.5t-45 -13t-17 -36
q0 -47 69 -66z" />
    <glyph glyph-name="seveneighths" unicode="&#x215e;" horiz-adv-x="861" 
d="M158 0l411 659h66l-412 -659h-65zM648 -8q-62 0 -99 28t-37 78q0 72 73 98v2q-61 28 -61 88q0 46 35 74t92 28t91.5 -28t34.5 -74q0 -61 -60 -87v-2q75 -24 75 -95q0 -51 -40.5 -80.5t-103.5 -29.5zM650 45q31 0 54 15t23 43q0 49 -86 70q-27 -7 -46 -24.5t-19 -44.5
q0 -28 21.5 -43.5t52.5 -15.5zM658 220q55 21 55 65q0 21 -17 35.5t-45 14.5t-45 -13t-17 -36q0 -47 69 -66zM130 270q42 184 150 327h-174l-14 53h270v-32q-122 -146 -163 -348h-69z" />
    <glyph glyph-name="partialdiff" unicode="&#x2202;" horiz-adv-x="507" 
d="M209 -10q-81 0 -130 53t-49 141q0 102 65 169t168 67q71 0 124 -30l1 1q-8 97 -54 154.5t-121 57.5q-63 0 -129 -33l-22 54q72 40 154 40q122 0 186.5 -86t64.5 -225q0 -165 -72 -264t-186 -99zM216 52q70 0 120.5 72t54.5 202q-55 32 -120 32q-75 0 -120 -47.5
t-45 -125.5q0 -62 30 -97.5t80 -35.5z" />
    <glyph glyph-name="Delta" unicode="&#x2206;" horiz-adv-x="609" 
d="M19 0l255 661h61l255 -661h-571zM278 481l-156 -418h364l-154 417q-17 44 -26 85h-1q-9 -33 -27 -84z" />
    <glyph glyph-name="product" unicode="&#x220f;" horiz-adv-x="635" 
d="M108 -180v776h-88v63h611l-23 -63h-87v-776h-74v776h-266v-776h-73z" />
    <glyph glyph-name="summation" unicode="&#x2211;" horiz-adv-x="573" 
d="M23 -180l267 429l-251 410h513l-22 -63h-364l210 -346l-226 -367h394v-63h-521z" />
    <glyph glyph-name="minus" unicode="&#x2212;" 
d="M25 222v63h473v-63h-473z" />
    <glyph glyph-name="radical" unicode="&#x221a;" horiz-adv-x="657" 
d="M318 -122l-154 447l-88 -35l-22 59l159 62l106 -321q14 -44 37 -130h2q15 67 31 127l199 740h74l-262 -949h-82z" />
    <glyph glyph-name="infinity" unicode="&#x221e;" horiz-adv-x="768" 
d="M194 101q-74 0 -119 48t-45 117t45 117t119 48q56 0 99.5 -30t88.5 -85q46 55 90 85t102 30q74 0 119 -48t45 -117t-45 -117t-119 -48q-58 0 -102 30t-90 85q-47 -55 -90 -85t-98 -30zM199 168q40 0 73 25t72 73q-39 48 -72 73.5t-73 25.5q-42 0 -68 -27t-26 -72
q0 -44 26 -71t68 -27zM569 168q42 0 68 27t26 71q0 45 -26 72t-68 27q-40 0 -72.5 -25t-73.5 -74q40 -48 73 -73t73 -25z" />
    <glyph glyph-name="integral" unicode="&#x222b;" horiz-adv-x="304" 
d="M-39 -222l16 61q25 -11 52 -11q68 0 68 85v643q0 80 40 116t97 36q39 0 72 -15l-15 -61q-25 11 -52 11q-69 0 -69 -85v-643q0 -80 -39.5 -116t-96.5 -36q-38 0 -73 15z" />
    <glyph glyph-name="approxequal" unicode="&#x2248;" 
d="M68 123l-41 44q64 65 129 65q36 0 111 -30.5t102 -30.5q24 0 42 10t44 34l41 -44q-64 -65 -129 -65q-34 0 -110.5 30.5t-102.5 30.5q-24 0 -41.5 -10t-44.5 -34zM68 295l-41 44q63 64 129 64q36 0 111 -30.5t102 -30.5q24 0 41.5 10t44.5 34l41 -44q-63 -64 -129 -64
q-34 0 -110.5 30.5t-102.5 30.5q-24 0 -41.5 -10t-44.5 -34z" />
    <glyph glyph-name="notequal" unicode="&#x2260;" 
d="M121 34l50 103h-146v63h177l51 107h-228v62h259l48 98h73l-48 -98h141v-62h-172l-52 -107h224v-63h-255l-50 -103h-72z" />
    <glyph glyph-name="lessequal" unicode="&#x2264;" 
d="M48 270v68l418 156v-65l-341 -124v-2l341 -124v-66zM25 0v63h473v-63h-473z" />
    <glyph glyph-name="greaterequal" unicode="&#x2265;" 
d="M58 113v66l341 124v2l-341 124v65l418 -156v-68zM25 0v63h474v-63h-474z" />
    <glyph glyph-name="lozenge" unicode="&#x25ca;" horiz-adv-x="471" 
d="M199 0l-140 289l140 289h73l141 -289l-141 -289h-73zM236 63h2l107 226l-108 226h-2l-109 -226z" />
    <glyph glyph-name="Imacron" horiz-adv-x="246" 
d="M86 0v659h74v-659h-74zM-2 717v59h248v-59h-248z" />
    <glyph glyph-name="F.small" horiz-adv-x="427" 
d="M86 0v530h300l-24 -61h-203v-178h199v-59h-199v-232h-73z" />
    <glyph glyph-name="D.small" horiz-adv-x="563" 
d="M86 0v530h142q142 0 215 -69.5t73 -193.5q0 -122 -75.5 -194.5t-211.5 -72.5h-143zM159 61h74q107 0 157 56.5t50 150.5q0 95 -52 148t-158 53h-71v-408z" />
    <glyph glyph-name="P.small" horiz-adv-x="444" 
d="M86 0v530h133q87 0 136 -45t49 -123q0 -79 -50.5 -125.5t-143.5 -46.5h-51v-190h-73zM159 249h57q57 0 85.5 29.5t28.5 81.5q0 51 -28 80.5t-85 29.5h-58v-221z" />
    <glyph glyph-name="ibreve" horiz-adv-x="225" 
d="M186 666h53q-4 -56 -37.5 -89t-88.5 -33t-87.5 33t-36.5 89h53q12 -69 72 -69q62 0 72 69zM76 0v473h73v-473h-73z" />
    <glyph glyph-name="Aacute.small" horiz-adv-x="495" 
d="M214 566l58 147h83l-85 -147h-56zM12 0l210 534h51l210 -534h-77l-49 129h-221l-47 -129h-77zM159 188h176l-53 144q-14 34 -34 94h-2q-23 -68 -34 -95z" />
    <glyph glyph-name="Agrave.small" horiz-adv-x="495" 
d="M222 566l-86 147h87l58 -147h-59zM12 0l210 534h51l210 -534h-77l-49 129h-221l-47 -129h-77zM159 188h176l-53 144q-14 34 -34 94h-2q-23 -68 -34 -95z" />
    <glyph glyph-name="Z.small" horiz-adv-x="465" 
d="M40 0l277 469h-245l-22 61h379l-275 -469h278v-61h-392z" />
    <glyph glyph-name="Y.small" horiz-adv-x="447" 
d="M221 278h2l46 87l89 165h78l-178 -315v-215h-73v215l-173 315h78l86 -164l22.5 -44z" />
    <glyph glyph-name="X.small" horiz-adv-x="496" 
d="M25 530h83l144 -208l145 208h82l-184 -262l189 -268h-82l-152 220l-156 -220h-82l196 270z" />
    <glyph glyph-name="W.small" horiz-adv-x="725" 
d="M502 113h2q12 46 35 118l98 299h77l-183 -532h-53l-74 219q-19 57 -34 107h-2q-21 -66 -37 -108l-81 -218h-52l-186 532h78l102 -300q20 -58 36 -117h2q14 53 38 117l67 184l-38 116h73l98 -297q19 -59 34 -120z" />
    <glyph glyph-name="V.small" horiz-adv-x="511" 
d="M254 101h2l25 65l23 60l120 304h76l-220 -532h-50l-218 532h76l118 -302z" />
    <glyph glyph-name="U.small" horiz-adv-x="586" 
d="M504 530v-335q0 -104 -58.5 -155t-155.5 -51q-95 0 -151.5 51t-56.5 154v336h73v-333q0 -75 36.5 -110.5t101.5 -35.5q64 0 101 36t37 110v333h73z" />
    <glyph glyph-name="T.small" horiz-adv-x="430" 
d="M180 0v469h-164v61h415l-24 -61h-154v-469h-73z" />
    <glyph glyph-name="S.small" horiz-adv-x="414" 
d="M44 27l26 56q55 -32 117 -32q44 0 76.5 22t32.5 64q0 31 -17.5 54t-43.5 35.5l-56.5 28t-56.5 31.5t-43.5 45t-17.5 69q0 61 43.5 100.5t118.5 39.5q69 0 123 -25v-64q-58 28 -118 28q-38 0 -65 -18.5t-27 -55.5q0 -33 24.5 -55.5t59 -37.5t69 -32.5t59 -51.5t24.5 -84
q0 -73 -52 -113.5t-130 -40.5q-84 0 -146 37z" />
    <glyph glyph-name="R.small" horiz-adv-x="480" 
d="M305 236v-2q26 -18 68 -84l93 -150h-82l-86 141q-36 60 -62 71h-77v-212h-73v530h140q94 0 138.5 -44t44.5 -109q0 -49 -26.5 -86.5t-77.5 -54.5zM159 272h75q47 0 74.5 27t27.5 72t-27.5 72t-80.5 27h-69v-198z" />
    <glyph glyph-name="Q.small" horiz-adv-x="620" 
d="M246 -2q-89 21 -144 93t-55 174q0 121 75 198t188 77t188 -77.5t75 -197.5q0 -112 -67 -188t-169 -85v-2q42 -57 130 -57q29 0 53 8l17 -58q-33 -11 -78 -11q-135 0 -213 126zM310 52q82 0 134.5 58.5t52.5 154.5t-52.5 154.5t-134.5 58.5t-134.5 -58.5t-52.5 -154.5
t52.5 -154.5t134.5 -58.5z" />
    <glyph glyph-name="O.small" horiz-adv-x="620" 
d="M310 52q82 0 134.5 58.5t52.5 154.5t-52.5 154.5t-134.5 58.5t-134.5 -58.5t-52.5 -154.5t52.5 -154.5t134.5 -58.5zM310 540q113 0 188 -77.5t75 -197.5t-75 -197.5t-188 -77.5t-188 77.5t-75 197.5q0 121 75 198t188 77z" />
    <glyph glyph-name="N.small" horiz-adv-x="636" 
d="M476 112h2q-2 56 -2 115v303h73v-530h-63l-240 305q-57 71 -87 118h-1q1 -33 1 -115v-308h-73v530h68l235 -300q50 -62 87 -118z" />
    <glyph glyph-name="M.small" horiz-adv-x="696" 
d="M86 0v530h66l126 -193q52 -80 69 -109h2q17 29 69 109l125 193h67v-530h-74v303q0 71 3 107h-2l-61 -97l-109 -169h-38l-109 169q-17 25 -61 97h-2q2 -24 2 -107v-303h-73z" />
    <glyph glyph-name="L.small" horiz-adv-x="376" 
d="M86 0v530h73v-469h209v-61h-282z" />
    <glyph glyph-name="K.small" horiz-adv-x="474" 
d="M86 0v530h73v-249h2l201 249h80l-216 -268l237 -262h-88l-214 236h-2v-236h-73z" />
    <glyph glyph-name="J.small" horiz-adv-x="265" 
d="M-27 -120l13 60q19 -6 40 -6q46 0 62.5 26t16.5 77v493h73v-507q0 -152 -147 -152q-36 0 -58 9z" />
    <glyph glyph-name="I.small" horiz-adv-x="245" 
d="M86 0v530h73v-530h-73z" />
    <glyph glyph-name="H.small" horiz-adv-x="600" 
d="M86 0v530h73v-230h281v230h74v-530h-74v238h-281v-238h-73z" />
    <glyph glyph-name="G.small" horiz-adv-x="559" 
d="M482 250v-227q-73 -33 -164 -33q-121 0 -196 74.5t-75 193.5q0 123 77 202.5t203 79.5q74 0 139 -28v-65q-59 31 -132 31q-102 0 -156.5 -62.5t-54.5 -150.5q0 -99 54.5 -156t139.5 -57q48 0 92 14v184h73z" />
    <glyph glyph-name="E.small" horiz-adv-x="441" 
d="M86 0v530h300l-24 -60h-203v-172h199v-59h-199v-179h218v-60h-291z" />
    <glyph glyph-name="C.small" horiz-adv-x="492" 
d="M441 88l22 -56q-71 -42 -157 -42q-117 0 -188 74t-71 193q0 125 76 204t193 79q72 0 130 -29v-63q-57 30 -122 30q-89 0 -145 -60.5t-56 -155.5q0 -97 52 -153.5t134 -56.5q74 0 132 36z" />
    <glyph glyph-name="B.small" horiz-adv-x="481" 
d="M329 278v-2q48 -11 76.5 -43.5t28.5 -82.5q0 -62 -46 -106t-144 -44h-158v530h157q76 0 118 -40t42 -97q0 -79 -74 -115zM159 58h82q117 0 117 93q0 43 -27.5 66t-78.5 23h-93v-182zM159 297h74q46 0 71.5 25t25.5 64q0 37 -25 61.5t-72 24.5h-74v-175z" />
    <glyph glyph-name="A.small" horiz-adv-x="495" 
d="M12 0l210 534h51l210 -534h-77l-49 129h-221l-47 -129h-77zM159 188h176l-53 144q-14 34 -34 94h-2q-23 -68 -34 -95z" />
    <glyph glyph-name="dollar.OP" horiz-adv-x="516" 
d="M223 -62v76q-72 4 -128 35l23 55q54 -30 122 -30q46 0 77 17t31 55q0 31 -24.5 52.5t-60 34.5t-70.5 28.5t-59.5 44.5t-24.5 72q0 48 33 81t93 41v72h58v-71q49 -2 103 -21v-65q-57 27 -120 27q-39 0 -66.5 -14t-27.5 -46q0 -24 17.5 -42t44.5 -28t57.5 -23.5t57.5 -28
t44.5 -42.5t17.5 -66q0 -58 -38 -92.5t-101 -43.5v-78h-59z" />
    <glyph glyph-name="Euro.OP" horiz-adv-x="516" 
d="M438 82l25 -55q-62 -37 -135 -37q-80 0 -136 44.5t-76 127.5h-61v52h53q-2 24 -2 36q0 22 3 45h-54v52h63q23 83 81 127.5t133 44.5q69 0 119 -28v-65q-58 32 -115 32q-48 0 -85.5 -28.5t-55.5 -82.5h225l-20 -52h-217q-3 -21 -3 -42q0 -24 2 -39h216l-20 -52h-185
q17 -55 54 -83t85 -28q56 0 106 31z" />
    <glyph glyph-name="nine.OP" horiz-adv-x="534" 
d="M133 -137q84 31 158.5 97.5t95.5 162.5l-2 1q-67 -52 -146 -52t-134 52.5t-55 149.5q0 99 59.5 159.5t153.5 60.5q91 0 152.5 -68.5t61.5 -192.5q0 -152 -86 -263.5t-234 -164.5zM253 134q76 0 144 60q3 15 3 43q0 93 -40.5 144t-97.5 51q-62 0 -99 -42.5t-37 -111.5
q0 -66 34 -105t93 -39z" />
    <glyph glyph-name="eight.OP" horiz-adv-x="541" 
d="M265 -10q-101 0 -158.5 48t-57.5 130q0 64 36.5 108.5t93.5 63.5v2q-110 47 -110 150q0 76 55.5 124t147.5 48q91 0 143.5 -49t52.5 -118q0 -107 -108 -155v-2q132 -49 132 -166q0 -81 -62 -132.5t-165 -51.5zM269 52q60 0 102.5 31t42.5 87q0 25 -10 45.5t-23.5 34
t-38 25.5t-44 19t-50.5 16q-50 -16 -85.5 -49.5t-35.5 -83.5q0 -61 40.5 -93t101.5 -32zM289 369q101 37 101 123q0 48 -32.5 79.5t-87.5 31.5q-54 0 -88.5 -28.5t-34.5 -75.5q0 -54 38 -83t104 -47z" />
    <glyph glyph-name="seven.OP" horiz-adv-x="451" 
d="M82 -196q32 176 100.5 338t153.5 284h-300l-17 60h412v-31q-200 -277 -267 -624z" />
    <glyph glyph-name="six.OP" horiz-adv-x="534" 
d="M269 -10q-91 0 -151.5 68.5t-60.5 203.5q0 157 94 270t252 146l13 -62q-104 -21 -178 -88t-94 -172l1 -1q71 57 153 57q79 0 132.5 -52t53.5 -149q0 -100 -60 -160.5t-155 -60.5zM274 52q60 0 97 42.5t37 113.5q0 64 -33.5 102.5t-90.5 38.5q-78 0 -149 -65q-2 -8 -2 -32
q0 -97 41 -148.5t100 -51.5z" />
    <glyph glyph-name="five.OP" horiz-adv-x="466" 
d="M22 -177l17 61q48 -17 103 -17q88 0 140.5 43t52.5 116q0 70 -46 99q-43 29 -144 29h-60l30 332h324l-16 -60h-241l-19 -214h21q94 0 146 -30q81 -46 81 -151q0 -41 -13.5 -78t-42.5 -72t-83.5 -55.5t-128.5 -20.5q-71 0 -121 18z" />
    <glyph glyph-name="four.OP" horiz-adv-x="516" 
d="M32 0v48l303 438h56v-426h94v-60h-94v-172l-73 -23v195h-286zM109 59q13 0 42 0.5t42 0.5h125v159q0 85 5 150z" />
    <glyph glyph-name="three.OP" horiz-adv-x="500" 
d="M32 -178l17 60q44 -15 110 -15q83 0 137.5 36t54.5 111q0 113 -163 113h-85v59h20q55 0 95 10q118 30 118 129q0 52 -33 79.5t-79 27.5q-67 0 -149 -44l-26 53q86 53 181 53q82 0 132 -45.5t50 -115.5q0 -61 -32 -102t-78 -58v-2q61 -11 93 -53.5t32 -101.5
q0 -28 -6.5 -54.5t-25.5 -56t-48 -51t-78 -35.5t-112 -14q-80 0 -125 17z" />
    <glyph glyph-name="two.OP" horiz-adv-x="485" 
d="M55 0q6 59 29 105t53 72t64 50t62 40.5t46.5 40.5t18.5 53q0 32 -25.5 51.5t-69.5 19.5q-73 0 -144 -44l-25 54q79 52 180 52q75 0 117.5 -36t42.5 -97q0 -40 -23 -72.5t-57.5 -56l-69.5 -46t-65 -55t-39 -71.5h264v-60h-359z" />
    <glyph glyph-name="one.OP" horiz-adv-x="409" 
d="M212 0v411l-140 -69l-24 56l176 88h60v-486h-72z" />
    <glyph glyph-name="zero.OP" horiz-adv-x="516" 
d="M258 -10q-94 0 -150.5 70.5t-56.5 182.5t56.5 181.5t150.5 69.5t150.5 -69.5t56.5 -181.5t-56.5 -182.5t-150.5 -70.5zM258 52q66 0 98.5 52t32.5 139t-32.5 138t-98.5 51t-98.5 -51t-32.5 -138t32.5 -139t98.5 -52z" />
    <glyph glyph-name="yen.LT" 
d="M225 0v123h-156v55h156v84h-156v55h131l-164 342h79l146 -323h1l145 323h79l-164 -342h131v-55h-155v-84h155v-55h-155v-123h-73z" />
    <glyph glyph-name="sterling.LT" 
d="M69 0v53q37 18 58.5 68.5t27 94t5.5 90.5h-79v62h79v87q0 51 13.5 89.5t33.5 60.5t47 36t50 18.5t47 4.5q56 0 109 -19l-15 -60q-43 16 -86 16q-54 0 -90 -35.5t-36 -117.5v-80h191l-22 -62h-169q0 -176 -69 -246v-2q62 4 98 4h196v-62h-389z" />
    <glyph glyph-name="dollar.LT" 
d="M220 -80v98q-80 5 -145 46l30 56q61 -41 133 -41q48 0 84.5 22.5t36.5 70.5q0 40 -28 71t-67.5 53l-79 46t-67.5 62.5t-28 88.5q0 58 38.5 101.5t107.5 51.5v94h60v-93q64 -5 113 -28v-65q-64 33 -134 33q-49 0 -79.5 -23t-30.5 -67q0 -37 28 -66.5t68 -51.5t79.5 -46
t67.5 -63.5t28 -91.5q0 -64 -40.5 -105.5t-114.5 -53.5v-99h-60z" />
    <glyph glyph-name="Euro.LT" 
d="M472 91l29 -58q-66 -43 -155 -43q-106 0 -168.5 60.5t-82.5 164.5h-71v55h63q-1 17 -1 52q0 30 3 62h-65v55h75q25 102 90 163.5t160 61.5q75 0 133 -33v-73q-65 38 -126 38q-68 0 -113.5 -42t-64.5 -115h270l-20 -55h-261q-3 -20 -3 -59q0 -36 2 -55h254l-20 -55h-223
q18 -73 61 -116.5t112 -43.5q60 0 122 36z" />
    <glyph glyph-name="nine.LT" 
d="M203 -10q-73 0 -137 27l20 62q55 -26 118 -26q89 0 141 65.5t59 186.5h-2q-69 -60 -158 -60q-79 0 -137.5 50.5t-58.5 152.5q0 95 58 155.5t149 60.5q104 0 164.5 -79t60.5 -232q0 -170 -71.5 -266.5t-205.5 -96.5zM259 308q42 0 81.5 21t62.5 52q-1 101 -41.5 161
t-108.5 60q-58 0 -93 -42t-35 -106q0 -68 35 -107t99 -39z" />
    <glyph glyph-name="eight.LT" 
d="M266 -10q-101 0 -158.5 48t-57.5 130q0 64 36.5 108t92.5 64v2q-109 48 -109 150q0 76 55.5 124t147.5 48q91 0 143.5 -49t52.5 -118q0 -107 -108 -155v-2q131 -48 131 -166q0 -81 -61.5 -132.5t-164.5 -51.5zM270 52q60 0 102.5 31t42.5 87q0 25 -10 45.5t-23.5 34
t-38 25.5t-44 19t-50.5 16q-51 -16 -86.5 -49.5t-35.5 -83.5q0 -61 41 -93t102 -32zM290 369q101 37 101 123q0 48 -32.5 79.5t-87.5 31.5q-54 0 -88.5 -28.5t-34.5 -75.5q0 -54 38 -83t104 -47z" />
    <glyph glyph-name="seven.LT" 
d="M139 0q61 325 257 596h-299l-17 63h413v-31q-214 -285 -276 -628h-78z" />
    <glyph glyph-name="six.LT" 
d="M278 -10q-100 0 -165 79.5t-65 231.5q0 154 76.5 258.5t204.5 104.5q66 0 120 -25l-21 -60q-47 22 -97 22q-82 0 -138 -64.5t-67 -177.5q79 50 163 50q86 0 141.5 -53.5t55.5 -148.5q0 -100 -58 -158.5t-150 -58.5zM277 53q62 0 97 38t35 109q0 68 -36.5 107t-94.5 39
q-79 0 -152 -54q-1 -107 41 -173t110 -66z" />
    <glyph glyph-name="five.LT" 
d="M62 18l20 60q55 -24 121 -24q76 0 123.5 37t47.5 106q0 89 -82 119q-35 14 -114 14h-72v329h345l-17 -63h-256v-204h26q74 0 118 -15q129 -44 129 -178q0 -92 -63 -150.5t-187 -58.5q-83 0 -139 28z" />
    <glyph glyph-name="sterling.OP" horiz-adv-x="516" 
d="M89 0v49q65 33 68 184h-60v56h60v65q0 75 47 120t124 45q52 0 104 -18l-13 -61q-42 17 -86 17q-43 0 -73 -25t-30 -84v-59h171l-21 -56h-150q-3 -117 -45 -174v-2q20 1 68 1h177v-58h-341z" />
    <glyph glyph-name="yen.OP" horiz-adv-x="516" 
d="M222 0v91h-121v54h121v62h-121v55h92l-131 248h76l120 -234h1l119 234h76l-131 -248h92v-55h-121v-62h121v-54h-121v-91h-72z" />
    <glyph glyph-name="zero.OT" horiz-adv-x="516" 
d="M258 -10q-94 0 -151 70.5t-57 182.5t57 181.5t151 69.5t151 -69.5t57 -181.5t-57 -182.5t-151 -70.5zM258 52q66 0 99 52t33 139q0 86 -33 137.5t-99 51.5t-99 -51.5t-33 -137.5q0 -87 33 -139t99 -52z" />
    <glyph glyph-name="one.OT" horiz-adv-x="516" 
d="M287 0v411l-167 -78l-24 56l203 97h61v-486h-73z" />
    <glyph glyph-name="two.OT" horiz-adv-x="516" 
d="M74 0q6 59 29 105t53 72t64 50t62 40.5t46.5 40.5t18.5 53q0 32 -25.5 51.5t-69.5 19.5q-73 0 -144 -44l-25 54q79 52 180 52q75 0 117.5 -36t42.5 -97q0 -40 -23 -72.5t-57.5 -56l-69.5 -46t-65 -55t-39 -71.5h264v-60h-359z" />
    <glyph glyph-name="three.OT" horiz-adv-x="516" 
d="M47 -178l16 60q44 -15 111 -15q83 0 137.5 36t54.5 111q0 113 -164 113h-85v59h20q55 0 96 10q117 29 117 129q0 52 -32.5 79.5t-78.5 27.5q-66 0 -150 -44l-26 53q88 53 182 53q82 0 131.5 -45.5t49.5 -115.5q0 -60 -32 -101.5t-77 -58.5v-2q61 -11 93 -53.5t32 -101.5
q0 -36 -12 -69.5t-40 -67t-84.5 -54t-134.5 -20.5q-79 0 -124 17z" />
    <glyph glyph-name="four.OT" horiz-adv-x="516" 
d="M32 0v48l303 438h56v-426h94v-60h-94v-172l-73 -23v195h-286zM109 59q13 0 42 0.5t42 0.5h125v159q0 85 5 150z" />
    <glyph glyph-name="five.OT" horiz-adv-x="516" 
d="M42 -177l17 61q48 -17 103 -17q87 0 139.5 43t52.5 116q0 70 -46 99q-44 29 -144 29h-60l30 332h324l-15 -60h-241l-19 -214h21q94 0 146 -30q80 -46 80 -151q0 -41 -13.5 -78t-42.5 -72t-83.5 -55.5t-128.5 -20.5q-70 0 -120 18z" />
    <glyph glyph-name="six.OT" horiz-adv-x="516" 
d="M262 -10q-91 0 -151.5 68.5t-60.5 203.5q0 157 94 270t252 146l13 -62q-104 -21 -177.5 -88t-94.5 -172l1 -1q71 57 153 57q79 0 133 -52t54 -149q0 -100 -60.5 -160.5t-155.5 -60.5zM268 52q60 0 97 42.5t37 113.5q0 64 -33.5 102.5t-91.5 38.5q-78 0 -149 -65
q0 -1 -0.5 -13.5t-0.5 -18.5q0 -97 40.5 -148.5t100.5 -51.5z" />
    <glyph glyph-name="seven.OT" horiz-adv-x="516" 
d="M125 -196q32 174 102 335.5t156 286.5h-303l-16 60h415v-31q-207 -287 -272 -624z" />
    <glyph glyph-name="eight.OT" horiz-adv-x="516" 
d="M256 -10q-101 0 -158.5 48t-57.5 130q0 64 36 108.5t93 63.5v2q-109 48 -109 150q0 76 55.5 124t146.5 48q92 0 144 -49t52 -118q0 -107 -108 -155v-2q132 -49 132 -166q0 -81 -61.5 -132.5t-164.5 -51.5zM259 52q61 0 103.5 31t42.5 87q0 31 -13 54.5t-40 39.5t-50.5 25
t-62.5 21q-51 -16 -86.5 -49.5t-35.5 -83.5q0 -61 40.5 -93t101.5 -32zM280 369q101 37 101 123q0 48 -32.5 79.5t-88.5 31.5q-53 0 -88 -28.5t-35 -75.5q0 -54 38 -83t105 -47z" />
    <glyph glyph-name="nine.OT" horiz-adv-x="516" 
d="M122 -137q84 31 158.5 97.5t95.5 162.5l-2 1q-67 -52 -146 -52t-134 52.5t-55 149.5q0 99 59.5 159.5t153.5 60.5q92 0 153 -68.5t61 -192.5q0 -152 -86 -263.5t-234 -164.5zM242 134q76 0 144 60q3 15 3 43q0 93 -40.5 144t-97.5 51q-62 0 -99 -42.5t-37 -111.5
q0 -66 34 -105t93 -39z" />
    <glyph glyph-name="Euro.OT" horiz-adv-x="516" 
d="M438 82l25 -55q-62 -37 -135 -37q-80 0 -136 44.5t-76 127.5h-61v52h53q-2 24 -2 36q0 22 3 45h-54v52h63q23 83 81 127.5t133 44.5q69 0 119 -28v-65q-58 32 -115 32q-48 0 -85.5 -28.5t-55.5 -82.5h225l-20 -52h-217q-3 -21 -3 -42q0 -24 2 -39h216l-20 -52h-185
q17 -55 54 -83t85 -28q56 0 106 31z" />
    <glyph glyph-name="dollar.OT" horiz-adv-x="516" 
d="M223 -62v76q-72 4 -128 35l23 55q54 -30 122 -30q46 0 77 17t31 55q0 31 -24.5 52.5t-60 34.5t-70.5 28.5t-59.5 44.5t-24.5 72q0 48 33 81t93 41v72h58v-71q49 -2 103 -21v-65q-57 27 -120 27q-39 0 -66.5 -14t-27.5 -46q0 -24 17.5 -42t44.5 -28t57.5 -23.5t57.5 -28
t44.5 -42.5t17.5 -66q0 -58 -38 -92.5t-101 -43.5v-78h-59z" />
    <glyph glyph-name="sterling.OT" horiz-adv-x="516" 
d="M89 0v49q65 33 68 184h-60v56h60v65q0 75 47 120t124 45q52 0 104 -18l-13 -61q-42 17 -86 17q-43 0 -73 -25t-30 -84v-59h171l-21 -56h-150q-3 -117 -45 -174v-2q20 1 68 1h177v-58h-341z" />
    <glyph glyph-name="yen.OT" horiz-adv-x="516" 
d="M222 0v91h-121v54h121v62h-121v55h92l-131 248h76l120 -234h1l119 234h76l-131 -248h92v-55h-121v-62h121v-54h-121v-91h-72z" />
    <glyph glyph-name="zero.small" horiz-adv-x="468" 
d="M232 -10q-86 0 -137.5 73t-51.5 202t51.5 202t137.5 73t137.5 -73t51.5 -202t-51.5 -202t-137.5 -73zM232 52q53 0 83 56.5t30 156.5t-30 156.5t-83 56.5t-83.5 -56.5t-30.5 -156.5t30.5 -156.5t83.5 -56.5z" />
    <glyph glyph-name="one.small" horiz-adv-x="347" 
d="M175 0v456l-125 -62l-26 58l168 82h56v-534h-73z" />
    <glyph glyph-name="two.small" horiz-adv-x="427" 
d="M371 0h-340q7 79 36.5 137.5t67.5 90t74.5 56.5t61.5 53t25 63q0 38 -25.5 58t-66.5 20q-67 0 -133 -38l-24 57q80 43 161 43q79 0 121.5 -38.5t42.5 -98.5q0 -45 -22 -78.5t-55.5 -57.5l-68.5 -48.5t-65.5 -65t-42.5 -93.5h253v-60z" />
    <glyph glyph-name="three.small" horiz-adv-x="437" 
d="M277 276v-2q47 -13 72.5 -45.5t25.5 -76.5q0 -70 -53 -116t-155 -46q-76 0 -143 29l20 58q58 -25 122 -25t98.5 27t34.5 72q0 89 -129 89h-76v60h67q123 0 123 93q0 38 -23 61.5t-70 23.5q-63 0 -131 -36l-23 56q77 42 159 42q79 0 121.5 -40.5t42.5 -100.5
q0 -85 -83 -123z" />
    <glyph glyph-name="four.small" horiz-adv-x="463" 
d="M40 136v50l256 348h55v-338h79v-60h-79v-136h-73v136h-238zM281 421l-165 -226q22 1 68 1h95v126q0 71 2 99z" />
    <glyph glyph-name="five.small" horiz-adv-x="426" 
d="M33 15l21 58q49 -21 104 -21q60 0 97 28t37 80q0 67 -66 89q-33 9 -86 9h-69v272h300l-18 -60h-210v-153h18q64 0 103 -13q104 -35 104 -143q0 -76 -53.5 -123.5t-156.5 -47.5q-68 0 -125 25z" />
    <glyph glyph-name="six.small" horiz-adv-x="450" 
d="M238 -10q-94 0 -144.5 70.5t-50.5 182.5q0 126 63.5 211.5t170.5 85.5q57 0 109 -22l-23 -57q-39 18 -83 18q-63 0 -108.5 -49.5t-53.5 -132.5q59 36 127 36q73 0 120.5 -44.5t47.5 -123.5t-49 -127t-126 -48zM238 51q47 0 73.5 29t26.5 82q0 50 -28.5 80t-72.5 30
q-62 0 -119 -38q-1 -45 10 -84.5t39.5 -69t70.5 -29.5z" />
    <glyph glyph-name="seven.small" horiz-adv-x="396" 
d="M142 0h-74q46 246 207 469h-241l-17 61h354v-32q-177 -225 -229 -498z" />
    <glyph glyph-name="eight.small" horiz-adv-x="462" 
d="M313 276v-2q104 -37 104 -132q0 -66 -52 -109t-138 -43q-83 0 -132.5 40.5t-49.5 106.5q0 50 29 85t74 53v2q-86 40 -86 121q0 61 47 101.5t124 40.5t120.5 -41.5t43.5 -98.5q0 -80 -84 -124zM230 50q46 0 80 24t34 65q0 75 -128 108q-40 -13 -68.5 -39.5t-28.5 -65.5
q0 -44 31 -68t80 -24zM136 399q0 -39 28 -61.5t78 -36.5q33 11 57 35.5t24 59.5q0 36 -25.5 60t-67.5 24q-39 0 -66.5 -22t-27.5 -59z" />
    <glyph glyph-name="nine.small" horiz-adv-x="445" 
d="M49 15l21 58q52 -22 99 -22q69 0 111.5 51t47.5 141q-55 -46 -126 -46q-66 0 -115 42t-49 123q0 78 48.5 128t124.5 50q88 0 139.5 -66t51.5 -190q0 -132 -60 -213t-173 -81q-64 0 -120 25zM215 258q69 0 112 54q0 77 -32 122t-84 45q-45 0 -72 -31.5t-27 -79.5
q0 -51 27 -80.5t76 -29.5z" />
    <glyph glyph-name="zero.LT" 
d="M259 -10q-100 0 -160 89t-60 249q0 161 60.5 248.5t161.5 87.5t162 -89t61 -250q0 -159 -61.5 -247t-163.5 -88zM263 54q73 0 108 73.5t35 193.5q0 133 -38.5 206.5t-108.5 73.5q-72 0 -107.5 -74t-35.5 -193q0 -133 39 -206.5t108 -73.5z" />
    <glyph glyph-name="one.LT" 
d="M287 0v584l-184 -89l-26 59l223 110h60v-664h-73z" />
    <glyph glyph-name="two.LT" 
d="M54 0q6 71 27 128.5t50 94.5t62.5 67.5t66 53t59 44.5t43 49.5t16.5 60.5q0 52 -33 77t-85 25q-80 0 -160 -44l-23 58q84 50 189 50q93 0 141.5 -45t48.5 -117q0 -47 -20.5 -85.5t-51.5 -63l-69 -54l-72 -58t-61 -75t-36 -103.5h309v-63h-401z" />
    <glyph glyph-name="three.LT" 
d="M49 22l21 61q66 -29 141 -29t123.5 33t48.5 99q0 88 -94 109q-31 7 -85 7h-72v63h61q92 0 132.5 34t40.5 90q0 51 -30.5 81t-90.5 30q-75 0 -157 -44l-23 58q90 50 185 50q93 0 142.5 -48.5t49.5 -121.5q0 -111 -106 -152v-2q58 -12 91.5 -51.5t33.5 -101.5
q0 -86 -64 -141.5t-187 -55.5q-90 0 -161 32z" />
    <glyph glyph-name="four.LT" 
d="M47 175v55l305 434h53v-427h90v-62h-90v-175h-73v175h-285zM125 236q11 0 39 0.5t41 0.5h127v158q0 61 5 149z" />
    <glyph glyph-name="Euro.small" horiz-adv-x="440" 
d="M397 80l25 -54q-61 -36 -134 -36q-80 0 -135 46.5t-74 132.5h-60v53h52q-5 42 1 83h-53v53h62q21 88 78.5 135t130.5 47q67 0 115 -26v-64q-55 28 -109 28q-47 0 -84 -30.5t-54 -89.5h216l-20 -53h-207q-5 -41 0 -83h204l-21 -53h-173q30 -117 134 -117q56 0 106 28z" />
    <glyph glyph-name="dollar.small" horiz-adv-x="441" 
d="M178 -65v80q-67 5 -119 38l28 54q56 -33 113 -33q41 0 67 17t26 53q0 30 -23 53.5t-55.5 40.5l-65 35.5t-55.5 48.5t-23 71q0 47 31 82.5t88 43.5v75h62v-74q57 -5 92 -23v-63q-57 27 -116 27q-37 0 -60.5 -16.5t-23.5 -48.5q0 -27 23 -49t55.5 -39.5l65.5 -37t56 -51
t23 -71.5q0 -54 -33 -88t-95 -44v-81h-61z" />
    <glyph glyph-name="sterling.small" horiz-adv-x="442" 
d="M53 0v52q75 36 75 189h-65v60h65v68q0 83 45.5 127t117.5 44q46 0 98 -18l-16 -58q-40 15 -75 15q-48 0 -73 -29.5t-25 -83.5v-65h158l-22 -60h-136q-2 -124 -53 -180v-2q10 0 38.5 0.5t45.5 0.5h156v-60h-334z" />
    <glyph glyph-name="yen.small" horiz-adv-x="438" 
d="M216 283h2l112 247h77l-131 -269h105v-53h-128v-62h128v-53h-128v-93h-72v93h-128v53h128v62h-128v53h105l-131 269h76z" />
    <glyph glyph-name="Acircumflex.small" horiz-adv-x="495" 
d="M12 0l210 534h51l210 -534h-77l-49 129h-221l-47 -129h-77zM159 188h176l-53 144q-14 34 -34 94h-2q-23 -68 -34 -95zM115 558l98 147h69l99 -147h-64l-69 100l-70 -100h-63z" />
    <glyph glyph-name="AE.small" horiz-adv-x="715" 
d="M12 0l282 530h366l-24 -60h-274l39 -172h231v-59h-218l42 -179h195v-60h-250l-29 129h-218l-67 -129h-75zM185 188h173l-32 145q-14 64 -18 93h-2q-30 -65 -46 -94z" />
    <glyph glyph-name="Atilde.small" horiz-adv-x="495" 
d="M109 589v22q0 35 20 56t51 21q30 0 72 -24t56 -24q26 0 26 42h53v-22q0 -35 -20 -56t-51 -21q-29 0 -71 24t-57 24q-26 0 -26 -42h-53zM12 0l210 534h51l210 -534h-77l-49 129h-221l-47 -129h-77zM159 188h176l-53 144q-14 34 -34 94h-2q-23 -68 -34 -95z" />
    <glyph glyph-name="AEacute.small" horiz-adv-x="715" 
d="M368 566l58 147h83l-85 -147h-56zM12 0l282 530h366l-24 -60h-274l39 -172h231v-59h-218l42 -179h195v-60h-250l-29 129h-218l-67 -129h-75zM185 188h173l-32 145q-14 64 -18 93h-2q-30 -65 -46 -94z" />
    <glyph glyph-name="Cacute.small" horiz-adv-x="492" 
d="M260 566l58 147h83l-85 -147h-56zM441 88l22 -56q-71 -42 -157 -42q-117 0 -188 74t-71 193q0 125 76 204t193 79q72 0 130 -29v-63q-57 30 -122 30q-89 0 -145 -60.5t-56 -155.5q0 -97 52 -153.5t134 -56.5q74 0 132 36z" />
    <glyph glyph-name="Ccircumflex.small" horiz-adv-x="492" 
d="M441 88l22 -56q-71 -42 -157 -42q-117 0 -188 74t-71 193q0 125 76 204t193 79q72 0 130 -29v-63q-57 30 -122 30q-89 0 -145 -60.5t-56 -155.5q0 -97 52 -153.5t134 -56.5q74 0 132 36zM157 566l98 147h69l99 -147h-64l-69 100l-70 -100h-63z" />
    <glyph glyph-name="Ccaron.small" horiz-adv-x="492" 
d="M253 567l-98 147h64l70 -100l69 100h63l-99 -147h-69zM441 88l22 -56q-71 -42 -157 -42q-117 0 -188 74t-71 193q0 125 76 204t193 79q72 0 130 -29v-63q-57 30 -122 30q-89 0 -145 -60.5t-56 -155.5q0 -97 52 -153.5t134 -56.5q74 0 132 36z" />
    <glyph glyph-name="Cdotaccent.small" horiz-adv-x="492" 
d="M441 88l22 -56q-71 -42 -157 -42q-117 0 -188 74t-71 193q0 125 76 204t193 79q72 0 130 -29v-63q-57 30 -122 30q-89 0 -145 -60.5t-56 -155.5q0 -97 52 -153.5t134 -56.5q74 0 132 36zM290 607q-21 0 -34.5 14t-13.5 35t13.5 35.5t34.5 14.5q22 0 36 -14t14 -36
q0 -21 -14 -35t-36 -14z" />
    <glyph glyph-name="Ccedilla.small" horiz-adv-x="492" 
d="M194 -200l14 43q21 -10 50 -10q53 0 53 39q0 17 -13.5 26t-29.5 10.5t-43 1.5l26 85q-94 16 -149 87t-55 175q0 125 76 204t193 79q72 0 130 -29v-63q-57 30 -122 30q-89 0 -145 -60.5t-56 -155.5q0 -97 52 -153.5t134 -56.5q74 0 132 36l22 -56q-69 -42 -153 -42
l-15 -44q82 -6 82 -72q0 -40 -32 -63t-84 -23q-37 0 -67 12z" />
    <glyph glyph-name="Dcaron.small" horiz-adv-x="563" 
d="M231 567l-98 147h64l70 -100l69 100h63l-99 -147h-69zM86 0v530h142q142 0 215 -69.5t73 -193.5q0 -122 -75.5 -194.5t-211.5 -72.5h-143zM159 61h74q107 0 157 56.5t50 150.5q0 95 -52 148t-158 53h-71v-408z" />
    <glyph glyph-name="Dcroat.small" horiz-adv-x="563" 
d="M86 0v238h-70v60h70v232h142q142 0 215 -69.5t73 -193.5q0 -122 -75.5 -194.5t-211.5 -72.5h-143zM159 61h74q107 0 157 56.5t50 150.5q0 95 -52 148t-158 53h-71v-171h137v-60h-137v-177z" />
    <glyph glyph-name="Egrave.small" horiz-adv-x="441" 
d="M210 566l-86 147h87l58 -147h-59zM86 0v530h300l-24 -60h-203v-172h199v-59h-199v-179h218v-60h-291z" />
    <glyph glyph-name="Eacute.small" horiz-adv-x="441" 
d="M192 566l58 147h83l-85 -147h-56zM86 0v530h300l-24 -60h-203v-172h199v-59h-199v-179h218v-60h-291z" />
    <glyph glyph-name="Ecircumflex.small" horiz-adv-x="441" 
d="M86 0v530h300l-24 -60h-203v-172h199v-59h-199v-179h218v-60h-291zM99 566l98 147h69l99 -147h-64l-69 100l-70 -100h-63z" />
    <glyph glyph-name="Adieresis.small" horiz-adv-x="495" 
d="M12 0l210 534h51l210 -534h-77l-49 129h-221l-47 -129h-77zM159 188h176l-53 144q-14 34 -34 94h-2q-23 -68 -34 -95zM157 588q-18 0 -30.5 12.5t-12.5 30.5q0 19 12.5 31.5t30.5 12.5t31 -12.5t13 -31.5q0 -18 -13 -30.5t-31 -12.5zM335 588q-18 0 -31 12.5t-13 30.5
q0 19 13 31.5t31 12.5t30.5 -12.5t12.5 -31.5q0 -18 -12.5 -30.5t-30.5 -12.5z" />
    <glyph glyph-name="Ecaron.small" horiz-adv-x="441" 
d="M193 567l-98 147h64l70 -100l69 100h63l-99 -147h-69zM86 0v530h300l-24 -60h-203v-172h199v-59h-199v-179h218v-60h-291z" />
    <glyph glyph-name="Amacron.small" horiz-adv-x="495" 
d="M123 609v59h248v-59h-248zM12 0l210 534h51l210 -534h-77l-49 129h-221l-47 -129h-77zM159 188h176l-53 144q-14 34 -34 94h-2q-23 -68 -34 -95z" />
    <glyph glyph-name="Abreve.small" horiz-adv-x="495" 
d="M319 701h53q-4 -56 -37.5 -89t-88.5 -33t-87.5 33t-36.5 89h53q12 -69 72 -69q62 0 72 69zM12 0l210 534h51l210 -534h-77l-49 129h-221l-47 -129h-77zM159 188h176l-53 144q-14 34 -34 94h-2q-23 -68 -34 -95z" />
    <glyph glyph-name="Edieresis.small" horiz-adv-x="441" 
d="M86 0v530h300l-24 -60h-203v-172h199v-59h-199v-179h218v-60h-291zM142 588q-18 0 -30.5 12.5t-12.5 30.5q0 19 12.5 31.5t30.5 12.5t31 -12.5t13 -31.5q0 -18 -13 -30.5t-31 -12.5zM320 588q-18 0 -31 12.5t-13 30.5q0 19 13 31.5t31 12.5t30.5 -12.5t12.5 -31.5
q0 -18 -12.5 -30.5t-30.5 -12.5z" />
    <glyph glyph-name="Emacron.small" horiz-adv-x="441" 
d="M108 609v59h248v-59h-248zM86 0v530h300l-24 -60h-203v-172h199v-59h-199v-179h218v-60h-291z" />
    <glyph glyph-name="Ebreve.small" horiz-adv-x="441" 
d="M304 701h53q-4 -56 -37.5 -89t-88.5 -33t-87.5 33t-36.5 89h53q12 -69 72 -69q62 0 72 69zM86 0v530h300l-24 -60h-203v-172h199v-59h-199v-179h218v-60h-291z" />
    <glyph glyph-name="Edotaccent.small" horiz-adv-x="441" 
d="M86 0v530h300l-24 -60h-203v-172h199v-59h-199v-179h218v-60h-291zM230 607q-21 0 -34.5 14t-13.5 35t13.5 35.5t34.5 14.5q22 0 36 -14t14 -36q0 -21 -14 -35t-36 -14z" />
    <glyph glyph-name="Eogonek.small" horiz-adv-x="441" 
d="M377 0h-19q-47 -23 -77 -55t-30 -66q0 -41 38 -41q13 0 38 7l11 -47q-36 -11 -62 -11q-42 0 -66 23t-24 57q0 75 89 133h-189v530h300l-24 -60h-203v-172h199v-59h-199v-179h218v-60z" />
    <glyph glyph-name="Gcircumflex.small" horiz-adv-x="559" 
d="M482 250v-227q-73 -33 -164 -33q-121 0 -196 74.5t-75 193.5q0 123 77 202.5t203 79.5q74 0 139 -28v-65q-59 31 -132 31q-102 0 -156.5 -62.5t-54.5 -150.5q0 -99 54.5 -156t139.5 -57q48 0 92 14v184h73zM162 566l98 147h69l99 -147h-64l-69 100l-70 -100h-63z" />
    <glyph glyph-name="Gbreve.small" horiz-adv-x="559" 
d="M366 701h53q-4 -56 -37.5 -89t-88.5 -33t-87.5 33t-36.5 89h53q12 -69 72 -69q62 0 72 69zM482 250v-227q-73 -33 -164 -33q-121 0 -196 74.5t-75 193.5q0 123 77 202.5t203 79.5q74 0 139 -28v-65q-59 31 -132 31q-102 0 -156.5 -62.5t-54.5 -150.5q0 -99 54.5 -156
t139.5 -57q48 0 92 14v184h73z" />
    <glyph glyph-name="Gdotaccent.small" horiz-adv-x="559" 
d="M482 250v-227q-73 -33 -164 -33q-121 0 -196 74.5t-75 193.5q0 123 77 202.5t203 79.5q74 0 139 -28v-65q-59 31 -132 31q-102 0 -156.5 -62.5t-54.5 -150.5q0 -99 54.5 -156t139.5 -57q48 0 92 14v184h73zM300 607q-21 0 -34.5 14t-13.5 35t13.5 35.5t34.5 14.5
q22 0 36 -14t14 -36q0 -21 -14 -35t-36 -14z" />
    <glyph glyph-name="Gcommaaccent.small" horiz-adv-x="559" 
d="M482 250v-227q-73 -33 -164 -33q-121 0 -196 74.5t-75 193.5q0 123 77 202.5t203 79.5q74 0 139 -28v-65q-59 31 -132 31q-102 0 -156.5 -62.5t-54.5 -150.5q0 -99 54.5 -156t139.5 -57q48 0 92 14v184h73zM242 -237l-20 48q71 20 71 71q0 29 -24 66h67q24 -30 24 -73
q0 -86 -118 -112z" />
    <glyph glyph-name="Hcircumflex.small" horiz-adv-x="600" 
d="M86 0v530h73v-230h281v230h74v-530h-74v238h-281v-238h-73zM168 566l98 147h69l99 -147h-64l-69 100l-70 -100h-63z" />
    <glyph glyph-name="Hbar.small" horiz-adv-x="600" 
d="M86 0v386h-53v55h53v89h73v-89h281v89h74v-89h53v-55h-53v-386h-74v238h-281v-238h-73zM159 300h281v86h-281v-86z" />
    <glyph glyph-name="Igrave.small" horiz-adv-x="245" 
d="M105 566l-86 147h87l58 -147h-59zM86 0v530h73v-530h-73z" />
    <glyph glyph-name="Aring.small" horiz-adv-x="495" 
d="M89 0h-77l209 532q-34 6 -55.5 31t-21.5 62q0 43 28.5 69t74.5 26t74.5 -26t28.5 -69q0 -37 -21 -61.5t-55 -31.5l209 -532h-77l-49 129h-221zM248 426h-2q-23 -68 -34 -95l-53 -143h176l-53 144q-14 34 -34 94zM247 570q23 0 36.5 15t13.5 40t-13.5 39.5t-36.5 14.5
q-22 0 -35.5 -14.5t-13.5 -39.5t13.5 -40t35.5 -15z" />
    <glyph glyph-name="Iacute.small" horiz-adv-x="245" 
d="M82 566l58 147h83l-85 -147h-56zM86 0v530h73v-530h-73z" />
    <glyph glyph-name="Icircumflex.small" horiz-adv-x="245" 
d="M86 0v530h73v-530h-73zM-11 566l98 147h69l99 -147h-64l-69 100l-70 -100h-63z" />
    <glyph glyph-name="Aringacute.small" horiz-adv-x="495" 
d="M12 0l209 532q-34 6 -55.5 31t-21.5 62q0 40 25.5 65.5t66.5 28.5l48 125h86l-79 -133q59 -21 59 -86q0 -37 -21 -61.5t-55 -31.5l209 -532h-77l-49 129h-221l-47 -129h-77zM159 188h176l-53 144q-14 34 -34 94h-2q-23 -68 -34 -95zM198 625q0 -25 13.5 -40t35.5 -15
q23 0 36.5 15t13.5 40t-13.5 39.5t-36.5 14.5q-22 0 -35.5 -14.5t-13.5 -39.5z" />
    <glyph glyph-name="Itilde.small" horiz-adv-x="245" 
d="M-16 589v22q0 35 20 56t51 21q29 0 71 -24t57 -24q26 0 26 42h53v-22q0 -35 -20 -56t-51 -21q-29 0 -71 24t-57 24q-26 0 -26 -42h-53zM86 0v530h73v-530h-73z" />
    <glyph glyph-name="Idieresis.small" horiz-adv-x="245" 
d="M86 0v530h73v-530h-73zM33 588q-18 0 -30.5 12.5t-12.5 30.5q0 19 12.5 31.5t30.5 12.5t31 -12.5t13 -31.5q0 -18 -13 -30.5t-31 -12.5zM211 588q-18 0 -31 12.5t-13 30.5q0 19 13 31.5t31 12.5t30.5 -12.5t12.5 -31.5q0 -18 -12.5 -30.5t-30.5 -12.5z" />
    <glyph glyph-name="Imacron.small" horiz-adv-x="245" 
d="M-1 609v59h248v-59h-248zM86 0v530h73v-530h-73z" />
    <glyph glyph-name="Ibreve.small" horiz-adv-x="245" 
d="M194 701h53q-4 -56 -37.5 -89t-88.5 -33t-87.5 33t-36.5 89h53q12 -69 72 -69q62 0 72 69zM86 0v530h73v-530h-73z" />
    <glyph glyph-name="Iogonek.small" horiz-adv-x="245" 
d="M86 6v524h73v-530q-35 -23 -55.5 -54t-20.5 -61q0 -47 40 -47q13 0 37 7l10 -47q-35 -11 -61 -11q-44 0 -67.5 24t-23.5 63q0 68 68 132z" />
    <glyph glyph-name="IJ.small" horiz-adv-x="510" 
d="M86 0v530h73v-530h-73zM218 -120l13 60q19 -6 40 -6q46 0 62.5 26t16.5 77v493h73v-507q0 -152 -147 -152q-36 0 -58 9z" />
    <glyph glyph-name="Jcircumflex.small" horiz-adv-x="265" 
d="M-27 -120l13 60q19 -6 40 -6q46 0 62.5 26t16.5 77v493h73v-507q0 -152 -147 -152q-36 0 -58 9zM8 566l98 147h69l99 -147h-64l-69 100l-70 -100h-63z" />
    <glyph glyph-name="Kcommaaccent.small" horiz-adv-x="474" 
d="M86 0v530h73v-249h2l201 249h80l-216 -268l237 -262h-88l-214 236h-2v-236h-73zM195 -237l-20 48q71 20 71 71q0 29 -24 66h67q24 -30 24 -73q0 -86 -118 -112z" />
    <glyph glyph-name="Lacute.small" horiz-adv-x="376" 
d="M87 566l58 147h83l-85 -147h-56zM86 0v530h73v-469h209v-61h-282z" />
    <glyph glyph-name="Lcaron.small" horiz-adv-x="376" 
d="M86 0v530h73v-469h209v-61h-282zM234 376l36 195h75l-55 -195h-56z" />
    <glyph glyph-name="Lcommaaccent.small" horiz-adv-x="376" 
d="M86 0v530h73v-469h209v-61h-282zM165 -237l-20 48q71 20 71 71q0 29 -24 66h67q24 -30 24 -73q0 -86 -118 -112z" />
    <glyph glyph-name="Lslash.small" horiz-adv-x="376" 
d="M159 316l118 69v-67l-118 -70v-187h209v-61h-282v208l-50 -31v67l50 30v256h73v-214z" />
    <glyph glyph-name="Aogonek.small" horiz-adv-x="495" 
d="M12 0l210 534h51l210 -534q-51 -21 -83.5 -54t-32.5 -67q0 -41 39 -41q12 0 38 7l10 -47q-35 -11 -61 -11q-43 0 -67 23t-24 57q0 33 19 63t36.5 44.5t44.5 33.5l-45 121h-221l-47 -129h-77zM159 188h176l-53 144q-14 34 -34 94h-2q-23 -68 -34 -95z" />
    <glyph glyph-name="Ldot.small" horiz-adv-x="376" 
d="M310 232q-20 0 -34 15t-14 35t14 34.5t34 14.5q19 0 33 -14.5t14 -34.5t-14 -35t-33 -15zM86 0v530h73v-469h209v-61h-282z" />
    <glyph glyph-name="Nacute.small" horiz-adv-x="636" 
d="M282 566l58 147h83l-85 -147h-56zM476 112h2q-2 56 -2 115v303h73v-530h-63l-240 305q-57 71 -87 118h-1q1 -33 1 -115v-308h-73v530h68l235 -300q50 -62 87 -118z" />
    <glyph glyph-name="Ncaron.small" horiz-adv-x="636" 
d="M280 567l-98 147h64l70 -100l69 100h63l-99 -147h-69zM476 112h2q-2 56 -2 115v303h73v-530h-63l-240 305q-57 71 -87 118h-1q1 -33 1 -115v-308h-73v530h68l235 -300q50 -62 87 -118z" />
    <glyph glyph-name="Ntilde.small" horiz-adv-x="636" 
d="M179 589v22q0 35 20 56t51 21q30 0 72 -24t56 -24q26 0 26 42h53v-22q0 -35 -20 -56t-51 -21q-29 0 -71 24t-57 24q-26 0 -26 -42h-53zM476 112h2q-2 56 -2 115v303h73v-530h-63l-240 305q-57 71 -87 118h-1q1 -33 1 -115v-308h-73v530h68l235 -300q50 -62 87 -118z" />
    <glyph glyph-name="Ncommaaccent.small" horiz-adv-x="636" 
d="M476 112h2q-2 56 -2 115v303h73v-530h-63l-240 305q-57 71 -87 118h-1q1 -33 1 -115v-308h-73v530h68l235 -300q50 -62 87 -118zM256 -237l-20 48q71 20 71 71q0 29 -24 66h67q24 -30 24 -73q0 -86 -118 -112z" />
    <glyph glyph-name="Ograve.small" horiz-adv-x="620" 
d="M282 566l-86 147h87l58 -147h-59zM310 52q82 0 134.5 58.5t52.5 154.5t-52.5 154.5t-134.5 58.5t-134.5 -58.5t-52.5 -154.5t52.5 -154.5t134.5 -58.5zM310 540q113 0 188 -77.5t75 -197.5t-75 -197.5t-188 -77.5t-188 77.5t-75 197.5q0 121 75 198t188 77z" />
    <glyph glyph-name="Oacute.small" horiz-adv-x="620" 
d="M281 566l58 147h83l-85 -147h-56zM310 52q82 0 134.5 58.5t52.5 154.5t-52.5 154.5t-134.5 58.5t-134.5 -58.5t-52.5 -154.5t52.5 -154.5t134.5 -58.5zM310 540q113 0 188 -77.5t75 -197.5t-75 -197.5t-188 -77.5t-188 77.5t-75 197.5q0 121 75 198t188 77z" />
    <glyph glyph-name="Ocircumflex.small" horiz-adv-x="620" 
d="M310 52q82 0 134.5 58.5t52.5 154.5t-52.5 154.5t-134.5 58.5t-134.5 -58.5t-52.5 -154.5t52.5 -154.5t134.5 -58.5zM310 540q113 0 188 -77.5t75 -197.5t-75 -197.5t-188 -77.5t-188 77.5t-75 197.5q0 121 75 198t188 77zM176 566l98 147h69l99 -147h-64l-69 100
l-70 -100h-63z" />
    <glyph glyph-name="Otilde.small" horiz-adv-x="620" 
d="M169 589v22q0 35 20 56t51 21q30 0 72 -24t56 -24q26 0 26 42h53v-22q0 -35 -20 -56t-51 -21q-29 0 -71 24t-57 24q-26 0 -26 -42h-53zM310 52q82 0 134.5 58.5t52.5 154.5t-52.5 154.5t-134.5 58.5t-134.5 -58.5t-52.5 -154.5t52.5 -154.5t134.5 -58.5zM310 540
q113 0 188 -77.5t75 -197.5t-75 -197.5t-188 -77.5t-188 77.5t-75 197.5q0 121 75 198t188 77z" />
    <glyph glyph-name="Odieresis.small" horiz-adv-x="620" 
d="M310 52q82 0 134.5 58.5t52.5 154.5t-52.5 154.5t-134.5 58.5t-134.5 -58.5t-52.5 -154.5t52.5 -154.5t134.5 -58.5zM310 540q113 0 188 -77.5t75 -197.5t-75 -197.5t-188 -77.5t-188 77.5t-75 197.5q0 121 75 198t188 77zM219 588q-18 0 -30.5 12.5t-12.5 30.5
q0 19 12.5 31.5t30.5 12.5t31 -12.5t13 -31.5q0 -18 -13 -30.5t-31 -12.5zM397 588q-18 0 -31 12.5t-13 30.5q0 19 13 31.5t31 12.5t30.5 -12.5t12.5 -31.5q0 -18 -12.5 -30.5t-30.5 -12.5z" />
    <glyph glyph-name="Omacron.small" horiz-adv-x="620" 
d="M186 609v59h248v-59h-248zM310 52q82 0 134.5 58.5t52.5 154.5t-52.5 154.5t-134.5 58.5t-134.5 -58.5t-52.5 -154.5t52.5 -154.5t134.5 -58.5zM310 540q113 0 188 -77.5t75 -197.5t-75 -197.5t-188 -77.5t-188 77.5t-75 197.5q0 121 75 198t188 77z" />
    <glyph glyph-name="Obreve.small" horiz-adv-x="620" 
d="M379 701h53q-4 -56 -37.5 -89t-88.5 -33t-87.5 33t-36.5 89h53q12 -69 72 -69q62 0 72 69zM310 52q82 0 134.5 58.5t52.5 154.5t-52.5 154.5t-134.5 58.5t-134.5 -58.5t-52.5 -154.5t52.5 -154.5t134.5 -58.5zM310 540q113 0 188 -77.5t75 -197.5t-75 -197.5t-188 -77.5
t-188 77.5t-75 197.5q0 121 75 198t188 77z" />
    <glyph glyph-name="Ohungarumlaut.small" horiz-adv-x="620" 
d="M310 52q82 0 134.5 58.5t52.5 154.5t-52.5 154.5t-134.5 58.5t-134.5 -58.5t-52.5 -154.5t52.5 -154.5t134.5 -58.5zM310 540q113 0 188 -77.5t75 -197.5t-75 -197.5t-188 -77.5t-188 77.5t-75 197.5q0 121 75 198t188 77zM198 566l58 147h86l-86 -147h-58zM358 566
l58 147h86l-85 -147h-59z" />
    <glyph glyph-name="Oslash.small" horiz-adv-x="620" 
d="M62 9l53 65q-68 76 -68 191q0 121 75 198t188 77q87 0 153 -50l54 64l41 -33l-54 -65q69 -77 69 -191q0 -120 -75 -197.5t-188 -77.5q-88 0 -155 50l-52 -64zM123 265q0 -80 39 -135l259 309q-50 39 -111 39q-81 0 -134 -59t-53 -154zM310 52q80 0 133.5 59t53.5 154
q0 78 -40 134l-259 -309q49 -38 112 -38z" />
    <glyph glyph-name="Oslashacute.small" horiz-adv-x="620" 
d="M274 566l58 147h83l-85 -147h-56zM62 9l53 65q-68 76 -68 191q0 121 75 198t188 77q87 0 153 -50l54 64l41 -33l-54 -65q69 -77 69 -191q0 -120 -75 -197.5t-188 -77.5q-88 0 -155 50l-52 -64zM123 265q0 -80 39 -135l259 309q-50 39 -111 39q-81 0 -134 -59t-53 -154z
M310 52q80 0 133.5 59t53.5 154q0 78 -40 134l-259 -309q49 -38 112 -38z" />
    <glyph glyph-name="OE.small" horiz-adv-x="756" 
d="M692 0h-194q-38 0 -100 -3t-86 -3q-121 0 -193 76t-72 194q0 119 73 195.5t198 76.5q18 0 72.5 -3t95.5 -3h215l-24 -60h-203v-172h199v-60h-199v-178h218v-60zM401 62v406q-42 7 -81 7q-93 0 -145 -58.5t-52 -152.5t50.5 -151.5t144.5 -57.5q30 0 83 7z" />
    <glyph glyph-name="Racute.small" horiz-adv-x="480" 
d="M189 566l58 147h83l-85 -147h-56zM305 236v-2q26 -18 68 -84l93 -150h-82l-86 141q-36 60 -62 71h-77v-212h-73v530h140q94 0 138.5 -44t44.5 -109q0 -49 -26.5 -86.5t-77.5 -54.5zM159 272h75q47 0 74.5 27t27.5 72t-27.5 72t-80.5 27h-69v-198z" />
    <glyph glyph-name="Rcaron.small" horiz-adv-x="480" 
d="M196 567l-98 147h64l70 -100l69 100h63l-99 -147h-69zM305 236v-2q26 -18 68 -84l93 -150h-82l-86 141q-36 60 -62 71h-77v-212h-73v530h140q94 0 138.5 -44t44.5 -109q0 -49 -26.5 -86.5t-77.5 -54.5zM159 272h75q47 0 74.5 27t27.5 72t-27.5 72t-80.5 27h-69v-198z" />
    <glyph glyph-name="Rcommaaccent.small" horiz-adv-x="480" 
d="M305 236v-2q26 -18 68 -84l93 -150h-82l-86 141q-36 60 -62 71h-77v-212h-73v530h140q94 0 138.5 -44t44.5 -109q0 -49 -26.5 -86.5t-77.5 -54.5zM159 272h75q47 0 74.5 27t27.5 72t-27.5 72t-80.5 27h-69v-198zM193 -237l-20 48q71 20 71 71q0 29 -24 66h67
q24 -30 24 -73q0 -86 -118 -112z" />
    <glyph glyph-name="Sacute.small" horiz-adv-x="414" 
d="M189 566l58 147h83l-85 -147h-56zM44 27l26 56q55 -32 117 -32q44 0 76.5 22t32.5 64q0 31 -17.5 54t-43.5 35.5l-56.5 28t-56.5 31.5t-43.5 45t-17.5 69q0 61 43.5 100.5t118.5 39.5q69 0 123 -25v-64q-58 28 -118 28q-38 0 -65 -18.5t-27 -55.5q0 -33 24.5 -55.5
t59 -37.5t69 -32.5t59 -51.5t24.5 -84q0 -73 -52 -113.5t-130 -40.5q-84 0 -146 37z" />
    <glyph glyph-name="Scircumflex.small" horiz-adv-x="414" 
d="M44 27l26 56q55 -32 117 -32q44 0 76.5 22t32.5 64q0 31 -17.5 54t-43.5 35.5l-56.5 28t-56.5 31.5t-43.5 45t-17.5 69q0 61 43.5 100.5t118.5 39.5q69 0 123 -25v-64q-58 28 -118 28q-38 0 -65 -18.5t-27 -55.5q0 -33 24.5 -55.5t59 -37.5t69 -32.5t59 -51.5t24.5 -84
q0 -73 -52 -113.5t-130 -40.5q-84 0 -146 37zM77 566l98 147h69l99 -147h-64l-69 100l-70 -100h-63z" />
    <glyph glyph-name="Scaron.small" horiz-adv-x="414" 
d="M179 567l-98 147h64l70 -100l69 100h63l-99 -147h-69zM44 27l26 56q55 -32 117 -32q44 0 76.5 22t32.5 64q0 31 -17.5 54t-43.5 35.5l-56.5 28t-56.5 31.5t-43.5 45t-17.5 69q0 61 43.5 100.5t118.5 39.5q69 0 123 -25v-64q-58 28 -118 28q-38 0 -65 -18.5t-27 -55.5
q0 -33 24.5 -55.5t59 -37.5t69 -32.5t59 -51.5t24.5 -84q0 -73 -52 -113.5t-130 -40.5q-84 0 -146 37z" />
    <glyph glyph-name="Scedilla.small" horiz-adv-x="414" 
d="M103 -200l13 43q23 -10 50 -10q53 0 53 39q0 17 -13.5 26t-29 10.5t-42.5 1.5l25 82q-67 6 -115 35l26 56q55 -32 117 -32q44 0 76.5 22t32.5 64q0 31 -17.5 54t-43.5 35.5l-56.5 28t-56.5 31.5t-43.5 45t-17.5 69q0 61 43.5 100.5t118.5 39.5q69 0 123 -25v-64
q-58 28 -118 28q-38 0 -65 -18.5t-27 -55.5q0 -33 24.5 -55.5t59 -37.5t69 -32.5t59 -51.5t24.5 -84q0 -66 -43 -105.5t-111 -46.5l-14 -46q81 -6 81 -72q0 -40 -31.5 -63t-84.5 -23q-38 0 -66 12z" />
    <glyph glyph-name="Scommaaccent.small" horiz-adv-x="414" 
d="M44 27l26 56q55 -32 117 -32q44 0 76.5 22t32.5 64q0 31 -17.5 54t-43.5 35.5l-56.5 28t-56.5 31.5t-43.5 45t-17.5 69q0 61 43.5 100.5t118.5 39.5q69 0 123 -25v-64q-58 28 -118 28q-38 0 -65 -18.5t-27 -55.5q0 -33 24.5 -55.5t59 -37.5t69 -32.5t59 -51.5t24.5 -84
q0 -73 -52 -113.5t-130 -40.5q-84 0 -146 37zM143 -237l-20 48q71 20 71 71q0 29 -24 66h67q24 -30 24 -73q0 -86 -118 -112z" />
    <glyph glyph-name="Tcaron.small" horiz-adv-x="430" 
d="M182 567l-98 147h64l70 -100l69 100h63l-99 -147h-69zM180 0v469h-164v61h415l-24 -61h-154v-469h-73z" />
    <glyph glyph-name="Tcommaaccent.small" horiz-adv-x="430" 
d="M180 0v469h-164v61h415l-24 -61h-154v-469h-73zM155 -237l-20 48q71 20 71 71q0 29 -24 66h67q24 -30 24 -73q0 -86 -118 -112z" />
    <glyph glyph-name="Tbar.small" horiz-adv-x="430" 
d="M88 231v60h92v178h-164v61h415l-24 -61h-154v-178h93v-60h-93v-231h-73v231h-92z" />
    <glyph glyph-name="Ugrave.small" horiz-adv-x="586" 
d="M271 566l-86 147h87l58 -147h-59zM504 530v-335q0 -104 -58.5 -155t-155.5 -51q-95 0 -151.5 51t-56.5 154v336h73v-333q0 -75 36.5 -110.5t101.5 -35.5q64 0 101 36t37 110v333h73z" />
    <glyph glyph-name="Uacute.small" horiz-adv-x="586" 
d="M260 566l58 147h83l-85 -147h-56zM504 530v-335q0 -104 -58.5 -155t-155.5 -51q-95 0 -151.5 51t-56.5 154v336h73v-333q0 -75 36.5 -110.5t101.5 -35.5q64 0 101 36t37 110v333h73z" />
    <glyph glyph-name="Ucircumflex.small" horiz-adv-x="586" 
d="M504 530v-335q0 -104 -58.5 -155t-155.5 -51q-95 0 -151.5 51t-56.5 154v336h73v-333q0 -75 36.5 -110.5t101.5 -35.5q64 0 101 36t37 110v333h73zM162 566l98 147h69l99 -147h-64l-69 100l-70 -100h-63z" />
    <glyph glyph-name="Utilde.small" horiz-adv-x="586" 
d="M155 589v22q0 35 20 56t51 21q30 0 72 -24t56 -24q26 0 26 42h53v-22q0 -35 -20 -56t-51 -21q-29 0 -71 24t-57 24q-26 0 -26 -42h-53zM504 530v-335q0 -104 -58.5 -155t-155.5 -51q-95 0 -151.5 51t-56.5 154v336h73v-333q0 -75 36.5 -110.5t101.5 -35.5q64 0 101 36
t37 110v333h73z" />
    <glyph glyph-name="Udieresis.small" horiz-adv-x="586" 
d="M504 530v-335q0 -104 -58.5 -155t-155.5 -51q-95 0 -151.5 51t-56.5 154v336h73v-333q0 -75 36.5 -110.5t101.5 -35.5q64 0 101 36t37 110v333h73zM206 588q-18 0 -30.5 12.5t-12.5 30.5q0 19 12.5 31.5t30.5 12.5t31 -12.5t13 -31.5q0 -18 -13 -30.5t-31 -12.5zM384 588
q-18 0 -31 12.5t-13 30.5q0 19 13 31.5t31 12.5t30.5 -12.5t12.5 -31.5q0 -18 -12.5 -30.5t-30.5 -12.5z" />
    <glyph glyph-name="Umacron.small" horiz-adv-x="586" 
d="M169 609v59h248v-59h-248zM504 530v-335q0 -104 -58.5 -155t-155.5 -51q-95 0 -151.5 51t-56.5 154v336h73v-333q0 -75 36.5 -110.5t101.5 -35.5q64 0 101 36t37 110v333h73z" />
    <glyph glyph-name="Ubreve.small" horiz-adv-x="586" 
d="M366 701h53q-4 -56 -37.5 -89t-88.5 -33t-87.5 33t-36.5 89h53q12 -69 72 -69q62 0 72 69zM504 530v-335q0 -104 -58.5 -155t-155.5 -51q-95 0 -151.5 51t-56.5 154v336h73v-333q0 -75 36.5 -110.5t101.5 -35.5q64 0 101 36t37 110v333h73z" />
    </font>
</defs>
</svg>
