<?xml version="1.0" encoding="utf-8"?>
<!-- Generator: Adobe Illustrator 23.0.1, SVG Export Plug-In . SVG Version: 6.00 Build 0)  -->
<svg version="1.1" id="Layer_1" xmlns="http://www.w3.org/2000/svg" xmlns:xlink="http://www.w3.org/1999/xlink" x="0px" y="0px"
	 viewBox="0 0 100.1 97.1" style="enable-background:new 0 0 100.1 97.1;" xml:space="preserve">
<style type="text/css">
	.st0{display:none;fill:#FDFDFD;}
	.st1{fill:#FCE6B2;}
	.st2{fill:#132440;}
	.st3{fill:#FDE7B2;}
	.st4{fill:#FAFBFB;}
	.st5{fill:#11223F;}
</style>
<title>desw-(1)</title>
<path class="st0" d="M0,0.1c32.5,0,64.6,0,96.7-0.1c2.7,0,3.4,0.5,3.4,3.3C100,34.6,100,65.8,100,97.1H0V0.1z"/>
<path class="st1" d="M85.7,12.1c4.1,0.3,5.8,3.7,7.8,6.3c2.4,3.2,3.6,7.1,3.5,11.1c-0.1,14.5-0.2,29,0,43.5
	c0.2,9.9-7.4,18.3-16.6,21c-2.9,0.8-5.8,1.1-8.8,1.1c-12.7-0.1-25.3-0.1-38,0c-4,0-7.9-1-11.4-2.9c-1.5-0.8-2.9-1.6-3.3-3.4
	c1.4-1,3.1-1.3,4.8-0.9c13.6,1.7,27.2,0.6,40.8,0.7c10.1,0,18.6-3.5,22.9-13.6c1.4-3.4,2.1-7,2-10.7c0-11-0.1-21.9,0.1-32.9
	c0.1-5.3-1-10.6-3.3-15.4C85.7,14.7,85,13.5,85.7,12.1z"/>
<path class="st2" d="M85.7,12.1c4.3,6.3,5.4,13.4,5.2,20.9c-0.3,10.8,0,21.7-0.1,32.5c-0.1,11.1-6.2,19.7-15.9,23
	c-2.2,0.7-4.6,1-6.9,1c-13.8,0.1-27.6,0.1-41.5,0.1c-2.5-0.1-5-0.4-7.5-0.8c-2.6-1.5-5.3-2.6-7.5-4.7c-4.7-4.4-7.7-9.5-7.7-16.1
	c0-14,0.2-28,0-42c-0.1-10,9.1-21.6,21.8-21.8c14.3-0.1,28.7,0,43,0C75.5,4.1,80.8,7.7,85.7,12.1z"/>
<path class="st3" d="M73,7.4c10.4,3.8,14.9,10.1,15,20.9c0,12.5-0.3,24.9,0.1,37.4c0.3,11.5-8.8,21.1-20.3,21.4c-0.4,0-0.7,0-1.1,0
	c-13.3-0.3-26.6,0-39.9-0.1c-6.5,0-12-2.2-15.8-7.7c-1.9-3.9-2.7-8.2-2.5-12.5c0.2-11.1-0.1-22.3,0.1-33.4c0.2-9,3-16.9,10.9-22.3
	c4.3-3,8.9-3.4,13.7-3.5C46.4,7.5,59.7,7.8,73,7.4z"/>
<path class="st4" d="M73,7.4C71.5,8.7,69.8,8,68.2,8c-11.5,0.1-23,0-34.5,0C25.7,7.9,18.1,12,13.8,18.9c-2.5,3.9-3.8,8.5-3.8,13.2
	c-0.1,13,0,26-0.1,38.9c0,2.9,1.5,5.4,1,8.3c-3.6-3.4-4.7-8-4.7-12.6c-0.1-13.1-0.1-26.2,0-39.4C6.1,16.1,15.1,6.9,26.3,6.8
	c0.1,0,0.3,0,0.4,0c13.6,0.3,27.2,0,40.8,0.1C69.4,7,71.2,7.1,73,7.4z"/>
<path class="st5" d="M66.9,50c-0.2,1.7-1.6,3.1-3.4,3.1c-2,0.1-4,0.1-6,0.1c-6.2,0-5.4-0.6-5.5,5.7c0,1.8-0.1,3.7,0,5.5
	c0.1,2.1-1.1,3.3-2.9,3.3c-1.6,0.1-3-1-3.2-2.6c0-0.2,0-0.3,0-0.5c0-2.8-0.1-5.7,0-8.5c0.1-2.1-0.6-3.1-2.8-2.9c-1.7,0.1-3.3,0-5,0
	c-1,0-2,0-3,0c-2.1,0-3.8-1-3.8-3s1.6-3.2,3.7-3.2c2.5,0,5-0.1,7.5,0s3.7-0.6,3.5-3.3s0-5.3,0-8c-0.2-1.6,0.9-3,2.5-3.2
	c0.2,0,0.3,0,0.5,0c1.5-0.2,2.9,0.9,3.1,2.4c0,0.2,0,0.5,0,0.7c0,2.8,0.1,5.7,0,8.5c-0.1,2.2,0.8,3,3,2.9c2.8-0.1,5.7,0,8.5,0
	C65.4,47,66.4,48.1,66.9,50z"/>
</svg>
