<?xml version="1.0" encoding="utf-8"?>
<svg version="1.1" id="Layer_1" xmlns="http://www.w3.org/2000/svg" xmlns:xlink="http://www.w3.org/1999/xlink" x="0px" y="0px"
	 viewBox="0 0 18 18" width="18" height="18" style="enable-background:new 0 0 18 18;" xml:space="preserve">
<style type="text/css">
	.st0{display:none;fill:#FEFEFE;}
	.st1{fill:#525252;}
</style>
<path class="st0" d="M8.8,17.3c-2.7,0-5.4,0-8.2,0c-0.5,0-0.7-0.1-0.7-0.6C0,11.6,0,6.4,0,1.3c0-0.7,0.2-0.7,0.8-0.7
	c5.5,0,11,0,16.5,0c0.6,0,0.7,0.1,0.7,0.7c0,5.1,0,10.3,0,15.4c0,0.6-0.2,0.6-0.7,0.6C14.5,17.3,11.7,17.3,8.8,17.3z"/>
<path class="st1" d="M10,5.1c0.8,0,1.6,0,2.4,0c1,0,1.2,0.2,1.3,1.2c0,1.7,0,3.4,0,5c0,0.5-0.1,1-0.7,1c-0.7,0-0.8-0.5-0.8-1.1
	c0-0.8,0-1.7,0-2.5c0-0.2,0.2-0.6-0.2-0.6c-0.2-0.1-0.3,0.2-0.5,0.3c-1.6,1.6-3.2,3.2-4.8,4.8c-0.3,0.3-0.6,0.6-0.9,0.9
	c-0.3,0.3-0.7,0.3-1,0.1c-0.4-0.3-0.3-0.8-0.1-1.1c0.3-0.3,0.5-0.6,0.9-0.9c1.6-1.6,3.3-3.3,4.9-4.9c0.1-0.1,0.2-0.3,0.2-0.4
	c0-0.3-0.3-0.2-0.5-0.2c-0.7,0-1.5,0-2.2,0C7,6.6,6.5,6.3,6.6,5.7c0.1-0.8,0.7-0.6,1.2-0.6C8.5,5.1,9.3,5.1,10,5.1L10,5.1z"/>
</svg>
