<?xml version="1.0" encoding="utf-8"?>
<svg version="1.1" id="Layer_1" xmlns="http://www.w3.org/2000/svg" xmlns:xlink="http://www.w3.org/1999/xlink" x="0px" y="0px"
	 viewBox="0 0 120 112" width="18" height="18" style="enable-background:new 0 0 120 112;" xml:space="preserve">
<style type="text/css">
	.st0{display:none;fill:#FEFEFE;}
	.st1{fill:#2E2E2E;}
	.st2{fill:#2D2D2D;}
	.st3{fill:#FDFDFD;}
</style>
<title>filter-icon</title>
<ellipse class="st0" cx="60" cy="56" rx="84.9" ry="79.2"/>
<path class="st1" d="M78.3,30.8c2.4,0.1,4.6,1.5,5.5,3.8c0.7,1.4,1.4,1.9,2.9,1.7c1.2-0.1,2.4-0.1,3.6,0c0.8,0,1.5,0.3,1.5,1.2
	c0.1,1-0.7,1.4-1.6,1.5c-1.2,0.1-2.4,0.1-3.6,0c-1.4-0.1-2.2,0.3-3,1.7c-1.7,3.4-5.2,4.6-8.5,3.3c-1.6-0.5-2.8-1.7-3.5-3.3
	c-0.6-1.4-1.5-1.8-3-1.7c-1.8,0.1-3.7,0.1-5.5,0c-0.5,0.1-1.1,0-1.6-0.1c-0.7-0.2-1.4-0.6-1.3-1.5c0.1-0.7,0.7-1.1,1.4-1
	c2.1,0,4.2-0.1,6.3,0c1.7,0.1,3-0.2,3.8-2.1C72.9,31.9,75,30.8,78.3,30.8z"/>
<path class="st2" d="M84.5,55.5c-1.5,0-3.1,0.1-4.6,0c-1.4-0.1-2.2,0.3-2.9,1.7c-1.2,2.6-3.5,3.9-6.4,3.7c-2.4,0-4.5-1.4-5.5-3.4
	c-0.7-1.4-1.3-2.4-3-2c-0.3,0.1-0.5,0-0.8-0.2c-0.5-0.2-0.9-0.7-0.8-1.3c0.1-0.5,0.3-0.9,0.8-1s1-0.2,1.6-0.2c1,0.1,1.4-0.3,1.8-1.3
	c1-2.6,3.4-4.2,6.2-4.2c3-0.1,5.2,1.4,6.4,4.2c0.4,1.1,1.1,1.2,2.1,1.2c3.3,0,6.6,0,9.8,0c1.9,0,2.8,0.5,2.6,1.5
	c-0.3,1.5-1.6,1.1-2.7,1.2C87.6,55.5,86,55.5,84.5,55.5z"/>
<path class="st3" d="M77.8,41.7c-2.3,0-4.2-1.8-4.2-4.1c-0.1-2.2,1.6-4,3.8-4c0,0,0,0,0.1,0c2.5-0.1,4.2,1.4,4.3,3.9
	C81.8,39.7,80.1,41.6,77.8,41.7L77.8,41.7z"/>
<path class="st3" d="M70.9,50c2.3,0.1,4.1,1.9,4,4.2v0.1c-0.1,2.2-1.9,4.1-4.2,4c-2.2-0.1-4.1-1.9-4-4.2l0,0
	C66.8,51.9,68.6,50,70.9,50C70.9,50,70.9,50,70.9,50z"/>
</svg>
