<svg id="Capa_1" data-name="Capa 1" xmlns="http://www.w3.org/2000/svg" viewBox="0 0 18 18"  width="18" height="18"><path d="M237.29,198.31a4.68,4.68,0,0,0-7.2,0l-.32.36-.32-.36a4.68,4.68,0,0,0-7-.27l-.25.27a6.29,6.29,0,0,0,0,8.08l7.06,8a.61.61,0,0,0,.91,0l0,0,7.06-8A6.27,6.27,0,0,0,237.29,198.31Zm-.93,7.13h0l-6.59,7.48-6.6-7.48a4.81,4.81,0,0,1,0-6.18,3.47,3.47,0,0,1,5.14-.22l.21.22.78.89a.63.63,0,0,0,.94,0l.78-.89a3.47,3.47,0,0,1,5.14-.22l.2.22A4.75,4.75,0,0,1,236.36,205.44Z" transform="translate(-220.77 -196.62)"/></svg>