<?xml version="1.0" encoding="utf-8"?>
<svg version="1.1" id="Layer_1" xmlns="http://www.w3.org/2000/svg" xmlns:xlink="http://www.w3.org/1999/xlink" x="0px" y="0px"
	 viewBox="0 0 18 18" style="enable-background:new 0 0 18 18;" xml:space="preserve" width="18" height="18">
<style type="text/css">
	.st0{display:none;fill:#FFFFFF;}
</style>
<path class="st0" d="M18,17.9H0V0.1h18V17.9z M14.9,8.4L14.9,8.4c0-0.9,0-1.9,0-2.8c0-0.2,0-0.3-0.1-0.5c-0.1-0.2-0.2-0.4-0.5-0.4
	c-0.3-0.1-0.6-0.1-1,0c-0.2,0-0.4,0.1-0.5,0.3c-0.1,0.2-0.2,0.4-0.1,0.6c0,1.8,0,3.6,0,5.4c0,0.1,0,0.3,0,0.4c0,0.5,0.3,0.8,0.8,0.8
	c0.2,0,0.3,0,0.5,0c0.5,0,0.8-0.3,0.8-0.8C14.9,10.3,14.9,9.3,14.9,8.4z M11.6,9.2L11.6,9.2c0-0.6,0-1.3,0-1.9c0-0.1,0-0.3,0-0.4
	c-0.1-0.4-0.3-0.6-0.7-0.6c-0.2,0-0.4,0-0.6,0C9.8,6.2,9.5,6.5,9.5,7c0,1.4,0,2.8,0,4.2c0,0.1,0,0.2,0,0.3c0,0.3,0.3,0.5,0.6,0.6
	c0.3,0,0.6,0,0.9,0c0.1,0,0.2,0,0.3-0.1c0.2-0.2,0.3-0.4,0.3-0.6C11.6,10.6,11.6,9.9,11.6,9.2z M8.3,9.9L8.3,9.9c0-0.2,0-0.5,0-0.7
	s0-0.5,0-0.8C8.3,8.2,8.2,8,8,8C7.9,7.9,7.7,7.9,7.6,7.9c-0.2,0-0.4,0-0.5,0c-0.5,0-0.8,0.3-0.8,0.8c0,0.8,0,1.7,0,2.5
	c0,0.1,0,0.2,0,0.4c0.1,0.3,0.3,0.5,0.6,0.5c0.3,0,0.6,0,0.8,0c0.3,0,0.7-0.3,0.6-0.7C8.3,10.9,8.3,10.4,8.3,9.9z M5.1,10.7
	L5.1,10.7c0-0.1,0-0.2,0-0.4s0-0.3,0-0.4c0-0.3-0.2-0.6-0.5-0.6c-0.3-0.1-0.7-0.1-1,0C3.2,9.4,3,9.5,3,9.7c-0.1,0.5-0.1,1.1,0,1.6
	c0,0.1,0,0.2,0.1,0.3c0.1,0.2,0.3,0.4,0.5,0.4c0.2,0,0.5,0,0.7,0c0.4,0,0.8-0.3,0.8-0.7C5.1,11.1,5.1,10.9,5.1,10.7z"/>
<path d="M14.9,8.4c0,1,0,1.9,0,2.9c0,0.6-0.3,0.8-0.8,0.8c-0.2,0-0.3,0-0.5,0c-0.5,0-0.7-0.3-0.8-0.8c0-0.1,0-0.3,0-0.4
	c0-1.8,0-3.6,0-5.4c0-0.2,0-0.4,0.1-0.6c0.1-0.2,0.3-0.3,0.5-0.3c0.3,0,0.7,0,1,0c0.3,0,0.4,0.2,0.5,0.4c0,0.2,0.1,0.3,0.1,0.5
	C14.9,6.5,14.9,7.4,14.9,8.4L14.9,8.4z"/>
<path d="M11.6,9.2c0,0.7,0,1.4,0,2.1c0,0.3-0.1,0.5-0.3,0.6C11.2,12,11.1,12,11,12.1c-0.3,0-0.6,0-0.9,0c-0.3,0-0.6-0.2-0.6-0.6
	c0-0.1,0-0.2,0-0.3c0-1.4,0-2.8,0-4.2c0-0.5,0.2-0.7,0.7-0.7c0.2,0,0.4,0,0.6,0c0.4,0,0.6,0.2,0.7,0.6c0,0.1,0,0.3,0,0.4
	C11.6,7.9,11.6,8.5,11.6,9.2L11.6,9.2z"/>
<path d="M8.3,9.9c0,0.5,0,1,0,1.4c0,0.4-0.3,0.7-0.6,0.7c-0.3,0-0.6,0-0.8,0c-0.3,0-0.5-0.2-0.6-0.5c0-0.1,0-0.2,0-0.4
	c0-0.8,0-1.7,0-2.5c0-0.6,0.3-0.8,0.8-0.8c0.2,0,0.4,0,0.5,0c0.1,0,0.3,0,0.4,0.1C8.2,8,8.3,8.2,8.3,8.4c0,0.3,0,0.5,0,0.8
	C8.3,9.5,8.3,9.7,8.3,9.9L8.3,9.9z"/>
<path d="M5.1,10.7c0,0.2,0,0.4,0,0.7c0,0.4-0.4,0.8-0.8,0.7c-0.2,0-0.5,0-0.7,0c-0.3,0-0.4-0.2-0.5-0.4C3,11.6,3,11.5,3,11.4
	c0-0.6-0.1-1.1,0-1.6c0-0.3,0.2-0.4,0.5-0.4c0.3-0.1,0.7-0.1,1,0c0.3,0,0.5,0.3,0.5,0.6c0,0.1,0,0.3,0,0.4
	C5.1,10.4,5.1,10.6,5.1,10.7L5.1,10.7z"/>
</svg>
