<?xml version="1.0" encoding="utf-8"?>
<!-- Generator: Adobe Illustrator 23.0.1, SVG Export Plug-In . SVG Version: 6.00 Build 0)  -->
<svg version="1.1" id="Layer_1" xmlns="http://www.w3.org/2000/svg" xmlns:xlink="http://www.w3.org/1999/xlink" x="0px" y="0px"
	 viewBox="0 0 161 103" style="enable-background:new 0 0 161 103;" xml:space="preserve">
<style type="text/css">
	.st0{display:none;fill:#FEFEFE;}
	.st1{fill:#F9CDC1;}
	.st2{fill:#FACDC1;}
	.st3{fill:#FDFDFD;}
	.st4{fill:#FEFEFE;}
	.st5{fill:#F6CBC0;}
	.st6{fill:#FACEC2;}
	.st7{fill:#FAFAFA;}
	.st8{fill:#F1C8BD;}
	.st9{fill:#F0F0F0;}
	.st10{fill:#FBFAFA;}
	.st11{fill:#F7F6F6;}
	.st12{fill:#DDDCDC;}
	.st13{fill:#D8D0CE;}
	.st14{fill:#F7F7F7;}
	.st15{fill:#E5E5E5;}
	.st16{fill:#CFCFCF;}
	.st17{fill:#E0D4D1;}
	.st18{fill:#DEDCDC;}
	.st19{fill:#D3CECE;}
	.st20{fill:#D9D6D6;}
	.st21{fill:#F6F5F5;}
	.st22{display:none;fill:#CAC0BE;}
	.st23{display:none;fill:#C7C3C3;}
	.st24{fill:#C8C4C4;}
	.st25{fill:#E1DAD9;}
	.st26{fill:#CFCBCB;}
	.st27{fill:#D4C4C2;}
	.st28{fill:#C7C3C3;}
	.st29{fill:#CBC5C4;}
	.st30{display:none;fill:#F0ECEA;}
	.st31{display:none;fill:#DBD4D3;}
	.st32{display:none;fill:#D4C4C2;}
	.st33{fill:#CAC0BE;}
	.st34{display:none;fill:#D9D6D6;}
	.st35{display:none;fill:#CBC5C4;}
	.st36{fill:#DBD4D3;}
	.st37{fill:#D2CCCC;}
	.st38{fill:#504B4D;}
	.st39{fill:#635F61;}
	.st40{fill:#F7F8F5;}
	.st41{fill:#F4F4F4;}
	.st42{fill:#F7F3F2;}
	.st43{fill:#F8F8F8;}
</style>
<title>resting</title>
<ellipse class="st0" cx="80.5" cy="51.5" rx="113.8" ry="72.8"/>
<path d="M135,31.8c2,4.7,1.3,9.4,0.2,14.1s0.4,7.1,5.2,7.7c4.3,0.6,6.7,2.9,6.7,6.6s-2.7,6.2-6.8,6.6c-1.7,0.1-3.4,0.1-5.1,0
	c-4.3,10.2-11.4,16.8-22.7,17.5c-1.1,6.7-1.1,6.7-7.6,6.7H57.3c-6.8,0-6.8,0-7.6-6.6c-10.3-0.8-17.6-5.9-21.8-15.4
	c-1-2.2-2.6-2.2-4.5-2.1c-2.8,0.1-5.3-0.5-7.2-2.8c-3.2-4.1-0.7-9.6,4.7-10.4c5.8-0.9,7-2.9,5.6-8.5C24.2,35.9,29,30.4,38,32.3
	c1.2,0.4,2.6,0,3.5-0.9c19.9-16.7,41.7-19.8,65.5-9.3c0.3,0.1,0.7,0.2,1,0.2c3.7,0.4,6.3,2.8,9.1,4.8c4.4,3.2,8.8,6.1,14.6,4
	C132.9,30.7,134.1,31,135,31.8z"/>
<path class="st1" d="M135,31.8c-3-0.7-5.4,0.7-7.3,2.1c-7.9-2.2-13.3-7.7-19.8-11.6c8.1-3.1,16.8-4.5,25.5-4c4.3,0.3,5.5,3,3.9,7.1
	C136.5,27.5,134.9,29.3,135,31.8z"/>
<path class="st2" d="M117,78.9c-1.5,0.8-3.1,1.1-4.8,1L69,79.8c-5-2.8-8.5-6.8-8.9-12.8c21.3-0.3,42.7-0.4,64,0
	C124.7,72.8,121.1,76,117,78.9z"/>
<path class="st3" d="M47.6,31.7C59.6,23.1,73,19.1,87.8,20.9c3.5,0.4,6.9,1.2,10.2,2.3c0.6,0.6,0.5,1.6-0.1,2.2
	c-0.1,0.1-0.3,0.2-0.5,0.3c-7,3-13.8,6.5-21.2,8.2c-5.2-3.1-14-3.1-19.5,0.2c-2.5-2.5-5.8-2.6-9.3-2.5L47.6,31.7z"/>
<path class="st4" d="M60,67c2,4.9,5.3,9,8.9,12.8c-6.5,0-12.9,0.3-19.4,0C41.3,79.5,35.5,75,32.3,67H60z"/>
<path class="st2" d="M126,61.9c-22.4,0.4-44.7,0.4-67.1,0c-1.6-0.9-2.2-2.1-1-3.7h69C128.3,59.8,127,60.9,126,61.9z"/>
<path class="st5" d="M76.2,33.9C82,30.7,88,28.1,94.3,26c1.5-0.5,3.3-0.7,3.7-2.8c4.3,1.2,8.4,3.2,12,5.8c0.4,0.3,0.5,0.8,0.5,1.3
	c-0.5,1.2-1.5,1.1-2.4,1.1c-1.7,0.1-3.3-0.2-5,0.3c-3.7,1-8-1.4-10.9,2.4c-0.9-0.6-1.8-1.2-2.8-1.7c-4.3-2-6-0.9-6.2,3.9
	c0,1,0,2,0,3c-0.1,1.4-0.1,2.8-2,2.9s-2.2-1-2.4-2.4C78.4,37.6,77.5,35.6,76.2,33.9z"/>
<path class="st3" d="M58,58.2c-0.1,1.3,0.3,2.6,1,3.7l-36.3,0.3c-1.6,0-3.3-0.1-3.2-2.1s1.6-2.1,3.2-2.1
	C34.5,58.1,46.2,58.1,58,58.2z"/>
<path class="st6" d="M55,84.9c0.7-1.4,2.1-0.8,3.1-0.8c15.3,0,30.5,0,45.8,0.1c1.2,0,2.7-0.6,3.5,1c0,0.8-0.7,1.4-1.5,1.4
	c-0.1,0-0.1,0-0.2,0c-16.3,0-32.5,0-48.8,0c-0.6-0.1-1.2-0.3-1.8-0.6c2.7-1,5.4-0.3,8.1-0.5c0.8-0.2,1.8,0.4,2.5-0.5
	c0.6-0.2-0.1-0.1-0.2,0c-0.6,1-1.7,0.2-2.5,0.5C60.4,85.2,57.6,86.1,55,84.9z"/>
<path class="st4" d="M104.5,50.2c-2.6-3.7-3.4-6.1-3.6-8.8c-0.2-2.4,0.6-4.3,2.9-5.1c1.9-0.7,3.9-0.2,4.7,1.6c1,2.1,2.5,4.4,0.2,6.8
	C107.2,46.4,105.8,48.3,104.5,50.2z"/>
<path class="st7" d="M33.8,49.5c-2.7-2.7-3-5.4-3.5-8c-0.5-2.2,0.6-4.4,2.7-5.2c1.7-0.9,3.8-0.4,4.9,1.2c1.3,2,2.4,4.5,0.6,6.8
	C37.2,46.1,35.5,47.6,33.8,49.5z"/>
<path class="st8" d="M71,36.2c6.1,5,4.5,8-2.6,12.9c-2.1-2.5-3-5.8-2.6-9.1c0.7-0.5,1.3-1.1,2-1.7C68.7,37.3,70,37,71,36.2z"/>
<path class="st9" d="M61,37.1c0.5,4.5-0.1,8.4-2.8,12.2c-3.9-3.2-8-6-5.6-12c2.8,0.5,1,4.8,4,4.9C59.8,42.3,58.2,38.2,61,37.1z"/>
<path class="st10" d="M126,61.9l1-3.8c4.2-0.1,8.3-0.1,12.5-0.2c1.7,0,3.1,0.5,3,2.4c-0.1,1.6-1.6,1.9-3,1.8
	C135,62.1,130.5,62,126,61.9z"/>
<path class="st11" d="M117,78.9c2.7-3.7,6-7.1,7-11.8l6.1-0.3C127.3,73.1,123.4,77.3,117,78.9z"/>
<path class="st12" d="M128.9,41.8c0.6-1.6,0.3-3.6,2.8-4.9c0.2,4.6-0.4,8.5-3.1,12.3c-2.2-1.7-4.2-3.7-5.8-6c-0.3-0.5-0.3-1,0-1.5
	L123,38c0.3-0.3,0.7-0.3,1,0c0,0,0,0,0,0l0,0c0.5,0.5,0.4,1.4,0.8,2l1.2,2.2C127.1,42.6,128.1,42.9,128.9,41.8z"/>
<path class="st13" d="M108,31c0.8,0.1,1.6-0.3,2-1c0.3-0.3,0.8-0.3,1.1-0.1l0-0.1c0.2,0.6,0.8,1,1.4,1c0.2-0.1,0.4,0,0.5,0.2
	c0,0,0,0.1,0,0.1l1.1,0.8l0,0c0.3,0.4,0.7,0.8,1.2,1l-0.1-0.1c0.2,0.6,0.7,1,1.3,1c0.8,0.3,1.5,0.9,1.8,1.7c0.5,1.5,0.5,3.2,0,4.7
	c0,1.8-1.2,2.3-2.5,1.9c-2-0.6-1.6-2.5-1.6-4c-0.5-0.6-0.3-1.5-0.9-2.1l-1.2-1.7c-0.1-0.6-0.7-1.1-1.3-1.1c-0.3,0.1-0.5-0.1-0.6-0.3
	c0,0,0,0,0,0c-0.4-0.2-0.8-0.5-1.1-0.7h-0.5l-0.4-0.2c-0.3-0.2-0.5-0.4-0.3-0.5S107.9,31,108,31z"/>
<path class="st14" d="M47.4,31.6c1.2,2.6,0.4,5.4,0.5,8.1c0.2,1.2-0.7,2.3-1.8,2.4c0,0,0,0-0.1,0c-1.8,0.3-2-1-2.6-2.2
	c-2.1-4.6,2-5.9,4.1-8.3L47.4,31.6z"/>
<path class="st15" d="M48.2,46.6l6.3,6.2c-1.8,1.4-4,0.8-6.3,0.6V46.6z"/>
<path class="st16" d="M42.9,45.7c0.8,2.3,1,4.8,0.6,7.2c-2,1.4-4,0.8-6.5,0.3C37.9,49.9,40.9,48.8,42.9,45.7z"/>
<path class="st17" d="M122.3,49.9c1.2,0.6,2.2,1.6,2.6,2.9c-1.8,1.3-3.8,0.5-5.8,0.7c-0.9-2-1-4.3-0.1-6.3
	C119.7,48.6,120.9,49.5,122.3,49.9z"/>
<path class="st10" d="M113.7,47.1c0.4,1.9,0.4,3.9,0,5.9c-1.8,0.9-3.8,0.9-5.6,0l0,0c-0.2-0.1-0.3-0.4-0.3-0.6
	c0.1-0.2,0.1-0.3,0.2-0.3l0,0c0.4-0.3,0.7-0.6,1-1l0,0c0.4-0.3,0.7-0.6,1-1l0,0c0.4-0.3,0.7-0.6,1-1l0,0c0.4-0.3,0.7-0.6,1-1l0,0
	l1-0.9l0,0L113.7,47.1z"/>
<path class="st3" d="M95.2,45.3c0.1,0.3,0,0.6-0.3,0.7c-0.5,0.5-0.3,1.5-1,1.9l0,0c-0.3,0.5-1,0.6-1.5,0.3c-0.1-0.1-0.2-0.2-0.3-0.3
	L92,47.8c-0.4-0.2-0.7-0.5-0.9-0.9L91,46.8c-0.4-0.2-0.7-0.5-0.9-0.9L90,45.8c-0.4-0.3-0.6-0.8-0.6-1.3c0-1.1,0.3-1.9,1.5-2.1
	c0.7,0,1.5,0,2.2,0c1.1-0.1,2,0.1,2.3,1.3C95.4,44.3,95.3,44.8,95.2,45.3z"/>
<path class="st18" d="M100.6,53c-1.3,1-2.6,0.2-3.8,0.6c-0.4-1.9,0.9-2.6,1.6-3.6C99.6,50.6,100.4,51.7,100.6,53z"/>
<path class="st19" d="M61.2,53.7c0.2-1.5,1-2.8,2.2-3.8c1,1,2,1.9,1.9,3.4C64.1,54,62.8,53.3,61.2,53.7z"/>
<path class="st20" d="M90.9,43.1c-0.8,0.4-0.9,1.1-0.9,1.9c-0.2,0.3-0.6,0.3-0.9,0.1c0,0-0.1-0.1-0.1-0.1l0,0c-0.4-0.3-0.7-0.6-1-1
	l0,0c-0.2-2-1.9-4.3,0.8-5.9c0.2,0.1,0.4,0.3,0.3,0.6c0,0,0,0,0,0c0.1,0.8,0.4,1.6,0.7,2.4l1.1,1.2c0.3,0.2,0.4,0.4,0.3,0.6
	S91,43.1,90.9,43.1z"/>
<path class="st0" d="M55,84.9l9,0.3v0.5L55.2,86C54.4,85.8,54.3,85.4,55,84.9z"/>
<path class="st20" d="M95,44c-0.4-0.7-1.2-1.1-1.9-0.9c-0.3-0.2-0.5-0.4-0.3-0.6s0.2-0.3,0.3-0.3l1.1-1.2c0.4-0.7,0.6-1.5,0.8-2.4
	c-0.1-0.2,0-0.5,0.2-0.6c0,0,0,0,0,0c2,0,1.3,1.3,1.1,2.3L95.8,44c-0.1,0.2-0.4,0.3-0.7,0.2C95.1,44.1,95,44.1,95,44z"/>
<path class="st21" d="M71,36.2c-0.1,1.9-1.8,2.1-3,2.8c-1.2,0.2-1.7-0.2-1.2-1.4C67.8,36,69.3,35.7,71,36.2z"/>
<path class="st22" d="M88.9,38c-1.4,1.8-0.6,3.9-0.8,5.9c-1.8-2.2-0.5-4.4-0.1-6.6c0.1-0.1,0.3-0.1,0.4,0
	C88.6,37.5,88.7,37.7,88.9,38z"/>
<path class="st23" d="M83.9,53.1c-1.7-2-0.5-4.1-0.7-6.1c1.2-0.5,1.7,0,2,0.8l-0.1,0.6c0.1,1.3,0,2.6-0.4,3.8
	C84.6,52.6,84.3,52.9,83.9,53.1z"/>
<path class="st24" d="M76.8,47.8c0.2-0.7,0.7-1,1.8-1.1c0.3,2.2,1.1,4.3-0.4,6.5l-0.5-0.4c-0.6-1.2-0.8-2.5-0.7-3.7
	C76.9,48.6,76.9,48.2,76.8,47.8z"/>
<path class="st25" d="M122.3,49.9c-2.1,0.4-3.5-0.1-3.3-2.6C121,47,121.4,48.8,122.3,49.9z"/>
<path class="st26" d="M108.1,52.9h5.6C112,54,109.8,54,108.1,52.9z"/>
<path class="st24" d="M78.1,53.1c-1.7,0.8-3.6,0.8-5.2,0c0.2-0.2,0.3-0.4,0.5-0.6c1.3-0.8,3-0.8,4.3,0.1L78.1,53.1z"/>
<path class="st27" d="M108,31c0,0.3,0,0.5,0,0.8l-5-0.1C104.5,30.3,106.3,31.1,108,31z"/>
<path class="st28" d="M89.1,53.1c-1.6,0.8-3.6,0.9-5.2,0.1l0.5-0.5c1.3-0.8,2.9-0.9,4.2-0.1L89.1,53.1z"/>
<path class="st29" d="M96.1,40.3c-0.2-0.8-0.2-1.8-1.1-2.3c0-0.6,0.5-1,0.9-0.8C97.2,38.1,96.7,39.3,96.1,40.3z"/>
<path class="st27" d="M118.1,40.3v-4.7C118.8,37.1,118.8,38.8,118.1,40.3z"/>
<path class="st30" d="M66.8,37.6L68,39c-0.4,0.8-1.3,1.2-2.2,1C65.6,39.1,66,38.1,66.8,37.6z"/>
<path class="st31" d="M128.9,41.8c-0.8,1.5-1.8,1.5-2.9,0.4L128.9,41.8z"/>
<path class="st32" d="M113.1,36c0.7,0.5,1.1,1.3,0.9,2.1C113.4,37.6,113,36.8,113.1,36z"/>
<path class="st33" d="M89.9,41c-0.7-0.5-1-1.5-0.7-2.4C90,39.2,90,40.1,89.9,41z"/>
<path class="st34" d="M94,47.9c-0.2-0.8,0.2-1.6,1-1.9C95.2,46.8,94.8,47.6,94,47.9z"/>
<path class="st29" d="M94.8,38.6c0.3,0.9,0,1.8-0.8,2.4C94,40.1,94,39.2,94.8,38.6z"/>
<path class="st35" d="M93,42.2v0.9h-2.1c0-0.3,0-0.6,0-0.9L93,42.2z"/>
<path class="st36" d="M124.8,40c-0.6-0.4-1-1.2-0.8-2C124.7,38.4,125.1,39.2,124.8,40z"/>
<path class="st20" d="M92.2,47.9l1.8,0c-0.2,0.3-0.4,0.9-0.6,1C92.7,49,92.2,48.5,92.2,47.9z"/>
<path class="st20" d="M90.2,45.9c0.5,0,0.9,0.4,0.9,0.9c-0.5,0-0.9-0.3-0.9-0.7C90.2,46.1,90.2,46,90.2,45.9z"/>
<path class="st28" d="M85.2,47.8l1,1l-0.5,0.4c-0.5-0.1-0.8-0.5-0.8-0.9C84.9,48.1,85.1,47.9,85.2,47.8z"/>
<path class="st27" d="M108.8,32l1.1,0.7L108.8,32z"/>
<path class="st26" d="M112,48c0,0.5-0.5,1-1,1C111,48.4,111.4,48,112,48z"/>
<path class="st24" d="M74.8,49.8l1-1l0.4,0.5c-0.1,0.4-0.5,0.8-0.9,0.9L74.8,49.8z"/>
<path class="st28" d="M86.2,48.8l1,1l-0.6,0.4c-0.4-0.1-0.8-0.5-0.8-1L86.2,48.8z"/>
<path class="st26" d="M111,49c0,0.5-0.5,1-1,1C110,49.4,110.4,49,111,49z"/>
<path class="st36" d="M124,38h-1c0.1-0.3,0.1-0.7,0.2-0.8C123.9,37.1,124,37.5,124,38z"/>
<path class="st24" d="M73.8,50.8l1-1l0.4,0.4c-0.1,0.5-0.4,0.8-0.8,1L73.8,50.8z"/>
<path class="st28" d="M87.2,49.8l1,1l-0.6,0.4c-0.4-0.1-0.8-0.5-0.8-1L87.2,49.8z"/>
<path class="st36" d="M122.9,41.8c0,0.5,0,1,0,1.5C122.2,42.8,122.2,42.3,122.9,41.8z"/>
<path class="st37" d="M88.1,44l1,1L88.1,44z"/>
<path class="st24" d="M72.8,51.8l1-1l0.4,0.4c0.1,0.5-0.3,1-0.8,1.1L72.8,51.8z"/>
<path class="st28" d="M88.2,50.8l1,1l-0.6,0.5c-0.5-0.1-0.9-0.6-0.8-1.1L88.2,50.8z"/>
<path class="st26" d="M109,51c0,0.5-0.5,1-1,1C108,51.4,108.4,51,109,51z"/>
<path class="st24" d="M72.9,53.1c-1.2-0.3-1-0.8-0.1-1.3c0.1,0.1,0.3,0.3,0.4,0.4l0.1,0.5L72.9,53.1z"/>
<path class="st28" d="M89.2,51.8c0.9,0.5,1,1-0.1,1.3c-0.1-0.1-0.3-0.3-0.4-0.4l0.1-0.5L89.2,51.8z"/>
<path class="st26" d="M108,52c0.1,0.3,0.1,0.6,0.1,0.9l-0.7-0.2L108,52z"/>
<polygon class="st38" points="30.3,53.5 30.6,53.4 30.5,53.6 "/>
<path class="st29" d="M95,44c0.3,0,0.6,0,0.8,0c0.2,0.5-0.1,1.1-0.6,1.3c0,0,0,0,0,0C95.1,44.9,95,44.4,95,44z"/>
<path class="st37" d="M89.1,45h1c0.1,0.3,0.1,0.6,0,0.9C89.5,45.9,89.1,45.5,89.1,45z"/>
<path class="st26" d="M110,50c0,0.5-0.5,1-1,1C109,50.4,109.4,50,110,50z"/>
<path class="st27" d="M111.1,29.9L110,30v-0.9C110.5,29,111,29.4,111.1,29.9z"/>
<path class="st26" d="M113.7,47.1l-0.3,0.1L113,47l0.4-0.7L113.7,47.1z"/>
<path class="st27" d="M112.5,30.8c-0.6,0-1.2-0.4-1.4-1L112.5,30.8z"/>
<path class="st20" d="M91.2,46.9c0.5,0,0.9,0.4,0.9,0.9c-0.5,0-0.9-0.3-0.9-0.7C91.1,47,91.1,47,91.2,46.9z"/>
<path class="st26" d="M113,47c-0.1,0.5-0.5,0.9-1,0.9c0-0.5,0.4-0.9,0.9-0.9C112.9,47,113,47,113,47z"/>
<path class="st27" d="M114.1,32l-1.1-0.8C113.6,31.1,113.9,31.4,114.1,32z"/>
<path class="st27" d="M115.2,32.9l-1.2-1C114.6,31.9,115.1,32.3,115.2,32.9z"/>
<path class="st27" d="M110.6,33.1c0.6,0,1.2,0.5,1.3,1.1L110.6,33.1z"/>
<path class="st24" d="M75.8,48.8l1-1c0.1,0.1,0.2,0.3,0.3,0.5c0,0.5-0.4,0.9-0.9,0.9c0,0-0.1,0-0.1,0L75.8,48.8z"/>
<path class="st27" d="M116.4,33.9c-0.6,0-1.1-0.4-1.3-1L116.4,33.9z"/>
<polygon class="st39" points="131.5,53.7 131.4,53.4 131.7,53.4 "/>
<path class="st40" d="M76.1,85.7h-7.1C71.3,84.9,73.7,84.9,76.1,85.7z"/>
<path class="st41" d="M63.9,85.7c0-0.2,0-0.4,0-0.5c0.8,0,1.6-0.3,2.3,0.3C65.5,86.1,64.7,85.8,63.9,85.7z"/>
<path class="st42" d="M116,39c0.1-0.5-0.3-1.2,0.6-1.2c0.1,0,0.2,0.8,0.3,1.2C116.7,39.3,116.3,39.3,116,39z"/>
<path class="st4" d="M116,39h1C116.6,39.8,116.3,39.8,116,39z"/>
<path class="st10" d="M88.8,52.2c0.1,0.2,0.1,0.3-0.1,0.5h-4.3c-0.1-1.5-0.8-3,0.5-4.3l1,0.9l1,1l1,1L88.8,52.2z"/>
<path class="st43" d="M76.2,49.2l1-0.9c1.4,1.3,0.7,2.9,0.5,4.4h-4.4c-0.2-0.1-0.2-0.3-0.1-0.5l1-1l1-1L76.2,49.2z"/>
</svg>
