<?xml version="1.0" encoding="utf-8"?>
<svg version="1.1" id="Layer_1" xmlns="http://www.w3.org/2000/svg" xmlns:xlink="http://www.w3.org/1999/xlink" x="0px" y="0px"
	 viewBox="0 0 114 123" width="18" height="18" style="enable-background:new 0 0 114 123;" xml:space="preserve">
<style type="text/css">
	.st0{display:none;fill:#FEFEFE;}
	.st1{fill:#323335;}
	.st2{display:none;fill:#FBFBFB;}
</style>
<title>search-icon</title>
<path class="st0" d="M0,0h114v123H0V0z M75.8,74c9.5-15.3,4.5-29-4.4-36.1c-9.5-7.5-24-6.8-33,1.6c-9,8.6-10.6,22.4-3.6,32.8
	c7.8,11.5,20.4,13.8,36.8,6.3c3.6,3.7,7.4,7.6,11.4,11.9l5.2-5.5L75.8,74z"/>
<path class="st1" d="M75.8,74l12.4,10.9L83,90.4c-4.1-4.2-7.8-8.1-11.4-11.9c-16.4,7.5-29,5.2-36.8-6.3c-7-10.3-5.4-24.2,3.6-32.8
	c9-8.4,23.5-9.1,33-1.6C80.3,45,85.3,58.6,75.8,74z M37.9,58c-0.1,9.8,7.8,17.9,17.6,18c0.1,0,0.2,0,0.3,0c9.9,0,18-8.1,18-18.1
	c0.1-9.9-7.9-17.9-17.8-18c-0.1,0-0.2,0-0.3,0C46,39.8,38,47.6,37.8,57.4C37.8,57.6,37.8,57.8,37.9,58L37.9,58z"/>
<path class="st2" d="M37.9,57.9c-0.2-9.8,7.6-17.8,17.3-18c0.2,0,0.4,0,0.6,0c9.9-0.1,18,7.8,18.1,17.7c0,0.1,0,0.2,0,0.3
	c0,9.9-8.1,18-18,18.1c-9.8,0.1-17.9-7.8-18-17.6C37.8,58.2,37.8,58.1,37.9,57.9z"/>
</svg>
