<?xml version="1.0" encoding="utf-8"?>
<!-- Generator: Adobe Illustrator 23.0.1, SVG Export Plug-In . SVG Version: 6.00 Build 0)  -->
<svg version="1.1" id="Layer_1" xmlns="http://www.w3.org/2000/svg" xmlns:xlink="http://www.w3.org/1999/xlink" x="0px" y="0px"
	 viewBox="0 0 150.2 116.3" style="enable-background:new 0 0 150.2 116.3;" xml:space="preserve" width="100px" height="100px">
<style type="text/css">
	.st0{display:none;fill:#241380;}
	.st1{fill:#FEFEFE;}
	.st2{fill:#271682;}
</style>
<path class="st0" d="M1.1,0.1c48.5,0,97,0,145.5-0.1c3,0,3.6,0.6,3.6,3.6c-0.1,37.2-0.1,74.3-0.1,111.5c-1.6,0.9-3.3,0.5-4.9,0.5
	c-46.3,0-92.6,0-139,0c-5.6,0-5.6,0-5.6-5.6c0-35,0-70,0-105C0.6,3.3,0.2,1.6,1.1,0.1z"/>
<path class="st1" d="M35.4,57.9c0.1-12.4,8-23.3,19.2-26.7c8.6-2.6,17.2-5,26-7c15.1-3.5,28.8,4.7,33.2,19.7
	c5,16.7,0.2,28.3-15.1,35.9c-1.4,0.6-2.4,1.8-2.7,3.2c-0.4,1.6-0.9,3.2-1.4,4.8C92.9,93,90.1,94,86.4,90c-4-4.3-7.8-4.9-13.5-3.3
	C54.6,92,40.1,82.5,36.2,63.5C35.8,61.4,35.6,59.2,35.4,57.9z"/>
<path class="st2" d="M62.5,54.1c-2.5,0.3-3.8,0-4.3-1.5c-0.5-1.3,0.2-2.8,1.5-3.3c0.2-0.1,0.3-0.1,0.5-0.1
	c8.4-2.3,16.9-4.6,25.4-6.9c1.4-0.4,2.8,0.4,3.2,1.8c0.7,1.8-0.4,2.9-2,3.4C78.4,49.8,69.9,52.1,62.5,54.1z"/>
<path class="st2" d="M65.4,68.6c-1.5,0.1-2.8-0.2-3.2-1.7c-0.5-1.3,0.1-2.8,1.5-3.3c0.2-0.1,0.4-0.1,0.5-0.1
	c8.3-2.3,16.6-4.4,24.9-6.6c1.6-0.4,3-0.1,3.7,1.6s-0.6,3-2,3.4C82.2,64.1,73.7,66.4,65.4,68.6z"/>
</svg>
